P3
60 40
255
87
87
87
92
92
92
95
95
95
99
99
99
102
102
102
107
107
107
113
113
113
113
113
113
110
110
110
111
111
111
114
114
114
120
120
120
123
123
123
128
128
128
135
135
135
133
133
133
129
129
129
129
129
129
118
118
118
111
111
111
109
109
109
109
109
109
109
109
109
103
103
103
100
100
100
100
100
100
100
100
100
100
100
100
102
102
102
103
103
103
104
104
104
103
103
103
96
96
96
94
94
94
92
92
92
88
88
88
80
80
80
73
73
73
76
76
76
79
79
79
82
82
82
89
89
89
94
94
94
97
97
97
109
109
109
120
120
120
124
124
124
119
119
119
114
114
114
108
108
108
101
101
101
98
98
98
96
96
96
93
93
93
91
91
91
89
89
89
86
86
86
83
83
83
75
75
75
69
69
69
89
89
89
94
94
94
97
97
97
100
100
100
102
102
102
106
106
106
115
115
115
124
124
124
122
122
122
124
124
124
122
122
122
123
123
123
125
125
125
125
125
125
126
126
126
131
131
131
134
134
134
129
129
129
117
117
117
107
107
107
102
102
102
100
100
100
101
101
101
98
98
98
95
95
95
92
92
92
95
95
95
98
98
98
99
99
99
100
100
100
101
101
101
100
100
100
94
94
94
86
86
86
84
84
84
81
81
81
74
74
74
72
72
72
77
77
77
82
82
82
89
89
89
98
98
98
102
102
102
104
104
104
108
108
108
112
112
112
113
113
113
107
107
107
103
103
103
98
98
98
94
94
94
92
92
92
90
90
90
89
89
89
86
86
86
85
85
85
82
82
82
76
76
76
72
72
72
65
65
65
88
88
88
94
94
94
98
98
98
99
99
99
100
100
100
104
104
104
110
110
110
121
121
121
125
125
125
126
126
126
126
126
126
123
123
123
126
126
126
129
129
129
130
130
130
132
132
132
134
134
134
129
129
129
116
116
116
107
107
107
101
101
101
97
97
97
95
95
95
91
91
91
87
87
87
84
84
84
86
86
86
89
89
89
92
92
92
95
95
95
95
95
95
96
96
96
89
89
89
80
80
80
80
80
80
75
75
75
74
74
74
76
76
76
81
81
81
87
87
87
96
96
96
100
100
100
102
102
102
101
101
101
102
102
102
100
100
100
97
97
97
95
95
95
89
89
89
88
88
88
86
86
86
83
83
83
82
82
82
79
79
79
78
78
78
77
77
77
74
74
74
68
68
68
63
63
63
57
57
57
87
87
87
92
92
92
95
95
95
96
96
96
98
98
98
100
100
100
100
100
100
105
105
105
111
111
111
118
118
118
121
121
121
119
119
119
120
120
120
121
121
121
118
118
118
121
121
121
126
126
126
120
120
120
112
112
112
103
103
103
98
98
98
90
90
90
86
86
86
83
83
83
79
79
79
73
73
73
70
70
70
75
75
75
81
81
81
86
86
86
88
88
88
89
89
89
86
86
86
81
81
81
81
81
81
84
84
84
84
84
84
86
86
86
90
90
90
96
96
96
99
99
99
100
100
100
100
100
100
96
96
96
93
93
93
89
89
89
88
88
88
85
85
85
82
82
82
80
80
80
74
74
74
76
76
76
75
75
75
71
71
71
69
69
69
64
64
64
59
59
59
51
51
51
46
46
46
44
44
44
87
87
87
92
92
92
92
92
92
92
92
92
93
93
93
96
96
96
95
95
95
98
98
98
103
103
103
111
111
111
113
113
113
113
113
113
113
113
113
114
114
114
114
114
114
110
110
110
108
108
108
109
109
109
105
105
105
101
101
101
94
94
94
86
86
86
80
80
80
78
78
78
77
77
77
69
69
69
64
64
64
65
65
65
73
73
73
80
80
80
81
81
81
82
82
82
81
81
81
81
81
81
80
80
80
82
82
82
81
81
81
82
82
82
89
89
89
95
95
95
100
100
100
101
101
101
98
98
98
93
93
93
88
88
88
86
86
86
82
82
82
76
76
76
72
72
72
69
69
69
66
66
66
68
68
68
67
67
67
65
65
65
61
61
61
55
55
55
51
51
51
45
45
45
45
45
45
47
47
47
85
85
85
88
88
88
88
88
88
89
89
89
89
89
89
91
91
91
91
91
91
94
94
94
95
95
95
100
100
100
106
106
106
111
111
111
107
107
107
105
105
105
108
108
108
108
108
108
108
108
108
110
110
110
113
113
113
102
102
102
94
94
94
86
86
86
82
82
82
80
80
80
81
81
81
75
75
75
66
66
66
62
62
62
64
64
64
66
66
66
72
72
72
76
76
76
77
77
77
74
74
74
74
74
74
69
69
69
66
66
66
67
67
67
73
73
73
83
83
83
90
90
90
94
94
94
94
94
94
91
91
91
93
93
93
92
92
92
86
86
86
78
78
78
73
73
73
69
69
69
66
66
66
65
65
65
67
67
67
64
64
64
60
60
60
55
55
55
54
54
54
52
52
52
55
55
55
57
57
57
79
79
79
82
82
82
84
84
84
85
85
85
88
88
88
90
90
90
91
91
91
94
94
94
95
95
95
97
97
97
99
99
99
104
104
104
105
105
105
104
104
104
106
106
106
106
106
106
107
107
107
112
112
112
116
116
116
114
114
114
119
119
119
116
116
116
106
106
106
103
103
103
106
106
106
98
98
98
88
88
88
71
71
71
61
61
61
59
59
59
62
62
62
66
66
66
66
66
66
65
65
65
58
58
58
49
49
49
42
42
42
44
44
44
49
49
49
54
54
54
65
65
65
72
72
72
77
77
77
82
82
82
82
82
82
81
81
81
84
84
84
82
82
82
74
74
74
67
67
67
60
60
60
55
55
55
54
54
54
54
54
54
54
54
54
58
58
58
57
57
57
56
56
56
58
58
58
59
59
59
77
77
77
79
79
79
79
79
79
79
79
79
79
79
79
80
80
80
81
81
81
84
84
84
88
88
88
88
88
88
89
89
89
90
90
90
92
92
92
96
96
96
102
102
102
103
103
103
105
105
105
107
107
107
109
109
109
110
110
110
115
115
115
128
128
128
134
134
134
124
124
124
134
134
134
140
140
140
127
127
127
85
85
85
60
60
60
49
49
49
50
50
50
49
49
49
47
47
47
44
44
44
34
34
34
19
19
19
9
9
9
10
10
10
8
8
8
17
17
17
35
35
35
45
45
45
53
53
53
61
61
61
65
65
65
68
68
68
72
72
72
68
68
68
62
62
62
50
50
50
45
45
45
46
46
46
52
52
52
53
53
53
52
52
52
55
55
55
59
59
59
57
57
57
57
57
57
60
60
60
79
79
79
78
78
78
78
78
78
75
75
75
74
74
74
73
73
73
75
75
75
77
77
77
82
82
82
82
82
82
84
84
84
82
82
82
81
81
81
78
78
78
81
81
81
86
86
86
89
89
89
91
91
91
93
93
93
97
97
97
102
102
102
108
108
108
107
107
107
108
108
108
133
133
133
156
156
156
119
119
119
75
75
75
65
65
65
47
47
47
34
34
34
23
23
23
17
17
17
11
11
11
3
3
3
0
0
0
1
1
1
1
1
1
1
1
1
1
1
1
3
3
3
6
6
6
18
18
18
40
40
40
49
49
49
53
53
53
51
51
51
47
47
47
36
36
36
37
37
37
40
40
40
46
46
46
44
44
44
41
41
41
45
45
45
48
48
48
57
57
57
60
60
60
62
62
62
67
67
67
73
73
73
73
73
73
72
72
72
70
70
70
70
70
70
71
71
71
71
71
71
72
72
72
74
74
74
74
74
74
75
75
75
73
73
73
70
70
70
71
71
71
71
71
71
70
70
70
72
72
72
77
77
77
79
79
79
81
81
81
84
84
84
85
85
85
87
87
87
96
96
96
113
113
113
116
116
116
101
101
101
85
85
85
88
88
88
66
66
66
36
36
36
5
5
5
2
2
2
2
2
2
1
1
1
2
2
2
1
1
1
2
2
2
2
2
2
1
1
1
2
2
2
2
2
2
8
8
8
31
31
31
37
37
37
36
36
36
34
34
34
33
33
33
30
30
30
30
30
30
31
31
31
35
35
35
37
37
37
43
43
43
52
52
52
57
57
57
64
64
64
67
67
67
66
66
66
68
68
68
77
77
77
72
72
72
67
67
67
63
63
63
64
64
64
61
61
61
61
61
61
61
61
61
60
60
60
62
62
62
66
66
66
69
69
69
72
72
72
73
73
73
69
69
69
67
67
67
66
66
66
68
68
68
69
69
69
70
70
70
68
68
68
64
64
64
68
68
68
75
75
75
72
72
72
71
71
71
68
68
68
64
64
64
56
56
56
47
47
47
37
37
37
23
23
23
5
5
5
3
3
3
1
1
1
4
4
4
8
8
8
3
3
3
2
2
2
2
2
2
2
2
2
7
7
7
16
16
16
22
22
22
28
28
28
28
28
28
24
24
24
21
21
21
24
24
24
30
30
30
39
39
39
47
47
47
48
48
48
52
52
52
53
53
53
55
55
55
58
58
58
57
57
57
60
60
60
60
60
60
79
79
79
78
78
78
77
77
77
72
72
72
67
67
67
64
64
64
62
62
62
61
61
61
59
59
59
57
57
57
57
57
57
61
61
61
60
60
60
62
62
62
64
64
64
63
63
63
62
62
62
62
62
62
62
62
62
59
59
59
61
61
61
65
65
65
77
77
77
110
110
110
94
94
94
53
53
53
44
44
44
37
37
37
26
26
26
16
16
16
10
10
10
6
6
6
1
1
1
1
1
1
1
1
1
2
2
2
5
5
5
2
2
2
3
3
3
2
2
2
2
2
2
3
3
3
6
6
6
17
17
17
25
25
25
31
31
31
35
35
35
37
37
37
42
42
42
46
46
46
48
48
48
48
48
48
47
47
47
45
45
45
43
43
43
45
45
45
44
44
44
45
45
45
45
45
45
49
49
49
69
69
69
68
68
68
67
67
67
66
66
66
65
65
65
67
67
67
70
70
70
70
70
70
68
68
68
61
61
61
60
60
60
59
59
59
59
59
59
55
55
55
52
52
52
50
50
50
48
48
48
47
47
47
49
49
49
49
49
49
54
54
54
67
67
67
100
100
100
134
134
134
93
93
93
50
50
50
29
29
29
9
9
9
1
1
1
3
3
3
5
5
5
20
20
20
22
22
22
2
2
2
2
2
2
2
2
2
2
2
2
1
1
1
1
1
1
1
1
1
2
2
2
10
10
10
19
19
19
21
21
21
24
24
24
17
17
17
14
14
14
18
18
18
28
28
28
32
32
32
33
33
33
29
29
29
25
25
25
26
26
26
30
30
30
33
33
33
38
38
38
43
43
43
47
47
47
49
49
49
90
90
90
79
79
79
73
73
73
70
70
70
69
69
69
67
67
67
63
63
63
62
62
62
62
62
62
60
60
60
62
62
62
61
61
61
58
58
58
56
56
56
52
52
52
50
50
50
49
49
49
47
47
47
45
45
45
44
44
44
42
42
42
45
45
45
51
51
51
56
56
56
41
41
41
25
25
25
12
12
12
1
1
1
1
1
1
0
0
0
6
6
6
51
51
51
29
29
29
3
3
3
2
2
2
1
1
1
1
1
1
1
1
1
1
1
1
1
1
1
4
4
4
11
11
11
20
20
20
19
19
19
13
13
13
13
13
13
17
17
17
17
17
17
21
21
21
27
27
27
30
30
30
35
35
35
37
37
37
37
37
37
39
39
39
42
42
42
43
43
43
44
44
44
48
48
48
51
51
51
108
108
108
108
108
108
109
109
109
103
103
103
93
93
93
85
85
85
80
80
80
75
75
75
67
67
67
60
60
60
57
57
57
55
55
55
53
53
53
52
52
52
47
47
47
43
43
43
40
40
40
39
39
39
35
35
35
32
32
32
27
27
27
28
28
28
29
29
29
30
30
30
22
22
22
1
1
1
1
1
1
1
1
1
1
1
1
1
1
1
1
1
1
9
9
9
33
33
33
4
4
4
1
1
1
1
1
1
6
6
6
19
19
19
16
16
16
4
4
4
5
5
5
6
6
6
14
14
14
18
18
18
21
21
21
24
24
24
26
26
26
26
26
26
32
32
32
37
37
37
36
36
36
36
36
36
36
36
36
38
38
38
40
40
40
41
41
41
42
42
42
43
43
43
45
45
45
49
49
49
83
83
83
85
85
85
85
85
85
86
86
86
86
86
86
86
86
86
86
86
86
85
85
85
86
86
86
82
82
82
79
79
79
73
73
73
67
67
67
64
64
64
53
53
53
43
43
43
37
37
37
31
31
31
29
29
29
23
23
23
20
20
20
16
16
16
7
7
7
3
3
3
1
1
1
1
1
1
1
1
1
1
1
1
1
1
1
1
1
1
10
10
10
43
43
43
36
36
36
22
22
22
6
6
6
1
1
1
2
2
2
2
2
2
4
4
4
4
4
4
4
4
4
5
5
5
10
10
10
13
13
13
11
11
11
17
17
17
27
27
27
33
33
33
34
34
34
35
35
35
36
36
36
36
36
36
35
35
35
37
37
37
38
38
38
40
40
40
40
40
40
42
42
42
45
45
45
49
49
49
67
67
67
66
66
66
65
65
65
66
66
66
65
65
65
64
64
64
65
65
65
63
63
63
62
62
62
61
61
61
59
59
59
56
56
56
53
53
53
51
51
51
48
48
48
45
45
45
36
36
36
29
29
29
22
22
22
15
15
15
7
7
7
2
2
2
2
2
2
2
2
2
2
2
2
1
1
1
2
2
2
3
3
3
3
3
3
11
11
11
72
72
72
124
124
124
94
94
94
36
36
36
22
22
22
8
8
8
8
8
8
7
7
7
11
11
11
11
11
11
11
11
11
14
14
14
19
19
19
21
21
21
20
20
20
27
27
27
30
30
30
35
35
35
35
35
35
36
36
36
40
40
40
42
42
42
43
43
43
44
44
44
44
44
44
47
47
47
49
49
49
52
52
52
54
54
54
57
57
57
71
71
71
71
71
71
71
71
71
70
70
70
70
70
70
68
68
68
68
68
68
66
66
66
65
65
65
63
63
63
63
63
63
62
62
62
61
61
61
61
61
61
58
58
58
56
56
56
54
54
54
50
50
50
48
48
48
45
45
45
39
39
39
34
34
34
30
30
30
24
24
24
16
16
16
8
8
8
6
6
6
5
5
5
4
4
4
4
4
4
14
14
14
50
50
50
14
14
14
4
4
4
4
4
4
3
3
3
3
3
3
4
4
4
10
10
10
15
15
15
21
21
21
23
23
23
27
27
27
32
32
32
35
35
35
37
37
37
40
40
40
43
43
43
45
45
45
46
46
46
48
48
48
50
50
50
51
51
51
54
54
54
55
55
55
57
57
57
59
59
59
59
59
59
60
60
60
60
60
60
38
38
38
49
49
49
47
47
47
39
39
39
39
39
39
36
36
36
27
27
27
33
33
33
36
36
36
37
37
37
38
38
38
44
44
44
64
64
64
58
58
58
58
58
58
56
56
56
50
50
50
50
50
50
53
53
53
59
59
59
60
60
60
60
60
60
60
60
60
60
60
60
59
59
59
53
53
53
47
47
47
48
48
48
43
43
43
41
41
41
41
41
41
36
36
36
33
33
33
38
38
38
36
36
36
38
38
38
42
42
42
47
47
47
52
52
52
56
56
56
61
61
61
63
63
63
65
65
65
68
68
68
70
70
70
68
68
68
67
67
67
66
66
66
68
68
68
62
62
62
62
62
62
64
64
64
65
65
65
67
67
67
64
64
64
56
56
56
52
52
52
54
54
54
58
58
58
60
60
60
67
67
67
68
68
68
76
76
76
75
75
75
74
74
74
73
73
73
69
69
69
71
71
71
76
76
76
79
79
79
78
78
78
78
78
78
81
81
81
80
80
80
81
81
81
85
85
85
83
83
83
78
78
78
76
76
76
70
70
70
69
69
69
70
70
70
72
72
72
74
74
74
72
72
72
76
76
76
65
65
65
61
61
61
57
57
57
56
56
56
53
53
53
45
45
45
51
51
51
49
49
49
42
42
42
51
51
51
49
49
49
49
49
49
48
48
48
54
54
54
59
59
59
57
57
57
58
58
58
64
64
64
65
65
65
65
65
65
64
64
64
67
67
67
68
68
68
69
69
69
68
68
68
70
70
70
71
71
71
70
70
70
69
69
69
67
67
67
65
65
65
66
66
66
67
67
67
66
66
66
85
85
85
89
89
89
87
87
87
88
88
88
87
87
87
83
83
83
94
94
94
100
100
100
98
98
98
89
89
89
90
90
90
88
88
88
90
90
90
85
85
85
79
79
79
85
85
85
81
81
81
82
82
82
83
83
83
77
77
77
74
74
74
78
78
78
73
73
73
74
74
74
72
72
72
66
66
66
58
58
58
55
55
55
49
49
49
41
41
41
39
39
39
39
39
39
32
32
32
31
31
31
46
46
46
50
50
50
54
54
54
59
59
59
63
63
63
60
60
60
61
61
61
64
64
64
77
77
77
72
72
72
64
64
64
66
66
66
64
64
64
63
63
63
66
66
66
65
65
65
66
66
66
65
65
65
68
68
68
66
66
66
69
69
69
72
72
72
67
67
67
65
65
65
65
65
65
65
65
65
88
88
88
88
88
88
85
85
85
84
84
84
83
83
83
82
82
82
84
84
84
79
79
79
81
81
81
82
82
82
81
81
81
75
75
75
78
78
78
73
73
73
75
75
75
80
80
80
79
79
79
72
72
72
75
75
75
71
71
71
76
76
76
74
74
74
69
69
69
71
71
71
78
78
78
76
76
76
76
76
76
66
66
66
72
72
72
70
70
70
66
66
66
62
62
62
64
64
64
63
63
63
61
61
61
70
70
70
76
76
76
78
78
78
78
78
78
77
77
77
77
77
77
76
76
76
81
81
81
74
74
74
77
77
77
83
83
83
78
78
78
79
79
79
77
77
77
73
73
73
76
76
76
72
72
72
72
72
72
74
74
74
76
76
76
82
82
82
77
77
77
68
68
68
59
59
59
59
59
59
71
71
71
67
67
67
59
59
59
52
52
52
55
55
55
53
53
53
60
60
60
57
57
57
60
60
60
63
63
63
62
62
62
64
64
64
73
73
73
68
68
68
76
76
76
75
75
75
75
75
75
71
71
71
73
73
73
71
71
71
70
70
70
71
71
71
72
72
72
70
70
70
66
66
66
62
62
62
61
61
61
56
56
56
58
58
58
54
54
54
63
63
63
64
64
64
68
68
68
68
68
68
64
64
64
70
70
70
77
77
77
72
72
72
76
76
76
75
75
75
73
73
73
67
67
67
70
70
70
70
70
70
70
70
70
72
72
72
70
70
70
71
71
71
72
72
72
71
71
71
72
72
72
66
66
66
71
71
71
76
76
76
67
67
67
64
64
64
58
58
58
50
50
50
48
48
48
49
49
49
48
48
48
56
56
56
52
52
52
49
49
49
50
50
50
51
51
51
52
52
52
54
54
54
51
51
51
51
51
51
57
57
57
60
60
60
59
59
59
56
56
56
53
53
53
52
52
52
55
55
55
61
61
61
59
59
59
57
57
57
58
58
58
59
59
59
57
57
57
63
63
63
60
60
60
59
59
59
52
52
52
42
42
42
36
36
36
32
32
32
23
23
23
25
25
25
46
46
46
43
43
43
28
28
28
35
35
35
45
45
45
54
54
54
43
43
43
45
45
45
42
42
42
35
35
35
50
50
50
49
49
49
51
51
51
51
51
51
52
52
52
55
55
55
62
62
62
62
62
62
60
60
60
65
65
65
63
63
63
57
57
57
58
58
58
55
55
55
58
58
58
59
59
59
56
56
56
55
55
55
21
21
21
18
18
18
19
19
19
23
23
23
23
23
23
23
23
23
23
23
23
22
22
22
19
19
19
20
20
20
23
23
23
25
25
25
31
31
31
43
43
43
47
47
47
55
55
55
46
46
46
42
42
42
42
42
42
42
42
42
32
32
32
35
35
35
41
41
41
35
35
35
45
45
45
47
47
47
44
44
44
41
41
41
42
42
42
42
42
42
41
41
41
41
41
41
44
44
44
39
39
39
39
39
39
37
37
37
50
50
50
45
45
45
48
48
48
43
43
43
44
44
44
44
44
44
54
54
54
56
56
56
58
58
58
54
54
54
56
56
56
56
56
56
55
55
55
62
62
62
57
57
57
50
50
50
53
53
53
52
52
52
53
53
53
52
52
52
56
56
56
54
54
54
51
51
51
47
47
47
37
37
37
41
41
41
42
42
42
42
42
42
42
42
42
41
41
41
44
44
44
44
44
44
38
38
38
42
42
42
44
44
44
46
46
46
45
45
45
47
47
47
45
45
45
44
44
44
44
44
44
51
51
51
64
64
64
65
65
65
62
62
62
43
43
43
43
43
43
45
45
45
43
43
43
42
42
42
28
28
28
27
27
27
37
37
37
35
35
35
34
34
34
38
38
38
36
36
36
31
31
31
41
41
41
39
39
39
40
40
40
40
40
40
36
36
36
37
37
37
51
51
51
46
46
46
44
44
44
43
43
43
49
49
49
43
43
43
50
50
50
42
42
42
43
43
43
47
47
47
48
48
48
49
49
49
52
52
52
46
46
46
40
40
40
44
44
44
43
43
43
61
61
61
57
57
57
58
58
58
49
49
49
47
47
47
53
53
53
53
53
53
50
50
50
52
52
52
59
59
59
51
51
51
56
56
56
63
63
63
64
64
64
64
64
64
71
71
71
68
68
68
71
71
71
72
72
72
75
75
75
75
75
75
71
71
71
73
73
73
70
70
70
73
73
73
69
69
69
70
70
70
62
62
62
63
63
63
60
60
60
57
57
57
61
61
61
61
61
61
50
50
50
58
58
58
57
57
57
57
57
57
53
53
53
60
60
60
39
39
39
22
22
22
32
32
32
26
26
26
24
24
24
32
32
32
35
35
35
48
48
48
39
39
39
39
39
39
38
38
38
50
50
50
44
44
44
43
43
43
44
44
44
51
51
51
41
41
41
46
46
46
46
46
46
48
48
48
45
45
45
48
48
48
53
53
53
64
64
64
42
42
42
58
58
58
64
64
64
68
68
68
68
68
68
58
58
58
63
63
63
74
74
74
73
73
73
76
76
76
85
85
85
81
81
81
78
78
78
66
66
66
59
59
59
66
66
66
65
65
65
69
69
69
79
79
79
70
70
70
76
76
76
81
81
81
75
75
75
74
74
74
76
76
76
80
80
80
88
88
88
82
82
82
80
80
80
71
71
71
78
78
78
71
71
71
73
73
73
72
72
72
76
76
76
82
82
82
70
70
70
61
61
61
68
68
68
71
71
71
72
72
72
76
76
76
74
74
74
62
62
62
52
52
52
54
54
54
51
51
51
51
51
51
47
47
47
50
50
50
44
44
44
46
46
46
52
52
52
61
61
61
59
59
59
56
56
56
47
47
47
49
49
49
63
63
63
67
67
67
60
60
60
53
53
53
54
54
54
57
57
57
53
53
53
58
58
58
52
52
52
61
61
61
66
66
66
73
73
73
73
73
73
72
72
72
64
64
64
59
59
59
55
55
55
65
65
65
84
84
84
71
71
71
75
75
75
54
54
54
73
73
73
83
83
83
85
85
85
81
81
81
68
68
68
72
72
72
70
70
70
65
65
65
72
72
72
76
76
76
64
64
64
48
48
48
44
44
44
61
61
61
39
39
39
51
51
51
55
55
55
47
47
47
56
56
56
59
59
59
70
70
70
83
83
83
84
84
84
75
75
75
76
76
76
72
72
72
80
80
80
77
77
77
56
56
56
44
44
44
41
41
41
42
42
42
42
42
42
45
45
45
43
43
43
56
56
56
65
65
65
69
69
69
66
66
66
61
61
61
64
64
64
64
64
64
64
64
64
68
68
68
77
77
77
71
71
71
72
72
72
70
70
70
68
68
68
62
62
62
57
57
57
55
55
55
62
62
62
69
69
69
69
69
69
71
71
71
75
75
75
71
71
71
77
77
77
58
58
58
65
65
65
62
62
62
65
65
65
77
77
77
60
60
60
65
65
65
72
72
72
72
72
72
73
73
73
70
70
70
47
47
47
54
54
54
55
55
55
50
50
50
38
38
38
51
51
51
45
45
45
50
50
50
57
57
57
62
62
62
56
56
56
79
79
79
66
66
66
68
68
68
67
67
67
54
54
54
73
73
73
53
53
53
53
53
53
54
54
54
47
47
47
43
43
43
50
50
50
49
49
49
46
46
46
46
46
46
49
49
49
53
53
53
55
55
55
54
54
54
73
73
73
71
71
71
72
72
72
67
67
67
66
66
66
60
60
60
65
65
65
65
65
65
60
60
60
55
55
55
66
66
66
68
68
68
69
69
69
66
66
66
69
69
69
71
71
71
62
62
62
75
75
75
66
66
66
74
74
74
49
49
49
67
67
67
64
64
64
62
62
62
51
51
51
56
56
56
87
87
87
77
77
77
75
75
75
66
66
66
64
64
64
49
49
49
60
60
60
41
41
41
53
53
53
63
63
63
52
52
52
49
49
49
56
56
56
42
42
42
88
88
88
71
71
71
70
70
70
61
61
61
69
69
69
70
70
70
66
66
66
49
49
49
48
48
48
52
52
52
50
50
50
46
46
46
50
50
50
52
52
52
50
50
50
40
40
40
40
40
40
43
43
43
48
48
48
57
57
57
59
59
59
63
63
63
61
61
61
70
70
70
59
59
59
58
58
58
52
52
52
53
53
53
57
57
57
64
64
64
50
50
50
55
55
55
64
64
64
71
71
71
62
62
62
66
66
66
76
76
76
76
76
76
71
71
71
62
62
62
59
59
59
57
57
57
73
73
73
86
86
86
84
84
84
82
82
82
88
88
88
85
85
85
66
66
66
72
72
72
79
79
79
62
62
62
71
71
71
68
68
68
69
69
69
70
70
70
67
67
67
65
65
65
63
63
63
95
95
95
87
87
87
64
64
64
69
69
69
64
64
64
51
51
51
40
40
40
40
40
40
46
46
46
42
42
42
43
43
43
56
56
56
33
33
33
42
42
42
37
37
37
35
35
35
37
37
37
42
42
42
43
43
43
37
37
37
38
38
38
50
50
50
51
51
51
60
60
60
60
60
60
57
57
57
48
48
48
42
42
42
49
49
49
60
60
60
51
51
51
49
49
49
59
59
59
60
60
60
63
63
63
56
56
56
62
62
62
64
64
64
75
75
75
92
92
92
67
67
67
58
58
58
47
47
47
61
61
61
83
83
83
70
70
70
77
77
77
90
90
90
83
83
83
70
70
70
67
67
67
72
72
72
72
72
72
72
72
72
66
66
66
65
65
65
75
75
75
66
66
66
73
73
73
96
96
96
84
84
84
69
69
69
81
81
81
67
67
67
70
70
70
67
67
67
69
69
69
68
68
68
63
63
63
59
59
59
46
46
46
30
30
30
38
38
38
50
50
50
59
59
59
38
38
38
32
32
32
26
26
26
39
39
39
51
51
51
39
39
39
42
42
42
48
48
48
58
58
58
56
56
56
52
52
52
54
54
54
46
46
46
47
47
47
52
52
52
57
57
57
61
61
61
66
66
66
71
71
71
76
76
76
65
65
65
41
41
41
57
57
57
77
77
77
78
78
78
53
53
53
40
40
40
73
73
73
92
92
92
87
87
87
85
85
85
81
81
81
87
87
87
83
83
83
67
67
67
58
58
58
46
46
46
74
74
74
71
71
71
65
65
65
61
61
61
72
72
72
66
66
66
59
59
59
62
62
62
70
70
70
59
59
59
85
85
85
72
72
72
18
18
18
22
22
22
28
28
28
34
34
34
31
31
31
37
37
37
42
42
42
42
42
42
38
38
38
35
35
35
34
34
34
51
51
51
52
52
52
51
51
51
48
48
48
42
42
42
37
37
37
42
42
42
48
48
48
61
61
61
74
74
74
65
65
65
65
65
65
61
61
61
61
61
61
64
64
64
62
62
62
71
71
71
78
78
78
91
91
91
95
95
95
81
81
81
92
92
92
105
105
105
63
63
63
47
47
47
50
50
50
89
89
89
103
103
103
88
88
88
70
70
70
66
66
66
64
64
64
77
77
77
77
77
77
65
65
65
56
56
56
58
58
58
84
84
84
52
52
52
63
63
63
59
59
59
70
70
70
64
64
64
60
60
60
61
61
61
68
68
68
83
83
83
88
88
88
92
92
92
18
18
18
17
17
17
15
15
15
17
17
17
18
18
18
19
19
19
21
21
21
21
21
21
22
22
22
25
25
25
28
28
28
32
32
32
30
30
30
33
33
33
30
30
30
28
28
28
24
24
24
26
26
26
22
22
22
27
27
27
27
27
27
29
29
29
29
29
29
31
31
31
37
37
37
31
31
31
27
27
27
35
35
35
32
32
32
25
25
25
42
42
42
89
89
89
95
95
95
61
61
61
84
84
84
97
97
97
108
108
108
102
102
102
60
60
60
48
48
48
55
55
55
49
49
49
55
55
55
56
56
56
64
64
64
83
83
83
60
60
60
44
44
44
74
74
74
82
82
82
67
67
67
77
77
77
71
71
71
58
58
58
41
41
41
57
57
57
66
66
66
68
68
68
71
71
71
70
70
70
18
18
18
13
13
13
12
12
12
13
13
13
16
16
16
17
17
17
16
16
16
18
18
18
17
17
17
19
19
19
18
18
18
18
18
18
18
18
18
21
21
21
19
19
19
16
16
16
17
17
17
14
14
14
14
14
14
16
16
16
20
20
20
21
21
21
19
19
19
19
19
19
18
18
18
18
18
18
20
20
20
17
17
17
18
18
18
19
19
19
28
28
28
95
95
95
92
92
92
97
97
97
80
80
80
69
69
69
58
58
58
85
85
85
80
80
80
79
79
79
61
61
61
70
70
70
68
68
68
53
53
53
53
53
53
54
54
54
84
84
84
79
79
79
93
93
93
92
92
92
74
74
74
81
81
81
86
86
86
57
57
57
40
40
40
38
38
38
46
46
46
60
60
60
77
77
77
36
36
36
13
13
13
12
12
12
14
14
14
15
15
15
15
15
15
15
15
15
14
14
14
15
15
15
16
16
16
15
15
15
15
15
15
14
14
14
13
13
13
15
15
15
14
14
14
14
14
14
14
14
14
11
11
11
13
13
13
16
16
16
17
17
17
18
18
18
19
19
19
19
19
19
17
17
17
17
17
17
17
17
17
16
16
16
16
16
16
15
15
15
16
16
16
24
24
24
42
42
42
25
25
25
15
15
15
16
16
16
16
16
16
32
32
32
53
53
53
84
84
84
77
77
77
79
79
79
91
91
91
86
86
86
74
74
74
74
74
74
78
78
78
93
93
93
100
100
100
93
93
93
95
95
95
94
94
94
95
95
95
89
89
89
79
79
79
72
72
72
80
80
80
77
77
77
44
44
44
10
10
10
10
10
10
12
12
12
11
11
11
11
11
11
12
12
12
12
12
12
13
13
13
13
13
13
13
13
13
11
11
11
13
13
13
11
11
11
11
11
11
11
11
11
12
12
12
15
15
15
11
11
11
8
8
8
12
12
12
13
13
13
13
13
13
14
14
14
14
14
14
14
14
14
14
14
14
14
14
14
16
16
16
15
15
15
14
14
14
14
14
14
13
13
13
16
16
16
14
14
14
15
15
15
14
14
14
13
13
13
14
14
14
14
14
14
15
15
15
22
22
22
32
32
32
44
44
44
47
47
47
55
55
55
44
44
44
28
28
28
15
15
15
17
17
17
52
52
52
75
75
75
81
81
81
65
65
65
75
75
75
79
79
79
68
68
68
67
67
67
45
45
45
12
12
12
9
9
9
10
10
10
9
9
9
10
10
10
10
10
10
10
10
10
10
10
10
9
9
9
9
9
9
10
10
10
11
11
11
10
10
10
9
9
9
9
9
9
10
10
10
10
10
10
10
10
10
7
7
7
5
5
5
3
3
3
6
6
6
8
8
8
11
11
11
10
10
10
10
10
10
11
11
11
13
13
13
13
13
13
13
13
13
14
14
14
14
14
14
14
14
14
14
14
14
14
14
14
15
15
15
13
13
13
13
13
13
14
14
14
13
13
13
10
10
10
10
10
10
9
9
9
9
9
9
10
10
10
11
11
11
7
7
7
8
8
8
8
8
8
11
11
11
8
8
8
10
10
10
9
9
9
10
10
10
10
10
10
10
10
10
7
7
7
8
8
8
13
13
13
9
9
9
8
8
8
9
9
9
10
10
10
9
9
9
8
8
8
9
9
9
10
10
10
9
9
9
8
8
8
8
8
8
8
8
8
8
8
8
6
6
6
6
6
6
6
6
6
4
4
4
5
5
5
4
4
4
4
4
4
3
3
3
