P3
60 40
255
158
171
187
160
176
192
164
181
195
167
184
199
173
186
202
175
190
207
176
194
213
178
195
213
183
193
210
193
195
211
197
198
214
196
201
220
195
202
223
190
205
228
186
209
235
187
208
233
198
206
229
207
207
229
219
204
218
222
206
211
221
202
209
217
200
209
218
200
209
223
202
203
232
205
200
235
205
200
231
204
200
227
203
200
225
203
202
222
203
203
222
203
204
223
203
203
224
201
196
224
199
194
226
199
192
231
200
188
237
203
180
246
205
173
242
204
176
233
200
179
228
199
182
224
198
189
219
200
194
218
200
197
216
200
209
207
204
220
203
204
224
197
200
219
196
197
214
200
195
208
201
193
201
204
192
198
205
192
196
205
192
193
204
191
191
202
189
189
196
186
186
190
181
183
185
176
175
182
171
169
165
175
189
167
180
194
170
184
197
175
186
200
180
188
202
182
189
206
180
197
215
183
202
224
180
199
222
182
201
224
189
200
222
194
202
223
201
204
225
204
206
225
202
207
226
200
209
231
202
212
234
211
209
229
223
207
217
226
207
207
229
206
202
228
204
200
225
202
201
232
204
198
241
207
195
245
208
192
238
206
195
233
204
198
232
204
199
231
204
200
230
204
201
231
204
200
234
203
194
234
202
186
237
203
184
246
206
181
252
208
174
253
208
172
243
205
177
236
202
182
231
202
189
227
204
198
226
205
202
225
205
204
224
204
208
221
205
212
216
204
213
213
201
207
212
199
203
213
197
198
214
196
194
218
198
192
217
197
190
217
196
189
216
195
186
210
191
185
202
186
182
198
182
176
198
180
172
202
180
165
173
178
188
174
182
194
178
185
198
182
188
199
186
190
200
188
191
204
187
194
210
188
201
221
187
204
225
187
206
226
187
203
226
190
201
223
195
203
226
198
208
229
204
210
230
209
211
232
213
214
234
218
211
229
224
210
216
225
207
207
231
206
201
238
206
197
236
205
195
247
207
191
254
210
187
255
212
184
255
211
186
251
209
189
245
206
192
241
206
195
239
205
195
239
206
196
242
205
189
248
205
180
252
207
180
255
211
175
255
212
174
255
210
176
247
206
181
237
204
187
235
206
196
234
206
200
232
207
202
231
208
201
230
207
202
227
206
200
227
203
197
226
201
195
225
200
189
229
200
188
235
204
186
238
205
183
231
201
182
228
197
179
223
195
178
218
193
177
217
191
174
223
192
168
237
198
163
247
203
157
184
181
187
187
186
192
191
188
195
192
191
196
194
191
198
198
192
200
199
194
200
200
196
205
198
198
211
196
202
218
197
203
221
197
201
219
196
202
220
200
203
221
204
204
218
213
207
221
222
213
226
229
213
220
231
212
212
231
208
203
236
208
198
246
208
190
248
207
186
255
209
183
255
213
179
255
216
173
255
217
170
255
216
175
255
212
181
254
208
186
251
207
188
250
206
189
250
206
186
252
207
181
255
209
181
255
212
184
255
213
184
255
211
186
247
209
190
240
208
196
237
208
199
237
208
200
237
208
200
238
209
196
238
207
193
238
206
189
234
205
188
234
205
185
238
207
182
244
210
180
249
212
174
241
206
176
234
202
175
232
199
171
234
198
169
237
200
164
250
208
159
255
218
151
255
223
146
255
223
144
184
182
187
192
187
192
198
191
192
202
192
192
204
194
193
206
195
196
205
196
195
205
196
198
204
197
203
203
201
211
206
203
213
208
203
213
210
203
213
209
204
214
211
205
214
218
204
210
221
206
208
226
208
209
231
210
205
239
209
201
245
210
194
255
211
186
255
211
180
255
210
178
255
211
177
255
216
169
255
218
164
255
217
165
255
212
173
255
209
180
255
209
181
255
209
182
255
208
181
255
210
181
255
210
180
255
212
182
255
215
181
255
214
182
255
211
189
251
211
195
245
210
200
241
210
201
241
209
198
243
208
193
243
209
188
241
208
186
243
209
182
254
213
176
255
215
172
255
215
169
255
213
166
242
204
168
235
201
167
237
201
165
245
206
161
255
213
155
255
220
151
255
226
145
255
225
145
255
218
147
186
184
185
193
187
188
199
190
188
204
192
189
209
194
189
211
196
191
212
197
191
211
197
194
212
199
195
211
201
200
213
203
206
215
205
211
219
205
207
222
206
205
224
207
208
225
208
208
226
209
208
229
211
210
230
213
213
236
211
202
248
211
194
255
214
186
255
216
182
255
215
180
255
215
181
255
216
175
255
220
166
255
218
162
255
215
164
255
211
166
255
211
172
255
211
176
255
212
177
255
213
174
255
213
174
255
215
169
255
220
166
255
218
167
255
215
173
255
215
183
255
214
190
252
212
194
248
211
194
248
210
191
245
210
193
244
210
192
249
212
186
255
215
178
255
216
173
250
211
169
242
206
166
238
204
165
238
203
167
240
205
164
247
209
160
254
213
155
255
216
154
255
214
152
247
207
155
221
189
157
195
185
179
201
188
182
202
190
184
202
191
185
207
193
188
209
195
190
210
198
191
213
200
194
215
202
195
218
204
197
221
205
199
222
208
204
224
208
205
227
209
204
228
210
206
230
211
206
233
213
207
235
216
212
237
217
216
239
219
214
248
226
219
255
228
216
255
227
206
255
226
203
255
226
206
255
225
198
255
226
188
255
223
171
255
220
161
255
217
159
255
215
162
255
214
166
255
214
166
255
215
165
255
218
158
255
224
149
255
228
142
255
226
144
255
223
149
255
224
154
255
222
165
255
218
172
255
215
177
255
213
182
255
214
182
255
215
181
254
213
184
247
211
182
247
209
174
250
210
167
255
216
160
255
223
155
255
217
154
255
213
154
248
210
154
248
209
158
238
201
157
226
192
156
217
186
158
207
181
159
201
188
177
206
191
179
209
192
179
211
194
179
215
197
179
218
198
180
221
199
181
222
201
184
223
203
188
225
205
188
228
206
189
229
207
190
230
209
192
234
210
196
234
211
202
235
213
203
241
214
205
243
216
207
245
220
209
249
220
210
253
224
215
255
235
228
255
243
234
255
238
224
255
245
234
255
251
240
255
245
227
255
231
185
255
227
160
255
224
149
255
222
150
255
219
149
255
219
147
255
219
144
255
226
134
255
238
119
255
243
109
255
241
110
255
244
108
255
241
117
255
230
135
255
225
145
255
222
153
255
219
161
255
220
165
255
217
168
255
211
172
253
211
168
255
215
162
255
223
150
255
229
145
255
220
146
251
210
152
247
208
153
242
205
152
236
199
155
229
194
159
225
191
157
221
189
157
215
187
160
204
190
179
209
193
178
213
194
178
217
197
175
222
198
174
226
200
173
228
203
175
229
205
177
231
206
182
231
208
182
234
208
184
236
208
182
240
209
181
244
211
178
248
212
181
248
213
186
251
214
189
255
216
191
255
218
193
255
222
197
255
224
202
255
228
208
255
230
207
255
233
208
255
247
233
255
255
255
255
245
219
255
228
175
255
235
165
255
237
147
255
233
134
255
230
123
255
232
117
255
237
111
255
249
103
255
255
100
255
255
101
255
255
101
255
255
101
255
253
101
255
244
103
255
242
106
255
238
118
255
224
140
255
217
149
255
215
153
255
215
151
255
221
147
255
227
136
255
227
137
255
221
140
255
216
146
255
213
144
255
213
141
247
206
145
238
202
148
235
198
157
232
196
160
229
195
162
228
195
167
215
195
173
216
196
173
219
198
172
222
199
170
226
201
170
229
202
171
232
205
171
233
207
172
235
208
174
237
210
174
241
211
175
244
212
173
249
212
170
255
212
171
255
215
171
255
217
170
255
219
172
255
220
177
255
222
179
255
223
181
255
224
184
255
225
185
255
226
187
255
230
196
255
240
213
255
244
216
255
237
201
255
232
185
255
235
188
255
234
166
255
242
136
255
245
105
255
251
102
255
255
102
255
255
101
255
255
102
255
255
101
255
255
102
255
255
102
255
255
101
255
250
102
255
248
102
255
233
108
255
219
131
255
217
137
255
220
136
255
223
134
255
227
133
255
226
130
255
230
130
255
226
131
255
217
135
255
220
137
255
216
143
251
211
152
247
209
157
242
207
164
241
204
167
239
203
166
235
201
168
225
206
177
231
205
172
234
205
167
236
207
163
239
208
164
240
210
161
241
211
161
242
211
161
243
213
160
246
214
162
249
214
166
252
215
169
254
215
172
255
216
173
255
218
169
255
221
167
255
223
166
255
223
168
255
225
169
255
226
170
255
227
168
255
229
164
255
230
168
255
232
175
255
231
172
255
231
171
255
231
168
255
230
164
255
231
156
255
231
147
255
235
137
255
239
123
255
243
105
255
245
103
255
238
101
255
237
104
255
242
108
255
255
103
255
255
102
255
255
102
255
246
102
255
227
107
255
222
116
255
222
122
255
223
128
255
226
128
255
230
124
255
232
121
255
240
124
255
232
130
255
225
139
255
221
147
255
219
148
255
217
152
255
216
153
255
215
155
253
213
158
248
210
157
241
204
160
234
199
160
224
206
179
230
209
178
235
211
177
237
211
172
239
212
167
242
214
164
245
215
162
250
216
161
255
217
159
255
219
157
255
220
157
255
220
161
255
221
160
255
221
162
255
222
164
255
222
163
255
223
162
255
223
162
255
225
162
255
227
159
255
229
161
255
232
165
255
237
177
255
255
210
255
249
194
255
235
153
255
234
144
255
235
137
255
237
126
255
240
116
255
242
110
255
242
106
255
244
101
255
247
101
255
248
101
255
237
102
255
235
105
255
239
102
255
245
103
255
240
102
255
232
102
255
228
103
255
229
106
255
232
117
255
233
125
255
235
131
255
238
135
255
239
137
255
235
142
255
231
146
255
228
148
255
225
148
255
222
147
255
218
145
255
216
143
255
215
145
255
214
144
255
213
145
255
214
145
254
211
149
228
206
169
231
208
168
234
210
167
237
214
166
241
215
165
242
218
167
246
219
170
250
219
170
255
219
168
255
221
161
255
222
160
255
223
159
255
224
159
255
225
155
255
226
152
255
226
150
255
228
148
255
228
147
255
229
149
255
230
149
255
233
154
255
237
167
255
255
200
255
255
234
255
252
193
255
238
150
255
239
129
255
241
109
255
249
101
255
255
103
255
255
105
255
255
120
255
255
122
255
255
102
255
255
102
255
255
102
255
255
102
255
240
101
255
236
101
255
235
101
255
236
102
255
239
110
255
243
119
255
249
121
255
254
124
255
255
117
255
255
114
255
251
118
255
240
128
255
234
132
255
230
133
255
231
129
255
230
125
255
233
126
255
231
130
255
227
133
255
220
138
255
215
143
253
212
147
248
209
149
244
230
190
244
227
179
245
223
173
247
223
170
249
223
169
252
221
167
255
221
163
255
223
162
255
222
162
255
224
160
255
224
162
255
225
161
255
226
158
255
226
156
255
227
152
255
228
150
255
229
149
255
231
147
255
234
145
255
235
144
255
235
142
255
236
145
255
239
151
255
242
156
255
240
141
255
241
125
255
244
112
255
251
101
255
255
101
255
255
100
255
255
106
255
255
151
255
255
129
255
255
103
255
255
102
255
255
101
255
255
101
255
255
101
255
246
101
255
247
101
255
251
104
255
255
111
255
254
120
255
255
119
255
254
113
255
247
113
255
246
117
255
244
117
255
241
121
255
235
127
255
231
130
255
231
135
255
229
137
255
226
137
255
224
139
255
223
142
255
221
143
255
220
144
255
215
148
252
211
151
255
252
208
255
253
208
255
255
209
255
254
203
255
248
193
255
245
185
255
243
180
255
240
175
255
235
167
255
231
160
255
231
157
255
230
155
255
230
153
255
232
152
255
232
147
255
232
143
255
234
140
255
234
139
255
235
135
255
236
132
255
238
127
255
239
128
255
241
129
255
243
130
255
246
122
255
248
101
255
253
101
255
255
101
255
255
101
255
255
101
255
255
101
255
255
109
255
255
133
255
255
104
255
255
101
255
255
101
255
255
106
255
255
119
255
255
116
255
255
104
255
255
105
255
255
106
255
249
114
255
246
118
255
244
121
255
243
124
255
238
126
255
238
126
255
237
132
255
237
137
255
236
136
255
234
136
255
232
136
255
231
138
255
228
140
255
225
141
255
223
142
255
221
143
255
217
145
255
214
149
255
243
183
255
246
185
255
248
185
255
251
186
255
253
186
255
255
186
255
255
186
255
255
185
255
255
186
255
255
182
255
255
179
255
255
173
255
255
167
255
255
164
255
244
153
255
240
143
255
239
137
255
239
131
255
239
129
255
240
123
255
240
120
255
242
116
255
244
107
255
246
103
255
249
101
255
254
101
255
255
101
255
255
101
255
255
101
255
255
101
255
255
110
255
255
143
255
255
136
255
255
122
255
255
106
255
255
101
255
255
102
255
255
102
255
255
104
255
255
104
255
255
104
255
255
105
255
255
110
255
255
113
255
254
111
255
247
117
255
242
127
255
242
133
255
236
134
255
234
135
255
232
136
255
233
136
255
232
135
255
230
137
255
228
138
255
226
140
255
223
140
255
222
142
255
220
145
255
214
149
240
218
167
244
222
166
248
225
165
252
228
166
255
232
165
255
234
164
255
238
165
255
240
163
255
243
162
255
246
161
255
248
159
255
251
156
255
254
153
255
255
151
255
255
148
255
255
145
255
255
136
255
255
129
255
255
122
255
251
115
255
249
107
255
247
102
255
245
102
255
244
102
255
248
102
255
254
101
255
255
102
255
255
103
255
255
103
255
255
111
255
255
172
255
255
224
255
255
194
255
255
136
255
255
122
255
255
108
255
255
108
255
255
107
255
255
111
255
255
111
255
255
111
255
255
114
255
252
119
255
240
121
255
229
120
255
226
127
255
222
130
255
221
135
255
223
135
255
221
136
255
221
140
255
224
142
255
223
143
255
222
144
255
219
144
255
215
147
255
213
149
252
208
152
245
203
154
239
199
157
212
194
171
216
197
171
220
199
171
224
201
170
229
204
170
233
207
168
236
209
168
241
212
166
245
214
165
248
216
163
252
218
163
255
219
162
255
221
161
255
222
161
255
223
158
255
224
156
255
226
154
255
226
150
255
227
148
255
227
145
255
228
139
255
229
134
255
229
130
255
229
124
255
233
116
255
236
108
255
241
106
255
249
105
255
255
104
255
255
104
255
255
114
255
255
150
255
255
114
255
255
104
255
253
104
255
245
103
255
240
103
255
237
104
255
235
110
255
232
115
255
230
121
255
229
123
255
225
127
255
223
132
255
219
135
255
217
137
255
215
140
255
214
143
255
212
145
255
211
146
255
209
148
252
208
150
248
206
151
245
202
154
241
199
155
235
196
157
230
193
159
226
190
159
220
187
160
216
184
160
149
142
138
164
154
149
162
154
147
157
147
139
160
148
139
156
144
136
146
136
127
154
142
133
162
147
136
168
151
137
170
153
138
173
156
144
192
175
164
190
169
158
192
171
158
193
171
156
189
167
150
191
167
150
195
169
153
202
176
159
211
181
160
216
185
160
219
185
160
221
187
160
223
188
159
224
184
153
231
185
147
230
184
148
233
184
143
239
186
141
250
195
141
255
199
136
249
191
133
242
188
138
255
199
136
253
196
138
237
189
142
229
187
147
221
184
152
223
186
156
222
187
161
223
189
163
222
190
165
225
193
168
227
194
170
227
193
168
231
194
167
224
191
166
220
188
168
215
183
162
214
183
162
211
183
164
210
181
165
207
182
167
209
181
164
205
176
156
195
169
152
192
169
154
193
171
158
192
170
160
175
168
167
179
170
168
192
182
176
195
183
175
197
183
174
196
182
173
188
176
169
191
178
171
198
183
176
202
187
179
203
187
178
202
184
178
206
189
181
206
189
180
211
192
181
219
198
185
216
193
183
213
193
178
213
190
176
213
188
170
218
190
169
222
193
170
222
194
172
230
197
174
230
196
172
238
202
176
235
195
165
236
194
161
250
199
157
255
205
156
255
208
153
255
210
145
255
216
151
255
210
149
255
203
142
255
208
151
255
211
149
255
210
149
255
209
148
255
208
154
252
207
159
250
205
157
247
204
158
245
205
164
240
202
165
236
201
165
235
201
164
237
203
167
234
199
168
233
199
169
228
195
168
228
196
170
225
193
171
219
190
170
216
188
169
214
186
167
210
183
165
209
182
166
211
184
167
208
182
166
192
182
185
201
191
189
204
192
187
204
192
188
207
194
187
208
192
183
217
200
194
223
204
200
222
203
198
219
199
189
224
202
190
225
201
188
224
202
190
214
194
185
208
189
179
209
191
185
217
193
181
233
202
182
240
208
183
238
204
177
243
206
174
251
212
178
255
217
173
255
220
174
255
221
172
255
218
166
255
219
158
255
227
155
255
227
149
255
235
141
255
237
139
255
248
139
255
236
132
255
231
131
255
227
146
255
223
150
255
223
154
255
222
159
255
222
163
255
220
160
255
211
161
252
206
164
253
212
177
249
209
172
246
204
164
251
209
166
248
204
164
246
203
163
245
203
166
230
194
165
234
195
166
225
190
165
217
186
168
215
185
166
222
191
169
222
190
172
211
185
167
212
184
165
212
183
165
207
179
165
200
190
188
202
192
188
206
191
185
205
192
184
206
191
183
208
191
182
217
197
184
218
195
179
219
197
181
221
198
182
220
197
181
217
192
175
216
191
178
212
187
173
211
187
175
219
192
180
224
196
179
222
193
172
227
196
175
220
191
171
216
191
176
218
191
174
217
186
169
216
187
171
225
195
178
232
196
176
236
197
176
238
195
166
243
200
172
246
201
170
250
202
166
246
198
162
255
205
164
255
210
163
255
208
161
255
210
170
255
211
176
253
210
178
251
210
178
249
208
177
247
207
177
248
207
176
245
209
181
241
202
174
241
206
177
237
203
183
227
196
178
223
194
179
218
190
177
208
184
173
207
185
176
200
181
172
197
179
172
199
180
174
198
182
176
201
186
182
188
177
177
185
171
168
183
166
159
186
166
159
180
172
171
175
167
167
173
163
159
166
157
152
169
160
155
175
163
153
184
170
160
188
169
157
194
174
160
197
177
163
199
176
162
208
181
164
217
190
173
212
185
168
223
194
176
225
194
175
237
200
175
233
197
171
243
203
173
242
203
171
243
203
170
241
203
171
239
202
172
229
195
170
227
191
166
224
188
162
216
182
161
216
181
156
216
183
158
223
185
154
239
199
163
239
198
164
244
203
168
237
197
168
237
197
164
232
197
170
237
201
177
229
196
172
226
195
176
221
194
175
212
187
173
205
180
167
204
182
170
205
182
170
196
177
170
196
178
172
192
176
170
188
174
171
188
174
172
187
173
171
186
172
172
181
168
166
185
172
171
189
176
176
180
169
167
171
163
164
176
162
158
183
161
150
188
162
148
194
166
149
169
157
148
178
166
156
179
164
152
176
162
149
182
164
150
187
169
151
191
171
152
194
173
154
190
168
151
190
167
151
201
176
157
203
178
160
201
176
159
195
171
156
189
167
153
190
167
152
201
174
155
211
181
161
217
184
159
217
184
157
223
186
158
226
188
159
216
180
157
221
185
163
216
182
160
219
182
159
221
180
152
208
169
142
194
158
136
176
147
132
158
136
123
155
136
125
169
152
146
177
155
143
170
144
128
177
150
135
175
154
145
184
164
154
177
154
143
194
164
145
191
161
142
190
157
135
198
168
150
200
169
149
205
173
151
209
176
151
213
177
152
213
178
155
221
185
162
226
189
162
220
184
160
226
191
165
223
187
163
219
183
157
218
183
158
209
178
155
215
181
158
217
183
159
213
179
156
212
178
155
123
123
121
123
121
118
124
122
119
127
125
123
129
127
123
130
127
123
129
127
123
130
126
122
129
124
119
130
126
120
131
127
123
133
128
125
141
134
131
157
147
143
168
154
147
182
164
155
176
159
146
170
153
142
170
154
142
169
152
142
154
139
132
158
144
135
169
151
141
167
147
135
193
163
145
202
168
147
201
168
144
208
168
141
222
175
142
228
178
142
217
172
141
232
180
141
235
184
144
242
185
139
239
184
139
237
182
137
247
193
150
246
193
145
253
198
148
246
191
143
244
191
144
231
184
144
246
196
154
243
196
156
240
194
158
241
194
154
246
198
156
245
196
156
238
192
155
236
194
162
223
185
157
218
180
150
220
183
153
216
179
152
215
180
153
208
174
152
203
175
156
203
174
154
197
168
151
179
158
147
148
141
137
158
149
141
162
149
142
165
152
142
165
152
142
163
151
141
170
155
144
167
152
144
157
146
138
165
151
142
170
153
144
172
154
146
171
154
145
173
157
147
172
155
145
167
152
144
166
151
144
171
156
151
180
167
164
184
169
165
184
167
162
163
149
143
167
151
143
172
153
145
176
154
143
168
149
142
154
136
128
165
141
127
190
158
137
192
157
135
194
158
134
213
170
138
228
180
136
240
185
131
245
192
141
250
191
139
235
183
140
238
186
140
211
170
136
196
162
137
214
179
151
206
172
146
201
168
144
200
167
143
209
174
149
204
167
143
207
173
150
199
166
142
198
165
143
208
173
147
210
175
148
212
176
149
208
176
152
193
165
146
183
158
140
179
158
144
169
151
143
181
165
161
174
161
157
179
164
158
170
158
149
171
157
147
180
164
153
184
166
153
186
165
150
186
166
152
190
171
159
188
164
151
191
168
156
200
176
163
203
178
164
203
177
164
208
183
171
201
178
168
203
181
171
199
181
172
204
183
175
210
186
175
203
182
171
209
185
173
205
181
170
204
183
173
203
180
169
212
185
170
203
175
162
205
177
163
203
175
160
206
176
157
209
177
161
207
176
161
187
161
150
189
166
158
191
166
157
194
169
157
189
165
153
190
169
160
160
145
139
140
127
122
155
139
132
150
133
126
154
135
124
172
147
132
190
156
135
206
171
148
200
164
139
198
163
139
200
164
138
207
171
150
197
165
144
195
163
143
197
165
144
206
173
151
193
162
141
195
165
146
197
166
146
196
166
148
185
161
145
177
158
148
179
162
153
191
172
164
150
144
142
167
159
158
174
164
164
179
170
168
180
169
168
168
160
158
171
165
163
183
175
174
183
173
173
193
180
176
202
187
185
194
182
181
195
181
178
178
167
166
177
164
159
188
171
166
192
172
165
195
174
169
205
185
179
196
175
170
196
179
176
209
188
181
203
181
175
199
179
174
200
181
176
206
186
180
217
195
188
213
190
182
214
190
180
202
180
171
209
187
178
202
180
171
200
181
173
201
180
172
200
182
176
204
186
182
193
175
170
187
168
161
198
178
168
206
182
171
204
181
172
213
185
176
207
182
174
206
176
162
190
165
152
192
167
154
194
166
151
191
165
151
187
161
147
189
164
150
184
159
144
182
158
146
188
166
152
186
168
161
183
165
159
174
160
156
163
150
147
169
153
149
181
167
163
187
170
167
173
162
160
166
155
153
166
156
154
174
161
157
171
157
153
178
163
158
176
160
152
189
170
161
196
174
166
205
182
173
207
183
173
207
182
172
203
177
164
205
176
159
203
171
155
213
183
165
234
200
184
230
192
171
230
194
175
214
177
154
224
189
173
236
201
183
245
205
185
246
204
181
237
194
168
236
195
172
246
200
170
251
201
165
255
209
172
255
210
176
255
217
164
255
210
148
255
199
144
255
204
161
240
186
139
255
199
151
249
195
155
243
189
147
240
191
156
226
185
159
234
193
170
236
201
183
234
203
184
216
186
175
223
192
176
222
189
172
224
194
180
216
188
177
205
174
156
195
163
144
181
154
141
179
155
142
181
155
142
184
158
145
177
155
143
190
166
156
203
176
165
202
179
169
191
172
166
182
166
161
185
170
164
186
172
164
189
173
164
191
174
168
204
185
177
203
182
171
210
185
172
208
183
170
199
178
168
195
174
162
196
172
157
195
169
155
211
180
162
220
188
169
220
188
169
221
189
171
232
196
175
226
190
171
234
197
177
226
184
158
225
186
165
217
180
162
216
182
165
235
198
177
234
187
160
236
191
165
248
202
172
255
206
172
255
210
173
255
213
170
255
212
147
255
216
154
255
217
155
255
205
150
255
202
138
255
200
151
249
192
145
255
204
150
255
204
157
255
206
162
250
197
156
255
210
179
250
202
166
245
199
168
236
194
167
235
187
154
244
199
173
218
177
153
218
178
153
223
180
154
209
170
147
204
166
143
216
175
150
213
173
149
206
170
146
199
165
146
196
165
149
199
168
153
203
171
155
201
170
154
200
182
173
199
181
171
201
182
172
197
178
167
197
176
166
196
173
160
202
178
165
206
179
165
199
173
160
197
171
155
202
179
166
202
178
168
211
183
169
201
177
166
209
182
169
209
183
171
209
179
162
223
190
175
215
182
166
227
192
174
208
170
149
228
189
167
223
185
164
225
184
162
219
177
151
238
189
156
255
213
187
255
212
177
255
208
175
255
207
166
255
208
164
255
203
149
255
208
160
255
202
141
255
213
153
255
214
163
253
198
152
251
194
149
242
192
156
232
180
142
252
213
188
232
192
171
236
195
170
225
184
161
233
192
169
233
193
170
229
189
166
215
174
149
208
170
148
215
175
152
210
172
150
204
168
146
208
171
150
207
172
152
204
169
150
196
162
140
197
163
140
197
163
143
200
167
148
208
174
157
173
161
159
182
169
163
184
167
161
196
178
170
187
168
159
188
169
158
181
162
152
185
164
153
192
169
157
199
176
164
181
161
150
179
162
155
196
174
164
201
179
171
190
169
162
198
176
166
209
185
176
215
188
176
212
183
171
207
177
162
208
176
159
206
174
157
215
186
173
230
198
186
231
196
184
233
197
182
240
205
188
241
204
185
224
185
166
232
192
172
240
200
179
236
191
162
240
196
171
238
194
168
231
190
169
236
194
170
238
193
167
234
191
165
229
188
163
251
214
195
228
198
187
221
183
164
224
189
169
220
183
164
210
171
151
201
162
140
201
162
140
208
169
146
202
165
142
199
162
143
211
175
156
187
153
133
191
160
142
187
155
137
184
154
135
180
153
137
184
158
142
183
156
143
175
150
137
172
149
138
168
156
150
173
158
151
182
167
160
185
167
160
186
166
157
176
156
148
168
151
142
179
160
149
198
172
160
185
162
151
184
160
149
192
168
159
194
171
160
201
176
163
197
169
156
197
172
162
201
175
164
215
186
175
232
201
192
208
180
167
201
172
158
193
162
147
210
176
161
229
196
183
217
184
170
221
189
177
244
207
190
239
201
183
235
192
170
229
187
167
230
192
172
245
199
172
247
199
172
237
193
166
239
193
165
241
198
175
236
193
166
237
194
173
247
212
196
235
200
184
223
186
169
238
199
181
224
186
167
223
187
170
223
187
167
224
186
169
225
186
168
223
183
163
219
179
159
206
168
146
189
152
130
192
157
138
202
168
150
209
175
159
183
154
138
173
148
132
162
139
126
174
151
139
186
163
151
173
151
139
157
146
142
165
152
148
176
161
158
179
162
156
174
157
152
176
159
154
168
152
146
167
153
147
179
160
152
183
166
157
188
167
161
192
173
166
203
179
171
212
185
176
204
176
165
178
152
141
195
167
157
219
189
177
219
188
178
199
168
153
187
156
140
219
186
173
237
204
192
230
199
187
226
195
185
218
189
181
235
201
187
229
195
183
221
183
167
217
178
158
200
164
146
234
194
174
233
191
171
226
185
165
230
185
161
239
195
172
230
189
166
228
183
159
227
185
162
235
192
170
221
181
159
241
202
185
223
188
172
178
142
118
181
145
122
188
152
128
191
155
134
192
154
131
197
159
137
199
162
142
198
162
142
193
157
138
187
154
135
182
152
134
195
165
151
196
166
152
190
164
151
175
157
148
157
145
142
149
139
137
153
144
142
162
152
148
178
165
161
195
178
174
188
171
165
188
170
165
186
167
161
185
167
161
191
171
164
188
168
162
200
178
171
207
184
178
218
197
191
226
200
195
218
191
181
226
199
192
236
211
205
194
171
163
178
157
147
184
159
150
227
198
189
236
209
203
219
194
188
207
179
170
205
176
166
202
173
164
213
185
177
227
191
177
210
177
165
203
170
156
213
175
158
233
199
184
209
170
152
227
184
163
218
179
159
230
189
170
229
187
164
225
182
160
223
182
161
228
188
168
238
201
183
240
203
188
239
205
192
175
139
118
170
138
117
169
137
115
172
140
117
174
141
118
179
144
119
182
145
121
178
145
121
175
142
122
174
143
125
173
145
128
174
147
132
171
145
130
171
146
133
166
143
130
159
140
128
148
133
124
136
129
126
134
126
122
138
129
127
140
131
127
142
133
129
145
133
129
147
136
131
155
142
137
152
138
131
148
134
127
158
141
135
155
139
132
147
132
125
163
146
142
218
195
189
226
201
195
189
168
161
213
189
184
224
202
197
234
211
208
230
205
202
194
168
160
184
158
148
193
165
155
188
161
149
193
165
155
196
166
156
202
173
164
231
196
183
205
173
160
187
156
144
221
187
174
223
192
182
215
180
167
228
192
177
226
187
171
214
176
158
195
157
141
211
174
157
221
183
166
218
183
168
224
186
171
220
184
170
171
138
118
159
131
113
159
131
112
157
131
113
158
132
116
160
133
117
163
135
116
165
136
118
163
135
117
160
134
119
155
132
118
151
131
118
148
130
118
148
130
121
146
129
119
140
125
116
138
124
117
119
116
114
121
117
114
126
120
116
131
123
120
132
124
121
132
123
119
132
123
119
135
125
118
138
126
118
138
126
120
138
126
117
140
126
118
141
127
119
151
135
128
225
199
195
226
199
192
227
202
197
203
183
180
193
173
169
188
165
158
222
193
185
220
190
180
219
190
179
201
172
161
210
179
170
208
178
168
196
164
153
195
164
153
192
163
154
218
191
184
220
189
179
238
204
193
236
202
192
216
186
174
224
191
181
231
196
186
201
169
157
180
152
140
181
150
138
198
162
146
215
177
160
228
192
177
173
147
136
160
131
113
154
129
112
152
128
114
149
128
115
149
128
115
150
128
115
150
127
114
150
127
115
149
128
116
147
127
115
143
125
115
141
124
114
137
123
113
138
123
115
136
123
114
135
122
114
129
118
114
114
111
111
119
115
113
126
119
116
128
120
117
129
120
118
130
121
119
131
122
119
130
121
117
129
121
117
130
121
117
132
122
116
134
122
116
135
122
115
135
123
116
142
128
124
162
147
142
142
129
125
137
122
115
137
123
116
138
124
116
156
140
132
183
160
153
224
193
184
219
187
177
221
188
179
233
201
191
230
197
186
220
186
174
218
184
174
220
187
178
227
200
193
241
208
200
238
203
193
234
203
195
238
205
194
241
206
195
238
202
189
227
193
179
222
186
172
229
193
180
220
188
177
173
151
144
144
123
110
142
122
110
143
123
112
140
122
111
136
120
111
134
119
112
137
121
112
140
123
113
140
123
113
138
121
113
136
121
111
135
121
113
133
119
111
132
120
111
132
119
111
130
119
112
129
119
115
124
115
111
113
109
108
116
112
112
119
114
113
121
116
113
124
117
114
125
117
114
125
117
114
125
116
114
126
117
114
127
118
116
129
120
115
129
119
114
130
119
114
129
119
113
132
120
116
132
120
114
131
119
115
131
119
114
132
120
113
133
121
114
134
121
114
134
121
115
144
129
122
156
139
132
175
152
144
178
154
147
186
161
155
172
151
144
159
137
128
150
125
115
149
127
117
176
157
152
210
182
175
219
190
181
196
172
165
203
181
175
210
185
179
200
175
168
200
175
167
174
153
145
146
124
112
141
121
109
138
120
110
134
118
109
133
118
110
133
117
110
130
116
110
128
114
110
127
115
109
128
116
109
129
116
110
129
117
111
130
118
110
128
116
109
126
115
109
125
115
110
125
116
110
125
115
110
122
113
107
120
111
105
111
106
103
113
107
106
114
109
108
116
112
111
116
112
110
117
113
110
120
115
111
123
115
113
126
116
113
124
116
113
127
118
114
126
116
114
126
116
114
127
117
114
128
119
114
128
118
115
127
118
113
127
118
113
128
117
114
129
118
113
129
118
110
130
117
110
131
118
109
131
118
109
133
119
110
137
120
111
137
118
107
137
119
108
139
119
108
141
121
111
141
119
108
144
121
110
137
118
109
141
120
110
142
121
110
145
123
110
143
121
107
144
121
108
148
125
113
145
122
109
140
120
108
135
118
109
133
118
110
129
115
109
128
114
108
127
115
109
126
114
110
123
114
109
124
112
108
122
112
108
122
113
108
122
113
108
121
111
106
120
111
106
120
111
106
120
111
104
119
110
105
119
109
104
118
109
104
114
106
103
