P3
60 40
255
58
71
87
60
76
92
64
81
95
67
84
99
73
86
102
75
90
107
76
94
113
78
95
113
83
93
110
93
95
111
97
98
114
96
101
120
95
102
123
90
105
128
86
109
135
87
108
133
98
106
129
107
107
129
119
104
118
122
106
111
121
102
109
117
100
109
118
100
109
123
102
103
132
105
100
135
105
100
131
104
100
127
103
100
125
103
102
122
103
103
122
103
104
123
103
103
124
101
96
124
99
94
126
99
92
131
100
88
137
103
80
146
105
73
142
104
76
133
100
79
128
99
82
124
98
89
119
100
94
118
100
97
116
100
109
107
104
120
103
104
124
97
100
119
96
97
114
100
95
108
101
93
101
104
92
98
105
92
96
105
92
93
104
91
91
102
89
89
96
86
86
90
81
83
85
76
75
82
71
69
65
75
89
67
80
94
70
84
97
75
86
100
80
88
102
82
89
106
80
97
115
83
102
124
80
99
122
82
101
124
89
100
122
94
102
123
101
104
125
104
106
125
102
107
126
100
109
131
102
112
134
111
109
129
123
107
117
126
107
107
129
106
102
128
104
100
125
102
101
132
104
98
141
107
95
145
108
92
138
106
95
133
104
98
132
104
99
131
104
100
130
104
101
131
104
100
134
103
94
134
102
86
137
103
84
146
106
81
152
108
74
153
108
72
143
105
77
136
102
82
131
102
89
127
104
98
126
105
102
125
105
104
124
104
108
121
105
112
116
104
113
113
101
107
112
99
103
113
97
98
114
96
94
118
98
92
117
97
90
117
96
89
116
95
86
110
91
85
102
86
82
98
82
76
98
80
72
102
80
65
73
78
88
74
82
94
78
85
98
82
88
99
86
90
100
88
91
104
87
94
110
88
101
121
87
104
125
87
106
126
87
103
126
90
101
123
95
103
126
98
108
129
104
110
130
109
111
132
113
114
134
118
111
129
124
110
116
125
107
107
131
106
101
138
106
97
136
105
95
147
107
91
154
110
87
155
112
84
155
111
86
151
109
89
145
106
92
141
106
95
139
105
95
139
106
96
142
105
89
148
105
80
152
107
80
155
111
75
155
112
74
155
110
76
147
106
81
137
104
87
135
106
96
134
106
100
132
107
102
131
108
101
130
107
102
127
106
100
127
103
97
126
101
95
125
100
89
129
100
88
135
104
86
138
105
83
131
101
82
128
97
79
123
95
78
118
93
77
117
91
74
123
92
68
137
98
63
147
103
57
84
81
87
87
86
92
91
88
95
92
91
96
94
91
98
98
92
100
99
94
100
100
96
105
98
98
111
96
102
118
97
103
121
97
101
119
96
102
120
100
103
121
104
104
118
113
107
121
122
113
126
129
113
120
131
112
112
131
108
103
136
108
98
146
108
90
148
107
86
155
109
83
155
113
79
155
116
73
155
117
70
155
116
75
155
112
81
154
108
86
151
107
88
150
106
89
150
106
86
152
107
81
155
109
81
155
112
84
155
113
84
155
111
86
147
109
90
140
108
96
137
108
99
137
108
100
137
108
100
138
109
96
138
107
93
138
106
89
134
105
88
134
105
85
138
107
82
144
110
80
149
112
74
141
106
76
134
102
75
132
99
71
134
98
69
137
100
64
150
108
59
155
118
51
155
123
46
155
123
44
84
82
87
92
87
92
98
91
92
102
92
92
104
94
93
106
95
96
105
96
95
105
96
98
104
97
103
103
101
111
106
103
113
108
103
113
110
103
113
109
104
114
111
105
114
118
104
110
121
106
108
126
108
109
131
110
105
139
109
101
145
110
94
155
111
86
155
111
80
155
110
78
155
111
77
155
116
69
155
118
64
155
117
65
155
112
73
155
109
80
155
109
81
155
109
82
155
108
81
155
110
81
155
110
80
155
112
82
155
115
81
155
114
82
155
111
89
151
111
95
145
110
100
141
110
101
141
109
98
143
108
93
143
109
88
141
108
86
143
109
82
154
113
76
155
115
72
155
115
69
155
113
66
142
104
68
135
101
67
137
101
65
145
106
61
155
113
55
155
120
51
155
126
45
155
125
45
155
118
47
86
84
85
93
87
88
99
90
88
104
92
89
109
94
89
111
96
91
112
97
91
111
97
94
112
99
95
111
101
100
113
103
106
115
105
111
119
105
107
122
106
105
124
107
108
125
108
108
126
109
108
129
111
110
130
113
113
136
111
102
148
111
94
155
114
86
155
116
82
155
115
80
155
115
81
155
116
75
155
120
66
155
118
62
155
115
64
155
111
66
155
111
72
155
111
76
155
112
77
155
113
74
155
113
74
155
115
69
155
120
66
155
118
67
155
115
73
155
115
83
155
114
90
152
112
94
148
111
94
148
110
91
145
110
93
144
110
92
149
112
86
155
115
78
155
116
73
150
111
69
142
106
66
138
104
65
138
103
67
140
105
64
147
109
60
154
113
55
155
116
54
155
114
52
147
107
55
121
89
57
95
85
79
101
88
82
102
90
84
102
91
85
107
93
88
109
95
90
110
98
91
113
100
94
115
102
95
118
104
97
121
105
99
122
108
104
124
108
105
127
109
104
128
110
106
130
111
106
133
113
107
135
116
112
137
117
116
139
119
114
148
126
119
155
128
116
155
127
106
155
126
103
155
126
106
155
125
98
155
126
88
155
123
71
155
120
61
155
117
59
155
115
62
155
114
66
155
114
66
155
115
65
155
118
58
155
124
49
155
128
42
155
126
44
155
123
49
155
124
54
155
122
65
155
118
72
155
115
77
155
113
82
155
114
82
155
115
81
154
113
84
147
111
82
147
109
74
150
110
67
155
116
60
155
123
55
155
117
54
155
113
54
148
110
54
148
109
58
138
101
57
126
92
56
117
86
58
107
81
59
101
88
77
106
91
79
109
92
79
111
94
79
115
97
79
118
98
80
121
99
81
122
101
84
123
103
88
125
105
88
128
106
89
129
107
90
130
109
92
134
110
96
134
111
102
135
113
103
141
114
105
143
116
107
145
120
109
149
120
110
153
124
115
155
135
128
155
143
134
155
138
124
155
145
134
155
151
140
155
145
127
155
131
85
155
127
60
155
124
49
155
122
50
155
119
49
155
119
47
155
119
44
155
126
34
155
138
19
155
143
9
155
141
10
155
144
8
155
141
17
155
130
35
155
125
45
155
122
53
155
119
61
155
120
65
155
117
68
155
111
72
153
111
68
155
115
62
155
123
50
155
129
45
155
120
46
151
110
52
147
108
53
142
105
52
136
99
55
129
94
59
125
91
57
121
89
57
115
87
60
104
90
79
109
93
78
113
94
78
117
97
75
122
98
74
126
100
73
128
103
75
129
105
77
131
106
82
131
108
82
134
108
84
136
108
82
140
109
81
144
111
78
148
112
81
148
113
86
151
114
89
155
116
91
155
118
93
155
122
97
155
124
102
155
128
108
155
130
107
155
133
108
155
147
133
155
155
155
155
145
119
155
128
75
155
135
65
155
137
47
155
133
34
155
130
23
155
132
17
155
137
11
155
149
3
155
155
0
155
155
1
155
155
1
155
155
1
155
153
1
155
144
3
155
142
6
155
138
18
155
124
40
155
117
49
155
115
53
155
115
51
155
121
47
155
127
36
155
127
37
155
121
40
155
116
46
155
113
44
155
113
41
147
106
45
138
102
48
135
98
57
132
96
60
129
95
62
128
95
67
115
95
73
116
96
73
119
98
72
122
99
70
126
101
70
129
102
71
132
105
71
133
107
72
135
108
74
137
110
74
141
111
75
144
112
73
149
112
70
155
112
71
155
115
71
155
117
70
155
119
72
155
120
77
155
122
79
155
123
81
155
124
84
155
125
85
155
126
87
155
130
96
155
140
113
155
144
116
155
137
101
155
132
85
155
135
88
155
134
66
155
142
36
155
145
5
155
151
2
155
155
2
155
155
1
155
155
2
155
155
1
155
155
2
155
155
2
155
155
1
155
150
2
155
148
2
155
133
8
155
119
31
155
117
37
155
120
36
155
123
34
155
127
33
155
126
30
155
130
30
155
126
31
155
117
35
155
120
37
155
116
43
151
111
52
147
109
57
142
107
64
141
104
67
139
103
66
135
101
68
125
106
77
131
105
72
134
105
67
136
107
63
139
108
64
140
110
61
141
111
61
142
111
61
143
113
60
146
114
62
149
114
66
152
115
69
154
115
72
155
116
73
155
118
69
155
121
67
155
123
66
155
123
68
155
125
69
155
126
70
155
127
68
155
129
64
155
130
68
155
132
75
155
131
72
155
131
71
155
131
68
155
130
64
155
131
56
155
131
47
155
135
37
155
139
23
155
143
5
155
145
3
155
138
1
155
137
4
155
142
8
155
155
3
155
155
2
155
155
2
155
146
2
155
127
7
155
122
16
155
122
22
155
123
28
155
126
28
155
130
24
155
132
21
155
140
24
155
132
30
155
125
39
155
121
47
155
119
48
155
117
52
155
116
53
155
115
55
153
113
58
148
110
57
141
104
60
134
99
60
124
106
79
130
109
78
135
111
77
137
111
72
139
112
67
142
114
64
145
115
62
150
116
61
155
117
59
155
119
57
155
120
57
155
120
61
155
121
60
155
121
62
155
122
64
155
122
63
155
123
62
155
123
62
155
125
62
155
127
59
155
129
61
155
132
65
155
137
77
155
155
110
155
149
94
155
135
53
155
134
44
155
135
37
155
137
26
155
140
16
155
142
10
155
142
6
155
144
1
155
147
1
155
148
1
155
137
2
155
135
5
155
139
2
155
145
3
155
140
2
155
132
2
155
128
3
155
129
6
155
132
17
155
133
25
155
135
31
155
138
35
155
139
37
155
135
42
155
131
46
155
128
48
155
125
48
155
122
47
155
118
45
155
116
43
155
115
45
155
114
44
155
113
45
155
114
45
154
111
49
128
106
69
131
108
68
134
110
67
137
114
66
141
115
65
142
118
67
146
119
70
150
119
70
155
119
68
155
121
61
155
122
60
155
123
59
155
124
59
155
125
55
155
126
52
155
126
50
155
128
48
155
128
47
155
129
49
155
130
49
155
133
54
155
137
67
155
155
100
155
155
134
155
152
93
155
138
50
155
139
29
155
141
9
155
149
1
155
155
3
155
155
5
155
155
20
155
155
22
155
155
2
155
155
2
155
155
2
155
155
2
155
140
1
155
136
1
155
135
1
155
136
2
155
139
10
155
143
19
155
149
21
155
154
24
155
155
17
155
155
14
155
151
18
155
140
28
155
134
32
155
130
33
155
131
29
155
130
25
155
133
26
155
131
30
155
127
33
155
120
38
155
115
43
153
112
47
148
109
49
144
130
90
144
127
79
145
123
73
147
123
70
149
123
69
152
121
67
155
121
63
155
123
62
155
122
62
155
124
60
155
124
62
155
125
61
155
126
58
155
126
56
155
127
52
155
128
50
155
129
49
155
131
47
155
134
45
155
135
44
155
135
42
155
136
45
155
139
51
155
142
56
155
140
41
155
141
25
155
144
12
155
151
1
155
155
1
155
155
0
155
155
6
155
155
51
155
155
29
155
155
3
155
155
2
155
155
1
155
155
1
155
155
1
155
146
1
155
147
1
155
151
4
155
155
11
155
154
20
155
155
19
155
154
13
155
147
13
155
146
17
155
144
17
155
141
21
155
135
27
155
131
30
155
131
35
155
129
37
155
126
37
155
124
39
155
123
42
155
121
43
155
120
44
155
115
48
152
111
51
155
152
108
155
153
108
155
155
109
155
154
103
155
148
93
155
145
85
155
143
80
155
140
75
155
135
67
155
131
60
155
131
57
155
130
55
155
130
53
155
132
52
155
132
47
155
132
43
155
134
40
155
134
39
155
135
35
155
136
32
155
138
27
155
139
28
155
141
29
155
143
30
155
146
22
155
148
1
155
153
1
155
155
1
155
155
1
155
155
1
155
155
1
155
155
9
155
155
33
155
155
4
155
155
1
155
155
1
155
155
6
155
155
19
155
155
16
155
155
4
155
155
5
155
155
6
155
149
14
155
146
18
155
144
21
155
143
24
155
138
26
155
138
26
155
137
32
155
137
37
155
136
36
155
134
36
155
132
36
155
131
38
155
128
40
155
125
41
155
123
42
155
121
43
155
117
45
155
114
49
155
143
83
155
146
85
155
148
85
155
151
86
155
153
86
155
155
86
155
155
86
155
155
85
155
155
86
155
155
82
155
155
79
155
155
73
155
155
67
155
155
64
155
144
53
155
140
43
155
139
37
155
139
31
155
139
29
155
140
23
155
140
20
155
142
16
155
144
7
155
146
3
155
149
1
155
154
1
155
155
1
155
155
1
155
155
1
155
155
1
155
155
10
155
155
43
155
155
36
155
155
22
155
155
6
155
155
1
155
155
2
155
155
2
155
155
4
155
155
4
155
155
4
155
155
5
155
155
10
155
155
13
155
154
11
155
147
17
155
142
27
155
142
33
155
136
34
155
134
35
155
132
36
155
133
36
155
132
35
155
130
37
155
128
38
155
126
40
155
123
40
155
122
42
155
120
45
155
114
49
140
118
67
144
122
66
148
125
65
152
128
66
155
132
65
155
134
64
155
138
65
155
140
63
155
143
62
155
146
61
155
148
59
155
151
56
155
154
53
155
155
51
155
155
48
155
155
45
155
155
36
155
155
29
155
155
22
155
151
15
155
149
7
155
147
2
155
145
2
155
144
2
155
148
2
155
154
1
155
155
2
155
155
3
155
155
3
155
155
11
155
155
72
155
155
124
155
155
94
155
155
36
155
155
22
155
155
8
155
155
8
155
155
7
155
155
11
155
155
11
155
155
11
155
155
14
155
152
19
155
140
21
155
129
20
155
126
27
155
122
30
155
121
35
155
123
35
155
121
36
155
121
40
155
124
42
155
123
43
155
122
44
155
119
44
155
115
47
155
113
49
152
108
52
145
103
54
139
99
57
112
94
71
116
97
71
120
99
71
124
101
70
129
104
70
133
107
68
136
109
68
141
112
66
145
114
65
148
116
63
152
118
63
155
119
62
155
121
61
155
122
61
155
123
58
155
124
56
155
126
54
155
126
50
155
127
48
155
127
45
155
128
39
155
129
34
155
129
30
155
129
24
155
133
16
155
136
8
155
141
6
155
149
5
155
155
4
155
155
4
155
155
14
155
155
50
155
155
14
155
155
4
155
153
4
155
145
3
155
140
3
155
137
4
155
135
10
155
132
15
155
130
21
155
129
23
155
125
27
155
123
32
155
119
35
155
117
37
155
115
40
155
114
43
155
112
45
155
111
46
155
109
48
152
108
50
148
106
51
145
102
54
141
99
55
135
96
57
130
93
59
126
90
59
120
87
60
116
84
60
49
42
38
64
54
49
62
54
47
57
47
39
60
48
39
56
44
36
46
36
27
54
42
33
62
47
36
68
51
37
70
53
38
73
56
44
92
75
64
90
69
58
92
71
58
93
71
56
89
67
50
91
67
50
95
69
53
102
76
59
111
81
60
116
85
60
119
85
60
121
87
60
123
88
59
124
84
53
131
85
47
130
84
48
133
84
43
139
86
41
150
95
41
155
99
36
149
91
33
142
88
38
155
99
36
153
96
38
137
89
42
129
87
47
121
84
52
123
86
56
122
87
61
123
89
63
122
90
65
125
93
68
127
94
70
127
93
68
131
94
67
124
91
66
120
88
68
115
83
62
114
83
62
111
83
64
110
81
65
107
82
67
109
81
64
105
76
56
95
69
52
92
69
54
93
71
58
92
70
60
75
68
67
79
70
68
92
82
76
95
83
75
97
83
74
96
82
73
88
76
69
91
78
71
98
83
76
102
87
79
103
87
78
102
84
78
106
89
81
106
89
80
111
92
81
119
98
85
116
93
83
113
93
78
113
90
76
113
88
70
118
90
69
122
93
70
122
94
72
130
97
74
130
96
72
138
102
76
135
95
65
136
94
61
150
99
57
155
105
56
155
108
53
155
110
45
155
116
51
155
110
49
155
103
42
155
108
51
155
111
49
155
110
49
155
109
48
155
108
54
152
107
59
150
105
57
147
104
58
145
105
64
140
102
65
136
101
65
135
101
64
137
103
67
134
99
68
133
99
69
128
95
68
128
96
70
125
93
71
119
90
70
116
88
69
114
86
67
110
83
65
109
82
66
111
84
67
108
82
66
92
82
85
101
91
89
104
92
87
104
92
88
107
94
87
108
92
83
117
100
94
123
104
100
122
103
98
119
99
89
124
102
90
125
101
88
124
102
90
114
94
85
108
89
79
109
91
85
117
93
81
133
102
82
140
108
83
138
104
77
143
106
74
151
112
78
155
117
73
155
120
74
155
121
72
155
118
66
155
119
58
155
127
55
155
127
49
155
135
41
155
137
39
155
148
39
155
136
32
155
131
31
155
127
46
155
123
50
155
123
54
155
122
59
155
122
63
155
120
60
155
111
61
152
106
64
153
112
77
149
109
72
146
104
64
151
109
66
148
104
64
146
103
63
145
103
66
130
94
65
134
95
66
125
90
65
117
86
68
115
85
66
122
91
69
122
90
72
111
85
67
112
84
65
112
83
65
107
79
65
100
90
88
102
92
88
106
91
85
105
92
84
106
91
83
108
91
82
117
97
84
118
95
79
119
97
81
121
98
82
120
97
81
117
92
75
116
91
78
112
87
73
111
87
75
119
92
80
124
96
79
122
93
72
127
96
75
120
91
71
116
91
76
118
91
74
117
86
69
116
87
71
125
95
78
132
96
76
136
97
76
138
95
66
143
100
72
146
101
70
150
102
66
146
98
62
155
105
64
155
110
63
155
108
61
155
110
70
155
111
76
153
110
78
151
110
78
149
108
77
147
107
77
148
107
76
145
109
81
141
102
74
141
106
77
137
103
83
127
96
78
123
94
79
118
90
77
108
84
73
107
85
76
100
81
72
97
79
72
99
80
74
98
82
76
101
86
82
88
77
77
85
71
68
83
66
59
86
66
59
80
72
71
75
67
67
73
63
59
66
57
52
69
60
55
75
63
53
84
70
60
88
69
57
94
74
60
97
77
63
99
76
62
108
81
64
117
90
73
112
85
68
123
94
76
125
94
75
137
100
75
133
97
71
143
103
73
142
103
71
143
103
70
141
103
71
139
102
72
129
95
70
127
91
66
124
88
62
116
82
61
116
81
56
116
83
58
123
85
54
139
99
63
139
98
64
144
103
68
137
97
68
137
97
64
132
97
70
137
101
77
129
96
72
126
95
76
121
94
75
112
87
73
105
80
67
104
82
70
105
82
70
96
77
70
96
78
72
92
76
70
88
74
71
88
74
72
87
73
71
86
72
72
81
68
66
85
72
71
89
76
76
80
69
67
71
63
64
76
62
58
83
61
50
88
62
48
94
66
49
69
57
48
78
66
56
79
64
52
76
62
49
82
64
50
87
69
51
91
71
52
94
73
54
90
68
51
90
67
51
101
76
57
103
78
60
101
76
59
95
71
56
89
67
53
90
67
52
101
74
55
111
81
61
117
84
59
117
84
57
123
86
58
126
88
59
116
80
57
121
85
63
116
82
60
119
82
59
121
80
52
108
69
42
94
58
36
76
47
32
58
36
23
55
36
25
69
52
46
77
55
43
70
44
28
77
50
35
75
54
45
84
64
54
77
54
43
94
64
45
91
61
42
90
57
35
98
68
50
100
69
49
105
73
51
109
76
51
113
77
52
113
78
55
121
85
62
126
89
62
120
84
60
126
91
65
123
87
63
119
83
57
118
83
58
109
78
55
115
81
58
117
83
59
113
79
56
112
78
55
23
23
21
23
21
18
24
22
19
27
25
23
29
27
23
30
27
23
29
27
23
30
26
22
29
24
19
30
26
20
31
27
23
33
28
25
41
34
31
57
47
43
68
54
47
82
64
55
76
59
46
70
53
42
70
54
42
69
52
42
54
39
32
58
44
35
69
51
41
67
47
35
93
63
45
102
68
47
101
68
44
108
68
41
122
75
42
128
78
42
117
72
41
132
80
41
135
84
44
142
85
39
139
84
39
137
82
37
147
93
50
146
93
45
153
98
48
146
91
43
144
91
44
131
84
44
146
96
54
143
96
56
140
94
58
141
94
54
146
98
56
145
96
56
138
92
55
136
94
62
123
85
57
118
80
50
120
83
53
116
79
52
115
80
53
108
74
52
103
75
56
103
74
54
97
68
51
79
58
47
48
41
37
58
49
41
62
49
42
65
52
42
65
52
42
63
51
41
70
55
44
67
52
44
57
46
38
65
51
42
70
53
44
72
54
46
71
54
45
73
57
47
72
55
45
67
52
44
66
51
44
71
56
51
80
67
64
84
69
65
84
67
62
63
49
43
67
51
43
72
53
45
76
54
43
68
49
42
54
36
28
65
41
27
90
58
37
92
57
35
94
58
34
113
70
38
128
80
36
140
85
31
145
92
41
150
91
39
135
83
40
138
86
40
111
70
36
96
62
37
114
79
51
106
72
46
101
68
44
100
67
43
109
74
49
104
67
43
107
73
50
99
66
42
98
65
43
108
73
47
110
75
48
112
76
49
108
76
52
93
65
46
83
58
40
79
58
44
69
51
43
81
65
61
74
61
57
79
64
58
70
58
49
71
57
47
80
64
53
84
66
53
86
65
50
86
66
52
90
71
59
88
64
51
91
68
56
100
76
63
103
78
64
103
77
64
108
83
71
101
78
68
103
81
71
99
81
72
104
83
75
110
86
75
103
82
71
109
85
73
105
81
70
104
83
73
103
80
69
112
85
70
103
75
62
105
77
63
103
75
60
106
76
57
109
77
61
107
76
61
87
61
50
89
66
58
91
66
57
94
69
57
89
65
53
90
69
60
60
45
39
40
27
22
55
39
32
50
33
26
54
35
24
72
47
32
90
56
35
106
71
48
100
64
39
98
63
39
100
64
38
107
71
50
97
65
44
95
63
43
97
65
44
106
73
51
93
62
41
95
65
46
97
66
46
96
66
48
85
61
45
77
58
48
79
62
53
91
72
64
50
44
42
67
59
58
74
64
64
79
70
68
80
69
68
68
60
58
71
65
63
83
75
74
83
73
73
93
80
76
102
87
85
94
82
81
95
81
78
78
67
66
77
64
59
88
71
66
92
72
65
95
74
69
105
85
79
96
75
70
96
79
76
109
88
81
103
81
75
99
79
74
100
81
76
106
86
80
117
95
88
113
90
82
114
90
80
102
80
71
109
87
78
102
80
71
100
81
73
101
80
72
100
82
76
104
86
82
93
75
70
87
68
61
98
78
68
106
82
71
104
81
72
113
85
76
107
82
74
106
76
62
90
65
52
92
67
54
94
66
51
91
65
51
87
61
47
89
64
50
84
59
44
82
58
46
88
66
52
86
68
61
83
65
59
74
60
56
63
50
47
69
53
49
81
67
63
87
70
67
73
62
60
66
55
53
66
56
54
74
61
57
71
57
53
78
63
58
76
60
52
89
70
61
96
74
66
105
82
73
107
83
73
107
82
72
103
77
64
105
76
59
103
71
55
113
83
65
134
100
84
130
92
71
130
94
75
114
77
54
124
89
73
136
101
83
145
105
85
146
104
81
137
94
68
136
95
72
146
100
70
151
101
65
155
109
72
155
110
76
155
117
64
155
110
48
155
99
44
155
104
61
140
86
39
155
99
51
149
95
55
143
89
47
140
91
56
126
85
59
134
93
70
136
101
83
134
103
84
116
86
75
123
92
76
122
89
72
124
94
80
116
88
77
105
74
56
95
63
44
81
54
41
79
55
42
81
55
42
84
58
45
77
55
43
90
66
56
103
76
65
102
79
69
91
72
66
82
66
61
85
70
64
86
72
64
89
73
64
91
74
68
104
85
77
103
82
71
110
85
72
108
83
70
99
78
68
95
74
62
96
72
57
95
69
55
111
80
62
120
88
69
120
88
69
121
89
71
132
96
75
126
90
71
134
97
77
126
84
58
125
86
65
117
80
62
116
82
65
135
98
77
134
87
60
136
91
65
148
102
72
155
106
72
155
110
73
155
113
70
155
112
47
155
116
54
155
117
55
155
105
50
155
102
38
155
100
51
149
92
45
155
104
50
155
104
57
155
106
62
150
97
56
155
110
79
150
102
66
145
99
68
136
94
67
135
87
54
144
99
73
118
77
53
118
78
53
123
80
54
109
70
47
104
66
43
116
75
50
113
73
49
106
70
46
99
65
46
96
65
49
99
68
53
103
71
55
101
70
54
100
82
73
99
81
71
101
82
72
97
78
67
97
76
66
96
73
60
102
78
65
106
79
65
99
73
60
97
71
55
102
79
66
102
78
68
111
83
69
101
77
66
109
82
69
109
83
71
109
79
62
123
90
75
115
82
66
127
92
74
108
70
49
128
89
67
123
85
64
125
84
62
119
77
51
138
89
56
155
113
87
155
112
77
155
108
75
155
107
66
155
108
64
155
103
49
155
108
60
155
102
41
155
113
53
155
114
63
153
98
52
151
94
49
142
92
56
132
80
42
152
113
88
132
92
71
136
95
70
125
84
61
133
92
69
133
93
70
129
89
66
115
74
49
108
70
48
115
75
52
110
72
50
104
68
46
108
71
50
107
72
52
104
69
50
96
62
40
97
63
40
97
63
43
100
67
48
108
74
57
73
61
59
82
69
63
84
67
61
96
78
70
87
68
59
88
69
58
81
62
52
85
64
53
92
69
57
99
76
64
81
61
50
79
62
55
96
74
64
101
79
71
90
69
62
98
76
66
109
85
76
115
88
76
112
83
71
107
77
62
108
76
59
106
74
57
115
86
73
130
98
86
131
96
84
133
97
82
140
105
88
141
104
85
124
85
66
132
92
72
140
100
79
136
91
62
140
96
71
138
94
68
131
90
69
136
94
70
138
93
67
134
91
65
129
88
63
151
114
95
128
98
87
121
83
64
124
89
69
120
83
64
110
71
51
101
62
40
101
62
40
108
69
46
102
65
42
99
62
43
111
75
56
87
53
33
91
60
42
87
55
37
84
54
35
80
53
37
84
58
42
83
56
43
75
50
37
72
49
38
68
56
50
73
58
51
82
67
60
85
67
60
86
66
57
76
56
48
68
51
42
79
60
49
98
72
60
85
62
51
84
60
49
92
68
59
94
71
60
101
76
63
97
69
56
97
72
62
101
75
64
115
86
75
132
101
92
108
80
67
101
72
58
93
62
47
110
76
61
129
96
83
117
84
70
121
89
77
144
107
90
139
101
83
135
92
70
129
87
67
130
92
72
145
99
72
147
99
72
137
93
66
139
93
65
141
98
75
136
93
66
137
94
73
147
112
96
135
100
84
123
86
69
138
99
81
124
86
67
123
87
70
123
87
67
124
86
69
125
86
68
123
83
63
119
79
59
106
68
46
89
52
30
92
57
38
102
68
50
109
75
59
83
54
38
73
48
32
62
39
26
74
51
39
86
63
51
73
51
39
57
46
42
65
52
48
76
61
58
79
62
56
74
57
52
76
59
54
68
52
46
67
53
47
79
60
52
83
66
57
88
67
61
92
73
66
103
79
71
112
85
76
104
76
65
78
52
41
95
67
57
119
89
77
119
88
78
99
68
53
87
56
40
119
86
73
137
104
92
130
99
87
126
95
85
118
89
81
135
101
87
129
95
83
121
83
67
117
78
58
100
64
46
134
94
74
133
91
71
126
85
65
130
85
61
139
95
72
130
89
66
128
83
59
127
85
62
135
92
70
121
81
59
141
102
85
123
88
72
78
42
18
81
45
22
88
52
28
91
55
34
92
54
31
97
59
37
99
62
42
98
62
42
93
57
38
87
54
35
82
52
34
95
65
51
96
66
52
90
64
51
75
57
48
57
45
42
49
39
37
53
44
42
62
52
48
78
65
61
95
78
74
88
71
65
88
70
65
86
67
61
85
67
61
91
71
64
88
68
62
100
78
71
107
84
78
118
97
91
126
100
95
118
91
81
126
99
92
136
111
105
94
71
63
78
57
47
84
59
50
127
98
89
136
109
103
119
94
88
107
79
70
105
76
66
102
73
64
113
85
77
127
91
77
110
77
65
103
70
56
113
75
58
133
99
84
109
70
52
127
84
63
118
79
59
130
89
70
129
87
64
125
82
60
123
82
61
128
88
68
138
101
83
140
103
88
139
105
92
75
39
18
70
38
17
69
37
15
72
40
17
74
41
18
79
44
19
82
45
21
78
45
21
75
42
22
74
43
25
73
45
28
74
47
32
71
45
30
71
46
33
66
43
30
59
40
28
48
33
24
36
29
26
34
26
22
38
29
27
40
31
27
42
33
29
45
33
29
47
36
31
55
42
37
52
38
31
48
34
27
58
41
35
55
39
32
47
32
25
63
46
42
118
95
89
126
101
95
89
68
61
113
89
84
124
102
97
134
111
108
130
105
102
94
68
60
84
58
48
93
65
55
88
61
49
93
65
55
96
66
56
102
73
64
131
96
83
105
73
60
87
56
44
121
87
74
123
92
82
115
80
67
128
92
77
126
87
71
114
76
58
95
57
41
111
74
57
121
83
66
118
83
68
124
86
71
120
84
70
71
38
18
59
31
13
59
31
12
57
31
13
58
32
16
60
33
17
63
35
16
65
36
18
63
35
17
60
34
19
55
32
18
51
31
18
48
30
18
48
30
21
46
29
19
40
25
16
38
24
17
19
16
14
21
17
14
26
20
16
31
23
20
32
24
21
32
23
19
32
23
19
35
25
18
38
26
18
38
26
20
38
26
17
40
26
18
41
27
19
51
35
28
125
99
95
126
99
92
127
102
97
103
83
80
93
73
69
88
65
58
122
93
85
120
90
80
119
90
79
101
72
61
110
79
70
108
78
68
96
64
53
95
64
53
92
63
54
118
91
84
120
89
79
138
104
93
136
102
92
116
86
74
124
91
81
131
96
86
101
69
57
80
52
40
81
50
38
98
62
46
115
77
60
128
92
77
73
47
36
60
31
13
54
29
12
52
28
14
49
28
15
49
28
15
50
28
15
50
27
14
50
27
15
49
28
16
47
27
15
43
25
15
41
24
14
37
23
13
38
23
15
36
23
14
35
22
14
29
18
14
14
11
11
19
15
13
26
19
16
28
20
17
29
20
18
30
21
19
31
22
19
30
21
17
29
21
17
30
21
17
32
22
16
34
22
16
35
22
15
35
23
16
42
28
24
62
47
42
42
29
25
37
22
15
37
23
16
38
24
16
56
40
32
83
60
53
124
93
84
119
87
77
121
88
79
133
101
91
130
97
86
120
86
74
118
84
74
120
87
78
127
100
93
141
108
100
138
103
93
134
103
95
138
105
94
141
106
95
138
102
89
127
93
79
122
86
72
129
93
80
120
88
77
73
51
44
44
23
10
42
22
10
43
23
12
40
22
11
36
20
11
34
19
12
37
21
12
40
23
13
40
23
13
38
21
13
36
21
11
35
21
13
33
19
11
32
20
11
32
19
11
30
19
12
29
19
15
24
15
11
13
9
8
16
12
12
19
14
13
21
16
13
24
17
14
25
17
14
25
17
14
25
16
14
26
17
14
27
18
16
29
20
15
29
19
14
30
19
14
29
19
13
32
20
16
32
20
14
31
19
15
31
19
14
32
20
13
33
21
14
34
21
14
34
21
15
44
29
22
56
39
32
75
52
44
78
54
47
86
61
55
72
51
44
59
37
28
50
25
15
49
27
17
76
57
52
110
82
75
119
90
81
96
72
65
103
81
75
110
85
79
100
75
68
100
75
67
74
53
45
46
24
12
41
21
9
38
20
10
34
18
9
33
18
10
33
17
10
30
16
10
28
14
10
27
15
9
28
16
9
29
16
10
29
17
11
30
18
10
28
16
9
26
15
9
25
15
10
25
16
10
25
15
10
22
13
7
20
11
5
11
6
3
13
7
6
14
9
8
16
12
11
16
12
10
17
13
10
20
15
11
23
15
13
26
16
13
24
16
13
27
18
14
26
16
14
26
16
14
27
17
14
28
19
14
28
18
15
27
18
13
27
18
13
28
17
14
29
18
13
29
18
10
30
17
10
31
18
9
31
18
9
33
19
10
37
20
11
37
18
7
37
19
8
39
19
8
41
21
11
41
19
8
44
21
10
37
18
9
41
20
10
42
21
10
45
23
10
43
21
7
44
21
8
48
25
13
45
22
9
40
20
8
35
18
9
33
18
10
29
15
9
28
14
8
27
15
9
26
14
10
23
14
9
24
12
8
22
12
8
22
13
8
22
13
8
21
11
6
20
11
6
20
11
6
20
11
4
19
10
5
19
9
4
18
9
4
14
6
3
