P3
60 40
255
0
0
0
0
0
0
0
0
0
0
0
0
0
0
2
0
0
7
0
0
13
0
0
13
0
0
10
0
0
11
0
0
14
0
1
20
0
2
23
0
5
28
0
9
35
0
8
33
0
6
29
7
7
29
19
4
18
22
6
11
21
2
9
17
0
9
18
0
9
23
2
3
32
5
0
35
5
0
31
4
0
27
3
0
25
3
2
22
3
3
22
3
4
23
3
3
24
1
0
24
0
0
26
0
0
31
0
0
37
3
0
46
5
0
42
4
0
33
0
0
28
0
0
24
0
0
19
0
0
18
0
0
16
0
9
7
4
20
3
4
24
0
0
19
0
0
14
0
0
8
1
0
1
4
0
0
5
0
0
5
0
0
4
0
0
2
0
0
0
0
0
0
0
0
0
0
0
0
0
0
0
0
0
0
0
0
0
0
0
0
0
0
0
0
2
0
0
6
0
0
15
0
2
24
0
0
22
0
1
24
0
0
22
0
2
23
1
4
25
4
6
25
2
7
26
0
9
31
2
12
34
11
9
29
23
7
17
26
7
7
29
6
2
28
4
0
25
2
1
32
4
0
41
7
0
45
8
0
38
6
0
33
4
0
32
4
0
31
4
0
30
4
1
31
4
0
34
3
0
34
2
0
37
3
0
46
6
0
52
8
0
53
8
0
43
5
0
36
2
0
31
2
0
27
4
0
26
5
2
25
5
4
24
4
8
21
5
12
16
4
13
13
1
7
12
0
3
13
0
0
14
0
0
18
0
0
17
0
0
17
0
0
16
0
0
10
0
0
2
0
0
0
0
0
0
0
0
2
0
0
0
0
0
0
0
0
0
0
0
0
0
0
0
0
0
0
0
4
0
0
10
0
1
21
0
4
25
0
6
26
0
3
26
0
1
23
0
3
26
0
8
29
4
10
30
9
11
32
13
14
34
18
11
29
24
10
16
25
7
7
31
6
1
38
6
0
36
5
0
47
7
0
54
10
0
62
12
0
58
11
0
51
9
0
45
6
0
41
6
0
39
5
0
39
6
0
42
5
0
48
5
0
52
7
0
59
11
0
64
12
0
56
10
0
47
6
0
37
4
0
35
6
0
34
6
0
32
7
2
31
8
1
30
7
2
27
6
0
27
3
0
26
1
0
25
0
0
29
0
0
35
4
0
38
5
0
31
1
0
28
0
0
23
0
0
18
0
0
17
0
0
23
0
0
37
0
0
47
3
0
0
0
0
0
0
0
0
0
0
0
0
0
0
0
0
0
0
0
0
0
0
0
0
5
0
0
11
0
2
18
0
3
21
0
1
19
0
2
20
0
3
21
4
4
18
13
7
21
22
13
26
29
13
20
31
12
12
31
8
3
36
8
0
46
8
0
48
7
0
56
9
0
60
13
0
73
16
0
77
17
0
73
16
0
62
12
0
54
8
0
51
7
0
50
6
0
50
6
0
52
7
0
56
9
0
59
12
0
63
13
0
56
11
0
47
9
0
40
8
0
37
8
0
37
8
0
37
8
0
38
9
0
38
7
0
38
6
0
34
5
0
34
5
0
38
7
0
44
10
0
49
12
0
41
6
0
34
2
0
32
0
0
34
0
0
37
0
0
50
8
0
67
18
0
73
23
0
77
23
0
0
0
0
0
0
0
0
0
0
2
0
0
4
0
0
6
0
0
5
0
0
5
0
0
4
0
3
3
1
11
6
3
13
8
3
13
10
3
13
9
4
14
11
5
14
18
4
10
21
6
8
26
8
9
31
10
5
39
9
1
45
10
0
55
11
0
57
11
0
57
10
0
60
11
0
72
16
0
81
18
0
77
17
0
65
12
0
58
9
0
58
9
0
57
9
0
57
8
0
57
10
0
59
10
0
63
12
0
67
15
0
63
14
0
56
11
0
51
11
0
45
10
0
41
10
1
41
9
0
43
8
0
43
9
0
41
8
0
43
9
0
54
13
0
62
15
0
60
15
0
55
13
0
42
4
0
35
1
0
37
1
0
45
6
0
56
13
0
67
20
0
75
26
0
76
25
0
67
18
0
0
0
0
0
0
0
0
0
0
4
0
0
9
0
0
11
0
0
12
0
0
11
0
0
12
0
0
11
1
0
13
3
6
15
5
11
19
5
7
22
6
5
24
7
8
25
8
8
26
9
8
29
11
10
30
13
13
36
11
2
48
11
0
60
14
0
65
16
0
66
15
0
65
15
0
73
16
0
81
20
0
81
18
0
75
15
0
69
11
0
67
11
0
66
11
0
67
12
0
69
13
0
71
13
0
74
15
0
82
20
0
78
18
0
71
15
0
64
15
0
59
14
0
52
12
0
48
11
0
48
10
0
45
10
0
44
10
0
49
12
0
60
15
0
63
16
0
50
11
0
42
6
0
38
4
0
38
3
0
40
5
0
47
9
0
54
13
0
62
16
0
60
14
0
47
7
0
21
0
0
0
0
0
1
0
0
2
0
0
2
0
0
7
0
0
9
0
0
10
0
0
13
0
0
15
2
0
18
4
0
21
5
0
22
8
4
24
8
5
27
9
4
28
10
6
30
11
6
33
13
7
35
16
12
37
17
16
39
19
14
48
26
19
61
28
16
70
27
6
71
26
3
70
26
6
73
25
0
83
26
0
88
23
0
88
20
0
82
17
0
78
15
0
76
14
0
76
14
0
77
15
0
83
18
0
96
24
0
106
28
0
99
26
0
93
23
0
93
24
0
86
22
0
73
18
0
64
15
0
59
13
0
60
14
0
60
15
0
54
13
0
47
11
0
47
9
0
50
10
0
61
16
0
71
23
0
63
17
0
56
13
0
48
10
0
48
9
0
38
1
0
26
0
0
17
0
0
7
0
0
1
0
0
6
0
0
9
0
0
11
0
0
15
0
0
18
0
0
21
0
0
22
1
0
23
3
0
25
5
0
28
6
0
29
7
0
30
9
0
34
10
0
34
11
2
35
13
3
41
14
5
43
16
7
45
20
9
49
20
10
53
24
15
64
35
28
71
43
34
74
38
24
78
45
34
83
51
40
90
45
27
95
31
0
101
27
0
98
24
0
94
22
0
90
19
0
90
19
0
92
19
0
103
26
0
127
38
0
134
43
0
132
41
0
137
44
0
131
41
0
110
30
0
95
25
0
87
22
0
76
19
0
76
20
0
66
17
0
55
11
0
53
11
0
62
15
0
79
23
0
89
29
0
71
20
0
51
10
0
47
8
0
42
5
0
36
0
0
29
0
0
25
0
0
21
0
0
15
0
0
4
0
0
9
0
0
13
0
0
17
0
0
22
0
0
26
0
0
28
3
0
29
5
0
31
6
0
31
8
0
34
8
0
36
8
0
40
9
0
44
11
0
48
12
0
48
13
0
51
14
0
55
16
0
58
18
0
61
22
0
65
24
2
68
28
8
73
30
7
78
33
8
84
47
33
92
65
56
98
45
19
99
28
0
114
35
0
124
37
0
120
33
0
117
30
0
120
32
0
127
37
0
139
49
0
150
63
0
152
66
0
154
68
0
153
66
0
147
53
0
137
44
0
133
42
0
122
38
0
92
24
0
74
17
0
68
15
0
68
15
0
76
21
0
88
27
0
85
27
0
72
21
0
59
16
0
60
13
0
56
13
0
47
6
0
38
2
0
35
0
0
32
0
0
29
0
0
28
0
0
15
0
0
16
0
0
19
0
0
22
0
0
26
1
0
29
2
0
32
5
0
33
7
0
35
8
0
37
10
0
41
11
0
44
12
0
49
12
0
55
12
0
58
15
0
61
17
0
64
19
0
68
20
0
70
22
0
73
23
0
76
24
0
78
25
0
82
26
0
87
30
0
91
40
13
94
44
16
97
37
1
100
32
0
103
35
0
115
34
0
135
42
0
142
45
0
145
51
0
149
63
0
150
71
0
154
80
0
154
78
0
154
75
0
154
74
0
152
66
0
147
50
0
142
48
0
114
33
0
86
19
0
77
17
0
78
20
0
83
23
0
89
27
0
89
26
0
94
30
0
85
26
0
68
17
0
67
20
0
59
16
0
51
11
0
47
9
0
42
7
0
41
4
0
39
3
0
35
1
0
25
6
0
31
5
0
34
5
0
36
7
0
39
8
0
40
10
0
41
11
0
42
11
0
43
13
0
46
14
0
49
14
0
52
15
0
54
15
0
57
16
0
64
18
0
69
21
0
75
23
0
78
23
0
79
25
0
84
26
0
89
27
0
94
29
0
98
30
0
101
32
0
101
31
0
104
31
0
108
31
0
108
30
0
114
31
0
119
31
0
128
35
0
136
39
0
139
43
0
142
45
0
134
38
0
131
37
0
132
42
0
146
60
0
153
73
0
152
70
0
132
46
0
101
27
0
90
22
0
89
22
0
89
23
0
92
26
0
96
30
0
102
32
0
113
40
0
98
32
0
82
25
0
71
21
0
67
19
0
62
17
0
59
16
0
57
15
0
53
13
0
48
10
0
41
4
0
34
0
0
24
6
0
30
9
0
35
11
0
37
11
0
39
12
0
42
14
0
45
15
0
50
16
0
55
17
0
59
19
0
62
20
0
64
20
0
67
21
0
67
21
0
69
22
0
74
22
0
76
23
0
78
23
0
82
25
0
88
27
0
92
29
0
98
32
0
102
37
0
114
56
10
117
49
0
120
35
0
124
34
0
127
35
0
133
37
0
137
40
0
139
42
0
140
42
0
139
44
0
139
47
0
139
48
0
132
37
0
126
35
0
129
39
0
129
45
0
124
40
0
112
32
0
103
28
0
104
29
0
107
32
0
104
33
0
106
35
0
108
38
0
112
39
0
102
35
0
94
31
0
85
28
0
80
25
0
72
22
0
64
18
0
61
16
0
58
15
0
57
14
0
57
13
0
57
14
0
54
11
0
28
6
0
31
8
0
34
10
0
37
14
0
41
15
0
42
18
0
46
19
0
50
19
0
56
19
0
61
21
0
65
22
0
68
23
0
72
24
0
75
25
0
79
26
0
82
26
0
86
28
0
89
28
0
90
29
0
94
30
0
100
33
0
107
37
0
115
55
0
125
79
34
123
52
0
128
38
0
134
39
0
139
41
0
142
49
0
150
72
0
148
94
0
145
94
0
147
96
0
150
73
0
143
55
0
144
63
0
141
55
0
131
40
0
124
36
0
120
35
0
118
36
0
122
39
0
125
43
0
131
49
0
140
54
0
144
63
0
142
59
0
133
51
0
116
40
0
99
34
0
93
30
0
93
31
0
92
30
0
98
33
0
90
31
0
81
27
0
67
20
0
58
15
0
53
12
0
48
9
0
44
30
0
44
27
0
45
23
0
47
23
0
49
23
0
52
21
0
55
21
0
57
23
0
60
22
0
62
24
0
65
24
0
69
25
0
74
26
0
77
26
0
81
27
0
84
28
0
88
29
0
93
31
0
98
34
0
102
35
0
106
35
0
111
36
0
118
39
0
124
42
0
129
40
0
135
41
0
139
44
0
139
51
0
146
56
0
151
64
0
148
85
0
147
109
0
146
96
0
148
90
0
148
84
0
150
72
0
148
70
0
138
55
0
135
46
0
133
47
0
133
51
0
139
59
0
136
54
0
139
56
0
138
54
0
130
47
0
126
46
0
122
44
0
115
41
0
104
35
0
94
31
0
90
31
0
85
29
0
77
26
0
74
24
0
70
23
0
67
21
0
64
20
0
58
15
0
52
11
0
58
52
8
62
53
8
65
55
9
66
54
3
69
48
0
73
45
0
75
43
0
76
40
0
73
35
0
72
31
0
76
31
0
79
30
0
82
30
0
85
32
0
88
32
0
92
32
0
96
34
0
100
34
0
102
35
0
108
36
0
114
38
0
120
39
0
125
41
0
131
43
0
136
46
0
136
48
0
140
53
0
148
60
0
152
67
0
149
76
0
145
88
0
141
104
0
141
114
0
142
100
0
147
82
0
150
72
0
148
79
0
145
86
0
143
77
0
141
69
0
143
63
0
138
57
0
130
49
0
126
46
0
123
44
0
120
43
0
110
38
0
108
38
0
104
37
0
104
37
0
99
36
0
95
34
0
92
32
0
86
31
0
80
28
0
73
25
0
70
23
0
65
21
0
62
17
0
57
14
0
58
43
0
61
46
0
66
48
0
68
51
0
75
53
0
81
55
0
87
58
0
92
60
0
97
62
0
101
64
0
104
64
0
105
61
0
106
56
0
106
55
0
102
44
0
102
40
0
104
39
0
107
39
0
110
39
0
115
40
0
119
40
0
126
42
0
133
44
0
137
46
0
140
49
0
142
54
0
149
61
0
149
71
0
146
83
0
140
98
0
137
116
0
137
129
0
136
120
0
140
109
0
142
95
0
147
83
0
149
79
0
150
70
0
144
70
0
141
70
0
141
64
0
137
56
0
134
55
0
139
58
0
137
54
0
125
47
0
118
42
0
116
42
0
107
36
0
98
34
0
92
32
0
92
33
0
88
32
0
86
30
0
80
28
0
73
26
0
70
23
0
69
22
0
69
20
0
59
14
0
40
18
0
44
22
0
48
25
0
52
28
0
58
32
0
63
34
0
68
38
0
74
40
0
80
43
0
85
46
0
92
48
0
99
51
0
104
54
0
109
55
0
114
57
0
119
59
0
124
57
0
132
59
0
131
57
0
130
51
0
133
49
0
136
47
0
140
45
0
145
44
0
147
48
0
151
54
0
151
63
0
146
77
0
140
95
0
136
116
0
136
137
0
140
149
24
141
145
0
134
122
0
140
108
0
143
93
0
147
86
0
146
80
0
144
78
0
139
71
0
137
65
0
138
64
0
126
52
0
115
40
0
104
29
0
94
26
0
85
22
0
80
21
0
82
23
0
77
21
0
73
21
0
73
24
0
70
23
0
67
22
0
61
19
0
58
15
0
57
13
0
52
8
0
45
3
0
39
0
0
12
0
0
16
0
0
20
0
0
24
1
0
29
4
0
33
7
0
36
9
0
41
12
0
45
14
0
48
16
0
52
18
0
56
19
0
60
21
0
64
22
0
68
23
0
74
24
0
77
26
0
82
26
0
84
27
0
89
27
0
93
28
0
99
29
0
106
29
0
113
29
0
122
33
0
132
36
0
140
41
0
143
49
0
144
62
0
138
78
0
135
103
0
135
127
0
137
89
0
141
69
0
139
53
0
133
45
0
124
40
0
116
37
0
110
35
0
106
32
0
101
30
0
97
29
0
91
25
0
86
23
0
79
19
0
73
17
0
68
15
0
64
14
0
60
12
0
58
11
0
55
9
0
52
8
0
48
6
0
45
2
0
41
0
0
35
0
0
30
0
0
26
0
0
20
0
0
16
0
0
0
0
0
0
0
0
0
0
0
0
0
0
0
0
0
0
0
0
0
0
0
0
0
0
0
0
0
0
0
0
0
0
0
0
0
0
0
0
0
0
0
0
0
0
0
0
0
0
0
0
0
0
0
0
0
0
0
2
0
0
11
0
0
16
0
0
19
0
0
21
0
0
23
0
0
24
0
0
31
0
0
30
0
0
33
0
0
39
0
0
50
0
0
59
0
0
49
0
0
42
0
0
59
0
0
53
0
0
37
0
0
29
0
0
21
0
0
23
0
0
22
0
0
23
0
0
22
0
0
25
0
0
27
0
0
27
0
0
31
0
0
24
0
0
20
0
0
15
0
0
14
0
0
11
0
0
10
0
0
7
0
0
9
0
0
5
0
0
0
0
0
0
0
0
0
0
0
0
0
0
0
0
0
0
0
0
0
0
0
0
0
0
0
0
0
0
0
0
0
0
0
0
0
0
0
0
0
2
0
0
3
0
0
2
0
0
6
0
0
6
0
0
11
0
0
19
0
0
16
0
0
13
0
0
13
0
0
13
0
0
18
0
0
22
0
0
22
0
0
30
0
0
30
0
0
38
2
0
35
0
0
36
0
0
50
0
0
61
5
0
69
8
0
72
10
0
76
16
0
71
10
0
60
3
0
64
8
0
68
11
0
64
10
0
62
9
0
57
8
0
52
7
0
50
5
0
47
4
0
45
5
0
40
2
0
36
1
0
35
1
0
37
3
0
34
0
0
33
0
0
28
0
0
28
0
0
25
0
0
19
0
0
16
0
0
14
0
0
10
0
0
9
0
0
11
0
0
8
0
0
0
0
0
1
0
0
4
0
0
4
0
0
7
0
0
8
0
0
17
0
0
23
4
0
22
3
0
19
0
0
24
2
0
25
1
0
24
2
0
14
0
0
8
0
0
9
0
0
17
0
0
33
2
0
40
8
0
38
4
0
43
6
0
51
12
0
62
17
0
69
20
0
73
21
0
73
18
0
83
19
0
99
27
0
105
27
0
117
35
0
115
37
0
124
48
0
116
36
0
111
31
0
99
27
0
92
23
0
87
23
0
83
22
0
78
22
0
75
20
0
61
11
0
52
6
0
53
12
0
49
9
0
46
4
0
51
9
0
48
4
0
46
3
0
45
3
0
30
0
0
34
0
0
25
0
0
17
0
0
15
0
0
22
0
0
22
0
0
11
0
0
12
0
0
12
0
0
7
0
0
0
0
0
2
0
0
6
0
0
5
0
0
6
0
0
8
0
0
17
0
0
18
0
0
19
0
0
21
0
0
20
0
0
17
0
0
16
0
0
12
0
0
11
0
0
19
0
0
24
0
0
22
0
0
27
0
0
20
0
0
16
0
0
18
0
0
17
0
0
16
0
0
25
0
0
32
0
0
36
0
0
38
0
0
43
0
0
46
1
0
50
2
0
46
0
0
55
5
0
63
10
0
58
8
0
56
10
0
57
11
0
53
10
0
51
10
0
49
8
0
47
7
0
48
7
0
45
9
0
41
2
0
41
6
0
37
3
0
27
0
0
23
0
0
18
0
0
8
0
0
7
0
0
0
0
0
0
0
0
0
0
0
0
0
0
1
0
0
0
0
0
0
0
0
0
0
0
0
0
0
0
0
0
0
0
0
0
0
0
0
0
0
0
0
0
0
0
0
0
0
0
0
0
0
0
0
0
0
0
0
0
0
0
8
0
0
17
0
0
12
0
0
23
0
0
25
0
0
37
0
0
33
0
0
43
3
0
42
3
0
43
3
0
41
3
0
39
2
0
29
0
0
27
0
0
24
0
0
16
0
0
16
0
0
16
0
0
23
0
0
39
0
0
39
0
0
44
3
0
37
0
0
37
0
0
32
0
0
37
1
0
29
0
0
26
0
0
21
0
0
12
0
0
5
0
0
4
0
0
5
0
0
0
0
0
0
0
0
0
0
0
0
0
0
0
0
0
0
0
0
0
0
0
0
0
0
0
0
0
0
0
0
0
0
0
0
0
0
0
0
0
0
0
0
0
0
0
0
0
0
0
0
0
0
0
0
0
0
0
0
0
0
0
0
0
0
0
0
0
0
0
0
0
0
0
0
0
0
0
0
1
0
0
3
0
0
1
0
0
0
0
0
0
0
0
0
0
0
1
0
0
11
0
0
17
0
0
17
0
0
23
0
0
26
0
0
16
0
0
21
0
0
16
0
0
19
0
0
21
0
0
8
0
0
0
0
0
0
0
0
0
0
0
0
0
0
0
0
0
0
0
0
0
0
0
0
0
0
0
0
0
0
0
0
0
0
0
0
0
0
0
0
0
0
0
0
0
0
0
0
0
0
5
0
0
9
0
0
13
0
0
13
0
0
21
0
0
26
0
0
20
0
0
26
0
0
23
0
0
19
0
0
18
0
0
9
0
0
15
0
0
17
0
0
13
0
0
12
0
0
0
0
0
0
0
0
0
0
0
0
0
0
0
0
0
0
0
0
0
0
0
0
0
0
0
0
0
0
0
0
0
0
0
0
0
0
0
0
0
0
0
0
0
0
0
0
0
0
0
0
0
0
0
0
0
0
0
0
0
0
0
0
0
0
0
0
0
0
0
0
0
0
0
0
0
2
0
0
1
0
0
8
0
0
22
0
0
28
0
0
17
0
0
32
0
0
35
0
0
42
0
0
39
0
0
37
0
0
47
0
0
46
0
0
53
0
0
46
0
0
44
0
0
31
0
0
46
0
0
43
0
0
40
0
0
41
0
0
46
0
0
45
0
0
38
0
0
36
0
0
23
0
0
18
0
0
20
0
0
16
0
0
15
0
0
8
0
0
3
0
0
3
0
0
0
0
0
0
0
0
0
0
0
0
0
0
0
0
0
0
0
0
0
0
0
0
0
0
0
0
0
0
0
0
0
0
0
0
0
0
0
0
0
0
0
0
0
0
0
0
0
0
0
0
0
0
0
0
0
0
0
0
0
0
0
0
0
0
0
0
0
0
0
0
0
0
0
0
0
0
0
0
0
0
0
0
0
0
0
0
0
0
0
0
0
0
0
0
0
0
0
0
0
13
0
0
28
0
0
40
0
0
45
0
0
50
0
0
35
0
0
38
0
0
11
0
0
0
0
0
14
0
0
6
0
0
1
0
0
0
0
0
9
0
0
4
0
0
7
0
0
0
0
0
0
0
0
8
0
0
10
0
0
12
0
0
8
0
0
0
0
0
0
0
0
0
0
0
0
0
0
0
0
0
0
0
0
0
0
0
0
0
0
0
0
0
0
0
0
0
0
0
0
0
0
0
0
0
0
0
0
0
0
0
0
0
0
0
0
0
3
0
0
3
0
0
8
0
0
1
0
0
3
0
0
0
0
0
4
0
0
10
0
0
3
0
0
9
0
0
5
0
0
4
0
0
3
0
0
12
0
0
3
0
0
5
0
0
3
0
0
6
0
0
9
0
0
7
0
0
0
0
0
0
0
0
0
0
0
0
0
0
0
0
0
0
0
0
0
0
0
0
0
0
0
0
0
0
0
0
0
0
0
0
0
0
0
0
0
6
0
0
0
0
0
0
0
0
0
0
0
7
0
0
0
0
0
0
0
0
0
0
0
6
0
0
0
0
0
0
0
0
0
0
0
0
0
0
0
0
0
0
0
0
0
0
0
0
0
0
0
0
0
0
0
0
0
0
0
0
0
0
0
0
0
0
0
0
0
0
0
0
0
0
0
0
0
0
0
0
2
0
0
0
0
0
0
0
0
0
0
0
0
0
0
0
0
0
0
0
0
0
0
0
5
0
0
0
0
0
0
0
0
9
0
0
3
0
0
0
0
0
0
0
0
6
0
0
17
0
0
13
0
0
14
0
0
2
0
0
9
0
0
2
0
0
0
0
0
1
0
0
0
0
0
4
0
0
0
0
0
0
0
0
0
0
0
6
0
0
4
0
0
13
0
0
7
0
0
6
0
0
0
0
0
0
0
0
0
0
0
0
0
0
0
0
0
0
0
0
0
0
0
0
0
0
0
0
0
0
0
0
0
0
0
0
0
0
0
0
0
0
0
0
0
0
0
0
0
0
0
0
0
0
0
0
0
0
0
0
0
0
0
0
0
0
0
0
0
0
0
0
0
0
0
0
0
5
0
0
7
0
0
7
0
0
3
0
0
5
0
0
3
0
0
13
0
0
34
0
0
30
0
0
30
0
0
14
0
0
24
0
0
36
1
0
45
5
0
46
4
0
37
0
0
36
0
0
46
0
0
51
1
0
60
9
0
59
10
0
76
17
0
75
10
0
60
0
0
57
4
0
40
0
0
55
0
0
49
0
0
43
0
0
40
0
0
26
0
0
34
0
0
36
1
0
34
3
0
16
0
0
23
0
0
22
0
0
24
0
0
16
0
0
5
0
0
0
0
0
0
0
0
0
0
0
0
0
0
0
0
0
0
0
0
0
0
0
3
0
0
2
0
0
0
0
0
0
0
0
0
0
0
0
0
0
0
0
0
0
0
0
4
0
0
3
0
0
10
0
0
8
0
0
0
0
0
0
0
0
0
0
0
0
0
0
11
0
0
20
0
0
20
0
0
21
0
0
32
0
0
26
0
0
34
0
0
26
0
0
25
0
0
17
0
0
16
0
0
35
0
0
34
0
0
36
0
0
48
2
0
56
6
0
60
10
0
67
13
0
75
12
0
78
16
0
78
17
0
65
5
0
67
2
0
59
0
0
49
0
0
64
4
0
58
4
0
56
6
0
50
0
0
55
10
0
50
2
0
45
0
0
36
0
0
35
0
0
44
0
0
18
0
0
18
0
0
23
0
0
9
0
0
4
0
0
16
0
0
13
0
0
6
0
0
0
0
0
0
0
0
0
0
0
3
0
0
1
0
0
0
0
0
0
0
0
1
0
0
0
0
0
0
0
0
0
0
0
2
0
0
6
0
0
0
0
0
0
0
0
2
0
0
2
0
0
11
0
0
1
0
0
9
0
0
9
0
0
9
0
0
23
0
0
15
0
0
27
0
0
8
0
0
28
0
0
23
0
0
25
0
0
19
0
0
38
0
0
56
13
0
60
12
0
56
8
0
60
7
0
62
8
0
63
3
0
62
8
0
66
2
0
75
13
0
70
14
0
53
0
0
51
0
0
42
0
0
32
0
0
52
13
0
32
0
0
36
0
0
25
0
0
33
0
0
33
0
0
29
0
0
15
0
0
8
0
0
15
0
0
10
0
0
4
0
0
8
0
0
7
0
0
4
0
0
0
0
0
0
0
0
0
0
0
0
0
0
8
0
0
0
0
0
0
0
0
0
0
0
0
0
0
0
0
0
0
0
0
0
0
0
0
0
0
0
0
0
0
0
0
0
0
0
0
0
0
0
0
0
1
0
0
0
0
0
0
0
0
9
0
0
15
0
0
12
0
0
7
0
0
8
0
0
6
0
0
15
0
0
30
0
0
31
0
0
33
0
0
40
5
0
41
4
0
24
0
0
32
0
0
40
0
0
36
0
0
40
0
0
38
0
0
31
0
0
36
0
0
38
0
0
34
0
0
29
0
0
51
14
0
28
0
0
21
0
0
24
0
0
20
0
0
10
0
0
1
0
0
1
0
0
8
0
0
2
0
0
0
0
0
11
0
0
0
0
0
0
0
0
0
0
0
0
0
0
0
0
0
0
0
0
0
0
0
0
0
0
0
0
0
0
0
0
0
0
0
0
0
0
0
0
0
0
0
0
0
0
0
0
0
0
0
0
0
0
0
0
0
0
0
0
0
0
0
0
0
0
0
0
1
0
0
0
0
0
0
0
0
1
0
0
15
0
0
32
1
0
8
0
0
1
0
0
0
0
0
10
0
0
29
0
0
17
0
0
21
0
0
44
7
0
39
1
0
35
0
0
29
0
0
30
0
0
45
0
0
47
0
0
37
0
0
39
0
0
41
0
0
36
0
0
37
0
0
47
12
0
35
0
0
23
0
0
38
0
0
24
0
0
23
0
0
23
0
0
24
0
0
25
0
0
23
0
0
19
0
0
6
0
0
0
0
0
0
0
0
2
0
0
9
0
0
0
0
0
0
0
0
0
0
0
0
0
0
0
0
0
0
0
0
0
0
0
0
0
0
0
0
0
0
0
0
0
0
0
0
0
0
0
0
0
0
0
0
0
0
0
0
0
0
0
0
0
0
0
0
3
0
0
12
0
0
4
0
0
0
0
0
0
0
0
19
0
0
19
0
0
0
0
0
0
0
0
19
0
0
37
4
0
30
0
0
26
0
0
18
0
0
35
1
0
29
0
0
21
0
0
17
0
0
0
0
0
34
0
0
33
0
0
26
0
0
30
0
0
39
0
0
30
0
0
28
0
0
27
0
0
35
0
0
21
0
0
41
2
0
23
0
0
0
0
0
0
0
0
0
0
0
0
0
0
0
0
0
0
0
0
0
0
0
0
0
0
0
0
0
0
0
0
0
0
0
0
0
0
0
0
0
0
0
0
0
0
0
0
0
0
0
0
0
0
0
0
0
0
0
0
0
0
0
0
0
0
0
0
0
0
0
0
0
0
0
0
0
0
0
0
0
0
0
0
0
0
7
0
0
18
0
0
26
0
0
18
0
0
26
0
0
36
11
5
0
0
0
0
0
0
0
0
0
27
0
0
36
9
3
19
0
0
7
0
0
5
0
0
2
0
0
13
0
0
27
0
0
10
0
0
3
0
0
13
0
0
33
0
0
9
0
0
27
0
0
18
0
0
30
0
0
29
0
0
25
0
0
23
0
0
28
0
0
38
1
0
40
3
0
39
5
0
0
0
0
0
0
0
0
0
0
0
0
0
0
0
0
0
0
0
0
0
0
0
0
0
0
0
0
0
0
0
0
0
0
0
0
0
0
0
0
0
0
0
0
0
0
0
0
0
0
0
0
0
0
0
0
0
0
0
0
0
0
0
0
0
0
0
0
0
0
0
0
0
0
0
0
0
0
0
0
0
0
0
0
0
0
0
0
0
0
0
0
0
0
18
0
0
26
1
0
0
0
0
13
0
0
24
2
0
34
11
8
30
5
2
0
0
0
0
0
0
0
0
0
0
0
0
0
0
0
0
0
0
2
0
0
31
0
0
5
0
0
0
0
0
21
0
0
23
0
0
15
0
0
28
0
0
26
0
0
14
0
0
0
0
0
11
0
0
21
0
0
18
0
0
24
0
0
20
0
0
0
0
0
0
0
0
0
0
0
0
0
0
0
0
0
0
0
0
0
0
0
0
0
0
0
0
0
0
0
0
0
0
0
0
0
0
0
0
0
0
0
0
0
0
0
0
0
0
0
0
0
0
0
0
0
0
0
0
0
0
0
0
0
0
0
0
0
0
0
0
0
0
0
0
0
0
0
0
0
0
0
0
0
0
0
0
0
0
0
0
0
0
0
25
0
0
26
0
0
27
2
0
3
0
0
0
0
0
0
0
0
22
0
0
20
0
0
19
0
0
1
0
0
10
0
0
8
0
0
0
0
0
0
0
0
0
0
0
18
0
0
20
0
0
38
4
0
36
2
0
16
0
0
24
0
0
31
0
0
1
0
0
0
0
0
0
0
0
0
0
0
15
0
0
28
0
0
0
0
0
0
0
0
0
0
0
0
0
0
0
0
0
0
0
0
0
0
0
0
0
0
0
0
0
0
0
0
0
0
0
0
0
0
0
0
0
0
0
0
0
0
0
0
0
0
0
0
0
0
0
0
0
0
0
0
0
0
0
0
0
0
0
0
0
0
0
0
0
0
0
0
0
0
0
0
0
0
0
0
0
0
0
0
0
0
0
0
0
0
0
0
0
0
0
0
0
0
0
0
0
0
0
0
0
0
0
0
0
0
0
0
0
0
0
0
0
0
24
0
0
19
0
0
21
0
0
33
1
0
30
0
0
20
0
0
18
0
0
20
0
0
27
0
0
41
8
0
38
3
0
34
3
0
38
5
0
41
6
0
38
2
0
27
0
0
22
0
0
29
0
0
20
0
0
0
0
0
0
0
0
0
0
0
0
0
0
0
0
0
0
0
0
0
0
0
0
0
0
0
0
0
0
0
0
0
0
0
0
0
0
0
0
0
0
0
0
0
0
0
0
0
0
0
0
0
0
0
0
0
0
0
0
0
0
0
0
0
0
0
0
0
0
0
0
0
0
0
0
0
0
0
0
0
0
0
0
0
0
0
0
0
0
0
0
0
0
0
0
0
0
0
0
0
0
0
0
0
0
0
0
0
0
0
0
0
0
0
0
0
0
0
0
0
0
0
0
0
0
0
0
0
0
0
0
0
0
0
0
0
0
0
0
0
0
0
0
0
0
0
0
0
0
0
0
0
0
0
10
0
0
19
0
0
0
0
0
3
0
0
10
0
0
0
0
0
0
0
0
0
0
0
0
0
0
0
0
0
0
0
0
0
0
0
0
0
0
0
0
0
0
0
0
0
0
0
0
0
0
0
0
0
0
0
0
0
0
0
0
0
0
0
0
0
0
0
0
0
0
0
0
0
0
0
0
0
0
0
0
0
0
0
0
0
0
0
0
0
0
0
0
0
0
0
0
0
0
0
0
0
0
0
0
0
0
0
0
0
0
0
0
0
0
0
0
0
0
0
0
0
0
0
0
0
0
0
0
0
0
0
0
0
0
0
0
0
0
0
0
0
0
0
0
0
0
0
0
0
0
0
0
0
0
0
0
0
0
0
0
0
0
0
0
0
0
0
0
0
0
0
0
0
0
0
0
0
0
0
0
0
0
0
0
0
0
0
0
0
0
0
0
0
0
0
0
0
0
0
0
0
0
0
0
0
0
0
0
0
0
0
0
0
0
0
0
0
0
0
0
0
0
0
0
0
0
0
0
0
0
0
0
0
0
0
0
0
0
0
0
0
0
0
0
0
0
0
0
0
0
0
0
0
0
0
0
0
0
0
0
0
0
0
