P3
60 40
255
71
71
71
76
76
76
81
81
81
84
84
84
86
86
86
90
90
90
94
94
94
95
95
95
93
93
93
95
95
95
98
98
98
101
101
101
102
102
102
105
105
105
109
109
109
108
108
108
106
106
106
107
107
107
104
104
104
106
106
106
102
102
102
100
100
100
100
100
100
102
102
102
105
105
105
105
105
105
104
104
104
103
103
103
103
103
103
103
103
103
103
103
103
103
103
103
101
101
101
99
99
99
99
99
99
100
100
100
103
103
103
105
105
105
104
104
104
100
100
100
99
99
99
98
98
98
100
100
100
100
100
100
100
100
100
104
104
104
104
104
104
100
100
100
97
97
97
95
95
95
93
93
93
92
92
92
92
92
92
92
92
92
91
91
91
89
89
89
86
86
86
81
81
81
76
76
76
71
71
71
75
75
75
80
80
80
84
84
84
86
86
86
88
88
88
89
89
89
97
97
97
102
102
102
99
99
99
101
101
101
100
100
100
102
102
102
104
104
104
106
106
106
107
107
107
109
109
109
112
112
112
109
109
109
107
107
107
107
107
107
106
106
106
104
104
104
102
102
102
104
104
104
107
107
107
108
108
108
106
106
106
104
104
104
104
104
104
104
104
104
104
104
104
104
104
104
103
103
103
102
102
102
103
103
103
106
106
106
108
108
108
108
108
108
105
105
105
102
102
102
102
102
102
104
104
104
105
105
105
105
105
105
104
104
104
105
105
105
104
104
104
101
101
101
99
99
99
97
97
97
96
96
96
98
98
98
97
97
97
96
96
96
95
95
95
91
91
91
86
86
86
82
82
82
80
80
80
80
80
80
78
78
78
82
82
82
85
85
85
88
88
88
90
90
90
91
91
91
94
94
94
101
101
101
104
104
104
106
106
106
103
103
103
101
101
101
103
103
103
108
108
108
110
110
110
111
111
111
114
114
114
111
111
111
110
110
110
107
107
107
106
106
106
106
106
106
105
105
105
107
107
107
110
110
110
112
112
112
111
111
111
109
109
109
106
106
106
106
106
106
105
105
105
106
106
106
105
105
105
105
105
105
107
107
107
111
111
111
112
112
112
110
110
110
106
106
106
104
104
104
106
106
106
106
106
106
107
107
107
108
108
108
107
107
107
106
106
106
103
103
103
101
101
101
100
100
100
100
100
100
104
104
104
105
105
105
101
101
101
97
97
97
95
95
95
93
93
93
91
91
91
92
92
92
98
98
98
103
103
103
81
81
81
86
86
86
88
88
88
91
91
91
91
91
91
92
92
92
94
94
94
96
96
96
98
98
98
102
102
102
103
103
103
101
101
101
102
102
102
103
103
103
104
104
104
107
107
107
113
113
113
113
113
113
112
112
112
108
108
108
108
108
108
108
108
108
107
107
107
109
109
109
113
113
113
116
116
116
117
117
117
116
116
116
112
112
112
108
108
108
107
107
107
106
106
106
106
106
106
107
107
107
109
109
109
112
112
112
113
113
113
111
111
111
109
109
109
108
108
108
108
108
108
108
108
108
108
108
108
109
109
109
107
107
107
106
106
106
105
105
105
105
105
105
107
107
107
110
110
110
112
112
112
106
106
106
102
102
102
99
99
99
98
98
98
100
100
100
108
108
108
118
118
118
123
123
123
123
123
123
82
82
82
87
87
87
91
91
91
92
92
92
94
94
94
95
95
95
96
96
96
96
96
96
97
97
97
101
101
101
103
103
103
103
103
103
103
103
103
104
104
104
105
105
105
104
104
104
106
106
106
108
108
108
110
110
110
109
109
109
110
110
110
111
111
111
111
111
111
110
110
110
111
111
111
116
116
116
118
118
118
117
117
117
112
112
112
109
109
109
109
109
109
109
109
109
108
108
108
110
110
110
110
110
110
112
112
112
115
115
115
114
114
114
111
111
111
111
111
111
110
110
110
110
110
110
109
109
109
108
108
108
109
109
109
108
108
108
109
109
109
113
113
113
115
115
115
115
115
115
113
113
113
104
104
104
101
101
101
101
101
101
106
106
106
113
113
113
120
120
120
126
126
126
125
125
125
118
118
118
84
84
84
87
87
87
90
90
90
92
92
92
94
94
94
96
96
96
97
97
97
97
97
97
99
99
99
101
101
101
103
103
103
105
105
105
105
105
105
106
106
106
107
107
107
108
108
108
109
109
109
111
111
111
113
113
113
111
111
111
111
111
111
114
114
114
116
116
116
115
115
115
115
115
115
116
116
116
120
120
120
118
118
118
115
115
115
111
111
111
111
111
111
111
111
111
112
112
112
113
113
113
113
113
113
115
115
115
120
120
120
118
118
118
115
115
115
115
115
115
114
114
114
112
112
112
111
111
111
110
110
110
110
110
110
110
110
110
112
112
112
115
115
115
116
116
116
111
111
111
106
106
106
104
104
104
103
103
103
105
105
105
109
109
109
113
113
113
116
116
116
114
114
114
107
107
107
89
89
89
85
85
85
88
88
88
90
90
90
91
91
91
93
93
93
95
95
95
98
98
98
100
100
100
102
102
102
104
104
104
105
105
105
108
108
108
108
108
108
109
109
109
110
110
110
111
111
111
113
113
113
116
116
116
117
117
117
119
119
119
126
126
126
128
128
128
127
127
127
126
126
126
126
126
126
125
125
125
126
126
126
123
123
123
120
120
120
117
117
117
115
115
115
114
114
114
114
114
114
115
115
115
118
118
118
124
124
124
128
128
128
126
126
126
123
123
123
124
124
124
122
122
122
118
118
118
115
115
115
113
113
113
114
114
114
115
115
115
113
113
113
111
111
111
109
109
109
110
110
110
116
116
116
123
123
123
117
117
117
113
113
113
110
110
110
109
109
109
101
101
101
92
92
92
86
86
86
81
81
81
88
88
88
91
91
91
92
92
92
94
94
94
97
97
97
98
98
98
99
99
99
101
101
101
103
103
103
105
105
105
106
106
106
107
107
107
109
109
109
110
110
110
111
111
111
113
113
113
114
114
114
116
116
116
120
120
120
120
120
120
124
124
124
135
135
135
143
143
143
138
138
138
145
145
145
151
151
151
145
145
145
131
131
131
127
127
127
124
124
124
122
122
122
119
119
119
119
119
119
119
119
119
126
126
126
138
138
138
143
143
143
141
141
141
144
144
144
141
141
141
130
130
130
125
125
125
122
122
122
119
119
119
120
120
120
117
117
117
111
111
111
111
111
111
115
115
115
123
123
123
129
129
129
120
120
120
110
110
110
108
108
108
105
105
105
99
99
99
94
94
94
91
91
91
89
89
89
87
87
87
90
90
90
93
93
93
94
94
94
97
97
97
98
98
98
100
100
100
103
103
103
105
105
105
106
106
106
108
108
108
108
108
108
108
108
108
109
109
109
111
111
111
112
112
112
113
113
113
114
114
114
116
116
116
118
118
118
122
122
122
124
124
124
128
128
128
130
130
130
133
133
133
147
147
147
165
165
165
145
145
145
128
128
128
135
135
135
137
137
137
133
133
133
130
130
130
132
132
132
137
137
137
149
149
149
163
163
163
166
166
166
168
168
168
166
166
166
153
153
153
144
144
144
142
142
142
138
138
138
124
124
124
117
117
117
115
115
115
115
115
115
121
121
121
127
127
127
127
127
127
121
121
121
116
116
116
113
113
113
113
113
113
106
106
106
102
102
102
98
98
98
96
96
96
95
95
95
95
95
95
95
95
95
96
96
96
98
98
98
99
99
99
101
101
101
102
102
102
105
105
105
107
107
107
108
108
108
110
110
110
111
111
111
112
112
112
112
112
112
112
112
112
115
115
115
117
117
117
119
119
119
120
120
120
122
122
122
123
123
123
124
124
124
125
125
125
126
126
126
130
130
130
140
140
140
144
144
144
137
137
137
132
132
132
135
135
135
134
134
134
142
142
142
145
145
145
151
151
151
163
163
163
171
171
171
180
180
180
178
178
178
175
175
175
174
174
174
166
166
166
150
150
150
148
148
148
133
133
133
119
119
119
117
117
117
120
120
120
123
123
123
127
127
127
126
126
126
130
130
130
126
126
126
117
117
117
120
120
120
116
116
116
111
111
111
109
109
109
107
107
107
104
104
104
103
103
103
101
101
101
106
106
106
105
105
105
105
105
105
107
107
107
108
108
108
110
110
110
111
111
111
111
111
111
113
113
113
114
114
114
114
114
114
115
115
115
115
115
115
116
116
116
118
118
118
121
121
121
123
123
123
123
123
123
125
125
125
126
126
126
127
127
127
129
129
129
130
130
130
132
132
132
131
131
131
131
131
131
131
131
131
130
130
130
131
131
131
131
131
131
135
135
135
139
139
139
143
143
143
145
145
145
138
138
138
137
137
137
142
142
142
160
160
160
173
173
173
170
170
170
146
146
146
127
127
127
122
122
122
122
122
122
123
123
123
126
126
126
130
130
130
132
132
132
140
140
140
132
132
132
125
125
125
121
121
121
119
119
119
117
117
117
116
116
116
115
115
115
113
113
113
110
110
110
104
104
104
99
99
99
106
106
106
109
109
109
111
111
111
111
111
111
112
112
112
114
114
114
115
115
115
116
116
116
117
117
117
119
119
119
120
120
120
120
120
120
121
121
121
121
121
121
122
122
122
122
122
122
123
123
123
123
123
123
125
125
125
127
127
127
129
129
129
132
132
132
137
137
137
156
156
156
149
149
149
135
135
135
134
134
134
135
135
135
137
137
137
140
140
140
142
142
142
142
142
142
144
144
144
147
147
147
148
148
148
137
137
137
135
135
135
139
139
139
145
145
145
140
140
140
132
132
132
128
128
128
129
129
129
132
132
132
133
133
133
135
135
135
138
138
138
139
139
139
135
135
135
131
131
131
128
128
128
125
125
125
122
122
122
118
118
118
116
116
116
115
115
115
114
114
114
113
113
113
114
114
114
111
111
111
106
106
106
108
108
108
110
110
110
114
114
114
115
115
115
118
118
118
119
119
119
119
119
119
119
119
119
121
121
121
122
122
122
123
123
123
124
124
124
125
125
125
126
126
126
126
126
126
128
128
128
128
128
128
129
129
129
130
130
130
133
133
133
137
137
137
155
155
155
179
179
179
152
152
152
138
138
138
139
139
139
141
141
141
149
149
149
172
172
172
194
194
194
194
194
194
196
196
196
173
173
173
155
155
155
163
163
163
155
155
155
140
140
140
136
136
136
135
135
135
136
136
136
139
139
139
143
143
143
149
149
149
154
154
154
163
163
163
159
159
159
151
151
151
140
140
140
134
134
134
130
130
130
131
131
131
130
130
130
133
133
133
131
131
131
127
127
127
120
120
120
115
115
115
112
112
112
109
109
109
130
130
130
127
127
127
123
123
123
123
123
123
123
123
123
121
121
121
121
121
121
123
123
123
122
122
122
124
124
124
124
124
124
125
125
125
126
126
126
126
126
126
127
127
127
128
128
128
129
129
129
131
131
131
134
134
134
135
135
135
135
135
135
136
136
136
139
139
139
142
142
142
140
140
140
141
141
141
144
144
144
151
151
151
156
156
156
164
164
164
185
185
185
209
209
209
196
196
196
190
190
190
184
184
184
172
172
172
170
170
170
155
155
155
146
146
146
147
147
147
151
151
151
159
159
159
154
154
154
156
156
156
154
154
154
147
147
147
146
146
146
144
144
144
141
141
141
135
135
135
131
131
131
131
131
131
129
129
129
126
126
126
124
124
124
123
123
123
121
121
121
120
120
120
115
115
115
111
111
111
152
152
152
153
153
153
155
155
155
154
154
154
148
148
148
145
145
145
143
143
143
140
140
140
135
135
135
131
131
131
131
131
131
130
130
130
130
130
130
132
132
132
132
132
132
132
132
132
134
134
134
134
134
134
135
135
135
136
136
136
138
138
138
139
139
139
141
141
141
143
143
143
146
146
146
148
148
148
153
153
153
160
160
160
167
167
167
176
176
176
188
188
188
204
204
204
214
214
214
200
200
200
182
182
182
172
172
172
179
179
179
186
186
186
177
177
177
169
169
169
163
163
163
157
157
157
149
149
149
146
146
146
144
144
144
143
143
143
138
138
138
138
138
138
137
137
137
137
137
137
136
136
136
134
134
134
132
132
132
131
131
131
128
128
128
125
125
125
123
123
123
121
121
121
117
117
117
114
114
114
143
143
143
146
146
146
148
148
148
151
151
151
153
153
153
155
155
155
158
158
158
160
160
160
162
162
162
164
164
164
164
164
164
161
161
161
156
156
156
155
155
155
144
144
144
140
140
140
139
139
139
139
139
139
139
139
139
140
140
140
140
140
140
142
142
142
144
144
144
146
146
146
149
149
149
154
154
154
161
161
161
171
171
171
183
183
183
198
198
198
216
216
216
229
229
229
220
220
220
209
209
209
195
195
195
183
183
183
179
179
179
170
170
170
170
170
170
170
170
170
164
164
164
156
156
156
155
155
155
158
158
158
154
154
154
147
147
147
142
142
142
142
142
142
136
136
136
134
134
134
132
132
132
133
133
133
132
132
132
130
130
130
128
128
128
126
126
126
123
123
123
122
122
122
120
120
120
114
114
114
118
118
118
122
122
122
125
125
125
128
128
128
132
132
132
134
134
134
138
138
138
140
140
140
143
143
143
146
146
146
148
148
148
151
151
151
154
154
154
155
155
155
157
157
157
159
159
159
157
157
157
159
159
159
157
157
157
151
151
151
149
149
149
147
147
147
145
145
145
144
144
144
148
148
148
154
154
154
163
163
163
177
177
177
195
195
195
216
216
216
237
237
237
249
249
249
245
245
245
222
222
222
208
208
208
193
193
193
186
186
186
180
180
180
178
178
178
171
171
171
165
165
165
164
164
164
152
152
152
140
140
140
129
129
129
126
126
126
122
122
122
121
121
121
123
123
123
121
121
121
121
121
121
124
124
124
123
123
123
122
122
122
119
119
119
115
115
115
113
113
113
108
108
108
103
103
103
99
99
99
94
94
94
97
97
97
99
99
99
101
101
101
104
104
104
107
107
107
109
109
109
112
112
112
114
114
114
116
116
116
118
118
118
119
119
119
121
121
121
122
122
122
123
123
123
124
124
124
126
126
126
126
126
126
127
127
127
127
127
127
128
128
128
129
129
129
129
129
129
129
129
129
133
133
133
136
136
136
141
141
141
149
149
149
162
162
162
178
178
178
203
203
203
227
227
227
189
189
189
169
169
169
153
153
153
145
145
145
140
140
140
137
137
137
135
135
135
132
132
132
130
130
130
129
129
129
125
125
125
123
123
123
119
119
119
117
117
117
115
115
115
114
114
114
112
112
112
111
111
111
109
109
109
108
108
108
106
106
106
102
102
102
99
99
99
96
96
96
93
93
93
90
90
90
87
87
87
84
84
84
42
42
42
54
54
54
54
54
54
47
47
47
48
48
48
44
44
44
36
36
36
42
42
42
47
47
47
51
51
51
53
53
53
56
56
56
75
75
75
69
69
69
71
71
71
71
71
71
67
67
67
67
67
67
69
69
69
76
76
76
81
81
81
85
85
85
85
85
85
87
87
87
88
88
88
84
84
84
85
85
85
84
84
84
84
84
84
86
86
86
95
95
95
99
99
99
91
91
91
88
88
88
99
99
99
96
96
96
89
89
89
87
87
87
84
84
84
86
86
86
87
87
87
89
89
89
90
90
90
93
93
93
94
94
94
93
93
93
94
94
94
91
91
91
88
88
88
83
83
83
83
83
83
83
83
83
81
81
81
82
82
82
81
81
81
76
76
76
69
69
69
69
69
69
71
71
71
70
70
70
68
68
68
70
70
70
82
82
82
83
83
83
83
83
83
82
82
82
76
76
76
78
78
78
83
83
83
87
87
87
87
87
87
84
84
84
89
89
89
89
89
89
92
92
92
98
98
98
93
93
93
93
93
93
90
90
90
88
88
88
90
90
90
93
93
93
94
94
94
97
97
97
96
96
96
102
102
102
95
95
95
94
94
94
99
99
99
105
105
105
108
108
108
110
110
110
116
116
116
110
110
110
103
103
103
108
108
108
111
111
111
110
110
110
109
109
109
108
108
108
107
107
107
105
105
105
104
104
104
105
105
105
102
102
102
101
101
101
101
101
101
103
103
103
99
99
99
99
99
99
95
95
95
96
96
96
93
93
93
90
90
90
88
88
88
86
86
86
83
83
83
82
82
82
84
84
84
82
82
82
82
82
82
91
91
91
92
92
92
92
92
92
94
94
94
92
92
92
100
100
100
104
104
104
103
103
103
99
99
99
102
102
102
101
101
101
102
102
102
94
94
94
89
89
89
91
91
91
93
93
93
102
102
102
108
108
108
104
104
104
106
106
106
112
112
112
117
117
117
120
120
120
121
121
121
118
118
118
119
119
119
127
127
127
127
127
127
135
135
135
137
137
137
148
148
148
136
136
136
131
131
131
127
127
127
123
123
123
123
123
123
122
122
122
122
122
122
120
120
120
111
111
111
106
106
106
112
112
112
109
109
109
104
104
104
109
109
109
104
104
104
103
103
103
103
103
103
94
94
94
95
95
95
90
90
90
86
86
86
85
85
85
91
91
91
90
90
90
85
85
85
84
84
84
83
83
83
79
79
79
90
90
90
92
92
92
91
91
91
92
92
92
91
91
91
91
91
91
97
97
97
95
95
95
97
97
97
98
98
98
97
97
97
92
92
92
91
91
91
87
87
87
87
87
87
92
92
92
96
96
96
93
93
93
96
96
96
91
91
91
91
91
91
91
91
91
86
86
86
87
87
87
95
95
95
96
96
96
97
97
97
95
95
95
100
100
100
101
101
101
102
102
102
98
98
98
105
105
105
110
110
110
108
108
108
110
110
110
111
111
111
110
110
110
110
110
110
108
108
108
107
107
107
107
107
107
109
109
109
102
102
102
106
106
106
103
103
103
96
96
96
94
94
94
90
90
90
84
84
84
85
85
85
81
81
81
79
79
79
80
80
80
82
82
82
86
86
86
77
77
77
71
71
71
66
66
66
66
66
66
72
72
72
67
67
67
63
63
63
57
57
57
60
60
60
63
63
63
70
70
70
69
69
69
74
74
74
77
77
77
76
76
76
81
81
81
90
90
90
85
85
85
94
94
94
94
94
94
100
100
100
97
97
97
103
103
103
103
103
103
103
103
103
103
103
103
102
102
102
95
95
95
91
91
91
88
88
88
82
82
82
81
81
81
83
83
83
85
85
85
99
99
99
98
98
98
103
103
103
97
97
97
97
97
97
97
97
97
101
101
101
96
96
96
95
95
95
94
94
94
87
87
87
80
80
80
82
82
82
82
82
82
77
77
77
78
78
78
76
76
76
74
74
74
74
74
74
73
73
73
72
72
72
68
68
68
72
72
72
76
76
76
69
69
69
63
63
63
62
62
62
61
61
61
62
62
62
66
66
66
57
57
57
66
66
66
64
64
64
62
62
62
64
64
64
69
69
69
71
71
71
73
73
73
68
68
68
67
67
67
76
76
76
78
78
78
76
76
76
71
71
71
67
67
67
67
67
67
74
74
74
81
81
81
84
84
84
84
84
84
86
86
86
88
88
88
80
80
80
85
85
85
82
82
82
82
82
82
80
80
80
69
69
69
58
58
58
47
47
47
36
36
36
36
36
36
52
52
52
55
55
55
44
44
44
50
50
50
54
54
54
64
64
64
54
54
54
64
64
64
61
61
61
57
57
57
68
68
68
69
69
69
73
73
73
76
76
76
77
77
77
78
78
78
85
85
85
89
89
89
84
84
84
91
91
91
87
87
87
83
83
83
83
83
83
78
78
78
81
81
81
83
83
83
79
79
79
78
78
78
23
23
23
21
21
21
22
22
22
25
25
25
27
27
27
27
27
27
27
27
27
26
26
26
24
24
24
26
26
26
27
27
27
28
28
28
34
34
34
47
47
47
54
54
54
64
64
64
59
59
59
53
53
53
54
54
54
52
52
52
39
39
39
44
44
44
51
51
51
47
47
47
63
63
63
68
68
68
68
68
68
68
68
68
75
75
75
78
78
78
72
72
72
80
80
80
84
84
84
85
85
85
84
84
84
82
82
82
93
93
93
93
93
93
98
98
98
91
91
91
91
91
91
84
84
84
96
96
96
96
96
96
94
94
94
94
94
94
98
98
98
96
96
96
92
92
92
94
94
94
85
85
85
80
80
80
83
83
83
79
79
79
80
80
80
74
74
74
75
75
75
74
74
74
68
68
68
58
58
58
41
41
41
49
49
49
49
49
49
52
52
52
52
52
52
51
51
51
55
55
55
52
52
52
46
46
46
51
51
51
53
53
53
54
54
54
54
54
54
57
57
57
55
55
55
52
52
52
51
51
51
56
56
56
67
67
67
69
69
69
67
67
67
49
49
49
51
51
51
53
53
53
54
54
54
49
49
49
36
36
36
41
41
41
58
58
58
57
57
57
58
58
58
70
70
70
80
80
80
85
85
85
92
92
92
91
91
91
83
83
83
86
86
86
70
70
70
62
62
62
79
79
79
72
72
72
68
68
68
67
67
67
74
74
74
67
67
67
73
73
73
66
66
66
65
65
65
73
73
73
75
75
75
76
76
76
76
76
76
65
65
65
58
58
58
58
58
58
51
51
51
65
65
65
61
61
61
64
64
64
58
58
58
57
57
57
64
64
64
66
66
66
65
65
65
66
66
66
71
71
71
64
64
64
68
68
68
76
76
76
78
78
78
77
77
77
83
83
83
78
78
78
81
81
81
81
81
81
83
83
83
86
86
86
82
82
82
85
85
85
81
81
81
83
83
83
80
80
80
85
85
85
75
75
75
77
77
77
75
75
75
76
76
76
77
77
77
76
76
76
61
61
61
66
66
66
66
66
66
69
69
69
65
65
65
69
69
69
45
45
45
27
27
27
39
39
39
33
33
33
35
35
35
47
47
47
56
56
56
71
71
71
64
64
64
63
63
63
64
64
64
71
71
71
65
65
65
63
63
63
65
65
65
73
73
73
62
62
62
65
65
65
66
66
66
66
66
66
61
61
61
58
58
58
62
62
62
72
72
72
44
44
44
59
59
59
64
64
64
70
70
70
69
69
69
60
60
60
65
65
65
75
75
75
73
73
73
80
80
80
87
87
87
82
82
82
81
81
81
67
67
67
64
64
64
71
71
71
72
72
72
74
74
74
85
85
85
75
75
75
79
79
79
88
88
88
81
81
81
79
79
79
81
81
81
86
86
86
95
95
95
90
90
90
90
90
90
80
80
80
87
87
87
80
80
80
81
81
81
80
80
80
82
82
82
86
86
86
75
75
75
68
68
68
78
78
78
82
82
82
81
81
81
85
85
85
82
82
82
76
76
76
65
65
65
67
67
67
66
66
66
65
65
65
61
61
61
64
64
64
59
59
59
58
58
58
66
66
66
68
68
68
65
65
65
60
60
60
50
50
50
53
53
53
67
67
67
70
70
70
62
62
62
55
55
55
56
56
56
61
61
61
57
57
57
63
63
63
60
60
60
70
70
70
74
74
74
82
82
82
83
83
83
82
82
82
77
77
77
76
76
76
71
71
71
83
83
83
100
100
100
92
92
92
94
94
94
77
77
77
89
89
89
101
101
101
105
105
105
104
104
104
94
94
94
95
95
95
100
100
100
101
101
101
109
109
109
110
110
110
117
117
117
110
110
110
99
99
99
104
104
104
86
86
86
99
99
99
95
95
95
89
89
89
91
91
91
85
85
85
93
93
93
101
101
101
103
103
103
86
86
86
92
92
92
89
89
89
94
94
94
88
88
88
74
74
74
63
63
63
54
54
54
55
55
55
55
55
55
58
58
58
55
55
55
66
66
66
76
76
76
79
79
79
72
72
72
66
66
66
70
70
70
72
72
72
73
73
73
74
74
74
85
85
85
82
82
82
85
85
85
83
83
83
78
78
78
74
74
74
72
72
72
69
69
69
80
80
80
88
88
88
88
88
88
89
89
89
96
96
96
90
90
90
97
97
97
84
84
84
86
86
86
80
80
80
82
82
82
98
98
98
87
87
87
91
91
91
102
102
102
106
106
106
110
110
110
113
113
113
112
112
112
116
116
116
117
117
117
105
105
105
102
102
102
100
100
100
92
92
92
104
104
104
104
104
104
106
106
106
97
97
97
110
110
110
102
102
102
99
99
99
94
94
94
87
87
87
99
99
99
77
77
77
78
78
78
80
80
80
70
70
70
66
66
66
75
75
75
73
73
73
70
70
70
65
65
65
65
65
65
68
68
68
71
71
71
70
70
70
82
82
82
81
81
81
82
82
82
78
78
78
76
76
76
73
73
73
78
78
78
79
79
79
73
73
73
71
71
71
79
79
79
78
78
78
83
83
83
77
77
77
82
82
82
83
83
83
79
79
79
90
90
90
82
82
82
92
92
92
70
70
70
89
89
89
85
85
85
84
84
84
77
77
77
89
89
89
113
113
113
112
112
112
108
108
108
107
107
107
108
108
108
103
103
103
108
108
108
102
102
102
113
113
113
114
114
114
98
98
98
94
94
94
92
92
92
80
80
80
113
113
113
92
92
92
95
95
95
84
84
84
92
92
92
93
93
93
89
89
89
74
74
74
70
70
70
75
75
75
72
72
72
68
68
68
71
71
71
72
72
72
69
69
69
62
62
62
63
63
63
63
63
63
67
67
67
74
74
74
61
61
61
69
69
69
67
67
67
78
78
78
68
68
68
69
69
69
62
62
62
64
64
64
69
69
69
76
76
76
61
61
61
62
62
62
74
74
74
79
79
79
69
69
69
76
76
76
85
85
85
88
88
88
83
83
83
77
77
77
76
76
76
74
74
74
86
86
86
98
98
98
96
96
96
97
97
97
105
105
105
104
104
104
85
85
85
92
92
92
100
100
100
91
91
91
96
96
96
94
94
94
90
90
90
94
94
94
93
93
93
91
91
91
88
88
88
114
114
114
98
98
98
83
83
83
89
89
89
83
83
83
71
71
71
62
62
62
62
62
62
69
69
69
65
65
65
62
62
62
75
75
75
53
53
53
60
60
60
55
55
55
54
54
54
53
53
53
58
58
58
56
56
56
50
50
50
49
49
49
56
56
56
58
58
58
67
67
67
67
67
67
66
66
66
56
56
56
51
51
51
60
60
60
72
72
72
62
62
62
60
60
60
68
68
68
71
71
71
76
76
76
69
69
69
72
72
72
75
75
75
86
86
86
101
101
101
80
80
80
72
72
72
62
62
62
76
76
76
96
96
96
84
84
84
89
89
89
107
107
107
101
101
101
92
92
92
87
87
87
92
92
92
99
99
99
99
99
99
93
93
93
93
93
93
98
98
98
93
93
93
94
94
94
112
112
112
100
100
100
86
86
86
99
99
99
86
86
86
87
87
87
87
87
87
86
86
86
86
86
86
83
83
83
79
79
79
68
68
68
52
52
52
57
57
57
68
68
68
75
75
75
54
54
54
48
48
48
39
39
39
51
51
51
63
63
63
51
51
51
46
46
46
52
52
52
61
61
61
62
62
62
57
57
57
59
59
59
52
52
52
53
53
53
60
60
60
66
66
66
67
67
67
73
73
73
79
79
79
85
85
85
76
76
76
52
52
52
67
67
67
89
89
89
88
88
88
68
68
68
56
56
56
86
86
86
104
104
104
99
99
99
95
95
95
89
89
89
101
101
101
95
95
95
83
83
83
78
78
78
64
64
64
94
94
94
91
91
91
85
85
85
85
85
85
95
95
95
89
89
89
83
83
83
85
85
85
92
92
92
81
81
81
102
102
102
88
88
88
42
42
42
45
45
45
52
52
52
55
55
55
54
54
54
59
59
59
62
62
62
62
62
62
57
57
57
54
54
54
52
52
52
65
65
65
66
66
66
64
64
64
57
57
57
45
45
45
39
39
39
44
44
44
52
52
52
65
65
65
78
78
78
71
71
71
70
70
70
67
67
67
67
67
67
71
71
71
68
68
68
78
78
78
84
84
84
97
97
97
100
100
100
91
91
91
99
99
99
111
111
111
71
71
71
57
57
57
59
59
59
98
98
98
109
109
109
94
94
94
79
79
79
76
76
76
73
73
73
85
85
85
91
91
91
77
77
77
70
70
70
75
75
75
99
99
99
70
70
70
84
84
84
79
79
79
89
89
89
87
87
87
82
82
82
82
82
82
88
88
88
101
101
101
103
103
103
105
105
105
39
39
39
38
38
38
37
37
37
40
40
40
41
41
41
44
44
44
45
45
45
45
45
45
42
42
42
43
43
43
45
45
45
47
47
47
45
45
45
46
46
46
43
43
43
40
40
40
33
33
33
29
29
29
26
26
26
29
29
29
31
31
31
33
33
33
33
33
33
36
36
36
42
42
42
38
38
38
34
34
34
41
41
41
39
39
39
32
32
32
46
46
46
95
95
95
101
101
101
68
68
68
89
89
89
102
102
102
111
111
111
105
105
105
68
68
68
58
58
58
65
65
65
61
61
61
65
65
65
66
66
66
73
73
73
96
96
96
73
73
73
56
56
56
87
87
87
92
92
92
80
80
80
92
92
92
87
87
87
76
76
76
57
57
57
74
74
74
83
83
83
83
83
83
86
86
86
84
84
84
38
38
38
31
31
31
31
31
31
31
31
31
32
32
32
33
33
33
35
35
35
36
36
36
35
35
35
34
34
34
32
32
32
31
31
31
30
30
30
30
30
30
29
29
29
25
25
25
24
24
24
16
16
16
17
17
17
20
20
20
23
23
23
24
24
24
23
23
23
23
23
23
25
25
25
26
26
26
26
26
26
26
26
26
26
26
26
27
27
27
35
35
35
99
99
99
99
99
99
102
102
102
83
83
83
73
73
73
65
65
65
93
93
93
90
90
90
90
90
90
72
72
72
79
79
79
78
78
78
64
64
64
64
64
64
63
63
63
91
91
91
89
89
89
104
104
104
102
102
102
86
86
86
91
91
91
96
96
96
69
69
69
52
52
52
50
50
50
62
62
62
77
77
77
92
92
92
47
47
47
31
31
31
29
29
29
28
28
28
28
28
28
28
28
28
28
28
28
27
27
27
27
27
27
28
28
28
27
27
27
25
25
25
24
24
24
23
23
23
23
23
23
23
23
23
22
22
22
18
18
18
11
11
11
15
15
15
19
19
19
20
20
20
20
20
20
21
21
21
22
22
22
21
21
21
21
21
21
21
21
21
22
22
22
22
22
22
22
22
22
23
23
23
28
28
28
47
47
47
29
29
29
22
22
22
23
23
23
24
24
24
40
40
40
60
60
60
93
93
93
87
87
87
88
88
88
101
101
101
97
97
97
86
86
86
84
84
84
87
87
87
100
100
100
108
108
108
103
103
103
103
103
103
105
105
105
106
106
106
102
102
102
93
93
93
86
86
86
93
93
93
88
88
88
51
51
51
23
23
23
22
22
22
23
23
23
22
22
22
20
20
20
19
19
19
21
21
21
23
23
23
23
23
23
21
21
21
21
21
21
21
21
21
19
19
19
20
20
20
19
19
19
19
19
19
19
19
19
15
15
15
9
9
9
12
12
12
14
14
14
16
16
16
17
17
17
17
17
17
17
17
17
16
16
16
17
17
17
18
18
18
20
20
20
19
19
19
19
19
19
19
19
19
20
20
20
20
20
20
19
19
19
19
19
19
20
20
20
21
21
21
21
21
21
21
21
21
29
29
29
39
39
39
52
52
52
54
54
54
61
61
61
51
51
51
37
37
37
25
25
25
27
27
27
57
57
57
82
82
82
90
90
90
72
72
72
81
81
81
85
85
85
75
75
75
75
75
75
53
53
53
24
24
24
21
21
21
20
20
20
18
18
18
18
18
18
17
17
17
16
16
16
14
14
14
15
15
15
16
16
16
16
16
16
17
17
17
18
18
18
16
16
16
15
15
15
15
15
15
16
16
16
15
15
15
13
13
13
11
11
11
6
6
6
7
7
7
9
9
9
12
12
12
12
12
12
13
13
13
15
15
15
15
15
15
16
16
16
16
16
16
18
18
18
16
16
16
16
16
16
17
17
17
19
19
19
18
18
18
18
18
18
18
18
18
17
17
17
18
18
18
18
18
18
17
17
17
18
18
18
18
18
18
19
19
19
20
20
20
18
18
18
19
19
19
19
19
19
21
21
21
19
19
19
21
21
21
18
18
18
20
20
20
21
21
21
23
23
23
21
21
21
21
21
21
25
25
25
22
22
22
20
20
20
18
18
18
18
18
18
15
15
15
14
14
14
15
15
15
14
14
14
14
14
14
12
12
12
12
12
12
13
13
13
13
13
13
11
11
11
11
11
11
11
11
11
11
11
11
10
10
10
9
9
9
9
9
9
6
6
6
