P3
60 40
255
82
71
69
85
76
75
90
81
83
96
86
86
102
89
89
104
91
91
105
92
93
105
92
96
104
92
98
101
93
101
100
95
108
96
97
114
97
100
119
103
104
124
107
104
120
116
100
109
118
100
97
119
100
94
124
98
89
128
99
82
133
100
79
142
104
76
146
105
73
137
103
80
131
100
88
126
99
92
124
99
94
124
101
96
123
103
103
122
103
104
122
103
103
125
103
102
127
103
100
131
104
100
135
105
100
132
105
100
123
102
103
118
100
109
117
100
109
121
102
109
122
106
111
119
104
118
107
107
129
98
106
129
87
108
133
86
109
135
90
105
128
95
102
123
96
101
120
97
98
114
93
95
111
83
93
110
78
95
113
76
94
113
75
90
107
73
86
102
67
84
99
64
81
95
60
76
92
58
71
87
102
80
65
98
80
72
98
82
76
102
86
82
110
91
85
116
95
86
117
96
89
117
97
90
118
98
92
114
96
94
113
97
98
112
99
103
113
101
107
116
104
113
121
105
112
124
104
108
125
105
104
126
105
102
127
104
98
131
102
89
136
102
82
143
105
77
153
108
72
152
108
74
146
106
81
137
103
84
134
102
86
134
103
94
131
104
100
130
104
101
131
104
100
132
104
99
133
104
98
138
106
95
145
108
92
141
107
95
132
104
98
125
102
101
128
104
100
129
106
102
126
107
107
123
107
117
111
109
129
102
112
134
100
109
131
102
107
126
104
106
125
101
104
125
94
102
123
89
100
122
82
101
124
80
99
122
83
102
124
80
97
115
82
89
106
80
88
102
75
86
100
70
84
97
67
80
94
65
75
89
147
103
57
137
98
63
123
92
68
117
91
74
118
93
77
123
95
78
128
97
79
131
101
82
138
105
83
135
104
86
129
100
88
125
100
89
126
101
95
127
103
97
127
106
100
130
107
102
131
108
101
132
107
102
134
106
100
135
106
96
137
104
87
147
106
81
156
110
76
164
112
74
159
111
75
152
107
80
148
105
80
142
105
89
139
106
96
139
105
95
141
106
95
145
106
92
151
109
89
158
111
86
162
112
84
154
110
87
147
107
91
136
105
95
138
106
97
131
106
101
125
107
107
124
110
116
118
111
129
113
114
134
109
111
132
104
110
130
98
108
129
95
103
126
90
101
123
87
103
126
87
106
126
87
104
125
88
101
121
87
94
110
88
91
104
86
90
100
82
88
99
78
85
98
74
82
94
73
78
88
177
123
44
173
123
46
167
118
51
150
108
59
137
100
64
134
98
69
132
99
71
134
102
75
141
106
76
149
112
74
144
110
80
138
107
82
134
105
85
134
105
88
138
106
89
138
107
93
138
109
96
137
108
100
137
108
100
137
108
99
140
108
96
147
109
90
156
111
86
163
113
84
159
112
84
156
109
81
152
107
81
150
106
86
150
106
89
151
107
88
154
108
86
162
112
81
173
116
75
177
117
70
173
116
73
160
113
79
156
109
83
148
107
86
146
108
90
136
108
98
131
108
103
131
112
112
129
113
120
122
113
126
113
107
121
104
104
118
100
103
121
96
102
120
97
101
119
97
103
121
96
102
118
98
98
111
100
96
105
99
94
100
98
92
100
94
91
98
92
91
96
91
88
95
87
86
92
84
81
87
167
118
47
176
125
45
175
126
45
167
120
51
156
113
55
145
106
61
137
101
65
135
101
67
142
104
68
155
113
66
160
115
69
162
115
72
154
113
76
143
109
82
141
108
86
143
109
88
143
108
93
141
109
98
141
110
101
145
110
100
151
111
95
156
111
89
163
114
82
167
115
81
163
112
82
159
110
80
157
110
81
157
108
81
157
109
82
158
109
81
158
109
80
165
112
73
177
117
65
181
118
64
172
116
69
160
111
77
157
110
78
157
111
80
155
111
86
145
110
94
139
109
101
131
110
105
126
108
109
121
106
108
118
104
110
111
105
114
109
104
114
110
103
113
108
103
113
106
103
113
103
101
111
104
97
103
105
96
98
105
96
95
106
95
96
104
94
93
102
92
92
98
91
92
92
87
92
84
82
87
121
89
57
147
107
55
160
114
52
162
116
54
154
113
55
147
109
60
140
105
64
138
103
67
138
104
65
142
106
66
150
111
69
163
116
73
160
115
78
149
112
86
144
110
92
145
110
93
148
110
91
148
111
94
152
112
94
159
114
90
164
115
83
171
115
73
178
118
67
182
120
66
174
115
69
171
113
74
169
113
74
167
112
77
166
111
76
167
111
72
169
111
66
175
115
64
181
118
62
181
120
66
173
116
75
165
115
81
166
115
80
165
116
82
160
114
86
148
111
94
136
111
102
130
113
113
129
111
110
126
109
108
125
108
108
124
107
108
122
106
105
119
105
107
115
105
111
113
103
106
111
101
100
112
99
95
111
97
94
112
97
91
111
96
91
109
94
89
104
92
89
99
90
88
93
87
88
86
84
85
107
81
59
117
86
58
126
92
56
138
101
57
148
109
58
148
110
54
156
113
54
163
117
54
171
123
55
161
116
60
150
110
67
147
109
74
147
111
82
154
113
84
160
115
81
160
114
82
159
113
82
164
115
77
173
118
72
186
122
65
193
124
54
193
123
49
199
126
44
206
128
42
196
124
49
183
118
58
177
115
65
176
114
66
176
114
66
178
115
62
182
117
59
188
120
61
188
123
71
183
126
88
173
125
98
170
126
106
171
126
103
170
127
106
161
128
116
148
126
119
139
119
114
137
117
116
135
116
112
133
113
107
130
111
106
128
110
106
127
109
104
124
108
105
122
108
104
121
105
99
118
104
97
115
102
95
113
100
94
110
98
91
109
95
90
107
93
88
102
91
85
102
90
84
101
88
82
95
85
79
115
87
60
121
89
57
125
91
57
129
94
59
136
99
55
142
105
52
147
108
53
151
110
52
171
120
46
189
129
45
179
123
50
162
115
62
153
111
68
155
111
72
166
117
68
176
120
65
176
119
61
187
122
53
195
125
45
210
130
35
231
141
17
237
144
8
232
141
10
234
143
9
227
138
19
203
126
34
192
119
44
190
119
47
190
119
49
194
122
50
198
124
49
201
127
60
195
131
85
190
145
127
183
151
140
178
145
134
174
138
124
171
143
134
164
135
128
153
124
115
149
120
110
145
120
109
143
116
107
141
114
105
135
113
103
134
111
102
134
110
96
130
109
92
129
107
90
128
106
89
125
105
88
123
103
88
122
101
84
121
99
81
118
98
80
115
97
79
111
94
79
109
92
79
106
91
79
101
88
77
128
95
67
129
95
62
132
96
60
135
98
57
138
102
48
147
106
45
156
113
41
160
113
44
159
116
46
172
121
40
185
127
37
188
127
36
176
121
47
168
115
51
168
115
53
174
117
49
192
124
40
222
138
18
233
142
6
237
144
3
247
153
1
253
166
1
254
168
1
252
166
1
250
163
0
239
149
3
227
137
11
220
132
17
217
130
23
220
133
34
224
137
47
214
135
65
199
128
75
198
145
119
192
165
156
184
147
133
178
133
108
173
130
107
168
128
108
165
124
102
161
122
97
158
118
93
155
116
91
151
114
89
148
113
86
148
112
81
144
111
78
140
109
81
136
108
82
134
108
84
131
108
82
131
106
82
129
105
77
128
103
75
126
100
73
122
98
74
117
97
75
113
94
78
109
93
78
104
90
79
135
101
68
139
103
66
141
104
67
142
107
64
147
109
57
151
111
52
159
116
43
167
120
37
168
117
35
185
126
31
194
130
30
189
126
30
189
127
33
183
123
34
178
120
36
177
117
37
186
119
31
214
133
8
242
148
2
247
150
2
252
166
1
254
174
2
254
175
2
254
178
1
254
180
2
250
171
1
249
163
2
245
151
2
242
145
5
235
142
36
215
134
66
203
135
88
200
132
85
197
137
101
194
144
116
191
140
113
187
130
96
182
126
87
178
125
85
176
124
84
173
123
81
170
122
79
168
120
77
164
119
72
161
117
70
158
115
71
155
112
71
149
112
70
144
112
73
141
111
75
137
110
74
135
108
74
133
107
72
132
105
71
129
102
71
126
101
70
122
99
70
119
98
72
116
96
73
115
95
73
134
99
60
141
104
60
148
110
57
153
113
58
157
115
55
159
116
53
162
117
52
167
119
48
171
121
47
182
125
39
198
132
30
213
140
24
202
132
21
196
130
24
192
126
28
189
123
28
189
122
22
190
122
16
201
127
7
232
146
2
252
170
2
253
173
2
246
160
3
232
142
8
231
137
4
234
138
1
242
145
3
239
143
5
236
139
23
228
135
37
219
131
47
214
131
56
208
130
64
208
131
68
204
131
71
201
131
72
201
132
75
198
130
68
194
129
64
189
127
68
184
126
70
179
125
69
178
123
68
175
123
66
169
121
67
164
118
69
157
116
73
154
115
72
152
115
69
149
114
66
146
114
62
143
113
60
142
111
61
141
111
61
140
110
61
139
108
64
136
107
63
134
105
67
131
105
72
125
106
77
154
111
49
157
114
45
157
113
45
157
114
44
158
115
45
161
116
43
164
118
45
172
122
47
180
125
48
185
128
48
194
131
46
202
135
42
212
139
37
208
138
35
206
135
31
204
133
25
207
132
17
204
129
6
203
128
3
212
132
2
224
140
2
229
145
3
229
139
2
226
135
5
232
137
2
239
148
1
239
147
1
239
144
1
240
142
6
239
142
10
237
140
16
233
137
26
227
135
37
224
134
44
220
135
53
217
149
94
214
156
110
202
137
77
198
132
65
192
129
61
188
127
59
182
125
62
178
123
62
176
123
62
174
122
63
169
122
64
167
121
62
167
121
60
164
120
61
162
120
57
159
119
57
155
117
59
150
116
61
145
115
62
142
114
64
139
112
67
137
111
72
135
111
77
130
109
78
124
106
79
148
109
49
153
112
47
158
115
43
167
120
38
181
127
33
190
131
30
198
133
26
192
130
25
193
131
29
193
130
33
199
134
32
216
140
28
233
151
18
242
159
14
244
163
17
240
154
24
231
149
21
225
143
19
222
139
10
218
136
2
220
135
1
224
136
1
231
140
1
241
155
2
244
163
2
243
155
2
250
173
2
247
196
22
245
194
20
248
194
5
250
172
3
242
149
1
239
141
9
234
139
29
228
138
50
223
152
93
225
179
134
215
155
100
207
137
67
200
133
54
194
130
49
190
129
49
189
128
47
186
128
48
182
126
50
179
126
52
175
125
55
172
124
59
168
123
59
165
122
60
161
121
61
156
119
68
150
119
70
146
119
70
142
118
67
141
115
65
137
114
66
134
110
67
131
108
68
128
106
69
152
111
51
158
115
48
164
120
44
167
121
43
170
123
42
174
124
39
177
126
37
185
129
37
190
131
35
194
131
30
204
135
27
215
141
21
222
144
17
226
146
17
230
147
13
238
154
13
239
156
19
236
154
20
239
159
11
233
151
4
233
147
1
235
146
1
238
155
1
248
170
1
250
172
1
248
184
2
248
190
3
246
196
29
247
209
51
248
185
6
251
164
0
246
156
1
239
151
1
239
144
12
235
141
25
229
140
41
224
142
56
218
139
51
211
136
45
206
135
42
202
135
44
198
134
45
193
131
47
188
129
49
184
128
50
181
127
52
177
126
56
174
126
58
169
125
61
165
124
62
162
124
60
160
122
62
157
123
62
155
121
63
152
121
67
149
123
69
147
123
70
145
123
73
144
127
79
144
130
90
157
114
49
162
117
45
165
121
43
170
123
42
173
125
41
180
128
40
186
131
38
192
132
36
195
134
36
199
136
36
204
137
37
204
137
32
208
138
26
210
138
26
220
143
24
223
144
21
226
146
18
230
149
14
238
157
6
243
163
5
241
169
4
243
177
16
245
186
19
248
179
6
250
172
1
247
182
1
242
200
4
241
214
33
241
204
9
245
188
1
249
176
1
252
167
1
248
160
1
240
153
1
236
148
1
236
146
22
231
143
30
225
141
29
220
139
28
214
138
27
208
136
32
202
135
35
200
134
39
196
134
40
192
132
43
188
132
47
185
132
52
182
130
53
179
130
55
176
131
57
172
131
60
173
135
67
176
140
75
175
143
80
173
145
85
169
148
93
166
154
103
165
155
109
162
153
108
158
152
108
159
114
49
169
120
45
169
122
42
170
123
40
173
126
40
180
128
38
186
130
37
188
132
35
192
133
36
192
132
36
198
134
35
207
136
34
216
142
33
218
142
27
225
147
17
237
154
11
239
158
13
234
155
10
237
156
5
241
164
4
241
170
4
244
170
4
250
170
2
249
179
2
247
183
1
242
195
6
240
209
22
236
220
36
237
229
43
237
216
10
240
198
1
246
183
1
249
171
1
249
161
1
242
154
1
240
149
1
237
146
3
233
144
7
226
142
16
219
140
20
215
140
23
210
139
29
207
139
31
204
139
37
202
140
43
202
144
53
206
155
64
206
156
67
205
161
73
204
164
79
201
164
82
197
162
86
192
160
85
187
158
86
181
155
86
175
153
86
168
151
86
166
148
85
161
146
85
158
143
83
139
99
57
145
103
54
152
108
52
157
113
49
158
115
47
161
119
44
167
122
44
170
123
43
173
124
42
173
121
40
177
121
36
182
123
35
180
121
35
185
122
30
194
126
27
204
129
20
215
140
21
226
152
19
238
164
14
237
165
11
239
171
11
244
178
11
246
180
7
247
186
8
243
193
8
240
208
22
234
222
36
241
245
94
240
249
124
236
237
72
236
216
11
240
195
3
246
177
3
251
163
2
251
154
1
247
148
2
245
144
2
240
145
2
236
147
2
233
149
7
230
151
15
231
157
22
232
159
29
224
157
36
219
159
45
214
157
48
209
155
51
204
154
53
199
151
56
192
148
59
185
146
61
180
143
62
174
140
63
168
138
65
163
134
64
158
132
65
152
128
66
148
125
65
144
122
66
140
118
67
116
84
60
120
87
60
126
90
59
130
93
59
135
96
57
141
99
55
145
102
54
148
106
51
152
108
50
155
109
48
158
111
46
160
112
45
164
114
43
168
115
40
173
117
37
179
119
35
186
123
32
191
125
27
197
129
23
201
130
21
206
132
15
210
135
10
216
137
4
224
140
3
233
145
3
239
153
4
241
169
4
237
189
14
235
227
50
235
203
14
238
178
4
244
162
4
243
149
5
240
141
6
232
136
8
222
133
16
213
129
24
206
129
30
199
129
34
193
128
39
189
127
45
184
127
48
182
126
50
177
126
54
174
124
56
168
123
58
164
122
61
160
121
61
156
119
62
152
118
63
148
116
63
145
114
65
141
112
66
136
109
68
133
107
68
129
104
70
124
101
70
120
99
71
116
97
71
112
94
71
92
70
60
93
71
58
92
69
54
95
69
52
105
76
56
109
81
64
107
82
67
110
81
65
111
83
64
114
83
62
115
83
62
120
88
68
124
91
66
131
94
67
127
93
68
127
94
70
125
93
68
122
90
65
123
89
63
122
87
61
123
86
56
121
84
52
129
87
47
137
89
42
153
96
38
159
99
36
142
88
38
149
91
33
159
99
36
150
95
41
139
86
41
133
84
43
130
84
48
131
85
47
124
84
53
123
88
59
121
87
60
119
85
60
116
85
60
111
81
60
102
76
59
95
69
53
91
67
50
89
67
50
93
71
56
92
71
58
90
69
58
92
75
64
73
56
44
70
53
38
68
51
37
62
47
36
54
42
33
46
36
27
56
44
36
60
48
39
57
47
39
62
54
47
64
54
49
49
42
38
108
82
66
111
84
67
109
82
66
110
83
65
114
86
67
116
88
69
119
90
70
125
93
71
128
96
70
128
95
68
133
99
69
134
99
68
137
103
67
135
101
64
136
101
65
140
102
65
145
105
64
147
104
58
150
105
57
152
107
59
157
108
54
162
109
48
164
110
49
168
111
49
164
108
51
160
103
42
171
110
49
176
116
51
172
110
45
169
108
53
161
105
56
150
99
57
136
94
61
135
95
65
138
102
76
130
96
72
130
97
74
122
94
72
122
93
70
118
90
69
113
88
70
113
90
76
113
93
78
116
93
83
119
98
85
111
92
81
106
89
80
106
89
81
102
84
78
103
87
78
102
87
79
98
83
76
91
78
71
88
76
69
96
82
73
97
83
74
95
83
75
92
82
76
79
70
68
75
68
67
107
79
65
112
83
65
112
84
65
111
85
67
122
90
72
122
91
69
115
85
66
117
86
68
125
90
65
134
95
66
130
94
65
145
103
66
146
103
63
148
104
64
151
109
66
146
104
64
149
109
72
153
112
77
152
106
64
161
111
61
175
120
60
178
122
63
183
122
59
187
123
54
192
123
50
199
127
46
211
131
31
216
136
32
224
148
39
215
137
39
217
135
41
205
127
49
199
127
55
183
119
58
173
118
66
173
121
72
169
120
74
162
117
73
151
112
78
143
106
74
138
104
77
140
108
83
133
102
82
117
93
81
109
91
85
108
89
79
114
94
85
124
102
90
125
101
88
124
102
90
119
99
89
122
103
98
123
104
100
117
100
94
108
92
83
107
94
87
104
92
88
104
92
87
101
91
89
92
82
85
86
66
59
83
66
59
85
71
68
88
77
77
101
86
82
98
82
76
99
80
74
97
79
72
100
81
72
107
85
76
108
84
73
118
90
77
123
94
79
127
96
78
137
103
83
141
106
77
141
102
74
145
109
81
148
107
76
147
107
77
149
108
77
151
110
78
153
110
78
157
111
76
156
110
70
158
108
61
163
110
63
155
105
64
146
98
62
150
102
66
146
101
70
143
100
72
138
95
66
136
97
76
132
96
76
125
95
78
116
87
71
117
86
69
118
91
74
116
91
76
120
91
71
127
96
75
122
93
72
124
96
79
119
92
80
111
87
75
112
87
73
116
91
78
117
92
75
120
97
81
121
98
82
119
97
81
118
95
79
117
97
84
108
91
82
106
91
83
105
92
84
106
91
85
102
92
88
100
90
88
94
66
49
88
62
48
83
61
50
76
62
58
71
63
64
80
69
67
89
76
76
85
72
71
81
68
66
86
72
72
87
73
71
88
74
72
88
74
71
92
76
70
96
78
72
96
77
70
105
82
70
104
82
70
105
80
67
112
87
73
121
94
75
126
95
76
129
96
72
137
101
77
132
97
70
137
97
64
137
97
68
144
103
68
139
98
64
139
99
63
123
85
54
116
83
58
116
81
56
116
82
61
124
88
62
127
91
66
129
95
70
139
102
72
141
103
71
143
103
70
142
103
71
143
103
73
133
97
71
137
100
75
125
94
75
123
94
76
112
85
68
117
90
73
108
81
64
99
76
62
97
77
63
94
74
60
88
69
57
84
70
60
75
63
53
69
60
55
66
57
52
73
63
59
75
67
67
80
72
71
112
78
55
113
79
56
117
83
59
115
81
58
109
78
55
118
83
58
119
83
57
123
87
63
126
91
65
120
84
60
126
89
62
121
85
62
113
78
55
113
77
52
109
76
51
105
73
51
100
69
49
98
68
50
90
57
35
91
61
42
94
64
45
77
54
43
84
64
54
75
54
45
77
50
35
70
44
28
77
55
43
69
52
46
55
36
25
58
36
23
76
47
32
94
58
36
108
69
42
121
80
52
119
82
59
116
82
60
121
85
63
116
80
57
126
88
59
123
86
58
117
84
57
117
84
59
111
81
61
101
74
55
90
67
52
89
67
53
95
71
56
101
76
59
103
78
60
101
76
57
90
67
51
90
68
51
94
73
54
91
71
52
87
69
51
82
64
50
76
62
49
79
64
52
78
66
56
69
57
48
79
58
47
97
68
51
103
74
54
103
75
56
108
74
52
115
80
53
116
79
52
120
83
53
118
80
50
123
85
57
136
94
62
138
92
55
145
96
56
146
98
56
141
94
54
140
94
58
143
96
56
146
96
54
131
84
44
144
91
44
146
91
43
153
98
48
146
93
45
147
93
50
137
82
37
139
84
39
142
85
39
135
84
44
132
80
41
117
72
41
128
78
42
122
75
42
108
68
41
101
68
44
102
68
47
93
63
45
67
47
35
69
51
41
58
44
35
54
39
32
69
52
42
70
54
42
70
53
42
76
59
46
82
64
55
68
54
47
57
47
43
41
34
31
33
28
25
31
27
23
30
26
20
29
24
19
30
26
22
29
27
23
30
27
23
29
27
23
27
25
23
24
22
19
23
21
18
23
23
21
79
64
58
74
61
57
81
65
61
69
51
43
79
58
44
83
58
40
93
65
46
108
76
52
112
76
49
110
75
48
108
73
47
98
65
43
99
66
42
107
73
50
104
67
43
109
74
49
100
67
43
101
68
44
106
72
46
114
79
51
96
62
37
111
70
36
138
86
40
135
83
40
150
91
39
145
92
41
140
85
31
128
80
36
113
70
38
94
58
34
92
57
35
90
58
37
65
41
27
54
36
28
68
49
42
76
54
43
72
53
45
67
51
43
63
49
43
84
67
62
84
69
65
80
67
64
71
56
51
66
51
44
67
52
44
72
55
45
73
57
47
71
54
45
72
54
46
70
53
44
65
51
42
57
46
38
67
52
44
70
55
44
63
51
41
65
52
42
65
52
42
62
49
42
58
49
41
48
41
37
91
72
64
79
62
53
77
58
48
85
61
45
96
66
48
97
66
46
95
65
46
93
62
41
106
73
51
97
65
44
95
63
43
97
65
44
107
71
50
100
64
38
98
63
39
100
64
39
106
71
48
90
56
35
72
47
32
54
35
24
50
33
26
55
39
32
40
27
22
60
45
39
90
69
60
89
65
53
94
69
57
91
66
57
89
66
58
87
61
50
107
76
61
109
77
61
106
76
57
103
75
60
105
77
63
103
75
62
112
85
70
103
80
69
104
83
73
105
81
70
109
85
73
103
82
71
110
86
75
104
83
75
99
81
72
103
81
71
101
78
68
108
83
71
103
77
64
103
78
64
100
76
63
91
68
56
88
64
51
90
71
59
86
66
52
86
65
50
84
66
53
80
64
53
71
57
47
70
58
49
87
70
67
81
67
63
69
53
49
63
50
47
74
60
56
83
65
59
86
68
61
88
66
52
82
58
46
84
59
44
89
64
50
87
61
47
91
65
51
94
66
51
92
67
54
90
65
52
106
76
62
107
82
74
113
85
76
104
81
72
106
82
71
98
78
68
87
68
61
93
75
70
104
86
82
100
82
76
101
80
72
100
81
73
102
80
71
109
87
78
102
80
71
114
90
80
113
90
82
117
95
88
106
86
80
100
81
76
99
79
74
103
81
75
109
88
81
96
79
76
96
75
70
105
85
79
95
74
69
92
72
65
88
71
66
77
64
59
78
67
66
95
81
78
94
82
81
102
87
85
93
80
76
83
73
73
83
75
74
71
65
63
68
60
58
80
69
68
79
70
68
74
64
64
67
59
58
50
44
42
82
66
61
91
72
66
102
79
69
103
76
65
90
66
56
77
55
43
84
58
45
81
55
42
79
55
42
81
54
41
95
63
44
105
74
56
116
88
77
124
94
80
122
89
72
123
92
76
116
86
75
134
103
84
136
101
83
134
93
70
126
85
59
140
91
56
143
89
47
149
95
55
155
99
51
140
86
39
157
104
61
160
99
44
175
110
48
176
117
64
159
110
76
160
109
72
151
101
65
146
100
70
136
95
72
137
94
68
146
104
81
145
105
85
136
101
83
124
89
73
114
77
54
130
94
75
130
92
71
134
100
84
113
83
65
103
71
55
105
76
59
103
77
64
107
82
72
107
83
73
105
82
73
96
74
66
89
70
61
76
60
52
78
63
58
71
57
53
74
61
57
66
56
54
66
55
53
73
62
60
101
70
54
103
71
55
99
68
53
96
65
49
99
65
46
106
70
46
113
73
49
116
75
50
104
66
43
109
70
47
123
80
54
118
78
53
118
77
53
144
99
73
135
87
54
136
94
67
145
99
68
150
102
66
155
110
79
150
97
56
156
106
62
158
104
57
164
104
50
149
92
45
159
100
51
167
102
38
165
105
50
178
117
55
178
116
54
175
112
47
167
113
70
160
110
73
156
106
72
148
102
72
136
91
65
134
87
60
135
98
77
116
82
65
117
80
62
125
86
65
126
84
58
134
97
77
126
90
71
132
96
75
121
89
71
120
88
69
120
88
69
111
80
62
95
69
55
96
72
57
95
74
62
99
78
68
108
83
70
110
85
72
103
82
71
104
85
77
91
74
68
89
73
64
86
72
64
85
70
64
108
74
57
100
67
48
97
63
43
97
63
40
96
62
40
104
69
50
107
72
52
108
71
50
104
68
46
110
72
50
115
75
52
108
70
48
115
74
49
129
89
66
133
93
70
133
92
69
125
84
61
136
95
70
132
92
71
152
113
88
132
80
42
142
92
56
151
94
49
153
98
52
170
114
63
175
113
53
166
102
41
162
108
60
163
103
49
162
108
64
160
107
66
156
108
75
160
112
77
156
113
87
138
89
56
119
77
51
125
84
62
123
85
64
128
89
67
108
70
49
127
92
74
115
82
66
123
90
75
109
79
62
109
83
71
109
82
69
101
77
66
111
83
69
102
78
68
102
79
66
97
71
55
99
73
60
106
79
65
102
78
65
96
73
60
97
76
66
97
78
67
101
82
72
99
81
71
100
82
73
72
49
38
75
50
37
83
56
43
84
58
42
80
53
37
84
54
35
87
55
37
91
60
42
87
53
33
111
75
56
99
62
43
102
65
42
108
69
46
101
62
40
101
62
40
110
71
51
120
83
64
124
89
69
121
83
64
128
98
87
151
114
95
129
88
63
134
91
65
138
93
67
136
94
70
131
90
69
138
94
68
140
96
71
136
91
62
140
100
79
132
92
72
124
85
66
141
104
85
140
105
88
133
97
82
131
96
84
130
98
86
115
86
73
106
74
57
108
76
59
107
77
62
112
83
71
115
88
76
109
85
76
98
76
66
90
69
62
101
79
71
96
74
64
79
62
55
81
61
50
99
76
64
92
69
57
85
64
53
81
62
52
88
69
58
87
68
59
96
78
70
84
67
61
82
69
63
73
61
59
73
51
39
86
63
51
74
51
39
62
39
26
73
48
32
83
54
38
109
75
59
102
68
50
92
57
38
89
52
30
106
68
46
119
79
59
123
83
63
125
86
68
124
86
69
123
87
67
123
87
70
124
86
67
138
99
81
123
86
69
135
100
84
147
112
96
137
94
73
136
93
66
141
98
75
139
93
65
137
93
66
147
99
72
145
99
72
130
92
72
129
87
67
135
92
70
139
101
83
144
107
90
121
89
77
117
84
70
129
96
83
110
76
61
93
62
47
101
72
58
108
80
67
132
101
92
115
86
75
101
75
64
97
72
62
97
69
56
101
76
63
94
71
60
92
68
59
84
60
49
85
62
51
98
72
60
79
60
49
68
51
42
76
56
48
86
66
57
85
67
60
82
67
60
73
58
51
68
56
50
49
39
37
57
45
42
75
57
48
90
64
51
96
66
52
95
65
51
82
52
34
87
54
35
93
57
38
98
62
42
99
62
42
97
59
37
92
54
31
91
55
34
88
52
28
81
45
22
78
42
18
123
88
72
141
102
85
121
81
59
135
92
70
127
85
62
128
83
59
130
89
66
139
95
72
130
85
61
126
85
65
133
91
71
134
94
74
100
64
46
117
78
58
121
83
67
129
95
83
135
101
87
118
89
81
126
95
85
130
99
87
137
104
92
119
86
73
87
56
40
99
68
53
119
88
78
119
89
77
95
67
57
78
52
41
104
76
65
112
85
76
103
79
71
92
73
66
88
67
61
83
66
57
79
60
52
67
53
47
68
52
46
76
59
54
74
57
52
79
62
56
76
61
58
65
52
48
57
46
42
48
33
24
59
40
28
66
43
30
71
46
33
71
45
30
74
47
32
73
45
28
74
43
25
75
42
22
78
45
21
82
45
21
79
44
19
74
41
18
72
40
17
69
37
15
70
38
17
75
39
18
139
105
92
140
103
88
138
101
83
128
88
68
123
82
61
125
82
60
129
87
64
130
89
70
118
79
59
127
84
63
109
70
52
133
99
84
113
75
58
103
70
56
110
77
65
127
91
77
113
85
77
102
73
64
105
76
66
107
79
70
119
94
88
136
109
103
127
98
89
84
59
50
78
57
47
94
71
63
136
111
105
126
99
92
118
91
81
126
100
95
118
97
91
107
84
78
100
78
71
88
68
62
91
71
64
85
67
61
86
67
61
88
70
65
88
71
65
95
78
74
78
65
61
62
52
48
53
44
42
38
24
17
40
25
16
46
29
19
48
30
21
48
30
18
51
31
18
55
32
18
60
34
19
63
35
17
65
36
18
63
35
16
60
33
17
58
32
16
57
31
13
59
31
12
59
31
13
71
38
18
120
84
70
124
86
71
118
83
68
121
83
66
111
74
57
95
57
41
114
76
58
126
87
71
128
92
77
115
80
67
123
92
82
121
87
74
87
56
44
105
73
60
131
96
83
102
73
64
96
66
56
93
65
55
88
61
49
93
65
55
84
58
48
94
68
60
130
105
102
134
111
108
124
102
97
113
89
84
89
68
61
126
101
95
118
95
89
63
46
42
47
32
25
55
39
32
58
41
35
48
34
27
52
38
31
55
42
37
47
36
31
45
33
29
42
33
29
40
31
27
38
29
27
34
26
22
36
29
26
29
18
14
35
22
14
36
23
14
38
23
15
37
23
13
41
24
14
43
25
15
47
27
15
49
28
16
50
27
15
50
27
14
50
28
15
49
28
15
49
28
15
52
28
14
54
29
12
60
31
13
73
47
36
128
92
77
115
77
60
98
62
46
81
50
38
80
52
40
101
69
57
131
96
86
124
91
81
116
86
74
136
102
92
138
104
93
120
89
79
118
91
84
92
63
54
95
64
53
96
64
53
108
78
68
110
79
70
101
72
61
119
90
79
120
90
80
122
93
85
88
65
58
93
73
69
103
83
80
127
102
97
126
99
92
125
99
95
51
35
28
41
27
19
40
26
18
38
26
17
38
26
20
38
26
18
35
25
18
32
23
19
32
23
19
32
24
21
31
23
20
26
20
16
21
17
14
19
16
14
24
15
11
29
19
15
30
19
12
32
19
11
32
20
11
33
19
11
35
21
13
36
21
11
38
21
13
40
23
13
40
23
13
37
21
12
34
19
12
36
20
11
40
22
11
43
23
12
42
22
10
44
23
10
73
51
44
120
88
77
129
93
80
122
86
72
127
93
79
138
102
89
141
106
95
138
105
94
134
103
95
138
103
93
141
108
100
127
100
93
120
87
78
118
84
74
120
86
74
130
97
86
133
101
91
121
88
79
119
87
77
124
93
84
83
60
53
56
40
32
38
24
16
37
23
16
37
22
15
42
29
25
62
47
42
42
28
24
35
23
16
35
22
15
34
22
16
32
22
16
30
21
17
29
21
17
30
21
17
31
22
19
30
21
19
29
20
18
28
20
17
26
19
16
19
15
13
14
11
11
20
11
5
22
13
7
25
15
10
25
16
10
25
15
10
26
15
9
28
16
9
30
18
10
29
17
11
29
16
10
28
16
9
27
15
9
28
14
10
30
16
10
33
17
10
33
18
10
34
18
9
38
20
10
41
21
9
46
24
12
74
53
45
100
75
67
100
75
68
110
85
79
103
81
75
96
72
65
119
90
81
110
82
75
76
57
52
49
27
17
50
25
15
59
37
28
72
51
44
86
61
55
78
54
47
75
52
44
56
39
32
44
29
22
34
21
15
34
21
14
33
21
14
32
20
13
31
19
14
31
19
15
32
20
14
32
20
16
29
19
13
30
19
14
29
19
14
29
20
15
27
18
16
26
17
14
25
16
14
25
17
14
25
17
14
24
17
14
21
16
13
19
14
13
16
12
12
13
9
8
14
6
3
18
9
4
19
9
4
19
10
5
20
11
4
20
11
6
20
11
6
21
11
6
22
13
8
22
13
8
22
12
8
24
12
8
23
14
9
26
14
10
27
15
9
28
14
8
29
15
9
33
18
10
35
18
9
40
20
8
45
22
9
48
25
13
44
21
8
43
21
7
45
23
10
42
21
10
41
20
10
37
18
9
44
21
10
41
19
8
41
21
11
39
19
8
37
19
8
37
18
7
37
20
11
33
19
10
31
18
9
31
18
9
30
17
10
29
18
10
29
18
13
28
17
14
27
18
13
27
18
13
28
18
15
28
19
14
27
17
14
26
16
14
26
16
14
27
18
14
24
16
13
26
16
13
23
15
13
20
15
11
17
13
10
16
12
10
16
12
11
14
9
8
13
7
6
11
6
3
