P3
60 40
255
72
72
72
76
76
76
80
80
80
83
83
83
87
87
87
91
91
91
94
94
94
95
95
95
95
95
95
100
100
100
103
103
103
106
106
106
107
107
107
108
108
108
110
110
110
109
109
109
111
111
111
114
114
114
114
114
114
113
113
113
111
111
111
109
109
109
109
109
109
109
109
109
112
112
112
113
113
113
112
112
112
110
110
110
110
110
110
109
109
109
110
110
110
110
110
110
107
107
107
106
106
106
106
106
106
106
106
106
107
107
107
108
108
108
107
107
107
104
104
104
103
103
103
104
104
104
104
104
104
105
105
105
108
108
108
110
110
110
110
110
110
105
105
105
102
102
102
101
101
101
98
98
98
98
98
98
98
98
98
97
97
97
95
95
95
93
93
93
89
89
89
85
85
85
79
79
79
74
74
74
76
76
76
80
80
80
84
84
84
87
87
87
90
90
90
92
92
92
97
97
97
103
103
103
100
100
100
102
102
102
104
104
104
106
106
106
110
110
110
112
112
112
112
112
112
113
113
113
116
116
116
116
116
116
116
116
116
113
113
113
112
112
112
111
111
111
109
109
109
111
111
111
114
114
114
115
115
115
113
113
113
112
112
112
112
112
112
112
112
112
112
112
112
112
112
112
110
110
110
107
107
107
108
108
108
111
111
111
111
111
111
111
111
111
108
108
108
107
107
107
107
107
107
110
110
110
111
111
111
111
111
111
112
112
112
113
113
113
111
111
111
107
107
107
105
105
105
103
103
103
101
101
101
103
103
103
101
101
101
101
101
101
99
99
99
95
95
95
90
90
90
85
85
85
83
83
83
82
82
82
80
80
80
83
83
83
87
87
87
90
90
90
92
92
92
94
94
94
97
97
97
103
103
103
105
105
105
106
106
106
105
105
105
105
105
105
108
108
108
112
112
112
115
115
115
117
117
117
120
120
120
119
119
119
117
117
117
113
113
113
113
113
113
114
114
114
112
112
112
115
115
115
117
117
117
119
119
119
118
118
118
116
116
116
114
114
114
114
114
114
113
113
113
114
114
114
112
112
112
111
111
111
113
113
113
115
115
115
117
117
117
114
114
114
111
111
111
109
109
109
112
112
112
113
113
113
114
114
114
113
113
113
113
113
113
111
111
111
109
109
109
107
107
107
105
105
105
106
106
106
108
108
108
109
109
109
105
105
105
101
101
101
99
99
99
96
96
96
94
94
94
94
94
94
99
99
99
102
102
102
84
84
84
88
88
88
91
91
91
93
93
93
94
94
94
97
97
97
98
98
98
100
100
100
102
102
102
105
105
105
107
107
107
106
106
106
106
106
106
108
108
108
109
109
109
114
114
114
120
120
120
121
121
121
118
118
118
114
114
114
114
114
114
115
115
115
114
114
114
116
116
116
117
117
117
121
121
121
121
121
121
121
121
121
118
118
118
116
116
116
115
115
115
115
115
115
114
114
114
113
113
113
115
115
115
118
118
118
120
120
120
118
118
118
115
115
115
115
115
115
115
115
115
115
115
115
115
115
115
114
114
114
113
113
113
111
111
111
109
109
109
108
108
108
109
109
109
111
111
111
112
112
112
108
108
108
104
104
104
101
101
101
100
100
100
100
100
100
106
106
106
112
112
112
114
114
114
115
115
115
84
84
84
90
90
90
94
94
94
95
95
95
97
97
97
99
99
99
99
99
99
100
100
100
101
101
101
105
105
105
107
107
107
108
108
108
109
109
109
109
109
109
110
110
110
111
111
111
112
112
112
114
114
114
115
115
115
116
116
116
116
116
116
117
117
117
116
116
116
115
115
115
116
116
116
119
119
119
121
121
121
120
120
120
117
117
117
116
116
116
116
116
116
116
116
116
115
115
115
116
116
116
116
116
116
119
119
119
121
121
121
120
120
120
119
119
119
119
119
119
118
118
118
117
117
117
116
116
116
115
115
115
113
113
113
112
112
112
111
111
111
114
114
114
116
116
116
115
115
115
111
111
111
105
105
105
101
101
101
101
101
101
104
104
104
108
108
108
113
113
113
115
115
115
115
115
115
111
111
111
85
85
85
89
89
89
92
92
92
95
95
95
97
97
97
99
99
99
100
100
100
101
101
101
102
102
102
104
104
104
107
107
107
110
110
110
110
110
110
111
111
111
113
113
113
114
114
114
114
114
114
117
117
117
119
119
119
116
116
116
118
118
118
120
120
120
121
121
121
120
120
120
120
120
120
121
121
121
122
122
122
120
120
120
118
118
118
115
115
115
117
117
117
118
118
118
119
119
119
119
119
119
119
119
119
119
119
119
123
123
123
121
121
121
120
120
120
121
121
121
121
121
121
119
119
119
118
118
118
116
116
116
116
116
116
115
115
115
116
116
116
118
118
118
117
117
117
110
110
110
105
105
105
102
102
102
103
103
103
103
103
103
105
105
105
107
107
107
111
111
111
109
109
109
103
103
103
89
89
89
86
86
86
90
90
90
92
92
92
93
93
93
96
96
96
98
98
98
100
100
100
102
102
102
104
104
104
106
106
106
108
108
108
111
111
111
112
112
112
113
113
113
115
115
115
116
116
116
118
118
118
121
121
121
123
123
123
124
124
124
131
131
131
135
135
135
134
134
134
133
133
133
134
134
134
132
132
132
132
132
132
127
127
127
123
123
123
119
119
119
118
118
118
119
119
119
119
119
119
119
119
119
120
120
120
123
123
123
125
125
125
123
123
123
122
122
122
124
124
124
124
124
124
121
121
121
119
119
119
118
118
118
119
119
119
119
119
119
117
117
117
113
113
113
110
110
110
109
109
109
112
112
112
116
116
116
111
111
111
108
108
108
104
104
104
105
105
105
99
99
99
91
91
91
87
87
87
82
82
82
89
89
89
92
92
92
93
93
93
95
95
95
97
97
97
99
99
99
100
100
100
102
102
102
105
105
105
106
106
106
108
108
108
109
109
109
110
110
110
113
113
113
116
116
116
117
117
117
120
120
120
122
122
122
125
125
125
126
126
126
131
131
131
142
142
142
149
149
149
145
145
145
152
152
152
158
158
158
154
154
154
137
137
137
129
129
129
124
124
124
122
122
122
119
119
119
119
119
119
118
118
118
121
121
121
128
128
128
129
129
129
128
128
128
130
130
130
130
130
130
125
125
125
122
122
122
121
121
121
119
119
119
120
120
120
117
117
117
113
113
113
111
111
111
113
113
113
117
117
117
121
121
121
112
112
112
104
104
104
103
103
103
100
100
100
97
97
97
94
94
94
91
91
91
89
89
89
87
87
87
91
91
91
93
93
93
95
95
95
96
96
96
98
98
98
100
100
100
102
102
102
104
104
104
106
106
106
107
107
107
109
109
109
109
109
109
110
110
110
111
111
111
114
114
114
116
116
116
118
118
118
121
121
121
123
123
123
127
127
127
130
130
130
135
135
135
137
137
137
140
140
140
155
155
155
171
171
171
154
154
154
134
134
134
138
138
138
136
136
136
129
129
129
123
123
123
123
123
123
125
125
125
130
130
130
138
138
138
140
140
140
141
141
141
140
140
140
134
134
134
128
128
128
127
127
127
126
126
126
119
119
119
113
113
113
112
112
112
111
111
111
115
115
115
117
117
117
116
116
116
111
111
111
107
107
107
106
106
106
103
103
103
99
99
99
96
96
96
97
97
97
96
96
96
95
95
95
97
97
97
94
94
94
95
95
95
96
96
96
97
97
97
99
99
99
101
101
101
103
103
103
104
104
104
106
106
106
107
107
107
109
109
109
110
110
110
110
110
110
113
113
113
115
115
115
116
116
116
118
118
118
122
122
122
124
124
124
126
126
126
128
128
128
129
129
129
132
132
132
138
138
138
148
148
148
151
151
151
145
145
145
139
139
139
142
142
142
138
138
138
138
138
138
131
131
131
133
133
133
138
138
138
141
141
141
145
145
145
144
144
144
144
144
144
143
143
143
140
140
140
133
133
133
131
131
131
118
118
118
112
112
112
110
110
110
111
111
111
113
113
113
116
116
116
115
115
115
118
118
118
114
114
114
107
107
107
108
108
108
106
106
106
105
105
105
104
104
104
104
104
104
104
104
104
103
103
103
101
101
101
103
103
103
103
103
103
102
102
102
102
102
102
104
104
104
104
104
104
104
104
104
105
105
105
105
105
105
107
107
107
110
110
110
112
112
112
114
114
114
115
115
115
117
117
117
119
119
119
121
121
121
123
123
123
124
124
124
127
127
127
128
128
128
129
129
129
132
132
132
136
136
136
135
135
135
135
135
135
136
136
136
134
134
134
134
134
134
132
132
132
133
133
133
133
133
133
129
129
129
130
130
130
124
124
124
124
124
124
127
127
127
136
136
136
143
143
143
141
141
141
127
127
127
112
112
112
109
109
109
111
111
111
113
113
113
115
115
115
117
117
117
118
118
118
126
126
126
120
120
120
115
115
115
113
113
113
111
111
111
110
110
110
109
109
109
109
109
109
108
108
108
105
105
105
102
102
102
98
98
98
103
103
103
106
106
106
108
108
108
107
107
107
106
106
106
107
107
107
107
107
107
109
109
109
110
110
110
112
112
112
113
113
113
115
115
115
116
116
116
117
117
117
118
118
118
120
120
120
120
120
120
121
121
121
123
123
123
125
125
125
127
127
127
132
132
132
139
139
139
160
160
160
153
153
153
136
136
136
134
134
134
133
133
133
132
132
132
131
131
131
130
130
130
129
129
129
128
128
128
129
129
129
129
129
129
124
124
124
122
122
122
123
123
123
126
126
126
122
122
122
115
115
115
111
111
111
113
113
113
119
119
119
121
121
121
124
124
124
127
127
127
129
129
129
126
126
126
124
124
124
120
120
120
118
118
118
114
114
114
109
109
109
107
107
107
106
106
106
105
105
105
105
105
105
105
105
105
105
105
105
101
101
101
102
102
102
104
104
104
106
106
106
107
107
107
109
109
109
112
112
112
113
113
113
114
114
114
114
114
114
116
116
116
117
117
117
118
118
118
118
118
118
119
119
119
119
119
119
121
121
121
121
121
121
123
123
123
124
124
124
129
129
129
137
137
137
157
157
157
179
179
179
156
156
156
139
139
139
134
134
134
130
130
130
131
131
131
142
142
142
149
149
149
153
153
153
155
155
155
142
142
142
133
133
133
136
136
136
133
133
133
124
124
124
120
120
120
119
119
119
119
119
119
124
124
124
129
129
129
134
134
134
139
139
139
141
141
141
138
138
138
134
134
134
128
128
128
122
122
122
119
119
119
118
118
118
116
116
116
119
119
119
117
117
117
114
114
114
108
108
108
105
105
105
104
104
104
102
102
102
121
121
121
117
117
117
114
114
114
113
113
113
114
114
114
113
113
113
113
113
113
114
114
114
115
115
115
115
115
115
117
117
117
118
118
118
119
119
119
120
120
120
120
120
120
121
121
121
122
122
122
124
124
124
126
126
126
127
127
127
128
128
128
131
131
131
136
136
136
141
141
141
137
137
137
134
134
134
132
132
132
130
130
130
134
134
134
138
138
138
146
146
146
169
169
169
157
157
157
147
147
147
145
145
145
141
141
141
140
140
140
131
131
131
127
127
127
127
127
127
129
129
129
136
136
136
137
137
137
138
138
138
135
135
135
130
130
130
130
130
130
128
128
128
126
126
126
122
122
122
118
118
118
119
119
119
117
117
117
113
113
113
112
112
112
112
112
112
110
110
110
109
109
109
107
107
107
105
105
105
139
139
139
141
141
141
143
143
143
141
141
141
137
137
137
134
134
134
133
133
133
130
130
130
125
125
125
121
121
121
121
121
121
121
121
121
122
122
122
123
123
123
122
122
122
122
122
122
123
123
123
124
124
124
124
124
124
125
125
125
126
126
126
129
129
129
132
132
132
135
135
135
135
135
135
128
128
128
131
131
131
136
136
136
140
140
140
142
142
142
145
145
145
151
151
151
163
163
163
149
149
149
143
143
143
141
141
141
144
144
144
150
150
150
145
145
145
138
138
138
137
137
137
134
134
134
131
131
131
130
130
130
129
129
129
129
129
129
125
125
125
124
124
124
124
124
124
126
126
126
124
124
124
122
122
122
120
120
120
118
118
118
116
116
116
113
113
113
112
112
112
110
110
110
108
108
108
107
107
107
128
128
128
131
131
131
133
133
133
135
135
135
138
138
138
141
141
141
144
144
144
146
146
146
148
148
148
149
149
149
149
149
149
146
146
146
143
143
143
142
142
142
133
133
133
128
128
128
127
127
127
126
126
126
126
126
126
126
126
126
126
126
126
128
128
128
128
128
128
129
129
129
130
130
130
132
132
132
137
137
137
140
140
140
143
143
143
146
146
146
154
154
154
170
170
170
164
164
164
157
157
157
148
148
148
144
144
144
143
143
143
141
141
141
139
139
139
138
138
138
136
136
136
133
133
133
133
133
133
137
137
137
134
134
134
130
130
130
129
129
129
130
130
130
126
126
126
122
122
122
120
120
120
120
120
120
118
118
118
118
118
118
115
115
115
113
113
113
111
111
111
111
111
111
111
111
111
107
107
107
108
108
108
111
111
111
113
113
113
115
115
115
118
118
118
120
120
120
124
124
124
126
126
126
128
128
128
131
131
131
133
133
133
135
135
135
137
137
137
138
138
138
140
140
140
141
141
141
139
139
139
140
140
140
137
137
137
132
132
132
130
130
130
128
128
128
129
129
129
130
130
130
132
132
132
135
135
135
139
139
139
142
142
142
146
146
146
154
154
154
182
182
182
204
204
204
193
193
193
164
164
164
157
157
157
148
148
148
147
147
147
144
144
144
144
144
144
140
140
140
138
138
138
139
139
139
132
132
132
125
125
125
118
118
118
116
116
116
112
112
112
112
112
112
113
113
113
111
111
111
111
111
111
113
113
113
112
112
112
111
111
111
108
108
108
107
107
107
106
106
106
104
104
104
101
101
101
98
98
98
92
92
92
95
95
95
97
97
97
98
98
98
101
101
101
103
103
103
104
104
104
106
106
106
108
108
108
109
109
109
111
111
111
112
112
112
114
114
114
116
116
116
116
116
116
118
118
118
119
119
119
119
119
119
120
120
120
120
120
120
120
120
120
121
121
121
122
122
122
122
122
122
124
124
124
125
125
125
129
129
129
132
132
132
137
137
137
140
140
140
151
151
151
171
171
171
147
147
147
138
138
138
132
132
132
127
127
127
122
122
122
119
119
119
118
118
118
118
118
118
117
117
117
116
116
116
114
114
114
114
114
114
111
111
111
109
109
109
108
108
108
107
107
107
106
106
106
105
105
105
104
104
104
103
103
103
102
102
102
100
100
100
98
98
98
96
96
96
94
94
94
92
92
92
89
89
89
87
87
87
43
43
43
56
56
56
54
54
54
48
48
48
49
49
49
45
45
45
36
36
36
43
43
43
48
48
48
52
52
52
54
54
54
58
58
58
77
77
77
72
72
72
74
74
74
73
73
73
69
69
69
69
69
69
72
72
72
79
79
79
84
84
84
87
87
87
88
88
88
89
89
89
90
90
90
87
87
87
88
88
88
87
87
87
87
87
87
89
89
89
95
95
95
98
98
98
91
91
91
89
89
89
98
98
98
96
96
96
89
89
89
88
88
88
86
86
86
88
88
88
90
90
90
92
92
92
92
92
92
95
95
95
97
97
97
96
96
96
97
97
97
94
94
94
92
92
92
87
87
87
86
86
86
86
86
86
85
85
85
85
85
85
85
85
85
79
79
79
72
72
72
72
72
72
74
74
74
74
74
74
70
70
70
72
72
72
83
83
83
84
84
84
85
85
85
84
84
84
78
78
78
80
80
80
86
86
86
89
89
89
89
89
89
88
88
88
92
92
92
92
92
92
95
95
95
101
101
101
97
97
97
95
95
95
93
93
93
90
90
90
92
92
92
95
95
95
96
96
96
100
100
100
99
99
99
105
105
105
98
98
98
97
97
97
102
102
102
107
107
107
110
110
110
109
109
109
114
114
114
110
110
110
102
102
102
108
108
108
109
109
109
108
108
108
106
106
106
106
106
106
106
106
106
104
104
104
103
103
103
105
105
105
102
102
102
101
101
101
100
100
100
102
102
102
100
100
100
100
100
100
97
97
97
98
98
98
96
96
96
93
93
93
91
91
91
89
89
89
86
86
86
86
86
86
87
87
87
85
85
85
86
86
86
94
94
94
94
94
94
95
95
95
96
96
96
94
94
94
104
104
104
109
109
109
108
108
108
102
102
102
105
105
105
105
105
105
105
105
105
98
98
98
92
92
92
95
95
95
97
97
97
106
106
106
110
110
110
106
106
106
108
108
108
114
114
114
117
117
117
121
121
121
122
122
122
119
119
119
120
120
120
127
127
127
127
127
127
131
131
131
130
130
130
137
137
137
128
128
128
124
124
124
124
124
124
122
122
122
121
121
121
121
121
121
121
121
121
118
118
118
111
111
111
107
107
107
114
114
114
110
110
110
105
105
105
109
109
109
105
105
105
104
104
104
105
105
105
96
96
96
98
98
98
93
93
93
90
90
90
89
89
89
94
94
94
95
95
95
88
88
88
87
87
87
87
87
87
84
84
84
93
93
93
94
94
94
94
94
94
94
94
94
93
93
93
94
94
94
99
99
99
97
97
97
99
99
99
100
100
100
99
99
99
95
95
95
95
95
95
91
91
91
91
91
91
97
97
97
100
100
100
96
96
96
99
99
99
94
94
94
94
94
94
94
94
94
91
91
91
91
91
91
99
99
99
101
101
101
103
103
103
100
100
100
105
105
105
106
106
106
106
106
106
102
102
102
108
108
108
112
112
112
109
109
109
112
112
112
115
115
115
114
114
114
113
113
113
111
111
111
110
110
110
110
110
110
112
112
112
106
106
106
108
108
108
108
108
108
100
100
100
99
99
99
95
95
95
88
88
88
89
89
89
84
84
84
83
83
83
84
84
84
85
85
85
90
90
90
81
81
81
75
75
75
69
69
69
70
70
70
74
74
74
70
70
70
65
65
65
58
58
58
61
61
61
64
64
64
71
71
71
71
71
71
76
76
76
79
79
79
79
79
79
84
84
84
93
93
93
88
88
88
98
98
98
98
98
98
104
104
104
100
100
100
106
106
106
105
105
105
105
105
105
105
105
105
104
104
104
98
98
98
95
95
95
91
91
91
86
86
86
84
84
84
86
86
86
87
87
87
100
100
100
100
100
100
105
105
105
101
101
101
99
99
99
100
100
100
105
105
105
99
99
99
99
99
99
97
97
97
91
91
91
84
84
84
85
85
85
86
86
86
81
81
81
82
82
82
79
79
79
78
78
78
78
78
78
77
77
77
77
77
77
72
72
72
76
76
76
80
80
80
72
72
72
66
66
66
65
65
65
65
65
65
66
66
66
70
70
70
58
58
58
67
67
67
65
65
65
62
62
62
65
65
65
69
69
69
71
71
71
74
74
74
70
70
70
69
69
69
78
78
78
80
80
80
79
79
79
74
74
74
70
70
70
70
70
70
77
77
77
84
84
84
87
87
87
86
86
86
89
89
89
91
91
91
84
84
84
90
90
90
86
86
86
87
87
87
84
84
84
73
73
73
63
63
63
52
52
52
39
39
39
39
39
39
56
56
56
58
58
58
47
47
47
54
54
54
58
58
58
67
67
67
58
58
58
68
68
68
65
65
65
61
61
61
72
72
72
73
73
73
76
76
76
79
79
79
81
81
81
82
82
82
89
89
89
92
92
92
88
88
88
94
94
94
91
91
91
86
86
86
86
86
86
81
81
81
85
85
85
86
86
86
83
83
83
82
82
82
22
22
22
21
21
21
22
22
22
25
25
25
26
26
26
27
27
27
26
26
26
26
26
26
24
24
24
25
25
25
27
27
27
29
29
29
35
35
35
49
49
49
56
56
56
67
67
67
60
60
60
55
55
55
55
55
55
54
54
54
42
42
42
46
46
46
54
54
54
50
50
50
67
67
67
72
72
72
71
71
71
72
72
72
80
80
80
83
83
83
77
77
77
84
84
84
88
88
88
89
89
89
87
87
87
85
85
85
97
97
97
95
95
95
100
100
100
93
93
93
93
93
93
86
86
86
99
99
99
98
98
98
97
97
97
96
96
96
100
100
100
99
99
99
95
95
95
97
97
97
88
88
88
83
83
83
85
85
85
82
82
82
83
83
83
78
78
78
78
78
78
77
77
77
72
72
72
61
61
61
42
42
42
49
49
49
51
51
51
53
53
53
53
53
53
52
52
52
56
56
56
54
54
54
47
47
47
53
53
53
56
56
56
57
57
57
57
57
57
59
59
59
57
57
57
54
54
54
54
54
54
59
59
59
70
70
70
73
73
73
71
71
71
52
52
52
54
54
54
57
57
57
58
58
58
53
53
53
39
39
39
44
44
44
62
62
62
61
61
61
62
62
62
74
74
74
81
81
81
85
85
85
93
93
93
93
93
93
86
86
86
88
88
88
72
72
72
65
65
65
81
81
81
75
75
75
71
71
71
70
70
70
77
77
77
71
71
71
77
77
77
69
69
69
69
69
69
76
76
76
78
78
78
79
79
79
79
79
79
68
68
68
60
60
60
60
60
60
54
54
54
69
69
69
64
64
64
67
67
67
59
59
59
58
58
58
66
66
66
68
68
68
67
67
67
68
68
68
73
73
73
68
68
68
72
72
72
80
80
80
82
82
82
81
81
81
87
87
87
82
82
82
85
85
85
84
84
84
87
87
87
90
90
90
85
85
85
89
89
89
85
85
85
87
87
87
84
84
84
89
89
89
80
80
80
82
82
82
79
79
79
80
80
80
82
82
82
81
81
81
66
66
66
71
71
71
71
71
71
73
73
73
69
69
69
73
73
73
48
48
48
30
30
30
42
42
42
36
36
36
38
38
38
50
50
50
60
60
60
75
75
75
68
68
68
67
67
67
67
67
67
76
76
76
69
69
69
67
67
67
69
69
69
77
77
77
65
65
65
69
69
69
70
70
70
70
70
70
64
64
64
61
61
61
65
65
65
76
76
76
45
45
45
61
61
61
67
67
67
72
72
72
72
72
72
62
62
62
66
66
66
77
77
77
76
76
76
83
83
83
91
91
91
86
86
86
85
85
85
70
70
70
67
67
67
75
75
75
76
76
76
79
79
79
90
90
90
80
80
80
84
84
84
93
93
93
86
86
86
84
84
84
86
86
86
91
91
91
100
100
100
95
95
95
95
95
95
84
84
84
91
91
91
84
84
84
85
85
85
84
84
84
86
86
86
91
91
91
79
79
79
72
72
72
81
81
81
86
86
86
86
86
86
91
91
91
88
88
88
81
81
81
69
69
69
71
71
71
70
70
70
69
69
69
65
65
65
68
68
68
62
62
62
62
62
62
69
69
69
72
72
72
69
69
69
63
63
63
53
53
53
57
57
57
70
70
70
75
75
75
65
65
65
58
58
58
59
59
59
64
64
64
60
60
60
66
66
66
63
63
63
73
73
73
79
79
79
87
87
87
88
88
88
87
87
87
81
81
81
80
80
80
76
76
76
87
87
87
106
106
106
98
98
98
100
100
100
82
82
82
95
95
95
107
107
107
112
112
112
110
110
110
100
100
100
101
101
101
105
105
105
106
106
106
114
114
114
115
115
115
119
119
119
111
111
111
101
101
101
107
107
107
88
88
88
102
102
102
100
100
100
93
93
93
96
96
96
90
90
90
99
99
99
107
107
107
107
107
107
92
92
92
97
97
97
94
94
94
99
99
99
94
94
94
78
78
78
67
67
67
59
59
59
59
59
59
59
59
59
62
62
62
58
58
58
71
71
71
81
81
81
83
83
83
76
76
76
70
70
70
73
73
73
74
74
74
75
75
75
78
78
78
89
89
89
85
85
85
89
89
89
87
87
87
82
82
82
77
77
77
75
75
75
73
73
73
84
84
84
92
92
92
92
92
92
94
94
94
101
101
101
96
96
96
103
103
103
89
89
89
92
92
92
86
86
86
88
88
88
103
103
103
94
94
94
97
97
97
107
107
107
111
111
111
114
114
114
117
117
117
111
111
111
116
116
116
117
117
117
107
107
107
102
102
102
103
103
103
95
95
95
106
106
106
106
106
106
108
108
108
101
101
101
115
115
115
106
106
106
104
104
104
99
99
99
92
92
92
105
105
105
83
83
83
83
83
83
86
86
86
75
75
75
71
71
71
80
80
80
78
78
78
74
74
74
70
70
70
70
70
70
73
73
73
76
76
76
75
75
75
85
85
85
84
84
84
85
85
85
81
81
81
80
80
80
76
76
76
82
82
82
83
83
83
77
77
77
74
74
74
82
82
82
83
83
83
88
88
88
81
81
81
87
87
87
88
88
88
83
83
83
96
96
96
88
88
88
98
98
98
76
76
76
95
95
95
91
91
91
90
90
90
82
82
82
94
94
94
119
119
119
116
116
116
113
113
113
111
111
111
111
111
111
105
105
105
110
110
110
103
103
103
114
114
114
116
116
116
101
101
101
98
98
98
97
97
97
85
85
85
118
118
118
98
98
98
100
100
100
90
90
90
98
98
98
99
99
99
95
95
95
79
79
79
75
75
75
81
81
81
77
77
77
73
73
73
76
76
76
77
77
77
74
74
74
66
66
66
67
67
67
68
68
68
72
72
72
80
80
80
64
64
64
71
71
71
71
71
71
81
81
81
71
71
71
72
72
72
65
65
65
67
67
67
73
73
73
80
80
80
64
64
64
65
65
65
78
78
78
84
84
84
74
74
74
80
80
80
90
90
90
93
93
93
89
89
89
82
82
82
81
81
81
79
79
79
91
91
91
105
105
105
104
104
104
104
104
104
111
111
111
110
110
110
92
92
92
99
99
99
106
106
106
96
96
96
102
102
102
100
100
100
97
97
97
100
100
100
99
99
99
97
97
97
93
93
93
120
120
120
104
104
104
89
89
89
94
94
94
89
89
89
77
77
77
68
68
68
68
68
68
74
74
74
70
70
70
68
68
68
81
81
81
58
58
58
64
64
64
60
60
60
58
58
58
57
57
57
61
61
61
61
61
61
54
54
54
53
53
53
58
58
58
61
61
61
70
70
70
71
71
71
70
70
70
60
60
60
54
54
54
63
63
63
77
77
77
66
66
66
64
64
64
73
73
73
75
75
75
80
80
80
74
74
74
77
77
77
80
80
80
92
92
92
108
108
108
85
85
85
77
77
77
67
67
67
82
82
82
103
103
103
90
90
90
96
96
96
114
114
114
108
108
108
99
99
99
94
94
94
98
98
98
105
105
105
106
106
106
99
99
99
99
99
99
105
105
105
98
98
98
101
101
101
118
118
118
106
106
106
93
93
93
106
106
106
92
92
92
93
93
93
92
92
92
93
93
93
93
93
93
90
90
90
86
86
86
73
73
73
57
57
57
62
62
62
73
73
73
81
81
81
58
58
58
51
51
51
42
42
42
55
55
55
67
67
67
54
54
54
48
48
48
55
55
55
65
65
65
66
66
66
61
61
61
63
63
63
55
55
55
56
56
56
64
64
64
69
69
69
72
72
72
77
77
77
84
84
84
91
91
91
82
82
82
57
57
57
73
73
73
95
95
95
95
95
95
73
73
73
61
61
61
93
93
93
111
111
111
105
105
105
102
102
102
96
96
96
108
108
108
102
102
102
90
90
90
84
84
84
70
70
70
101
101
101
98
98
98
92
92
92
92
92
92
102
102
102
95
95
95
90
90
90
91
91
91
99
99
99
87
87
87
109
109
109
94
94
94
46
46
46
49
49
49
56
56
56
60
60
60
59
59
59
64
64
64
68
68
68
67
67
67
63
63
63
59
59
59
56
56
56
70
70
70
71
71
71
68
68
68
60
60
60
48
48
48
42
42
42
46
46
46
54
54
54
68
68
68
82
82
82
75
75
75
74
74
74
71
71
71
71
71
71
75
75
75
73
73
73
83
83
83
90
90
90
102
102
102
107
107
107
97
97
97
106
106
106
117
117
117
76
76
76
61
61
61
64
64
64
105
105
105
116
116
116
100
100
100
85
85
85
82
82
82
80
80
80
92
92
92
98
98
98
84
84
84
76
76
76
82
82
82
105
105
105
77
77
77
91
91
91
85
85
85
96
96
96
93
93
93
89
89
89
89
89
89
95
95
95
107
107
107
110
110
110
112
112
112
44
44
44
42
42
42
40
40
40
43
43
43
44
44
44
47
47
47
49
49
49
48
48
48
46
46
46
47
47
47
49
49
49
51
51
51
49
49
49
50
50
50
46
46
46
42
42
42
35
35
35
30
30
30
27
27
27
31
31
31
33
33
33
35
35
35
36
36
36
38
38
38
45
45
45
40
40
40
36
36
36
45
45
45
42
42
42
35
35
35
50
50
50
101
101
101
107
107
107
73
73
73
95
95
95
108
108
108
118
118
118
112
112
112
74
74
74
63
63
63
71
71
71
66
66
66
71
71
71
73
73
73
80
80
80
103
103
103
79
79
79
62
62
62
94
94
94
99
99
99
87
87
87
99
99
99
95
95
95
83
83
83
64
64
64
81
81
81
90
90
90
90
90
90
94
94
94
91
91
91
42
42
42
34
34
34
34
34
34
34
34
34
35
35
35
37
37
37
38
38
38
40
40
40
38
38
38
38
38
38
35
35
35
33
33
33
32
32
32
33
33
33
31
31
31
27
27
27
26
26
26
16
16
16
17
17
17
21
21
21
25
25
25
26
26
26
25
25
25
25
25
25
26
26
26
27
27
27
28
28
28
27
27
27
28
28
28
29
29
29
38
38
38
106
106
106
106
106
106
109
109
109
89
89
89
78
78
78
70
70
70
100
100
100
97
97
97
96
96
96
78
78
78
86
86
86
85
85
85
71
71
71
71
71
71
70
70
70
98
98
98
96
96
96
112
112
112
110
110
110
92
92
92
99
99
99
104
104
104
76
76
76
57
57
57
56
56
56
69
69
69
84
84
84
99
99
99
52
52
52
35
35
35
32
32
32
31
31
31
31
31
31
31
31
31
31
31
31
30
30
30
31
31
31
31
31
31
30
30
30
28
28
28
26
26
26
24
24
24
25
25
25
24
24
24
24
24
24
20
20
20
12
12
12
16
16
16
20
20
20
22
22
22
22
22
22
23
23
23
24
24
24
23
23
23
22
22
22
23
23
23
23
23
23
24
24
24
24
24
24
25
25
25
31
31
31
50
50
50
32
32
32
25
25
25
25
25
25
26
26
26
43
43
43
65
65
65
100
100
100
94
94
94
96
96
96
108
108
108
104
104
104
93
93
93
92
92
92
95
95
95
107
107
107
116
116
116
111
111
111
111
111
111
112
112
112
114
114
114
110
110
110
100
100
100
93
93
93
101
101
101
95
95
95
56
56
56
26
26
26
25
25
25
26
26
26
24
24
24
22
22
22
22
22
22
23
23
23
25
25
25
25
25
25
24
24
24
23
23
23
23
23
23
21
21
21
21
21
21
21
21
21
20
20
20
21
21
21
17
17
17
10
10
10
13
13
13
15
15
15
17
17
17
18
18
18
19
19
19
19
19
19
18
18
18
19
19
19
20
20
20
21
21
21
21
21
21
21
21
21
20
20
20
23
23
23
22
22
22
22
22
22
21
21
21
22
22
22
23
23
23
23
23
23
23
23
23
32
32
32
42
42
42
57
57
57
60
60
60
67
67
67
56
56
56
41
41
41
30
30
30
31
31
31
62
62
62
89
89
89
97
97
97
78
78
78
86
86
86
91
91
91
81
81
81
81
81
81
57
57
57
27
27
27
24
24
24
23
23
23
20
20
20
20
20
20
20
20
20
19
19
19
17
17
17
17
17
17
18
18
18
18
18
18
19
19
19
19
19
19
18
18
18
17
17
17
17
17
17
17
17
17
17
17
17
14
14
14
12
12
12
7
7
7
9
9
9
10
10
10
13
13
13
13
13
13
13
13
13
15
15
15
17
17
17
18
18
18
18
18
18
20
20
20
19
19
19
19
19
19
19
19
19
20
20
20
20
20
20
19
19
19
19
19
19
20
20
20
20
20
20
19
19
19
19
19
19
19
19
19
19
19
19
21
21
21
23
23
23
21
21
21
21
21
21
22
22
22
24
24
24
23
23
23
25
25
25
21
21
21
24
24
24
24
24
24
26
26
26
24
24
24
24
24
24
29
29
29
25
25
25
23
23
23
21
21
21
20
20
20
18
18
18
17
17
17
17
17
17
17
17
17
15
15
15
15
15
15
14
14
14
14
14
14
14
14
14
13
13
13
12
12
12
12
12
12
12
12
12
11
11
11
11
11
11
10
10
10
8
8
8
