P3
60 40
255
69
69
69
74
74
74
78
78
78
81
81
81
84
84
84
88
88
88
92
92
92
93
93
93
92
92
92
96
96
96
99
99
99
101
101
101
102
102
102
103
103
103
106
106
106
105
105
105
106
106
106
109
109
109
108
108
108
110
110
110
107
107
107
104
104
104
104
104
104
107
107
107
110
110
110
111
111
111
109
109
109
108
108
108
108
108
108
107
107
107
107
107
107
107
107
107
106
106
106
104
104
104
104
104
104
106
106
106
109
109
109
111
111
111
110
110
110
105
105
105
104
104
104
103
103
103
104
104
104
104
104
104
104
104
104
106
106
106
105
105
105
101
101
101
98
98
98
97
97
97
95
95
95
95
95
95
95
95
95
95
95
95
94
94
94
92
92
92
88
88
88
83
83
83
78
78
78
73
73
73
74
74
74
78
78
78
82
82
82
85
85
85
87
87
87
89
89
89
95
95
95
100
100
100
97
97
97
99
99
99
99
99
99
102
102
102
105
105
105
107
107
107
107
107
107
109
109
109
111
111
111
111
111
111
111
111
111
111
111
111
111
111
111
109
109
109
107
107
107
110
110
110
113
113
113
115
115
115
112
112
112
110
110
110
110
110
110
109
109
109
109
109
109
109
109
109
109
109
109
108
108
108
109
109
109
113
113
113
115
115
115
115
115
115
111
111
111
108
108
108
107
107
107
108
108
108
109
109
109
109
109
109
109
109
109
109
109
109
107
107
107
104
104
104
102
102
102
100
100
100
100
100
100
102
102
102
101
101
101
100
100
100
99
99
99
95
95
95
89
89
89
85
85
85
83
83
83
84
84
84
78
78
78
81
81
81
84
84
84
88
88
88
90
90
90
91
91
91
94
94
94
100
100
100
102
102
102
103
103
103
101
101
101
100
100
100
103
103
103
107
107
107
110
110
110
112
112
112
115
115
115
114
114
114
113
113
113
111
111
111
111
111
111
112
112
112
111
111
111
114
114
114
118
118
118
121
121
121
119
119
119
116
116
116
113
113
113
113
113
113
112
112
112
112
112
112
112
112
112
112
112
112
115
115
115
119
119
119
120
120
120
117
117
117
113
113
113
110
110
110
111
111
111
112
112
112
112
112
112
112
112
112
112
112
112
110
110
110
108
108
108
106
106
106
105
105
105
105
105
105
109
109
109
110
110
110
106
106
106
102
102
102
100
100
100
97
97
97
95
95
95
97
97
97
104
104
104
109
109
109
82
82
82
87
87
87
89
89
89
92
92
92
92
92
92
94
94
94
95
95
95
98
98
98
99
99
99
102
102
102
103
103
103
101
101
101
102
102
102
104
104
104
105
105
105
109
109
109
116
116
116
117
117
117
116
116
116
113
113
113
113
113
113
115
115
115
114
114
114
117
117
117
121
121
121
125
125
125
126
126
126
125
125
125
120
120
120
116
116
116
115
115
115
114
114
114
114
114
114
115
115
115
117
117
117
120
120
120
122
122
122
119
119
119
116
116
116
114
114
114
114
114
114
114
114
114
114
114
114
114
114
114
113
113
113
112
112
112
110
110
110
110
110
110
112
112
112
115
115
115
117
117
117
111
111
111
107
107
107
104
104
104
104
104
104
105
105
105
113
113
113
124
124
124
128
128
128
129
129
129
83
83
83
88
88
88
93
93
93
94
94
94
96
96
96
97
97
97
98
98
98
98
98
98
99
99
99
102
102
102
104
104
104
105
105
105
105
105
105
106
106
106
107
107
107
107
107
107
109
109
109
112
112
112
114
114
114
115
115
115
116
116
116
119
119
119
119
119
119
118
118
118
119
119
119
125
125
125
127
127
127
126
126
126
120
120
120
117
117
117
117
117
117
117
117
117
116
116
116
118
118
118
118
118
118
121
121
121
124
124
124
122
122
122
119
119
119
118
118
118
117
117
117
116
116
116
115
115
115
114
114
114
115
115
115
113
113
113
114
114
114
119
119
119
122
122
122
121
121
121
119
119
119
109
109
109
106
106
106
106
106
106
111
111
111
118
118
118
125
125
125
131
131
131
130
130
130
123
123
123
84
84
84
88
88
88
92
92
92
94
94
94
97
97
97
99
99
99
100
100
100
100
100
100
101
101
101
103
103
103
105
105
105
108
108
108
108
108
108
109
109
109
111
111
111
112
112
112
113
113
113
115
115
115
117
117
117
116
116
116
118
118
118
122
122
122
124
124
124
123
123
123
123
123
123
125
125
125
129
129
129
127
127
127
124
124
124
120
120
120
120
120
120
120
120
120
121
121
121
122
122
122
123
123
123
124
124
124
129
129
129
127
127
127
124
124
124
123
123
123
122
122
122
119
119
119
118
118
118
117
117
117
116
116
116
116
116
116
118
118
118
122
122
122
123
123
123
116
116
116
111
111
111
108
108
108
108
108
108
109
109
109
114
114
114
118
118
118
121
121
121
119
119
119
112
112
112
93
93
93
87
87
87
90
90
90
92
92
92
93
93
93
96
96
96
98
98
98
100
100
100
102
102
102
104
104
104
106
106
106
108
108
108
111
111
111
111
111
111
112
112
112
114
114
114
115
115
115
117
117
117
120
120
120
121
121
121
123
123
123
130
130
130
134
134
134
135
135
135
134
134
134
134
134
134
133
133
133
135
135
135
133
133
133
130
130
130
127
127
127
125
125
125
124
124
124
124
124
124
125
125
125
127
127
127
134
134
134
138
138
138
136
136
136
133
133
133
134
134
134
131
131
131
126
126
126
123
123
123
121
121
121
121
121
121
122
122
122
120
120
120
117
117
117
115
115
115
115
115
115
122
122
122
128
128
128
122
122
122
118
118
118
114
114
114
114
114
114
106
106
106
97
97
97
91
91
91
85
85
85
90
90
90
93
93
93
95
95
95
97
97
97
100
100
100
101
101
101
102
102
102
104
104
104
106
106
106
108
108
108
109
109
109
110
110
110
112
112
112
114
114
114
115
115
115
117
117
117
119
119
119
121
121
121
125
125
125
125
125
125
130
130
130
141
141
141
148
148
148
145
145
145
151
151
151
157
157
157
153
153
153
141
141
141
138
138
138
134
134
134
132
132
132
129
129
129
129
129
129
129
129
129
136
136
136
148
148
148
153
153
153
151
151
151
154
154
154
151
151
151
140
140
140
134
134
134
131
131
131
127
127
127
128
128
128
124
124
124
118
118
118
117
117
117
121
121
121
130
130
130
136
136
136
125
125
125
115
115
115
112
112
112
109
109
109
104
104
104
99
99
99
96
96
96
93
93
93
91
91
91
92
92
92
95
95
95
97
97
97
100
100
100
101
101
101
104
104
104
106
106
106
108
108
108
110
110
110
111
111
111
112
112
112
112
112
112
114
114
114
116
116
116
117
117
117
118
118
118
120
120
120
122
122
122
125
125
125
128
128
128
131
131
131
135
135
135
137
137
137
141
141
141
154
154
154
170
170
170
154
154
154
139
139
139
147
147
147
149
149
149
144
144
144
141
141
141
142
142
142
147
147
147
158
158
158
170
170
170
172
172
172
174
174
174
173
173
173
162
162
162
154
154
154
152
152
152
147
147
147
132
132
132
124
124
124
122
122
122
122
122
122
127
127
127
133
133
133
133
133
133
126
126
126
120
120
120
118
118
118
117
117
117
110
110
110
106
106
106
103
103
103
101
101
101
100
100
100
100
100
100
98
98
98
99
99
99
101
101
101
102
102
102
104
104
104
106
106
106
108
108
108
110
110
110
111
111
111
113
113
113
115
115
115
116
116
116
117
117
117
118
118
118
121
121
121
123
123
123
125
125
125
127
127
127
129
129
129
131
131
131
132
132
132
133
133
133
135
135
135
140
140
140
149
149
149
153
153
153
147
147
147
143
143
143
146
146
146
146
146
146
154
154
154
156
156
156
160
160
160
170
170
170
176
176
176
183
183
183
181
181
181
179
179
179
179
179
179
172
172
172
160
160
160
157
157
157
141
141
141
127
127
127
124
124
124
126
126
126
129
129
129
133
133
133
132
132
132
136
136
136
132
132
132
122
122
122
124
124
124
120
120
120
115
115
115
113
113
113
111
111
111
109
109
109
108
108
108
106
106
106
108
108
108
108
108
108
108
108
108
110
110
110
111
111
111
113
113
113
114
114
114
114
114
114
116
116
116
117
117
117
118
118
118
120
120
120
120
120
120
122
122
122
124
124
124
127
127
127
130
130
130
131
131
131
132
132
132
134
134
134
136
136
136
138
138
138
140
140
140
143
143
143
142
142
142
142
142
142
143
143
143
142
142
142
143
143
143
144
144
144
148
148
148
151
151
151
153
153
153
155
155
155
149
149
149
147
147
147
151
151
151
167
167
167
178
178
178
175
175
175
154
154
154
134
134
134
129
129
129
129
129
129
130
130
130
133
133
133
136
136
136
139
139
139
147
147
147
139
139
139
131
131
131
126
126
126
124
124
124
122
122
122
121
121
121
120
120
120
118
118
118
114
114
114
109
109
109
104
104
104
108
108
108
111
111
111
114
114
114
114
114
114
114
114
114
116
116
116
118
118
118
119
119
119
121
121
121
123
123
123
124
124
124
125
125
125
126
126
126
127
127
127
128
128
128
129
129
129
130
130
130
130
130
130
133
133
133
135
135
135
137
137
137
141
141
141
146
146
146
165
165
165
159
159
159
147
147
147
147
147
147
147
147
147
149
149
149
152
152
152
153
153
153
153
153
153
154
154
154
156
156
156
157
157
157
147
147
147
145
145
145
148
148
148
153
153
153
148
148
148
140
140
140
135
135
135
136
136
136
140
140
140
140
140
140
143
143
143
145
145
145
147
147
147
143
143
143
138
138
138
134
134
134
131
131
131
127
127
127
123
123
123
120
120
120
119
119
119
118
118
118
117
117
117
118
118
118
116
116
116
108
108
108
110
110
110
112
112
112
115
115
115
117
117
117
119
119
119
121
121
121
122
122
122
123
123
123
125
125
125
127
127
127
128
128
128
130
130
130
131
131
131
132
132
132
132
132
132
135
135
135
135
135
135
136
136
136
138
138
138
142
142
142
147
147
147
164
164
164
186
186
186
163
163
163
151
151
151
151
151
151
152
152
152
158
158
158
176
176
176
192
192
192
192
192
192
194
194
194
177
177
177
163
163
163
169
169
169
162
162
162
149
149
149
145
145
145
143
143
143
144
144
144
147
147
147
151
151
151
157
157
157
163
163
163
170
170
170
166
166
166
159
159
159
148
148
148
140
140
140
136
136
136
137
137
137
136
136
136
139
139
139
136
136
136
132
132
132
124
124
124
119
119
119
116
116
116
113
113
113
130
130
130
127
127
127
124
124
124
124
124
124
125
125
125
124
124
124
124
124
124
126
126
126
126
126
126
127
127
127
128
128
128
130
130
130
131
131
131
132
132
132
133
133
133
134
134
134
136
136
136
138
138
138
141
141
141
143
143
143
143
143
143
145
145
145
149
149
149
153
153
153
152
152
152
153
153
153
155
155
155
159
159
159
164
164
164
171
171
171
185
185
185
206
206
206
195
195
195
189
189
189
184
184
184
176
176
176
174
174
174
162
162
162
154
154
154
155
155
155
158
158
158
165
165
165
162
162
162
164
164
164
162
162
162
155
155
155
154
154
154
151
151
151
148
148
148
142
142
142
137
137
137
137
137
137
134
134
134
130
130
130
128
128
128
127
127
127
125
125
125
124
124
124
119
119
119
115
115
115
150
150
150
152
152
152
154
154
154
153
153
153
148
148
148
147
147
147
145
145
145
143
143
143
138
138
138
135
135
135
135
135
135
135
135
135
135
135
135
137
137
137
138
138
138
138
138
138
140
140
140
141
141
141
142
142
142
144
144
144
146
146
146
148
148
148
151
151
151
154
154
154
156
156
156
156
156
156
161
161
161
167
167
167
173
173
173
179
179
179
187
187
187
198
198
198
207
207
207
195
195
195
183
183
183
176
176
176
181
181
181
186
186
186
179
179
179
172
172
172
169
169
169
163
163
163
156
156
156
154
154
154
152
152
152
151
151
151
145
145
145
145
145
145
144
144
144
144
144
144
142
142
142
140
140
140
138
138
138
136
136
136
133
133
133
129
129
129
127
127
127
125
125
125
121
121
121
118
118
118
142
142
142
145
145
145
147
147
147
150
150
150
153
153
153
156
156
156
159
159
159
161
161
161
164
164
164
166
166
166
166
166
166
164
164
164
160
160
160
159
159
159
150
150
150
146
146
146
145
145
145
146
146
146
146
146
146
147
147
147
148
148
148
151
151
151
153
153
153
155
155
155
158
158
158
162
162
162
168
168
168
175
175
175
183
183
183
193
193
193
206
206
206
217
217
217
210
210
210
202
202
202
191
191
191
183
183
183
181
181
181
175
175
175
174
174
174
173
173
173
169
169
169
162
162
162
161
161
161
165
165
165
161
161
161
154
154
154
150
150
150
150
150
150
144
144
144
140
140
140
138
138
138
139
139
139
137
137
137
135
135
135
133
133
133
130
130
130
127
127
127
126
126
126
125
125
125
119
119
119
119
119
119
123
123
123
126
126
126
129
129
129
133
133
133
135
135
135
139
139
139
142
142
142
145
145
145
148
148
148
151
151
151
154
154
154
157
157
157
159
159
159
161
161
161
164
164
164
163
163
163
165
165
165
163
163
163
158
158
158
157
157
157
155
155
155
155
155
155
155
155
155
159
159
159
164
164
164
170
170
170
179
179
179
191
191
191
205
205
205
225
225
225
238
238
238
233
233
233
211
211
211
201
201
201
190
190
190
186
186
186
182
182
182
180
180
180
174
174
174
169
169
169
169
169
169
158
158
158
147
147
147
137
137
137
133
133
133
129
129
129
127
127
127
129
129
129
127
127
127
126
126
126
128
128
128
127
127
127
126
126
126
123
123
123
119
119
119
118
118
118
113
113
113
108
108
108
104
104
104
96
96
96
99
99
99
101
101
101
104
104
104
107
107
107
110
110
110
112
112
112
115
115
115
117
117
117
119
119
119
121
121
121
123
123
123
125
125
125
127
127
127
128
128
128
130
130
130
132
132
132
132
132
132
133
133
133
134
134
134
135
135
135
137
137
137
138
138
138
139
139
139
143
143
143
147
147
147
152
152
152
159
159
159
168
168
168
178
178
178
196
196
196
216
216
216
187
187
187
172
172
172
161
161
161
153
153
153
148
148
148
144
144
144
142
142
142
139
139
139
137
137
137
136
136
136
132
132
132
130
130
130
126
126
126
123
123
123
121
121
121
120
120
120
117
117
117
116
116
116
114
114
114
113
113
113
111
111
111
108
108
108
105
105
105
101
101
101
98
98
98
95
95
95
92
92
92
89
89
89
43
43
43
56
56
56
55
55
55
49
49
49
50
50
50
46
46
46
37
37
37
44
44
44
49
49
49
54
54
54
56
56
56
59
59
59
78
78
78
73
73
73
75
75
75
75
75
75
70
70
70
71
71
71
73
73
73
80
80
80
86
86
86
90
90
90
90
90
90
92
92
92
93
93
93
90
90
90
92
92
92
91
91
91
91
91
91
94
94
94
103
103
103
107
107
107
99
99
99
96
96
96
107
107
107
104
104
104
96
96
96
93
93
93
90
90
90
92
92
92
93
93
93
94
94
94
95
95
95
98
98
98
99
99
99
98
98
98
100
100
100
96
96
96
93
93
93
88
88
88
88
88
88
88
88
88
86
86
86
86
86
86
86
86
86
81
81
81
73
73
73
73
73
73
75
75
75
74
74
74
69
69
69
72
72
72
84
84
84
85
85
85
85
85
85
84
84
84
78
78
78
80
80
80
86
86
86
90
90
90
90
90
90
87
87
87
92
92
92
92
92
92
95
95
95
102
102
102
97
97
97
96
96
96
94
94
94
92
92
92
94
94
94
98
98
98
98
98
98
102
102
102
101
101
101
108
108
108
101
101
101
101
101
101
107
107
107
113
113
113
117
117
117
118
118
118
124
124
124
119
119
119
111
111
111
116
116
116
119
119
119
117
117
117
116
116
116
115
115
115
113
113
113
111
111
111
110
110
110
111
111
111
107
107
107
106
106
106
106
106
106
108
108
108
104
104
104
104
104
104
100
100
100
101
101
101
98
98
98
95
95
95
93
93
93
91
91
91
87
87
87
87
87
87
89
89
89
86
86
86
84
84
84
93
93
93
94
94
94
94
94
94
96
96
96
95
95
95
103
103
103
108
108
108
107
107
107
103
103
103
106
106
106
105
105
105
106
106
106
98
98
98
92
92
92
94
94
94
97
97
97
107
107
107
113
113
113
109
109
109
112
112
112
118
118
118
123
123
123
127
127
127
129
129
129
126
126
126
128
128
128
137
137
137
138
138
138
146
146
146
147
147
147
156
156
156
145
145
145
141
141
141
136
136
136
132
132
132
132
132
132
130
130
130
130
130
130
127
127
127
118
118
118
113
113
113
118
118
118
115
115
115
110
110
110
115
115
115
110
110
110
109
109
109
109
109
109
100
100
100
101
101
101
96
96
96
91
91
91
90
90
90
96
96
96
96
96
96
89
89
89
89
89
89
88
88
88
84
84
84
92
92
92
94
94
94
94
94
94
94
94
94
94
94
94
94
94
94
100
100
100
99
99
99
101
101
101
102
102
102
101
101
101
96
96
96
95
95
95
91
91
91
91
91
91
97
97
97
101
101
101
98
98
98
101
101
101
96
96
96
95
95
95
96
96
96
91
91
91
92
92
92
100
100
100
102
102
102
104
104
104
102
102
102
107
107
107
108
108
108
110
110
110
106
106
106
113
113
113
118
118
118
115
115
115
117
117
117
118
118
118
117
117
117
116
116
116
114
114
114
113
113
113
113
113
113
115
115
115
108
108
108
111
111
111
109
109
109
101
101
101
99
99
99
95
95
95
88
88
88
89
89
89
84
84
84
82
82
82
84
84
84
85
85
85
89
89
89
79
79
79
74
74
74
69
69
69
70
70
70
74
74
74
69
69
69
65
65
65
59
59
59
62
62
62
65
65
65
72
72
72
72
72
72
77
77
77
80
80
80
80
80
80
86
86
86
95
95
95
90
90
90
99
99
99
99
99
99
106
106
106
103
103
103
109
109
109
109
109
109
109
109
109
109
109
109
108
108
108
100
100
100
97
97
97
94
94
94
88
88
88
87
87
87
88
88
88
91
91
91
105
105
105
104
104
104
109
109
109
103
103
103
103
103
103
102
102
102
107
107
107
101
101
101
100
100
100
98
98
98
91
91
91
84
84
84
86
86
86
86
86
86
81
81
81
81
81
81
79
79
79
77
77
77
77
77
77
76
76
76
75
75
75
71
71
71
75
75
75
79
79
79
71
71
71
65
65
65
65
65
65
65
65
65
67
67
67
71
71
71
59
59
59
68
68
68
66
66
66
64
64
64
67
67
67
72
72
72
74
74
74
76
76
76
71
71
71
71
71
71
80
80
80
82
82
82
80
80
80
75
75
75
71
71
71
71
71
71
78
78
78
86
86
86
89
89
89
89
89
89
92
92
92
94
94
94
86
86
86
91
91
91
88
88
88
88
88
88
87
87
87
75
75
75
64
64
64
52
52
52
40
40
40
39
39
39
55
55
55
59
59
59
48
48
48
55
55
55
58
58
58
68
68
68
58
58
58
69
69
69
66
66
66
62
62
62
73
73
73
74
74
74
78
78
78
81
81
81
83
83
83
84
84
84
91
91
91
95
95
95
90
90
90
97
97
97
93
93
93
89
89
89
89
89
89
83
83
83
87
87
87
88
88
88
85
85
85
84
84
84
23
23
23
21
21
21
22
22
22
25
25
25
27
27
27
27
27
27
27
27
27
27
27
27
25
25
25
26
26
26
28
28
28
29
29
29
35
35
35
49
49
49
56
56
56
67
67
67
62
62
62
56
56
56
57
57
57
55
55
55
42
42
42
46
46
46
54
54
54
50
50
50
68
68
68
74
74
74
73
73
73
75
75
75
83
83
83
86
86
86
79
79
79
88
88
88
92
92
92
94
94
94
92
92
92
90
90
90
101
101
101
101
101
101
106
106
106
99
99
99
99
99
99
91
91
91
104
104
104
103
103
103
101
101
101
101
101
101
105
105
105
104
104
104
99
99
99
101
101
101
91
91
91
86
86
86
89
89
89
85
85
85
85
85
85
80
80
80
80
80
80
79
79
79
73
73
73
62
62
62
42
42
42
50
50
50
51
51
51
54
54
54
54
54
54
53
53
53
57
57
57
55
55
55
48
48
48
53
53
53
56
56
56
57
57
57
57
57
57
60
60
60
58
58
58
55
55
55
54
54
54
59
59
59
70
70
70
72
72
72
70
70
70
52
52
52
54
54
54
56
56
56
58
58
58
53
53
53
39
39
39
45
45
45
63
63
63
63
63
63
64
64
64
77
77
77
87
87
87
93
93
93
100
100
100
100
100
100
91
91
91
94
94
94
76
76
76
67
67
67
84
84
84
77
77
77
73
73
73
72
72
72
80
80
80
73
73
73
79
79
79
71
71
71
70
70
70
79
79
79
80
80
80
82
82
82
81
81
81
70
70
70
62
62
62
61
61
61
54
54
54
68
68
68
63
63
63
67
67
67
60
60
60
59
59
59
67
67
67
69
69
69
68
68
68
69
69
69
74
74
74
68
68
68
72
72
72
80
80
80
82
82
82
82
82
82
87
87
87
82
82
82
85
85
85
84
84
84
87
87
87
90
90
90
86
86
86
89
89
89
85
85
85
87
87
87
84
84
84
90
90
90
80
80
80
82
82
82
80
80
80
81
81
81
83
83
83
82
82
82
66
66
66
70
70
70
71
71
71
73
73
73
69
69
69
73
73
73
48
48
48
29
29
29
42
42
42
36
36
36
38
38
38
51
51
51
62
62
62
77
77
77
70
70
70
69
69
69
70
70
70
77
77
77
70
70
70
68
68
68
70
70
70
78
78
78
67
67
67
70
70
70
71
71
71
71
71
71
65
65
65
61
61
61
65
65
65
75
75
75
45
45
45
61
61
61
66
66
66
72
72
72
71
71
71
62
62
62
66
66
66
77
77
77
75
75
75
82
82
82
90
90
90
84
84
84
84
84
84
69
69
69
66
66
66
74
74
74
76
76
76
78
78
78
89
89
89
79
79
79
82
82
82
92
92
92
85
85
85
83
83
83
85
85
85
90
90
90
99
99
99
94
94
94
94
94
94
84
84
84
91
91
91
84
84
84
84
84
84
84
84
84
85
85
85
90
90
90
78
78
78
72
72
72
82
82
82
86
86
86
85
85
85
90
90
90
87
87
87
81
81
81
69
69
69
71
71
71
71
71
71
70
70
70
66
66
66
68
68
68
63
63
63
62
62
62
70
70
70
71
71
71
68
68
68
63
63
63
53
53
53
56
56
56
70
70
70
73
73
73
64
64
64
57
57
57
58
58
58
63
63
63
60
60
60
66
66
66
63
63
63
73
73
73
78
78
78
86
86
86
87
87
87
87
87
87
82
82
82
81
81
81
77
77
77
88
88
88
106
106
106
99
99
99
100
100
100
83
83
83
95
95
95
107
107
107
112
112
112
111
111
111
101
101
101
102
102
102
108
108
108
109
109
109
117
117
117
118
118
118
126
126
126
119
119
119
108
108
108
112
112
112
94
94
94
107
107
107
104
104
104
97
97
97
99
99
99
92
92
92
100
100
100
107
107
107
108
108
108
92
92
92
97
97
97
95
95
95
99
99
99
93
93
93
79
79
79
68
68
68
59
59
59
59
59
59
60
60
60
63
63
63
59
59
59
70
70
70
81
81
81
83
83
83
76
76
76
69
69
69
73
73
73
74
74
74
76
76
76
77
77
77
88
88
88
86
86
86
89
89
89
87
87
87
82
82
82
78
78
78
76
76
76
74
74
74
85
85
85
93
93
93
93
93
93
95
95
95
102
102
102
96
96
96
103
103
103
91
91
91
93
93
93
87
87
87
88
88
88
104
104
104
95
95
95
99
99
99
110
110
110
114
114
114
118
118
118
121
121
121
121
121
121
125
125
125
125
125
125
114
114
114
111
111
111
109
109
109
101
101
101
113
113
113
112
112
112
113
113
113
105
105
105
117
117
117
110
110
110
107
107
107
101
101
101
95
95
95
107
107
107
84
84
84
85
85
85
87
87
87
77
77
77
72
72
72
82
82
82
80
80
80
76
76
76
71
71
71
70
70
70
74
74
74
77
77
77
75
75
75
85
85
85
84
84
84
85
85
85
81
81
81
80
80
80
77
77
77
82
82
82
84
84
84
78
78
78
75
75
75
83
83
83
82
82
82
88
88
88
81
81
81
87
87
87
88
88
88
84
84
84
96
96
96
88
88
88
98
98
98
77
77
77
96
96
96
92
92
92
91
91
91
84
84
84
97
97
97
120
120
120
120
120
120
116
116
116
115
115
115
116
116
116
112
112
112
116
116
116
111
111
111
122
122
122
122
122
122
106
106
106
103
103
103
100
100
100
88
88
88
119
119
119
99
99
99
102
102
102
91
91
91
99
99
99
100
100
100
96
96
96
81
81
81
76
76
76
82
82
82
78
78
78
74
74
74
77
77
77
78
78
78
75
75
75
68
68
68
69
69
69
69
69
69
73
73
73
80
80
80
63
63
63
71
71
71
70
70
70
81
81
81
71
71
71
72
72
72
65
65
65
68
68
68
73
73
73
80
80
80
64
64
64
65
65
65
78
78
78
83
83
83
73
73
73
80
80
80
89
89
89
93
93
93
88
88
88
82
82
82
82
82
82
80
80
80
91
91
91
104
104
104
103
103
103
104
104
104
111
111
111
110
110
110
92
92
92
99
99
99
107
107
107
98
98
98
104
104
104
101
101
101
97
97
97
101
101
101
101
101
101
98
98
98
95
95
95
120
120
120
104
104
104
90
90
90
95
95
95
89
89
89
78
78
78
69
69
69
69
69
69
76
76
76
71
71
71
68
68
68
81
81
81
59
59
59
65
65
65
61
61
61
59
59
59
58
58
58
62
62
62
61
61
61
54
54
54
53
53
53
58
58
58
61
61
61
70
70
70
70
70
70
70
70
70
60
60
60
54
54
54
63
63
63
77
77
77
66
66
66
64
64
64
72
72
72
75
75
75
80
80
80
74
74
74
77
77
77
80
80
80
91
91
91
107
107
107
85
85
85
77
77
77
68
68
68
82
82
82
102
102
102
90
90
90
95
95
95
114
114
114
108
108
108
100
100
100
94
94
94
99
99
99
107
107
107
107
107
107
100
100
100
101
101
101
105
105
105
100
100
100
102
102
102
118
118
118
106
106
106
93
93
93
106
106
106
93
93
93
93
93
93
93
93
93
93
93
93
93
93
93
90
90
90
86
86
86
74
74
74
58
58
58
63
63
63
74
74
74
81
81
81
59
59
59
52
52
52
43
43
43
55
55
55
67
67
67
55
55
55
48
48
48
54
54
54
64
64
64
65
65
65
60
60
60
62
62
62
55
55
55
56
56
56
63
63
63
69
69
69
71
71
71
77
77
77
84
84
84
90
90
90
81
81
81
57
57
57
72
72
72
95
95
95
94
94
94
74
74
74
61
61
61
92
92
92
110
110
110
105
105
105
101
101
101
95
95
95
107
107
107
101
101
101
90
90
90
85
85
85
70
70
70
101
101
101
98
98
98
92
92
92
93
93
93
103
103
103
96
96
96
91
91
91
92
92
92
100
100
100
88
88
88
109
109
109
94
94
94
48
48
48
51
51
51
58
58
58
61
61
61
60
60
60
65
65
65
68
68
68
68
68
68
63
63
63
60
60
60
57
57
57
70
70
70
71
71
71
69
69
69
60
60
60
47
47
47
41
41
41
46
46
46
54
54
54
67
67
67
81
81
81
74
74
74
73
73
73
71
71
71
70
70
70
75
75
75
72
72
72
82
82
82
88
88
88
101
101
101
105
105
105
96
96
96
104
104
104
116
116
116
75
75
75
61
61
61
64
64
64
104
104
104
114
114
114
99
99
99
84
84
84
81
81
81
79
79
79
90
90
90
98
98
98
83
83
83
76
76
76
82
82
82
105
105
105
77
77
77
92
92
92
86
86
86
96
96
96
94
94
94
90
90
90
89
89
89
95
95
95
108
108
108
110
110
110
111
111
111
45
45
45
43
43
43
42
42
42
45
45
45
46
46
46
50
50
50
51
51
51
50
50
50
48
48
48
48
48
48
50
50
50
52
52
52
49
49
49
50
50
50
47
47
47
43
43
43
36
36
36
30
30
30
27
27
27
31
31
31
33
33
33
35
35
35
35
35
35
38
38
38
44
44
44
40
40
40
36
36
36
44
44
44
42
42
42
35
35
35
49
49
49
99
99
99
106
106
106
72
72
72
94
94
94
106
106
106
116
116
116
110
110
110
73
73
73
63
63
63
70
70
70
66
66
66
70
70
70
72
72
72
79
79
79
103
103
103
79
79
79
62
62
62
93
93
93
98
98
98
87
87
87
99
99
99
94
94
94
83
83
83
64
64
64
81
81
81
90
90
90
89
89
89
93
93
93
91
91
91
44
44
44
36
36
36
36
36
36
35
35
35
36
36
36
38
38
38
40
40
40
41
41
41
40
40
40
38
38
38
36
36
36
34
34
34
33
33
33
33
33
33
32
32
32
28
28
28
26
26
26
16
16
16
18
18
18
21
21
21
24
24
24
25
25
25
25
25
25
25
25
25
27
27
27
28
28
28
28
28
28
28
28
28
28
28
28
29
29
29
38
38
38
104
104
104
104
104
104
107
107
107
87
87
87
77
77
77
69
69
69
99
99
99
96
96
96
95
95
95
77
77
77
85
85
85
84
84
84
70
70
70
70
70
70
69
69
69
96
96
96
95
95
95
110
110
110
109
109
109
92
92
92
97
97
97
103
103
103
75
75
75
57
57
57
56
56
56
68
68
68
84
84
84
99
99
99
52
52
52
36
36
36
33
33
33
32
32
32
32
32
32
32
32
32
32
32
32
31
31
31
31
31
31
32
32
32
30
30
30
28
28
28
27
27
27
25
25
25
26
26
26
25
25
25
24
24
24
20
20
20
12
12
12
16
16
16
20
20
20
21
21
21
22
22
22
23
23
23
24
24
24
23
23
23
22
22
22
23
23
23
24
24
24
24
24
24
24
24
24
25
25
25
31
31
31
50
50
50
31
31
31
25
25
25
25
25
25
26
26
26
43
43
43
64
64
64
99
99
99
93
93
93
94
94
94
107
107
107
103
103
103
92
92
92
91
91
91
93
93
93
105
105
105
114
114
114
110
110
110
109
109
109
111
111
111
113
113
113
109
109
109
99
99
99
93
93
93
100
100
100
94
94
94
55
55
55
27
27
27
25
25
25
26
26
26
25
25
25
23
23
23
22
22
22
24
24
24
26
26
26
26
26
26
24
24
24
23
23
23
23
23
23
21
21
21
22
22
22
21
21
21
21
21
21
21
21
21
17
17
17
10
10
10
13
13
13
15
15
15
17
17
17
18
18
18
18
18
18
18
18
18
18
18
18
19
19
19
20
20
20
22
22
22
21
21
21
21
21
21
21
21
21
22
22
22
22
22
22
21
21
21
21
21
21
22
22
22
23
23
23
23
23
23
23
23
23
32
32
32
42
42
42
56
56
56
59
59
59
66
66
66
55
55
55
41
41
41
30
30
30
31
31
31
61
61
61
87
87
87
96
96
96
77
77
77
85
85
85
90
90
90
80
80
80
80
80
80
57
57
57
28
28
28
24
24
24
23
23
23
21
21
21
21
21
21
20
20
20
19
19
19
17
17
17
17
17
17
18
18
18
18
18
18
19
19
19
20
20
20
18
18
18
17
17
17
17
17
17
17
17
17
17
17
17
14
14
14
12
12
12
7
7
7
8
8
8
10
10
10
13
13
13
13
13
13
14
14
14
16
16
16
17
17
17
18
18
18
17
17
17
20
20
20
18
18
18
18
18
18
19
19
19
21
21
21
20
20
20
20
20
20
20
20
20
19
19
19
20
20
20
20
20
20
19
19
19
20
20
20
20
20
20
21
21
21
23
23
23
21
21
21
22
22
22
22
22
22
25
25
25
23
23
23
25
25
25
21
21
21
24
24
24
25
25
25
27
27
27
25
25
25
25
25
25
29
29
29
26
26
26
23
23
23
21
21
21
21
21
21
18
18
18
17
17
17
17
17
17
16
16
16
16
16
16
14
14
14
14
14
14
15
15
15
15
15
15
13
13
13
13
13
13
13
13
13
12
12
12
12
12
12
11
11
11
11
11
11
7
7
7
