P3
60 40
255
94
84
65
99
89
69
105
94
73
110
98
76
114
102
79
119
106
82
124
110
86
125
111
87
125
111
87
131
116
91
135
120
94
138
123
96
139
124
96
140
125
97
143
127
99
142
127
99
144
129
100
149
132
103
149
133
103
150
134
104
147
131
102
143
128
100
144
128
100
146
130
101
152
135
105
153
136
106
150
134
104
148
132
103
148
131
102
147
131
102
147
131
102
147
131
102
145
129
100
143
127
99
143
127
99
145
129
101
148
132
103
152
135
105
150
134
104
144
128
100
142
126
98
141
125
98
141
126
98
142
126
98
143
127
99
145
129
100
144
128
100
138
122
95
134
119
93
133
118
92
130
116
90
130
116
90
130
116
90
130
115
90
128
114
89
125
112
87
120
107
83
113
101
79
106
94
74
100
89
69
100
89
69
106
94
73
110
98
77
115
102
79
118
105
82
121
107
84
128
114
89
134
120
93
131
116
91
133
119
92
135
120
94
139
123
96
143
128
99
146
130
101
146
130
101
148
132
103
152
135
105
152
135
105
153
136
106
152
135
105
151
135
105
149
133
103
147
131
102
150
134
104
156
139
108
157
140
109
154
137
107
151
134
105
151
134
104
150
134
104
150
134
104
150
134
104
150
133
104
147
131
102
149
133
103
154
137
107
157
140
109
157
140
109
151
135
105
147
131
102
147
131
102
148
132
103
150
133
104
150
133
104
149
133
103
149
133
104
147
131
102
142
127
99
140
124
97
138
122
95
136
121
95
139
124
96
138
122
95
137
122
95
135
120
94
129
115
90
122
108
84
116
103
80
114
101
79
114
101
79
105
94
73
110
98
76
115
102
79
119
106
82
122
109
85
124
111
86
127
113
88
135
120
94
138
123
96
140
124
97
137
122
95
136
121
95
140
125
97
146
130
101
150
134
104
153
136
106
157
140
109
156
139
108
155
138
108
152
135
105
152
135
105
154
137
107
152
135
106
157
140
109
162
144
112
166
147
115
164
146
114
160
142
111
156
139
108
155
138
107
153
137
106
154
137
107
153
137
106
154
137
107
157
140
109
162
144
112
165
147
114
160
143
111
155
138
107
150
134
104
153
136
106
153
136
106
153
137
106
154
137
107
153
136
106
150
134
104
147
131
102
145
129
101
143
127
99
144
128
100
149
133
104
151
134
104
145
129
100
140
124
97
136
121
94
132
118
92
130
116
90
132
117
91
141
126
98
148
132
102
112
99
77
118
105
82
121
108
84
124
111
86
125
112
87
128
114
89
130
116
90
133
118
92
135
120
94
138
123
96
140
125
97
138
123
96
139
124
96
141
126
98
143
127
99
150
133
104
159
141
110
160
143
111
159
141
110
154
137
107
155
138
108
157
140
109
157
140
109
161
143
112
165
147
114
171
152
119
173
154
120
171
153
119
165
147
114
160
142
111
158
141
110
157
140
109
157
140
109
157
140
109
160
143
111
164
146
114
167
149
116
163
145
113
159
141
110
156
139
108
156
139
108
156
139
108
156
139
108
156
139
108
154
137
107
153
136
106
150
134
104
149
133
104
152
135
105
156
139
108
159
141
110
151
135
105
145
129
101
141
126
98
141
126
98
143
127
99
153
136
106
166
148
115
171
152
119
172
154
120
113
100
78
120
107
84
126
112
87
128
114
89
131
116
91
133
118
92
133
118
92
134
119
93
135
120
94
139
124
96
142
127
99
143
127
99
144
128
100
144
129
100
146
130
101
147
131
102
149
133
104
153
136
106
156
139
108
158
140
109
159
142
110
163
145
113
162
144
112
161
143
112
163
145
113
170
151
118
174
155
121
172
153
119
165
147
114
161
143
112
161
144
112
161
143
112
160
142
111
162
144
112
162
144
112
166
147
115
169
151
117
167
149
116
163
146
113
163
145
113
160
143
111
159
142
110
158
140
109
157
140
109
157
139
109
155
138
107
156
138
108
162
144
112
166
148
115
164
146
114
160
143
111
149
132
103
143
128
99
144
128
100
150
134
104
159
141
110
168
149
116
174
155
121
174
155
121
165
147
115
114
102
79
120
107
83
125
111
87
128
114
89
132
117
92
135
120
93
136
121
94
136
121
94
138
123
96
140
125
97
144
128
100
147
131
102
148
132
102
149
133
104
151
135
105
153
136
106
154
137
107
157
140
109
159
142
111
158
141
110
161
144
112
167
148
116
170
151
118
169
150
117
169
150
117
171
153
119
176
157
122
174
155
120
169
151
117
164
146
114
165
147
114
165
147
114
166
148
115
167
149
116
168
150
117
170
151
118
176
157
122
173
154
120
169
151
117
169
150
117
167
149
116
164
146
113
161
144
112
160
142
111
159
142
110
159
141
110
161
143
112
166
148
115
167
149
116
157
140
109
150
133
104
146
130
102
146
130
101
148
132
103
153
136
106
158
141
109
163
145
113
160
143
111
150
134
104
127
113
88
118
105
82
123
109
85
125
111
87
126
112
87
130
116
90
133
118
92
136
121
94
139
124
96
142
126
98
145
129
100
147
131
102
151
134
104
152
135
105
153
137
106
155
138
107
156
139
109
159
142
111
163
146
113
166
148
115
168
149
116
178
158
123
184
163
127
185
164
128
184
163
127
184
164
127
183
163
127
185
165
129
182
162
126
178
158
123
173
154
120
170
151
118
169
151
117
169
151
117
170
152
118
174
155
120
182
162
126
187
167
130
183
163
127
180
160
125
181
161
126
179
160
124
172
153
120
167
149
116
165
147
114
166
148
115
167
148
116
163
145
113
159
141
110
156
139
108
156
139
108
164
146
114
172
153
119
164
146
114
158
141
110
153
136
106
153
136
106
143
127
99
131
116
91
123
110
85
115
103
80
122
109
85
127
113
88
129
114
89
131
116
91
135
120
93
137
122
95
139
124
96
141
126
98
144
128
100
147
130
102
149
132
103
150
134
104
152
136
106
155
138
108
157
140
109
159
142
111
163
145
113
166
147
115
170
151
118
172
153
119
177
158
123
192
171
133
202
180
140
198
176
137
207
184
143
214
191
149
210
187
146
193
172
134
188
167
130
182
162
126
180
160
124
175
156
122
175
156
121
175
156
122
183
163
127
199
177
138
204
181
141
201
179
140
205
183
142
202
180
140
189
168
131
181
161
126
177
158
123
172
153
119
174
155
120
168
150
117
160
142
111
158
141
110
164
146
114
174
155
121
182
162
126
168
150
117
154
137
107
151
134
105
146
130
102
140
125
97
134
119
93
130
116
90
127
113
88
123
110
86
125
111
87
129
115
90
131
117
91
135
120
93
137
122
95
140
125
97
144
128
100
146
130
101
148
132
103
150
134
104
152
135
105
152
135
105
154
137
107
157
140
109
160
142
111
161
144
112
164
146
114
167
149
116
170
152
118
175
156
122
179
160
124
185
165
128
188
168
130
193
172
134
210
187
146
232
206
161
212
189
147
191
170
132
200
178
139
202
180
140
195
174
135
190
169
131
191
170
133
197
175
136
209
186
145
224
199
155
227
202
157
229
204
159
227
202
158
215
191
149
204
182
142
202
180
140
197
175
136
178
159
124
168
149
116
164
146
114
164
146
114
171
152
119
178
159
124
177
158
123
168
150
117
160
143
111
158
141
110
156
139
108
148
132
102
142
126
98
139
124
97
137
122
95
135
121
94
136
121
94
132
118
92
133
119
92
136
121
94
137
122
95
140
125
97
143
127
99
146
130
101
148
132
103
150
134
104
152
136
106
155
138
107
157
139
109
158
141
110
160
143
111
164
146
114
166
148
115
170
151
118
173
154
120
176
156
122
178
158
123
180
161
125
182
162
126
185
165
128
192
171
133
204
182
142
209
186
145
202
180
140
196
175
136
200
178
139
200
178
139
208
185
144
208
185
144
213
189
148
224
199
155
230
205
159
239
212
165
237
211
164
235
209
163
234
208
162
227
202
157
213
189
148
209
186
145
188
167
130
170
152
118
167
148
115
169
150
117
173
154
120
178
159
124
177
157
123
182
162
126
175
156
122
163
145
113
165
147
114
160
142
111
155
138
107
152
136
106
150
134
104
148
132
103
146
130
101
144
128
100
145
129
101
146
130
101
146
130
101
148
131
102
150
133
104
151
135
105
152
136
106
153
136
106
154
138
107
157
140
109
159
141
110
161
144
112
163
145
113
165
147
114
168
150
117
172
153
119
176
157
122
177
158
123
180
160
124
182
162
127
185
165
128
188
167
130
191
170
132
195
173
135
193
172
134
194
173
135
195
174
135
194
173
134
195
174
135
196
174
136
200
178
139
204
182
141
205
182
142
207
184
144
198
177
137
197
175
137
202
180
140
220
196
153
233
207
161
230
205
160
204
181
141
178
158
123
172
153
119
172
153
119
174
155
121
178
158
123
182
162
126
185
165
128
196
174
136
185
165
128
175
156
121
169
151
117
166
148
115
163
146
113
162
144
112
161
143
111
158
141
110
154
137
106
147
131
102
140
125
97
145
129
101
150
133
104
153
136
106
153
136
106
153
137
106
156
139
108
157
140
109
160
142
111
162
144
112
165
147
114
167
148
116
168
150
117
170
151
118
170
152
118
172
153
120
174
155
121
175
156
122
176
157
122
179
160
124
183
163
127
186
166
129
192
171
133
199
177
138
225
200
156
218
194
151
200
178
139
199
177
138
200
178
139
202
180
140
204
181
141
205
183
142
205
182
142
205
182
142
207
184
144
208
185
144
197
175
137
194
172
134
197
176
137
202
180
140
196
175
136
185
165
128
179
159
124
181
161
125
186
166
129
187
167
130
191
170
132
194
173
135
197
176
137
191
170
133
186
165
129
180
160
125
176
157
122
170
152
118
164
146
114
161
143
111
159
142
110
158
140
109
157
140
109
158
141
109
155
138
108
145
129
100
147
131
102
150
133
104
154
137
107
156
139
108
159
142
110
162
144
112
164
146
114
166
148
115
168
149
116
170
151
118
172
153
119
174
155
121
175
156
122
177
158
123
178
158
123
181
161
125
182
162
126
183
163
127
185
165
129
191
170
132
199
177
138
223
198
154
251
224
174
222
198
154
205
183
142
204
182
142
204
182
141
210
187
146
231
206
160
248
220
172
249
222
173
252
224
175
232
206
161
215
191
149
222
197
154
214
191
149
199
177
138
193
172
134
190
170
132
191
170
132
196
175
136
202
180
140
209
186
145
217
193
151
224
200
156
220
196
153
211
188
146
198
176
137
187
167
130
182
162
126
182
162
126
180
160
125
185
165
128
181
161
126
175
156
121
165
147
114
159
141
110
155
138
108
151
135
105
174
155
120
169
151
117
165
147
115
166
147
115
166
148
115
165
147
115
166
148
115
168
150
117
168
150
117
170
152
118
172
153
119
174
155
121
176
157
122
177
158
123
179
159
124
180
160
125
182
162
126
185
165
129
189
169
131
192
171
133
193
172
134
196
174
136
202
180
140
208
185
144
205
183
142
206
183
142
207
184
143
210
187
146
217
193
150
225
200
156
241
214
167
255
238
185
253
225
175
244
217
169
239
213
166
231
205
160
228
203
158
213
190
148
205
182
142
205
182
142
208
186
145
218
194
151
215
191
149
217
194
151
214
191
149
206
183
143
204
182
142
201
179
140
197
175
137
189
168
131
183
163
127
182
162
126
179
159
124
173
154
120
171
152
119
169
151
117
167
149
116
165
147
114
160
142
111
155
138
107
199
178
138
202
180
140
205
182
142
203
181
141
198
176
137
196
174
136
194
173
134
191
170
132
184
164
128
180
160
125
181
161
125
181
161
125
182
162
126
184
164
128
184
164
128
185
165
128
188
167
130
189
168
131
190
169
132
192
171
133
195
174
135
199
177
138
202
180
140
206
184
143
209
186
145
207
184
143
212
189
147
221
196
153
228
203
158
233
208
162
241
215
167
253
226
176
255
236
184
250
222
173
237
211
165
231
205
160
236
210
164
243
216
168
235
209
163
225
201
156
222
197
154
215
192
149
208
185
144
204
182
142
202
180
140
201
179
139
194
172
134
193
172
134
192
171
133
193
171
133
190
169
131
186
166
129
184
164
127
181
161
126
177
157
123
172
153
119
169
151
117
166
148
115
162
144
112
159
141
110
188
167
130
192
171
133
195
174
135
198
177
138
203
180
141
207
184
143
211
188
147
215
191
149
218
194
151
221
196
153
221
197
153
218
194
151
214
190
148
212
189
147
200
178
139
195
174
135
194
173
135
194
173
135
195
174
135
197
175
136
198
176
137
201
179
139
204
181
141
206
183
143
209
186
145
214
190
148
222
198
154
230
204
159
238
212
165
247
220
171
255
233
181
255
247
192
255
239
186
255
231
180
246
219
171
238
212
165
236
210
164
229
204
159
227
202
158
226
201
157
222
197
154
214
191
148
213
190
148
218
194
151
214
190
148
205
182
142
200
178
139
200
178
139
192
171
133
187
167
130
184
164
127
185
164
128
182
162
126
180
160
125
176
157
122
172
154
120
169
150
117
168
150
117
167
149
116
159
142
111
158
141
110
163
145
113
167
148
116
171
152
118
176
157
122
179
160
124
184
164
128
188
167
130
192
171
133
197
175
136
200
178
139
205
182
142
209
186
145
211
188
146
214
190
148
217
193
150
216
192
149
219
195
152
216
192
150
209
186
145
207
185
144
206
184
143
206
184
143
207
185
144
211
188
146
217
193
151
224
200
156
233
208
162
245
218
170
255
232
181
255
255
200
255
255
214
255
255
209
255
240
187
255
230
179
245
219
170
242
215
168
236
211
164
235
209
163
228
203
158
222
198
154
222
198
154
209
186
145
196
175
136
183
163
127
178
159
124
172
153
119
170
152
118
173
154
120
169
151
117
169
150
117
171
152
119
170
151
118
168
149
116
163
145
113
159
142
111
158
141
109
153
136
106
146
130
102
142
126
98
130
116
90
134
119
93
137
122
95
140
124
97
144
128
100
147
131
102
150
134
104
154
137
107
157
140
109
159
142
110
162
145
113
165
146
114
167
149
116
170
151
118
172
153
119
174
155
121
177
157
123
178
158
123
179
159
124
180
161
125
182
162
126
184
164
127
186
165
129
187
167
130
193
171
134
197
176
137
204
181
141
211
188
146
221
197
153
231
206
160
251
224
174
255
246
192
241
215
167
225
201
156
212
189
147
204
181
141
196
175
136
191
170
132
188
168
131
185
165
128
183
163
127
181
161
125
176
157
122
174
155
120
168
150
117
165
147
114
162
144
112
160
143
111
158
140
109
156
139
108
154
137
107
152
136
106
149
133
104
146
130
101
142
126
98
138
123
95
134
119
93
130
116
90
125
112
87
122
108
84
59
52
41
76
68
53
75
67
52
66
59
46
68
60
47
63
56
43
51
45
35
60
53
41
67
60
47
73
65
51
75
67
52
80
71
56
106
94
73
99
88
69
102
91
71
102
91
71
96
85
67
97
86
67
100
89
70
110
98
76
117
104
81
122
109
85
123
110
86
126
112
87
127
113
88
123
110
86
126
112
87
125
111
87
125
111
87
129
114
89
140
124
97
145
129
101
135
120
93
131
116
91
145
129
101
141
126
98
130
116
90
126
113
88
122
109
85
125
111
87
126
113
88
129
115
89
129
115
90
133
119
93
135
121
94
134
120
93
136
121
95
131
117
91
128
114
89
121
107
84
120
107
83
120
106
83
118
105
82
118
105
82
117
104
81
110
98
76
100
89
69
99
89
69
102
91
71
101
90
70
94
84
65
98
87
68
114
101
79
115
103
80
116
103
80
115
102
79
106
94
74
109
97
76
117
104
81
122
109
85
122
109
85
119
106
83
125
112
87
125
111
87
130
115
90
138
123
96
133
118
92
131
116
91
128
114
89
125
112
87
129
115
89
133
118
92
134
119
93
140
124
97
139
123
96
147
131
102
138
123
96
137
122
95
146
130
101
155
138
107
159
142
111
161
143
111
168
150
116
161
143
112
150
134
104
157
140
109
161
143
111
158
141
110
157
139
109
155
138
107
153
136
106
150
134
104
149
132
103
150
133
104
146
130
101
143
128
99
143
127
99
146
130
101
142
126
98
141
126
98
136
121
94
137
122
95
134
119
93
129
115
90
126
112
88
124
110
86
119
106
83
118
105
82
121
108
84
118
105
82
115
103
80
126
113
88
128
114
89
128
114
89
131
116
91
129
115
89
141
125
98
147
131
102
146
130
101
140
124
97
144
128
100
143
128
99
144
128
100
133
119
92
126
112
87
129
115
89
133
118
92
146
130
101
154
137
107
149
132
103
152
135
105
160
143
111
167
149
116
173
154
120
175
155
121
171
152
119
174
155
121
186
166
129
187
167
130
197
175
136
197
176
137
209
186
145
196
174
136
190
169
131
185
164
128
179
160
124
178
159
124
177
157
123
176
156
122
172
153
120
160
143
111
153
137
106
161
143
112
156
139
108
149
133
104
156
139
108
150
134
104
148
132
103
149
132
103
136
121
94
138
123
96
131
116
91
125
111
87
123
110
85
131
117
91
131
116
91
122
108
84
121
108
84
120
107
83
115
102
80
125
111
87
127
113
88
128
114
89
128
114
89
127
113
88
128
114
89
136
121
95
134
120
93
137
122
95
138
123
96
137
122
95
131
117
91
130
116
90
125
111
86
125
111
86
133
118
92
137
122
95
133
118
92
138
123
96
131
116
91
130
116
90
130
116
90
125
111
87
126
112
87
137
122
95
140
125
97
142
127
99
140
124
97
147
131
102
148
132
103
150
133
104
144
129
100
154
137
107
161
143
111
157
139
109
159
142
110
161
144
112
159
142
111
159
141
110
156
139
108
155
138
107
155
138
107
156
139
108
148
132
103
151
135
105
149
132
103
138
123
96
136
121
94
130
116
90
121
108
84
122
108
84
115
103
80
112
100
78
114
102
79
116
103
80
121
108
84
108
96
75
101
90
70
95
84
66
96
85
66
100
89
70
94
83
65
88
79
61
80
71
55
84
74
58
88
78
61
98
87
68
98
88
68
105
94
73
109
97
76
109
97
76
117
104
81
129
115
89
122
109
85
135
120
94
136
121
94
145
129
100
140
125
97
149
133
103
148
132
103
149
132
103
148
132
103
147
131
102
137
122
95
132
118
92
128
114
89
120
107
83
118
105
82
120
107
83
124
110
86
143
127
99
142
126
99
149
132
103
141
126
98
141
125
97
140
124
97
146
130
101
138
123
96
137
122
95
134
119
93
125
111
86
115
103
80
117
104
81
118
105
82
110
98
76
111
99
77
108
96
75
105
93
73
105
94
73
104
92
72
103
92
71
97
86
67
102
91
71
108
96
75
97
87
67
88
79
61
89
79
61
89
79
62
91
81
63
97
86
67
80
71
55
92
82
64
90
80
62
87
77
60
91
81
63
97
86
67
100
89
69
103
92
72
97
87
67
97
86
67
109
97
76
112
100
78
109
97
76
103
91
71
97
86
67
97
86
67
107
95
74
117
105
81
122
108
84
121
108
84
125
112
87
128
114
89
118
105
82
125
111
87
120
107
83
121
108
84
119
106
82
103
92
72
88
79
61
72
64
50
55
49
38
54
48
37
76
67
53
81
72
56
67
59
46
75
67
52
80
71
55
92
82
64
80
71
55
95
84
66
91
81
63
86
76
60
100
89
70
102
90
70
107
95
74
111
99
77
113
101
79
115
102
80
125
111
86
130
115
90
123
110
85
132
117
91
127
113
88
121
108
84
121
108
84
113
101
79
118
105
82
121
108
84
116
103
80
114
102
79
31
27
21
29
25
20
30
27
21
34
30
24
37
33
25
37
33
26
37
33
25
36
32
25
33
30
23
36
32
25
37
33
26
39
35
27
48
43
33
67
59
46
77
69
53
92
82
64
84
75
58
76
68
53
77
69
53
75
67
52
57
51
40
63
56
44
74
66
51
69
62
48
94
83
65
101
90
70
100
89
70
102
91
71
114
101
79
118
105
82
109
97
76
121
108
84
126
112
87
129
114
89
127
113
88
124
110
86
139
124
96
137
122
95
145
129
100
135
121
94
135
120
94
124
111
86
141
126
98
141
125
97
138
123
96
138
123
96
143
128
99
141
126
98
135
121
94
137
122
95
124
111
86
117
104
81
121
108
84
116
103
81
117
104
81
109
97
76
109
97
75
108
96
75
100
89
69
85
75
59
57
51
40
68
61
47
70
62
49
73
65
51
73
65
51
72
64
50
78
70
54
75
66
52
65
58
45
73
65
50
77
68
53
79
70
54
78
69
54
81
72
56
79
70
55
75
66
52
73
65
51
81
72
56
95
85
66
98
88
68
96
86
67
71
63
49
74
66
51
78
69
54
80
71
55
72
64
50
54
48
38
62
55
43
87
77
60
87
77
60
88
78
61
105
94
73
119
106
82
126
112
88
135
121
94
136
121
95
124
111
86
128
114
89
104
93
72
92
82
64
115
103
80
106
94
73
100
89
70
99
88
69
109
97
76
101
89
70
108
96
75
98
87
68
97
86
67
107
96
75
110
98
76
112
99
77
111
99
77
95
85
66
85
75
59
84
75
58
74
66
52
93
83
65
87
77
60
91
81
63
81
72
56
81
72
56
91
81
63
94
83
65
93
83
65
94
84
65
101
90
70
93
83
65
99
88
68
110
98
76
113
100
78
112
100
78
120
107
83
113
100
78
116
103
81
115
102
80
119
106
82
124
110
86
117
104
81
122
109
85
117
104
81
118
105
82
115
102
80
123
109
85
110
98
76
112
100
78
109
97
76
111
99
77
114
101
79
112
100
78
91
81
63
97
86
67
97
87
67
101
90
70
95
85
66
100
89
69
66
58
45
41
36
28
58
51
40
50
44
35
53
47
37
70
63
49
85
76
59
105
94
73
96
85
66
94
84
65
96
85
66
106
94
74
96
86
67
94
84
65
96
86
67
107
96
74
92
82
64
96
85
67
98
87
68
98
87
68
89
79
62
84
75
58
89
79
62
103
92
72
61
55
43
83
74
57
90
80
63
98
87
68
97
87
68
84
75
58
90
80
62
104
93
72
103
91
71
112
100
78
123
110
85
115
103
80
114
102
79
95
84
66
91
81
63
102
91
70
104
92
72
107
96
74
122
108
84
109
97
75
113
100
78
126
112
87
117
104
81
114
101
79
116
103
80
123
109
85
136
121
94
129
115
90
129
115
90
115
102
80
124
111
86
115
102
80
115
103
80
115
102
80
117
104
81
123
109
85
107
96
75
98
87
68
111
99
77
118
105
82
117
104
81
124
111
86
119
106
83
112
100
78
95
85
66
98
87
68
97
87
67
95
85
66
90
80
62
94
83
65
87
77
60
86
76
59
95
85
66
98
87
68
94
83
65
86
76
60
72
64
50
77
69
53
95
85
66
101
90
70
88
78
61
78
70
54
79
71
55
87
77
60
82
73
57
90
80
62
86
76
60
100
89
70
107
95
74
118
105
82
120
107
83
119
106
82
112
100
78
111
99
77
105
94
73
121
107
84
145
129
101
135
120
94
138
122
95
114
102
79
131
117
91
147
131
102
154
137
107
153
136
106
139
124
96
140
125
97
148
131
102
149
133
104
160
143
111
161
144
112
171
152
119
162
145
113
147
131
102
153
136
106
129
114
89
147
131
102
142
126
98
134
119
93
136
121
94
126
112
87
137
122
95
147
131
102
148
132
102
126
112
87
133
119
93
130
116
90
136
121
94
128
114
89
109
97
75
94
84
65
81
72
56
81
72
56
82
73
57
86
77
60
81
72
56
97
86
67
111
99
77
114
101
79
104
92
72
95
84
66
99
88
69
101
90
70
103
92
72
106
94
73
121
108
84
117
104
81
122
109
85
120
106
83
112
99
77
106
94
73
104
92
72
101
90
70
117
104
81
128
114
89
128
114
89
129
115
90
140
125
97
132
118
92
142
126
98
125
111
87
128
114
88
119
106
83
121
108
84
143
127
99
131
117
91
136
121
94
150
134
104
156
139
108
161
144
112
166
148
115
164
146
114
169
151
117
170
152
118
155
138
108
151
135
105
149
133
103
138
123
96
154
137
107
153
136
106
155
138
107
144
128
100
160
143
111
150
133
104
146
130
101
138
123
96
130
116
90
147
130
102
116
103
80
116
104
81
120
107
83
106
94
73
100
89
69
113
100
78
110
98
76
104
93
72
98
87
68
97
86
67
101
90
70
105
94
73
104
92
72
116
103
81
115
102
79
116
104
81
111
99
77
109
97
76
105
94
73
112
100
78
115
102
80
106
95
74
103
92
72
113
101
79
113
101
78
120
107
84
111
99
77
119
106
82
120
107
83
115
103
80
132
117
91
121
107
84
135
120
93
106
94
73
131
117
91
126
112
87
125
112
87
116
103
80
133
119
92
165
147
114
164
146
113
159
141
110
158
140
109
159
141
110
153
136
106
158
141
110
151
135
105
166
147
115
166
148
115
145
129
101
141
125
98
137
122
95
121
108
84
163
145
113
136
121
94
140
124
97
125
111
87
136
121
94
137
122
95
132
117
91
111
99
77
105
94
73
113
100
78
108
96
75
102
91
71
106
95
74
107
95
74
103
92
72
93
83
64
94
84
65
95
84
66
100
89
69
110
98
76
87
77
60
97
87
67
96
86
67
111
99
77
98
87
68
99
88
68
89
80
62
93
82
64
100
89
69
109
97
76
88
79
61
89
79
62
107
95
74
114
101
79
100
89
69
109
97
76
123
109
85
127
113
88
121
108
84
113
101
78
112
100
78
109
97
76
125
111
87
143
127
99
141
126
98
142
127
99
152
136
106
151
135
105
127
113
88
136
121
94
147
131
102
135
120
94
142
127
99
139
124
97
134
119
93
139
124
96
138
123
96
135
120
94
130
116
90
165
147
114
142
127
99
123
110
86
130
116
90
123
110
85
107
96
75
95
85
66
95
85
66
104
93
72
98
87
68
95
84
66
112
100
78
81
72
56
90
80
62
83
74
58
81
72
56
79
70
55
86
76
59
84
75
58
75
67
52
73
65
51
79
71
55
83
74
58
95
85
66
96
86
67
95
85
66
82
73
57
74
66
51
86
77
60
105
94
73
91
81
63
88
79
61
100
89
69
103
92
71
110
98
76
102
91
71
105
94
73
109
97
76
126
112
87
147
131
102
117
104
81
106
94
74
93
83
65
113
101
78
140
125
97
124
110
86
131
116
91
156
139
108
148
132
103
137
122
95
130
116
90
135
121
94
147
131
102
148
131
102
138
123
96
138
123
96
145
129
101
137
122
95
140
125
97
162
144
112
146
130
101
128
114
88
146
130
101
128
114
88
128
114
89
128
114
89
128
114
89
128
114
89
124
110
86
119
106
82
103
91
71
81
72
56
87
78
60
102
91
71
112
99
77
81
72
56
72
64
50
59
53
41
76
67
52
92
82
64
75
67
52
66
59
46
75
66
52
88
78
61
89
80
62
83
74
57
85
76
59
75
67
52
76
68
53
87
77
60
94
84
65
98
87
68
105
93
73
115
102
80
124
110
86
112
99
77
78
70
54
100
89
69
130
116
90
129
115
90
101
90
70
85
75
59
127
113
88
151
135
105
144
128
100
139
123
96
130
116
90
147
131
102
139
124
97
124
110
86
117
104
81
97
87
67
139
124
96
136
121
94
127
113
88
128
114
89
141
126
98
132
118
92
125
112
87
127
113
88
137
122
95
121
108
84
150
133
104
130
115
90
66
59
46
71
63
49
80
71
55
84
75
59
84
74
58
90
81
63
95
84
66
94
84
65
88
78
61
82
73
57
79
70
55
97
86
67
98
88
68
94
84
65
82
73
57
65
58
45
56
50
39
63
56
43
73
65
51
92
82
64
111
99
77
101
90
70
101
90
70
97
86
67
96
86
67
102
91
71
99
88
68
113
100
78
121
108
84
138
123
96
144
129
100
132
117
91
143
127
99
159
141
110
103
92
72
83
74
58
88
78
61
142
127
99
157
140
109
136
121
94
116
103
80
112
100
78
108
96
75
124
111
86
134
120
93
115
102
80
105
93
73
113
101
78
144
128
100
106
95
74
126
113
88
118
105
82
133
118
92
130
115
90
124
110
86
123
109
85
131
116
91
148
131
102
151
134
105
153
136
106
63
56
44
60
53
42
58
52
40
62
55
43
64
57
44
68
61
47
71
63
49
69
62
48
66
59
46
67
60
46
69
61
48
71
63
49
68
61
47
70
62
48
65
58
45
59
53
41
49
43
34
41
37
29
38
33
26
42
38
29
45
40
31
47
42
33
49
43
34
52
46
36
61
54
42
56
49
38
50
45
35
61
54
42
58
51
40
48
43
33
68
61
47
136
121
94
145
129
101
99
88
69
129
115
89
146
130
101
158
141
110
151
135
105
101
90
70
87
77
60
97
86
67
91
81
63
97
86
67
99
88
69
108
96
75
141
126
98
109
97
75
86
76
59
128
114
89
135
120
93
119
106
83
136
121
94
130
116
90
114
102
79
89
79
62
111
99
77
124
110
86
123
110
85
128
114
89
125
111
87
61
54
42
49
44
34
49
44
34
49
43
34
50
45
35
52
46
36
55
49
38
57
50
39
55
49
38
53
47
37
50
44
34
47
42
33
45
40
31
46
41
32
44
39
30
38
34
26
37
33
25
22
20
16
24
21
17
29
25
20
34
30
23
35
31
24
34
30
23
34
30
23
36
32
25
38
34
27
39
34
27
38
34
26
39
35
27
40
36
28
52
47
36
143
127
99
143
127
99
147
131
102
119
106
83
106
94
73
96
85
66
136
121
94
131
117
91
131
117
91
107
95
74
117
104
81
115
103
80
97
86
67
97
86
67
95
84
66
132
118
92
131
116
91
152
135
105
149
133
104
126
112
87
134
119
93
142
126
98
104
92
72
79
70
55
77
69
54
95
84
66
116
103
80
136
121
94
72
64
50
50
44
35
46
41
32
45
40
31
44
39
30
44
39
30
44
39
31
43
38
30
43
38
30
44
39
30
42
37
29
39
35
27
37
33
26
35
31
24
35
32
25
34
31
24
33
30
23
28
25
19
16
14
11
21
19
15
28
25
19
30
26
21
30
27
21
32
28
22
33
29
23
31
28
22
31
27
21
31
28
22
33
29
23
33
30
23
34
30
23
34
31
24
43
38
30
68
61
47
44
39
30
34
31
24
35
31
24
36
32
25
59
52
41
89
79
62
136
121
94
128
114
89
130
116
90
147
131
102
142
126
98
127
113
88
125
111
87
129
115
89
144
129
100
157
140
109
151
134
105
150
133
104
153
136
106
155
138
107
149
133
104
136
121
95
128
114
89
137
122
95
129
115
90
76
68
53
37
33
26
35
31
24
37
33
26
35
31
24
32
28
22
30
27
21
33
29
23
36
32
25
36
32
25
34
30
23
32
29
22
32
29
22
30
26
21
30
27
21
29
26
20
29
26
20
29
26
20
23
21
16
14
12
9
18
16
12
21
18
14
23
20
16
25
22
17
26
23
18
26
23
18
25
22
17
26
23
18
27
24
19
30
26
21
29
26
20
29
26
20
28
25
20
31
28
21
31
27
21
30
26
21
29
26
20
30
27
21
32
28
22
32
29
22
32
29
22
44
39
30
58
52
40
78
69
54
81
72
56
91
81
63
76
68
53
57
51
39
42
37
29
43
38
30
84
74
58
120
107
84
131
117
91
105
94
73
117
104
81
124
110
86
110
98
76
110
98
76
78
70
54
39
35
27
34
30
24
32
29
22
29
26
20
29
26
20
28
25
19
26
23
18
24
21
16
24
21
17
25
22
17
26
23
18
27
24
18
28
24
19
25
22
17
23
21
16
23
21
16
24
21
17
23
21
16
20
18
14
17
15
12
10
8
7
12
10
8
14
12
10
18
16
12
17
15
12
19
17
13
21
19
15
23
21
16
25
22
17
24
22
17
27
24
19
25
22
17
25
22
17
26
23
18
28
25
20
28
25
19
27
24
19
27
24
19
27
24
19
28
25
19
27
24
19
27
24
19
28
25
19
28
25
19
29
26
20
32
28
22
30
26
21
31
27
21
31
28
22
34
31
24
32
29
22
35
31
24
30
27
21
33
30
23
35
31
24
37
33
26
34
31
24
35
31
24
41
36
28
36
32
25
33
29
23
29
26
20
29
26
20
25
22
17
23
21
16
24
21
17
23
20
16
22
19
15
20
18
14
19
17
13
20
18
14
20
18
14
18
16
12
17
16
12
17
16
12
17
15
12
16
14
11
15
13
10
15
13
10
11
10
7
