P3
60 40
255
34
42
50
47
58
69
50
61
72
53
63
74
56
65
77
58
68
80
58
71
85
60
72
86
62
72
86
67
73
87
70
74
88
72
76
90
72
77
93
71
79
96
69
81
98
70
81
99
75
81
98
82
80
95
89
80
89
92
79
83
92
78
80
91
76
80
91
76
79
95
77
76
100
79
74
102
79
73
100
79
74
97
78
75
95
78
76
94
78
77
94
78
77
94
77
75
95
76
72
96
75
69
98
76
67
102
77
64
107
78
59
109
79
56
106
78
57
101
76
60
97
75
64
94
75
68
92
76
72
90
76
76
88
77
81
84
78
87
80
77
89
78
75
86
77
73
83
78
72
78
79
71
75
81
70
72
82
70
70
82
70
69
81
69
67
78
67
66
74
64
63
70
61
60
68
58
56
50
42
39
49
57
68
67
79
93
71
83
97
75
86
99
79
88
102
81
91
107
82
95
113
82
99
119
84
100
120
86
100
121
90
101
121
94
102
123
97
104
125
99
106
127
99
108
129
100
109
131
105
110
132
112
109
127
120
107
118
125
106
109
127
105
104
127
104
102
128
103
101
134
105
98
141
107
95
144
108
93
141
107
94
137
105
96
134
104
98
132
104
99
131
104
100
131
104
98
133
103
93
135
103
88
139
103
84
145
106
81
150
107
76
150
107
75
144
105
78
137
103
83
132
102
89
128
103
95
126
104
99
125
104
102
123
104
107
119
104
110
116
103
110
113
101
107
112
99
102
114
98
98
116
98
94
118
98
91
118
97
89
116
95
87
114
94
86
110
91
84
105
87
80
103
85
76
105
84
70
80
63
50
56
60
67
76
82
93
79
85
97
83
88
99
86
90
101
88
92
104
89
95
110
89
99
116
88
102
121
89
103
123
90
102
123
93
102
123
97
103
124
100
106
126
104
108
127
108
110
129
113
112
130
119
111
125
124
109
116
128
108
107
132
107
101
136
106
97
139
106
94
145
107
91
153
110
87
158
111
84
157
111
85
152
109
88
146
107
91
142
106
93
140
106
95
140
105
94
142
105
89
146
105
84
150
107
81
155
109
79
158
111
77
154
109
78
146
107
83
139
105
88
135
105
94
133
106
99
132
107
101
131
107
101
130
106
101
128
105
100
126
104
98
125
102
95
126
102
91
129
102
88
132
103
86
132
103
84
129
100
82
126
98
80
124
96
78
122
95
75
123
95
72
128
96
66
136
99
61
106
76
43
62
62
67
85
85
92
89
88
95
92
90
96
95
92
98
97
93
100
98
95
102
98
97
107
97
100
113
96
102
117
97
103
119
98
102
119
100
103
120
102
104
121
107
106
121
113
108
121
119
110
122
125
111
118
129
110
111
132
109
104
138
108
97
144
108
92
149
108
87
153
109
84
160
112
80
168
114
76
171
115
74
167
114
77
159
111
82
153
108
86
150
107
88
149
107
88
150
107
85
153
107
82
156
109
81
160
111
81
162
112
81
157
111
83
150
109
88
143
108
93
139
108
98
137
108
100
137
108
99
137
108
97
137
108
94
136
107
91
136
106
88
137
106
85
141
107
82
144
109
79
145
109
76
140
106
75
135
102
74
133
100
72
134
100
69
139
102
65
147
107
60
157
113
55
164
116
50
125
88
37
65
63
66
91
86
90
96
90
92
100
92
92
103
93
94
105
95
95
105
96
96
105
97
99
104
98
104
104
101
109
105
103
113
107
103
114
109
103
114
110
104
113
113
105
113
118
106
113
123
108
112
127
110
111
131
110
108
137
110
102
144
110
95
152
111
88
157
111
83
159
111
80
164
113
77
172
116
72
177
117
68
175
116
68
168
113
73
161
110
77
159
109
80
158
109
82
158
109
81
159
110
80
162
111
79
165
113
79
167
115
79
164
114
80
158
112
86
152
111
92
147
111
96
143
110
98
142
109
97
143
109
94
142
109
91
142
108
88
144
109
84
150
111
79
154
113
75
153
112
72
149
110
69
142
105
69
137
102
68
138
102
66
143
105
62
151
110
58
161
116
53
167
120
50
166
118
48
121
86
36
68
64
64
94
87
87
99
90
88
103
92
89
107
94
90
109
95
91
110
97
93
110
98
95
111
99
98
111
102
102
113
104
106
115
105
108
118
106
108
120
106
108
122
107
108
124
108
108
127
109
108
130
111
110
133
113
110
139
113
105
148
115
100
157
116
94
163
117
88
165
117
86
167
117
84
173
119
79
179
120
72
180
119
67
176
116
66
171
113
68
168
112
72
167
111
74
167
112
75
168
113
73
172
114
71
177
117
67
181
119
65
179
119
66
173
117
71
168
116
79
162
115
85
155
113
89
151
112
90
149
111
90
148
111
89
148
111
87
150
112
84
155
113
79
156
113
73
153
112
69
150
110
65
147
108
64
144
107
63
144
107
62
147
109
59
153
111
56
156
113
54
154
111
52
144
105
53
101
74
41
72
65
61
99
88
82
103
90
84
106
92
85
109
94
86
112
96
88
113
98
89
115
100
91
116
102
93
118
103
96
120
105
99
122
107
101
125
108
102
127
109
103
129
110
105
130
111
106
133
113
107
135
115
110
138
116
112
142
118
111
150
122
111
160
126
110
168
127
107
170
127
105
172
128
105
177
129
101
183
128
90
187
124
75
187
121
63
183
118
60
180
116
61
178
115
64
178
115
64
180
116
61
187
120
55
197
125
47
204
128
42
202
128
42
199
127
46
194
125
53
185
122
63
174
119
70
166
116
75
162
114
78
160
114
80
157
114
81
154
113
80
153
112
77
155
113
71
158
114
64
162
116
59
161
116
56
155
113
56
150
110
56
147
109
56
145
107
56
141
103
56
134
97
56
124
91
57
88
65
44
77
67
59
105
90
79
108
92
80
111
94
80
114
96
80
118
98
81
120
100
82
122
102
85
123
104
88
125
105
89
127
106
90
129
108
91
131
109
93
134
110
94
136
111
97
138
112
100
141
114
102
144
116
104
147
118
106
150
121
109
156
125
113
164
131
118
170
134
119
174
136
119
178
141
125
183
144
127
189
139
111
195
131
84
199
127
63
200
125
53
197
123
49
194
121
47
195
121
44
199
124
40
209
131
32
222
139
23
229
144
17
230
144
16
229
143
18
223
139
24
212
133
33
200
128
42
189
124
51
178
120
59
171
118
65
165
116
68
160
114
68
159
114
65
165
117
59
172
120
52
174
122
49
168
119
49
158
114
50
151
110
50
145
106
51
139
102
54
133
97
57
127
93
58
122
90
59
89
66
45
81
69
58
110
93
77
113
95
76
117
97
75
121
98
74
125
100
75
127
102
76
128
104
78
130
106
81
132
107
82
134
108
82
137
109
82
140
110
81
144
111
82
147
113
84
149
114
86
152
115
89
155
117
91
158
119
94
161
122
97
165
125
101
170
129
106
175
132
108
179
136
114
185
145
127
190
150
132
195
143
114
200
134
87
207
132
68
214
133
53
217
132
39
217
132
27
219
134
21
225
140
16
234
149
11
243
159
6
247
163
4
249
163
3
248
160
4
243
153
6
234
144
10
224
138
16
209
132
27
190
123
40
177
118
49
171
117
52
170
117
51
174
120
48
181
124
42
183
125
39
177
123
40
167
118
42
159
114
44
154
112
45
147
107
48
140
103
53
136
100
58
132
97
61
130
96
63
96
71
48
87
73
56
118
98
74
121
99
72
125
100
70
128
102
69
131
104
69
133
106
70
134
107
71
136
109
72
138
110
73
141
111
74
144
112
74
148
112
74
153
113
73
157
115
73
160
117
74
164
119
75
167
120
78
170
122
80
173
123
82
176
125
84
180
127
86
184
129
88
188
133
96
192
139
106
196
142
109
199
138
97
203
133
82
209
133
71
219
135
56
228
137
36
234
140
18
238
145
8
241
151
4
244
158
2
246
163
2
249
167
2
251
169
2
252
169
2
249
162
2
240
150
3
227
140
6
209
131
15
191
123
28
181
120
36
180
120
38
183
123
36
189
127
33
193
129
31
190
128
32
180
124
36
170
120
40
164
117
42
159
115
45
153
112
50
147
109
55
143
106
60
140
104
62
137
101
64
101
75
49
93
78
57
127
104
74
130
105
71
133
106
68
136
107
66
138
109
65
140
110
64
142
111
64
144
113
64
147
114
64
150
115
66
153
115
68
156
116
69
159
117
69
164
118
68
168
120
67
172
122
67
175
123
68
178
124
70
182
126
70
187
127
70
191
129
71
195
132
77
200
136
85
203
137
86
206
135
78
209
133
70
212
133
63
216
133
55
223
135
44
232
138
30
238
142
15
241
145
6
241
149
2
240
149
2
237
148
3
238
151
4
243
158
3
246
163
2
242
158
2
230
145
3
213
134
6
201
127
13
194
125
22
191
125
28
192
127
30
196
130
29
201
133
29
201
134
31
195
131
34
184
126
39
174
122
43
168
120
46
162
117
48
158
115
50
155
113
53
151
112
55
148
109
57
144
106
58
106
78
44
95
80
57
130
108
74
134
109
72
137
111
69
139
112
66
142
114
64
145
115
64
148
116
63
152
117
61
156
118
60
159
119
60
162
120
62
165
120
63
167
121
63
170
122
62
175
123
61
178
124
60
181
125
60
184
126
60
188
128
60
194
130
62
199
134
68
205
142
83
211
149
96
215
145
85
218
137
62
222
135
47
226
136
37
231
140
28
235
146
21
238
152
16
240
155
13
241
155
8
241
153
3
239
148
2
235
144
3
233
143
4
233
145
3
233
148
2
228
145
2
219
137
3
210
132
6
207
131
12
208
134
19
210
136
24
212
139
27
213
141
27
213
140
29
207
137
34
197
132
38
187
128
41
181
126
42
176
123
42
172
122
42
168
120
43
163
118
44
159
115
46
155
113
48
152
111
49
112
82
38
99
84
57
134
113
74
137
114
71
140
115
69
142
116
67
145
118
66
148
119
66
152
119
66
157
120
64
161
121
61
164
122
60
168
123
60
171
124
59
174
124
57
177
125
55
181
126
53
184
127
52
187
128
51
190
129
51
195
131
51
200
133
54
206
138
64
213
148
83
220
156
95
224
150
78
228
141
49
232
140
29
236
143
16
241
150
9
245
163
6
246
176
11
245
183
18
245
180
16
245
171
6
244
163
2
242
158
2
238
152
2
233
145
2
228
141
1
224
140
2
222
140
4
221
141
9
223
143
15
227
146
19
230
149
21
231
151
20
229
150
21
223
146
24
212
139
29
200
134
34
193
131
35
189
129
35
186
128
34
183
127
34
179
125
36
172
123
38
165
119
41
160
116
44
155
113
47
114
83
36
108
97
66
145
129
84
147
128
80
149
128
77
152
127
74
155
126
72
158
126
69
160
126
67
162
125
64
165
125
61
168
125
60
171
126
59
175
127
57
179
127
54
182
128
51
186
129
48
190
130
47
194
131
45
197
133
44
202
134
42
207
135
43
213
138
48
219
144
58
225
148
61
230
146
48
234
143
28
238
146
14
242
151
5
246
158
2
249
171
2
247
187
11
246
199
25
246
198
23
246
188
9
247
178
2
247
171
2
245
166
3
239
159
5
235
153
4
232
150
3
232
151
5
233
152
10
233
151
16
234
151
19
234
151
18
231
150
17
226
147
18
220
144
21
212
140
25
203
136
30
196
133
32
192
131
33
188
130
34
184
129
35
179
127
37
174
124
39
168
122
42
163
119
44
158
115
47
116
84
37
117
108
72
157
145
95
160
145
93
162
145
90
166
143
85
170
142
81
173
141
77
175
140
74
176
139
70
177
138
66
180
137
64
183
137
61
186
136
58
188
135
55
190
134
50
193
133
45
196
134
42
200
135
39
204
136
36
208
137
33
214
138
30
219
139
29
225
141
29
231
143
28
235
145
20
238
148
10
242
153
4
246
161
2
248
169
1
247
180
2
244
195
9
242
207
23
242
208
25
243
199
13
246
187
4
248
178
2
248
176
5
245
173
8
242
168
8
240
164
5
239
160
5
237
157
8
234
153
13
232
151
16
229
149
17
223
145
20
217
142
23
213
140
26
208
138
30
202
136
33
197
134
35
193
133
36
189
131
36
184
129
38
178
127
39
173
125
41
169
123
42
166
120
43
162
117
46
119
86
36
116
105
64
157
142
86
161
144
86
164
146
85
169
147
83
174
148
81
179
149
79
183
150
77
187
151
75
190
151
72
194
151
68
197
151
64
199
150
61
201
148
56
202
145
50
204
143
44
207
143
38
211
143
33
214
142
28
217
142
23
222
142
19
227
143
15
233
144
12
237
145
9
240
148
6
243
153
2
246
160
1
247
170
1
245
183
2
242
198
8
239
213
26
239
224
46
239
222
44
240
210
25
243
196
10
246
185
5
248
180
5
247
177
7
244
174
8
241
169
7
240
164
6
237
158
9
232
154
13
229
150
15
224
145
17
216
141
21
209
137
27
204
135
31
200
133
34
194
132
36
190
131
37
187
131
37
185
130
38
181
128
39
175
126
40
170
123
42
167
121
43
164
118
45
160
115
48
117
84
37
104
90
54
141
122
72
145
124
72
150
127
72
155
130
71
160
133
71
165
136
70
170
138
70
175
141
68
180
143
67
185
144
65
190
145
62
193
146
59
197
146
56
200
146
52
203
145
47
208
145
41
212
145
35
214
145
30
216
143
24
220
142
19
224
141
14
230
141
10
235
142
8
239
145
5
244
150
3
246
158
3
246
169
3
242
185
4
238
203
15
237
222
44
238
231
68
238
223
57
238
207
31
240
192
14
241
180
7
241
173
5
239
168
6
235
165
8
232
161
10
229
157
12
226
152
15
220
146
18
213
140
21
206
134
23
197
129
27
190
126
32
185
124
36
182
123
37
178
122
39
174
121
41
172
122
42
169
121
43
166
119
44
161
116
46
157
113
48
153
110
49
149
107
51
144
103
53
105
75
41
79
67
47
109
92
63
112
94
63
115
95
62
118
97
61
121
98
59
123
99
58
127
101
57
133
104
57
137
107
56
142
109
56
147
112
57
153
116
58
157
118
58
161
118
56
164
119
53
168
119
49
171
120
45
174
120
43
178
121
40
183
121
37
188
122
33
193
122
30
198
123
27
204
125
23
210
128
18
214
133
16
215
141
15
215
151
14
214
166
20
215
184
38
216
191
51
216
180
41
216
164
24
217
153
17
215
145
14
208
139
14
202
136
16
197
133
20
193
130
24
191
129
28
188
127
31
183
123
35
178
119
38
172
116
40
167
113
42
163
112
44
159
110
47
155
109
48
152
107
48
149
106
50
147
105
51
144
104
53
141
102
54
138
99
55
133
96
54
128
92
55
124
89
56
120
87
58
88
64
44
56
48
42
79
68
58
83
71
59
84
71
57
85
70
55
84
68
52
82
67
50
85
69
51
91
73
53
96
76
54
99
78
55
103
81
59
110
87
64
113
88
65
116
89
64
118
90
62
119
89
60
120
88
58
122
89
58
127
92
58
133
95
57
138
97
56
142
99
55
146
100
54
150
101
51
154
101
47
158
102
43
161
104
40
165
108
37
170
115
36
176
125
38
179
129
38
178
123
35
176
116
32
177
113
31
174
111
32
167
108
34
160
105
37
155
104
41
152
103
45
150
103
49
148
103
52
146
103
54
145
103
57
143
102
59
142
101
60
140
101
60
137
99
61
134
97
61
130
94
60
128
93
60
126
92
62
123
91
63
120
89
64
118
87
62
114
83
60
109
80
58
105
78
59
104
78
60
77
58
46
57
50
49
80
71
68
86
76
70
88
77
70
89
76
68
88
75
66
87
74
66
90
76
68
94
79
71
98
81
71
100
82
71
102
83
74
105
86
76
105
86
76
106
87
76
109
88
76
110
88
75
112
88
73
115
89
71
118
90
70
122
92
69
127
95
69
132
98
70
136
100
70
140
101
69
143
100
66
146
100
60
152
100
56
160
103
52
169
107
49
176
112
46
180
115
43
179
114
42
174
111
42
170
109
43
168
109
46
165
108
49
160
107
51
156
106
53
152
105
56
148
103
59
144
102
61
142
102
64
141
102
66
139
101
66
138
101
66
137
100
65
136
99
66
133
97
67
129
94
67
126
92
66
123
91
67
119
89
68
116
87
68
115
86
67
112
84
65
108
81
63
106
80
63
106
80
64
79
59
48
69
62
62
96
85
83
100
89
84
102
90
84
104
90
82
106
91
82
110
93
85
113
95
87
115
96
87
116
96
86
117
96
84
117
96
84
116
94
83
113
92
81
111
91
80
114
92
82
119
95
81
125
97
79
128
99
78
129
98
75
131
99
74
135
101
74
141
104
73
146
106
73
150
108
73
154
108
70
160
109
65
168
111
60
176
114
56
183
118
53
188
122
49
190
124
47
191
123
45
187
120
45
181
117
49
176
116
54
174
117
58
171
116
61
167
115
63
163
113
63
156
110
64
151
108
67
149
108
71
146
106
70
144
105
69
143
104
69
140
102
68
138
100
68
134
98
69
128
94
69
124
92
69
120
89
69
115
87
69
113
86
70
114
87
71
112
87
72
107
83
69
105
81
66
104
79
64
77
58
48
70
63
62
95
85
82
96
84
80
96
84
78
97
84
77
101
86
77
107
89
79
111
91
80
113
92
79
115
93
79
116
93
78
117
92
77
116
92
77
114
90
76
114
90
77
119
93
79
124
95
78
129
97
76
132
99
75
131
98
74
130
98
74
132
99
73
133
98
72
134
98
72
137
99
72
140
100
70
143
99
67
148
100
63
152
103
61
158
106
60
162
109
58
165
111
57
167
112
57
167
112
57
163
111
59
160
110
65
158
111
70
155
110
72
152
109
73
148
107
73
143
103
72
139
102
73
136
101
74
134
100
74
132
98
73
129
97
74
124
94
74
120
91
73
116
88
72
111
85
72
107
83
71
103
81
70
100
80
71
100
80
72
100
81
73
97
80
73
93
76
69
91
72
63
92
70
59
70
52
43
62
55
52
83
72
68
82
70
64
80
68
61
82
69
60
87
72
61
93
76
62
97
77
63
99
78
63
102
80
65
105
81
65
109
84
67
111
85
68
110
84
68
111
85
69
116
88
71
122
91
70
127
93
70
130
95
69
131
96
68
131
96
68
131
95
68
128
93
68
125
91
68
124
90
67
124
88
65
122
85
61
120
82
57
118
81
55
118
81
54
120
83
53
122
85
56
126
88
59
128
89
59
126
88
58
125
89
61
125
91
67
124
91
69
121
90
68
120
89
68
116
86
65
113
83
64
113
84
66
112
84
67
110
84
67
109
83
68
106
82
68
104
81
69
103
80
70
102
80
70
100
78
69
98
77
68
98
78
69
97
78
69
94
76
68
90
73
66
89
71
62
91
69
57
94
68
54
72
51
40
46
40
36
63
54
48
63
53
46
63
53
44
66
54
44
70
57
45
73
59
46
76
60
46
76
59
46
78
60
47
82
63
50
87
66
52
89
68
55
90
69
56
93
71
57
97
73
58
103
76
58
107
79
58
110
80
58
111
80
57
111
80
55
112
80
56
111
79
57
111
78
58
113
79
58
115
79
56
114
77
52
110
72
46
106
68
43
100
64
40
96
62
38
97
65
42
103
70
47
106
72
47
106
69
43
106
71
46
108
75
52
110
77
55
110
77
53
111
77
52
109
74
49
107
73
49
110
76
53
112
79
56
112
80
57
114
81
57
115
82
58
116
82
60
117
84
62
117
84
63
114
83
63
113
82
62
112
82
62
111
80
61
106
78
59
102
75
57
102
75
57
104
74
55
102
72
53
75
53
39
32
28
24
45
38
33
47
40
33
49
41
34
51
42
34
53
44
35
54
44
35
54
44
35
53
42
33
54
43
34
58
45
36
61
47
39
64
50
42
70
55
46
75
58
49
79
60
50
80
61
49
81
62
49
83
64
51
83
63
50
80
59
47
78
57
44
80
58
45
85
60
46
92
64
47
96
66
47
96
64
43
99
63
39
104
65
39
104
64
37
102
63
36
107
67
37
117
74
40
123
77
39
124
76
37
125
77
39
126
80
44
127
82
46
124
80
44
122
79
43
120
78
44
119
78
45
120
80
49
122
82
52
123
83
52
125
84
52
126
85
52
126
85
53
125
85
55
124
85
56
121
83
56
118
82
54
116
81
54
112
78
52
107
75
51
102
72
51
99
72
54
99
72
55
95
69
54
67
50
39
37
31
27
52
44
37
57
46
39
60
48
40
61
49
39
62
50
40
63
50
41
62
49
40
61
48
39
64
50
41
68
52
44
70
54
46
73
56
48
76
59
51
78
61
52
79
62
53
79
62
53
81
64
56
83
67
59
85
67
60
81
63
56
76
59
51
76
58
49
81
60
49
85
61
48
84
59
46
82
56
42
88
58
40
99
64
42
103
66
43
103
66
42
111
71
43
120
77
42
127
81
41
130
83
43
128
81
43
121
77
41
114
73
38
107
68
37
102
66
38
103
68
41
106
70
43
109
72
45
112
75
47
113
75
47
113
75
47
114
75
47
112
75
47
110
74
47
110
75
49
111
76
50
110
75
50
106
73
49
100
69
47
95
66
46
89
63
46
85
62
49
83
63
53
82
64
55
61
48
42
46
39
34
67
55
48
73
60
52
77
63
53
78
62
52
78
62
53
79
64
55
81
64
56
83
66
57
89
70
61
93
73
63
94
74
65
93
73
65
90
71
63
89
70
62
89
71
63
92
73
65
96
76
68
98
78
70
99
78
70
97
77
69
95
75
67
95
74
65
97
74
64
96
73
62
95
72
61
96
71
59
99
72
58
103
74
58
101
72
57
97
69
55
98
70
55
103
73
56
106
75
55
107
77
57
102
74
56
90
64
48
80
56
40
78
54
40
78
55
41
82
58
43
90
62
46
97
66
48
101
69
48
101
67
46
99
66
44
100
67
45
99
67
46
97
66
46
96
65
45
98
67
46
99
68
48
96
67
48
93
65
48
90
64
49
85
61
48
78
58
48
76
59
51
80
64
57
63
51
46
47
40
38
67
57
54
73
62
58
78
65
60
78
65
59
77
64
58
79
66
60
84
70
64
90
74
68
97
79
72
101
82
75
101
81
75
98
78
71
93
74
66
92
72
64
97
76
67
104
80
71
108
83
73
108
83
72
106
81
71
107
83
73
112
87
77
114
88
77
113
86
74
112
85
72
114
87
74
119
89
75
122
90
73
122
90
72
120
88
70
119
87
67
117
84
63
114
83
63
112
82
63
110
81
64
108
80
64
100
73
58
94
68
53
95
69
54
98
71
57
101
74
61
106
78
65
109
80
66
107
77
61
103
73
57
101
72
55
102
72
56
100
71
55
95
67
50
91
63
46
88
61
45
87
61
46
88
63
48
87
64
51
85
63
53
83
62
53
80
61
52
80
62
55
83
66
60
64
52
48
53
45
43
72
61
57
75
63
59
79
66
62
81
67
62
82
67
61
85
69
62
90
73
65
95
76
69
99
79
71
102
80
71
102
79
70
102
78
67
102
76
63
103
76
62
110
82
68
119
88
73
122
90
74
121
88
71
117
84
67
118
86
70
123
91
76
128
94
78
129
94
76
129
92
72
131
93
72
137
97
73
143
101
73
147
103
73
150
105
71
156
106
64
156
104
57
150
100
56
144
96
56
140
93
54
140
93
55
137
91
56
134
89
55
133
90
58
130
90
63
131
93
69
133
97
76
130
95
76
123
89
71
119
85
67
119
85
66
118
85
67
111
80
63
105
73
55
98
67
48
91
61
44
88
60
44
90
62
47
90
63
49
88
63
50
88
64
53
91
67
57
92
69
60
91
70
61
67
52
46
64
53
48
85
71
64
86
71
64
89
73
65
93
75
67
96
76
66
99
77
66
101
78
66
99
76
65
99
76
64
100
76
63
102
76
63
107
79
64
111
82
65
113
83
67
118
87
70
124
91
72
127
92
73
127
90
70
124
86
65
122
84
64
124
87
67
127
90
71
132
92
70
133
90
65
138
93
66
148
102
72
155
107
73
159
109
72
164
111
67
170
112
58
172
111
53
169
109
52
165
105
49
162
102
47
158
100
50
154
97
50
153
97
51
149
97
55
145
97
59
145
99
67
145
102
74
141
99
72
135
94
69
132
92
68
132
92
67
130
90
67
120
82
60
114
76
54
111
73
50
104
68
47
101
66
45
103
68
47
103
68
48
99
66
47
97
66
48
98
67
51
99
69
54
99
70
56
74
53
42
68
56
50
92
75
67
94
76
67
95
77
68
96
76
66
97
75
64
99
76
63
100
75
63
98
74
61
97
73
60
96
73
60
98
74
62
104
78
65
106
80
67
107
81
68
110
83
69
115
85
70
119
87
72
120
87
70
119
84
65
117
80
60
118
82
62
122
86
67
126
88
68
129
88
65
137
94
69
148
104
77
152
107
78
152
105
73
155
105
68
159
106
62
160
105
58
160
105
57
160
103
54
160
104
55
157
103
58
151
98
56
148
95
55
145
95
57
143
97
65
142
100
73
138
97
73
134
93
68
131
89
65
128
86
63
126
85
61
123
82
58
116
76
52
111
72
49
111
72
50
108
70
48
104
67
46
104
68
46
103
68
47
99
65
45
95
62
42
93
62
43
94
63
45
95
64
48
72
49
38
60
50
46
84
69
62
88
72
64
91
73
64
90
70
61
87
67
56
85
65
54
89
67
55
94
70
58
93
70
57
89
67
56
91
69
59
97
74
64
99
76
66
99
75
65
101
77
66
108
82
70
115
86
74
116
86
73
112
81
66
108
76
59
110
77
60
117
84
68
124
90
75
127
91
75
133
95
77
142
103
83
143
103
81
138
96
73
139
95
70
142
98
69
145
98
66
146
98
65
145
97
64
145
97
65
144
98
67
142
95
65
139
94
65
139
96
70
139
99
78
134
97
79
129
92
73
126
88
68
123
85
64
119
80
60
116
77
56
114
75
53
112
73
51
108
70
48
106
68
47
102
65
45
97
62
42
97
63
44
95
63
45
89
58
40
84
55
38
83
55
38
84
56
41
83
57
43
62
42
32
52
42
38
74
60
54
80
65
59
84
67
60
83
64
57
78
60
51
75
57
48
80
60
50
87
66
55
88
66
55
86
65
55
90
68
59
97
74
64
100
76
65
98
72
61
96
71
60
103
77
66
114
86
75
117
88
76
109
79
65
102
71
56
106
74
59
117
85
71
125
92
80
125
92
80
128
94
81
135
100
85
136
98
81
130
91
72
127
87
67
129
89
68
137
94
70
140
95
70
136
92
67
136
92
67
137
94
69
136
93
68
135
93
70
137
98
77
135
98
79
130
93
76
129
92
74
123
86
68
114
77
58
110
73
53
110
72
52
110
72
52
111
72
51
108
70
48
103
65
44
97
60
40
94
59
39
95
61
43
94
62
45
87
58
42
80
54
38
77
52
38
76
53
42
74
53
43
52
38
30
46
37
34
67
55
50
77
62
57
82
65
60
81
63
57
78
60
54
75
58
51
77
59
52
83
64
55
87
66
58
90
69
61
97
75
67
104
81
73
109
83
74
105
78
68
101
74
64
105
78
68
111
83
73
108
80
69
102
73
61
104
74
61
115
84
72
123
92
81
123
92
81
119
88
78
120
89
78
127
94
82
129
93
79
123
85
69
116
79
61
119
81
62
129
89
69
132
90
68
129
87
64
131
88
65
134
91
68
132
90
67
130
88
65
131
90
69
131
91
71
131
92
73
133
96
78
121
84
67
98
63
42
90
54
33
92
57
35
94
58
37
96
59
37
97
59
37
95
59
37
92
56
35
89
54
35
87
55
36
87
56
39
86
57
42
83
56
42
78
54
41
72
51
41
64
47
39
44
32
27
39
32
29
57
47
43
67
54
51
74
59
55
74
59
54
73
57
52
73
57
51
74
58
51
77
59
52
80
61
54
85
65
59
91
71
64
98
76
70
106
83
76
112
87
79
114
88
80
112
87
79
106
81
73
101
77
68
105
78
69
114
86
78
119
91
82
115
87
78
110
81
72
106
77
67
107
78
68
113
83
72
119
86
74
116
82
68
109
74
59
111
76
60
121
84
68
123
85
68
122
83
64
126
85
66
128
87
67
125
84
63
121
79
58
122
81
61
126
87
67
130
92
74
133
96
80
118
82
66
87
53
34
72
39
18
71
40
18
73
41
20
75
43
21
78
45
23
80
46
25
79
46
25
77
45
25
74
44
26
72
45
28
72
46
32
72
47
33
69
46
33
63
43
32
54
38
29
36
26
20
27
22
20
39
31
28
45
36
32
50
39
36
52
40
36
52
40
36
54
41
36
57
43
37
57
43
36
58
43
36
62
45
38
64
47
40
67
49
43
84
64
58
110
87
81
121
96
89
113
89
83
107
84
79
106
84
78
113
89
84
119
93
86
113
86
78
103
76
67
99
71
61
98
70
59
99
70
60
102
72
62
107
76
65
112
80
68
108
76
64
110
77
65
120
87
74
123
89
76
121
86
72
124
87
72
124
86
70
114
76
60
105
68
51
107
70
53
116
79
62
123
86
69
123
87
73
106
72
57
78
46
29
63
33
14
60
32
14
59
33
15
60
33
16
62
34
17
64
35
17
64
36
18
62
35
18
60
34
19
57
34
20
54
33
20
52
32
21
51
32
21
48
31
21
43
28
19
30
19
14
17
14
12
25
19
17
29
22
19
32
24
21
34
25
22
35
25
22
36
26
22
38
28
22
39
28
21
39
28
21
41
28
21
42
28
21
44
29
22
61
44
38
91
70
65
105
82
77
98
77
71
90
70
66
87
68
63
92
71
65
102
77
70
107
80
71
108
79
69
106
77
67
107
77
67
108
78
68
106
74
64
105
73
63
109
78
68
113
83
73
119
88
79
129
96
86
130
97
87
126
93
82
127
94
82
127
92
79
114
79
66
101
68
54
101
67
53
110
74
59
115
79
65
105
73
60
82
53
39
62
35
19
54
28
13
50
27
13
48
27
14
48
27
14
49
27
15
51
28
15
51
28
15
50
28
15
47
27
15
44
26
15
41
25
14
39
24
14
38
24
15
37
23
15
34
22
15
24
15
11
12
10
9
19
15
13
24
18
15
27
19
17
28
20
18
29
21
18
30
21
17
30
21
17
31
21
17
31
22
17
33
22
16
34
22
16
36
23
16
43
29
23
57
41
36
65
49
44
61
45
40
54
38
33
50
35
29
54
38
30
66
47
39
82
60
52
96
70
62
102
74
65
106
77
68
111
81
72
109
79
69
103
73
63
99
70
60
102
73
64
109
81
73
121
91
83
128
96
87
127
95
86
126
95
85
126
94
84
120
89
78
111
80
68
107
76
63
105
74
61
97
67
55
77
51
40
56
33
22
46
25
12
43
23
11
41
22
12
38
21
12
37
21
12
38
21
12
39
22
12
39
22
13
39
22
13
37
22
12
35
21
12
33
20
12
32
19
11
31
19
12
30
19
12
28
18
12
19
12
8
10
7
6
16
11
10
19
14
12
21
16
13
23
17
14
24
17
14
25
17
14
26
17
15
27
18
15
28
19
15
29
19
15
30
19
15
30
19
14
31
20
15
34
22
18
36
24
19
34
22
17
32
20
15
32
20
14
34
22
15
39
25
18
47
32
25
58
40
32
67
47
38
75
52
44
81
57
48
82
57
48
76
52
43
70
45
35
66
42
32
71
47
38
83
59
51
96
70
62
100
73
64
97
71
62
97
72
62
98
71
62
95
68
57
90
63
53
79
54
43
64
40
29
49
29
18
40
22
12
36
19
10
34
18
10
33
18
10
31
17
10
29
16
10
29
16
10
29
17
10
30
17
10
30
17
10
29
17
10
28
16
9
26
15
9
26
15
9
25
15
9
24
14
9
22
13
8
15
9
5
7
4
3
10
7
6
12
8
7
13
10
8
14
10
9
15
11
9
16
11
9
18
12
10
19
12
10
19
13
10
20
13
11
20
13
11
21
13
10
21
13
11
22
14
11
22
14
11
21
14
10
21
14
10
22
14
10
23
14
10
23
14
9
24
15
9
27
16
10
30
19
13
35
22
15
38
23
17
39
24
17
37
22
15
35
19
12
33
17
9
35
19
11
40
24
17
46
29
22
48
31
24
47
30
23
48
31
23
48
31
23
48
30
22
47
29
21
41
24
15
33
18
9
28
15
7
26
14
7
24
12
7
22
12
7
22
12
7
20
11
7
19
10
7
19
10
6
18
10
6
18
10
7
18
11
6
18
10
6
17
10
5
17
9
5
16
9
5
16
9
5
15
8
4
14
7
4
10
5
2
