P3
60 40
255
61
78
97
85
111
135
65
91
108
71
94
111
79
95
114
81
100
120
82
107
130
82
107
130
90
104
125
102
103
121
110
108
126
112
112
132
110
114
137
103
118
143
92
122
151
90
121
151
100
119
151
117
119
148
134
116
134
139
118
122
134
114
121
125
110
126
121
109
127
127
112
122
142
117
116
146
117
116
138
115
117
131
113
118
129
113
120
128
114
121
129
115
124
131
115
122
131
112
113
129
108
108
130
107
108
139
110
102
153
115
88
164
118
77
208
154
113
146
111
89
0
0
0
0
0
0
0
0
0
0
0
0
0
0
0
0
0
0
0
0
0
0
0
0
0
0
0
0
0
0
0
0
0
0
0
0
0
0
0
0
0
0
0
0
0
0
0
0
0
0
0
0
0
0
0
0
0
0
0
0
89
109
132
130
163
196
101
134
160
112
138
163
121
140
167
124
144
175
122
157
193
123
165
205
125
163
204
131
163
201
142
163
199
152
164
200
159
169
205
161
174
210
154
177
215
151
180
222
156
181
228
175
177
218
193
172
195
201
171
175
201
169
169
195
164
171
191
161
173
200
165
169
221
172
162
226
173
159
214
169
163
200
165
169
196
164
171
196
165
172
196
167
175
200
167
171
205
165
157
206
161
143
213
163
138
230
169
131
247
175
114
249
174
108
255
219
161
199
150
120
12
10
10
0
0
0
0
0
0
0
0
0
0
0
0
0
0
0
0
0
0
0
0
0
0
0
0
0
0
0
0
0
0
0
0
0
0
0
0
0
0
0
0
0
0
0
0
0
0
0
0
0
0
0
0
0
0
0
0
0
80
86
98
119
130
150
77
88
103
81
89
102
87
88
101
88
89
105
87
96
118
84
105
132
79
110
141
75
110
141
76
106
138
82
100
131
91
102
131
98
108
133
105
111
134
110
116
142
115
121
151
123
119
144
127
113
121
126
108
104
132
106
96
136
105
94
137
103
93
145
106
91
165
113
84
175
117
80
171
115
82
156
110
90
144
105
97
138
104
101
136
104
103
138
105
102
143
104
89
149
104
75
156
108
74
170
115
71
179
118
68
167
113
69
230
171
137
146
115
103
0
0
0
0
0
0
0
0
0
0
0
0
0
0
0
0
0
0
0
0
0
0
0
0
0
0
0
0
0
0
0
0
0
0
0
0
0
0
0
0
0
0
0
0
0
0
0
0
0
0
0
0
0
0
0
0
0
0
0
0
93
89
97
139
136
148
96
92
100
96
93
98
99
92
98
101
91
98
102
93
100
101
95
106
96
100
118
91
105
127
90
105
129
89
99
124
86
99
125
89
102
126
97
103
123
110
107
126
124
114
132
133
116
126
133
112
112
130
107
100
139
106
93
149
107
85
153
105
79
155
106
78
169
114
71
190
120
62
200
124
57
187
120
67
165
112
81
151
106
91
147
106
95
147
105
95
148
105
88
150
105
80
155
108
83
164
114
89
169
117
89
158
112
92
227
174
159
147
119
119
0
0
0
0
0
0
0
0
0
0
0
0
0
0
0
0
0
0
0
0
0
0
0
0
0
0
0
0
0
0
0
0
0
0
0
0
0
0
0
0
0
0
0
0
0
0
0
0
0
0
0
0
0
0
0
0
0
0
0
0
93
91
98
147
139
147
105
95
96
110
95
92
114
96
92
116
95
91
114
94
88
112
92
88
107
93
97
104
99
109
105
102
116
108
100
115
108
99
112
105
99
110
108
99
108
116
99
104
123
103
104
128
108
107
131
107
100
136
103
90
149
103
76
162
105
64
165
104
55
156
103
57
161
106
58
181
115
47
200
121
38
192
120
45
169
111
63
154
106
78
153
105
85
154
107
89
153
106
88
150
107
89
148
106
92
156
110
98
162
115
97
155
112
99
235
176
165
155
121
125
0
0
3
0
0
0
0
0
0
0
0
0
0
0
0
0
0
0
0
0
0
0
0
0
0
0
0
0
0
0
0
0
0
0
0
0
0
0
0
0
0
0
0
0
0
0
0
0
0
0
0
0
0
0
0
0
0
0
0
0
93
92
95
146
138
142
101
91
91
106
92
90
111
94
92
113
96
93
112
97
92
110
96
92
110
97
96
110
101
101
114
104
111
118
105
115
122
105
110
124
106
106
124
105
106
122
105
103
123
105
102
123
109
110
123
110
113
129
108
102
148
108
88
168
113
74
174
110
61
164
104
58
157
101
61
169
107
56
186
113
41
186
113
38
172
108
48
160
105
62
157
106
77
158
108
86
158
109
90
156
107
90
155
106
91
166
111
84
175
116
79
166
111
82
255
179
140
170
122
111
0
0
5
0
0
0
0
0
0
0
0
0
0
0
0
0
0
0
0
0
0
0
0
0
0
0
0
0
0
0
0
0
0
0
0
0
0
0
0
0
0
0
0
0
0
0
0
0
0
0
0
0
0
0
0
0
0
0
0
0
103
93
87
157
139
131
101
89
84
100
90
85
105
92
89
109
94
91
109
97
92
112
98
94
114
101
95
118
103
97
121
106
102
122
108
109
124
109
109
127
110
110
127
111
114
126
112
116
128
115
117
128
119
127
126
119
131
126
120
128
142
128
131
164
137
133
178
136
117
172
128
109
164
126
116
170
131
119
184
128
94
192
120
62
187
114
44
176
111
51
165
107
64
160
106
79
157
103
85
155
101
85
167
104
72
194
115
51
210
120
36
202
117
35
255
192
80
213
133
63
0
0
0
0
0
0
0
0
0
0
0
0
0
0
0
0
0
0
0
0
0
0
0
0
0
0
0
0
0
0
0
0
0
0
0
0
0
0
0
0
0
0
0
0
0
0
0
0
0
0
0
0
0
0
0
0
0
0
0
0
111
97
86
167
143
128
108
91
80
108
92
79
112
95
79
117
97
80
119
98
82
121
101
87
122
104
91
125
105
91
127
106
92
127
107
94
127
109
95
131
110
100
130
111
108
130
112
113
135
113
115
139
117
121
138
121
124
139
123
130
145
132
144
161
148
163
171
153
159
173
148
151
174
163
179
183
176
200
193
160
159
205
133
84
212
126
40
209
126
35
194
118
39
180
109
46
174
102
50
178
101
46
202
115
28
241
136
1
255
146
0
254
145
0
255
230
9
255
156
10
0
0
0
0
0
0
0
0
0
0
0
0
0
0
0
0
0
0
0
0
0
0
0
0
0
0
0
0
0
0
0
0
0
0
0
0
0
0
0
0
0
0
0
0
0
0
0
0
0
0
0
0
0
0
0
0
0
0
0
0
112
98
88
170
146
126
108
91
78
113
94
74
120
95
72
127
97
71
129
101
73
130
103
79
130
105
84
130
107
85
133
107
83
135
106
78
140
107
73
146
108
72
148
110
77
147
111
85
150
112
89
154
114
94
156
116
96
156
119
101
158
123
114
161
131
129
167
134
127
173
141
139
180
170
189
191
194
228
197
165
172
202
135
100
219
137
69
237
145
51
235
139
20
231
136
2
232
138
0
240
149
0
255
174
0
255
196
0
255
200
0
255
196
0
255
255
0
255
181
0
0
0
0
0
0
0
0
0
0
0
0
0
0
0
0
0
0
0
0
0
0
0
0
0
0
0
0
0
0
0
0
0
0
0
0
0
0
0
0
0
0
0
0
0
0
0
0
0
0
0
0
0
0
0
0
0
0
0
0
0
127
106
82
188
154
119
121
96
66
124
97
63
129
99
62
133
101
65
133
104
65
132
106
69
131
107
72
133
109
74
137
110
76
141
109
74
147
108
67
157
109
65
162
113
62
167
117
60
171
118
63
175
119
70
176
121
74
177
121
75
179
120
75
178
116
68
180
113
63
183
117
79
185
139
121
188
150
143
188
138
124
191
125
102
198
130
102
222
138
86
248
145
38
255
151
0
255
160
0
255
175
0
255
191
0
255
201
0
255
205
0
255
210
0
255
255
0
255
206
0
0
0
0
0
0
0
0
0
0
0
0
0
0
0
0
0
0
0
0
0
0
0
0
0
0
0
0
0
0
0
0
0
0
0
0
0
0
0
0
0
0
0
0
0
0
0
0
0
0
0
0
0
0
0
0
0
0
0
0
0
141
119
89
210
170
123
140
107
68
141
108
62
143
108
59
144
110
55
143
111
52
144
111
52
145
113
50
148
115
52
151
115
59
154
115
65
155
114
70
158
115
72
165
117
69
172
122
65
179
123
64
181
123
67
182
124
67
186
124
64
192
122
52
194
116
36
199
120
46
201
124
66
200
126
70
200
121
65
200
118
63
196
115
75
200
113
78
214
113
68
231
112
37
244
118
9
249
128
0
248
137
0
237
135
0
225
132
5
227
139
10
246
166
6
255
255
3
255
198
3
0
0
0
0
0
0
0
0
0
0
0
0
0
0
0
0
0
0
0
0
0
0
0
0
0
0
0
0
0
0
0
0
0
0
0
0
0
0
0
0
0
0
0
0
0
0
0
0
0
0
0
0
0
0
0
0
0
0
0
0
137
115
86
208
170
122
137
107
70
140
109
66
141
113
60
144
116
59
146
117
58
152
117
58
159
118
53
165
120
48
168
122
50
169
121
58
169
122
60
169
122
63
171
123
64
177
124
60
180
123
58
180
123
58
183
123
58
188
126
54
196
127
52
202
131
59
212
155
105
222
177
153
224
161
123
224
127
49
228
120
24
230
122
19
235
125
11
240
134
0
241
139
0
237
140
3
237
133
0
234
123
0
228
113
0
213
100
5
209
103
8
215
117
5
255
225
3
247
155
3
0
0
0
0
0
0
0
0
0
0
0
0
0
0
0
0
0
0
0
0
0
0
0
0
0
0
0
0
0
0
0
0
0
0
0
0
0
0
0
0
0
0
0
0
0
0
0
0
0
0
0
0
0
0
0
0
0
0
0
0
135
111
73
202
165
107
122
93
50
124
98
50
128
101
51
130
105
55
135
109
62
144
111
66
153
114
63
161
118
57
166
121
56
171
123
57
174
124
57
176
125
53
178
125
50
181
125
48
184
126
47
186
126
48
187
128
49
191
129
49
197
130
53
204
135
73
218
170
143
230
198
194
232
168
140
236
133
54
242
130
10
248
134
0
255
143
0
255
172
0
255
205
0
251
213
29
253
208
32
255
177
0
249
153
0
244
154
0
235
138
0
218
115
0
255
196
0
234
130
0
0
0
0
0
0
0
0
0
0
0
0
0
0
0
0
0
0
0
0
0
0
0
0
0
0
0
0
0
0
0
0
0
0
0
0
0
0
0
0
0
0
0
0
0
0
0
0
0
0
0
0
0
0
0
0
0
0
0
0
0
160
148
106
232
209
142
144
126
79
144
123
74
144
120
69
146
114
65
146
113
61
146
110
60
145
106
55
146
105
49
148
106
49
155
108
51
163
112
49
169
116
47
175
120
43
182
124
41
188
127
42
193
131
43
197
133
42
201
135
40
206
133
38
211
133
46
222
149
82
229
155
101
232
145
67
236
130
15
242
135
0
247
142
0
255
149
0
255
167
0
255
207
0
253
244
62
253
231
46
255
207
1
255
185
0
255
176
0
255
178
3
241
162
8
255
238
8
255
161
2
0
0
0
0
0
0
0
0
0
0
0
0
0
0
0
0
0
0
0
0
0
0
0
0
0
0
0
0
0
0
0
0
0
0
0
0
0
0
0
0
0
0
0
0
0
0
0
0
0
0
0
0
0
0
0
0
0
0
0
0
188
187
136
255
255
187
184
183
132
184
178
125
187
169
112
192
162
100
193
159
92
192
154
86
185
147
77
181
141
70
181
139
66
183
134
64
183
132
62
183
129
58
181
125
50
181
121
42
185
122
39
190
125
39
193
128
36
200
130
30
208
131
19
215
129
10
223
132
11
231
135
11
234
137
0
236
139
0
243
148
0
254
153
0
255
153
0
255
159
0
246
185
0
238
214
9
239
225
29
242
202
0
252
177
0
255
172
0
255
182
1
254
191
19
255
255
19
255
190
4
0
0
0
0
0
0
0
0
0
0
0
0
0
0
0
0
0
0
0
0
0
0
0
0
0
0
0
0
0
0
0
0
0
0
0
0
0
0
0
0
0
0
0
0
0
0
0
0
0
0
0
0
0
0
0
0
0
0
0
0
192
179
102
255
255
152
197
186
103
200
189
104
208
190
101
217
191
98
224
193
97
229
194
96
232
194
92
236
194
86
240
193
79
242
189
71
243
185
64
241
181
59
235
169
46
233
162
30
238
160
21
240
159
12
241
157
7
242
155
0
246
153
0
253
154
0
255
155
0
255
156
0
255
160
0
255
166
0
255
176
0
255
190
0
251
204
0
239
221
0
233
254
33
233
255
107
231
255
91
236
248
37
243
221
0
255
209
0
255
210
4
255
212
12
255
255
16
255
213
8
0
0
0
0
0
0
0
0
0
0
0
0
0
0
0
0
0
0
0
0
0
0
0
0
0
0
0
0
0
0
0
0
0
0
0
0
0
0
0
0
0
0
0
0
0
0
0
0
0
0
0
0
0
0
0
0
0
0
0
0
176
146
76
255
216
113
188
154
68
195
161
72
208
171
77
219
181
82
229
190
86
240
197
89
249
204
89
255
208
87
255
209
81
255
209
73
255
210
66
255
207
59
255
204
52
255
203
44
255
203
31
255
204
20
255
200
10
255
190
0
255
184
0
255
180
0
255
175
0
255
174
0
255
179
0
255
189
0
255
203
0
255
225
0
255
254
0
255
255
0
255
255
87
255
255
168
255
255
131
255
255
29
255
254
0
255
232
0
255
219
0
255
214
0
255
255
0
255
208
0
0
0
0
0
0
0
0
0
0
0
0
0
0
0
0
0
0
0
0
0
0
0
0
0
0
0
0
0
0
0
0
0
0
0
0
0
0
0
0
0
0
0
0
0
0
0
0
0
0
0
0
0
0
0
0
0
0
0
0
0
108
85
63
160
128
90
98
73
47
97
71
42
102
73
39
103
75
36
103
75
32
109
79
31
120
86
31
125
90
29
129
92
28
141
101
35
152
110
41
161
117
46
166
118
42
174
122
41
180
125
37
185
125
32
190
128
34
195
128
32
201
130
26
208
130
20
215
127
18
222
125
13
231
127
3
244
131
0
252
135
0
251
145
0
243
160
0
235
185
0
235
231
41
238
255
95
235
210
50
238
169
0
239
149
0
236
141
0
217
131
0
200
127
0
255
206
28
214
140
23
0
0
0
0
0
0
0
0
0
0
0
0
0
0
0
0
0
0
0
0
0
0
0
0
0
0
0
0
0
0
0
0
0
0
0
0
0
0
0
0
0
0
0
0
0
0
0
0
0
0
0
0
0
0
0
0
0
0
0
0
35
30
38
83
70
77
27
23
36
23
16
29
23
13
25
10
3
17
0
0
5
0
0
11
11
5
18
18
11
22
16
10
23
24
19
38
43
38
61
47
39
61
51
40
61
51
42
63
44
36
58
38
32
57
39
34
64
45
40
73
56
49
75
62
55
77
64
55
78
65
55
78
70
57
76
73
49
64
79
42
57
79
34
54
82
28
42
92
31
24
107
53
28
120
60
22
111
43
14
106
25
8
122
38
22
118
44
32
99
42
38
83
42
43
184
117
77
115
75
62
0
0
0
0
0
0
0
0
0
0
0
0
0
0
0
0
0
0
0
0
0
0
0
0
0
0
0
0
0
0
0
0
0
0
0
0
0
0
0
0
0
0
0
0
0
0
0
0
0
0
0
0
0
0
0
0
0
0
0
0
57
54
64
96
89
99
59
57
65
59
56
63
56
51
58
48
45
55
36
36
54
39
39
62
50
47
71
55
53
73
54
50
69
61
57
80
65
63
89
63
64
90
60
62
87
65
66
92
64
62
90
63
62
85
66
63
86
69
63
83
77
69
84
88
78
88
92
83
95
97
86
99
94
85
102
96
83
99
92
71
86
97
63
77
118
64
70
138
63
60
159
72
52
163
75
43
161
78
44
146
71
45
133
73
49
135
83
60
136
88
62
128
87
62
225
156
97
152
107
72
0
0
0
0
0
0
0
0
0
0
0
0
0
0
0
0
0
0
0
0
0
0
0
0
0
0
0
0
0
0
0
0
0
0
0
0
0
0
0
0
0
0
0
0
0
0
0
0
0
0
0
0
0
0
0
0
0
0
0
0
118
108
113
185
167
166
146
131
125
151
135
128
153
136
127
156
136
126
162
141
135
168
146
144
166
144
141
160
140
132
156
133
122
153
129
118
142
121
113
123
108
103
112
99
97
117
104
107
127
108
104
143
116
101
145
118
97
139
110
89
138
108
83
149
116
86
164
122
82
176
128
85
188
137
91
195
138
86
209
139
74
228
146
68
242
151
60
255
159
53
255
163
44
255
172
40
255
162
31
247
152
29
232
145
43
225
143
52
225
147
61
225
148
62
255
212
104
218
149
70
0
0
0
0
0
0
0
0
0
0
0
0
0
0
0
0
0
0
0
0
0
0
0
0
0
0
0
0
0
0
0
0
0
0
0
0
0
0
0
0
0
0
0
0
0
0
0
0
0
0
0
0
0
0
0
0
0
0
0
0
118
109
113
170
155
156
117
104
103
110
99
97
106
95
93
116
102
97
131
110
100
140
114
103
138
113
99
138
114
98
137
110
91
140
109
89
136
105
89
128
100
85
120
95
85
135
105
94
144
110
91
153
113
85
155
115
85
147
110
83
138
108
86
143
110
84
142
106
79
141
105
78
148
112
85
156
113
84
164
114
79
172
117
74
190
130
79
205
142
84
217
150
78
219
151
77
228
155
78
230
154
75
214
146
75
208
147
93
206
148
105
197
145
107
255
201
144
186
139
102
0
0
2
0
0
0
0
0
0
0
0
0
0
0
0
0
0
0
0
0
0
0
0
0
0
0
0
0
0
0
0
0
0
0
0
0
0
0
0
0
0
0
0
0
0
0
0
0
0
0
0
0
0
0
0
0
0
0
0
0
108
96
93
154
133
127
102
85
75
92
75
64
92
76
63
105
84
65
118
92
69
125
94
68
128
94
68
131
99
74
136
100
73
148
107
78
150
108
81
138
100
75
137
100
76
146
106
81
158
111
80
164
115
78
171
120
81
171
122
81
167
120
82
162
118
84
149
110
85
126
96
83
118
91
83
110
85
81
92
71
72
77
62
67
63
54
66
57
51
66
58
53
68
61
58
78
74
70
90
76
69
87
74
66
74
71
66
81
80
77
97
72
72
94
155
129
129
102
87
90
0
0
0
0
0
0
0
0
0
0
0
0
0
0
0
0
0
0
0
0
0
0
0
0
0
0
0
0
0
0
0
0
0
0
0
0
0
0
0
0
0
0
0
0
0
0
0
0
0
0
0
0
0
0
0
0
0
0
0
0
57
49
42
88
76
66
43
35
25
37
30
20
41
32
21
51
41
26
60
47
28
64
48
30
58
41
26
60
43
28
74
54
36
84
62
44
87
64
48
88
66
51
89
67
52
101
74
54
111
78
52
122
84
52
127
86
49
129
86
45
132
86
44
137
90
48
127
85
52
132
90
60
133
91
60
140
94
61
133
85
49
115
71
36
98
57
28
71
42
25
43
24
13
37
28
25
53
44
50
55
43
45
40
23
20
44
29
30
53
43
48
69
58
59
146
104
78
105
72
52
0
0
0
0
0
0
0
0
0
0
0
0
0
0
0
0
0
0
0
0
0
0
0
0
0
0
0
0
0
0
0
0
0
0
0
0
0
0
0
0
0
0
0
0
0
0
0
0
0
0
0
0
0
0
0
0
0
0
0
0
15
17
14
37
33
26
7
7
3
10
9
6
9
11
6
12
13
8
12
14
9
5
6
3
0
0
0
0
0
0
0
0
0
0
1
1
4
6
8
16
16
16
26
22
20
36
28
23
31
23
17
29
22
17
33
28
25
35
27
26
16
10
10
14
8
7
23
14
12
34
19
14
67
41
29
79
48
30
73
42
20
83
42
12
104
51
15
100
48
13
81
35
4
99
49
10
128
69
18
142
75
12
149
73
3
150
76
12
171
97
34
171
102
36
242
149
65
168
100
40
0
0
0
0
0
0
0
0
0
0
0
0
0
0
0
0
0
0
0
0
0
0
0
0
0
0
0
0
0
0
0
0
0
0
0
0
0
0
0
0
0
0
0
0
0
0
0
0
0
0
0
0
0
0
0
0
0
0
0
0
36
32
27
65
54
43
38
27
19
42
30
19
40
29
17
38
28
17
43
30
20
35
23
17
21
12
6
27
18
10
36
23
14
40
25
19
45
31
25
58
44
35
63
49
42
60
48
42
53
43
39
51
44
43
59
55
57
56
51
56
46
41
45
22
21
24
26
23
22
43
29
24
55
34
24
46
28
21
31
15
5
54
27
6
103
57
23
113
62
27
116
62
24
137
76
28
173
98
28
185
103
20
195
111
25
190
106
29
167
92
22
154
85
16
185
107
36
116
68
27
0
0
0
0
0
0
0
0
0
0
0
0
0
0
0
0
0
0
0
0
0
0
0
0
0
0
0
0
0
0
0
0
0
0
0
0
0
0
0
0
0
0
0
0
0
0
0
0
0
0
0
0
0
0
0
0
0
0
0
0
82
69
57
123
100
85
111
88
73
119
93
76
115
87
67
109
85
67
112
90
75
108
82
70
109
84
72
121
94
81
129
100
86
128
99
87
120
96
87
103
84
77
90
76
72
83
74
71
87
74
75
98
83
84
101
89
88
109
95
95
100
86
85
92
83
83
86
76
74
87
73
70
76
64
66
68
61
67
56
53
61
61
54
57
65
55
62
54
50
64
27
31
54
30
39
64
46
48
67
53
55
68
62
61
71
52
58
77
13
24
46
0
0
18
57
48
53
27
25
34
0
0
0
0
0
0
0
0
0
0
0
0
0
0
0
0
0
0
0
0
0
0
0
0
0
0
0
0
0
0
0
0
0
0
0
0
0
0
0
0
0
0
0
0
0
0
0
0
0
0
0
0
0
0
0
0
0
0
0
0
56
50
48
102
89
89
73
65
67
80
71
71
77
66
67
60
54
55
66
63
63
83
76
78
96
84
86
116
100
98
129
111
111
120
105
107
108
95
96
86
75
76
76
65
64
96
80
78
109
87
82
119
95
90
116
93
84
106
84
79
110
91
88
130
110
106
135
112
105
126
102
96
121
100
95
121
103
100
132
113
108
133
110
102
123
104
103
104
91
98
95
85
95
80
73
83
69
70
92
54
60
87
61
71
99
56
68
100
38
49
79
26
34
58
109
91
95
87
74
80
0
0
0
0
0
0
0
0
0
0
0
0
0
0
0
0
0
0
0
0
0
0
0
0
0
0
0
0
0
0
0
0
0
0
0
0
0
0
0
0
0
0
0
0
0
0
0
0
0
0
0
0
0
0
0
0
0
0
0
0
68
60
62
95
83
86
54
51
57
67
61
67
65
58
64
67
60
63
69
62
60
83
73
73
92
79
80
102
87
85
103
86
82
105
84
78
98
76
65
99
70
52
93
63
46
115
82
62
139
101
82
146
104
83
135
94
71
117
79
56
122
85
69
137
105
93
155
118
103
151
110
91
140
99
77
139
99
80
154
110
84
166
116
80
168
118
85
178
127
89
198
133
68
203
130
49
181
116
55
165
109
59
157
100
50
170
110
61
172
111
68
171
110
60
253
174
114
170
122
89
0
4
6
0
0
0
0
0
0
0
0
0
0
0
0
0
0
0
0
0
0
0
0
0
0
0
0
0
0
0
0
0
0
0
0
0
0
0
0
0
0
0
0
0
0
0
0
0
0
0
0
0
0
0
0
0
0
0
0
0
105
86
77
147
122
107
96
78
65
99
79
70
112
88
77
114
86
70
127
92
72
125
90
71
115
83
67
108
78
59
107
75
54
112
75
54
131
87
60
143
95
64
137
94
64
147
102
73
162
112
80
162
111
81
161
108
74
144
88
50
143
88
53
138
88
60
149
101
72
156
101
64
151
84
37
154
88
42
182
115
62
201
129
70
203
129
67
220
140
65
238
141
32
244
144
27
236
139
29
218
123
19
222
123
12
210
118
25
201
111
26
201
111
24
255
168
73
185
118
58
0
0
0
0
0
0
0
0
0
0
0
0
0
0
0
0
0
0
0
0
0
0
0
0
0
0
0
0
0
0
0
0
0
0
0
0
0
0
0
0
0
0
0
0
0
0
0
0
0
0
0
0
0
0
0
0
0
0
0
0
119
98
88
165
136
120
121
99
85
120
97
84
121
96
83
118
91
74
122
93
74
122
90
73
112
83
66
98
73
54
91
71
57
95
73
61
113
87
74
114
88
75
110
86
75
108
85
73
113
85
68
128
95
80
123
88
70
124
85
63
106
63
36
113
74
52
121
86
67
122
83
63
118
72
43
136
84
51
168
123
93
170
123
87
157
108
75
160
108
67
170
112
57
175
112
46
171
112
53
175
109
39
185
118
48
178
118
59
162
101
47
154
89
32
242
157
89
156
99
53
0
0
0
0
0
0
0
0
0
0
0
0
0
0
0
0
0
0
0
0
0
0
0
0
0
0
0
0
0
0
0
0
0
0
0
0
0
0
0
0
0
0
0
0
0
0
0
0
0
0
0
0
0
0
0
0
0
0
0
0
88
74
69
139
116
105
98
79
70
106
85
75
94
72
59
83
62
48
75
55
41
88
63
49
103
73
57
103
75
58
75
55
44
72
56
51
91
73
66
97
77
70
79
64
62
80
65
59
100
83
77
120
96
89
123
97
90
103
77
65
92
62
43
88
57
38
112
84
70
124
93
81
121
85
72
128
92
77
155
120
102
155
119
101
127
87
70
126
89
78
138
99
81
141
99
76
143
97
73
137
94
70
138
97
74
142
104
83
138
96
75
129
88
68
215
152
121
161
125
112
0
0
0
0
0
0
0
0
0
0
0
0
0
0
0
0
0
0
0
0
0
0
0
0
0
0
0
0
0
0
0
0
0
0
0
0
0
0
0
0
0
0
0
0
0
0
0
0
0
0
0
0
0
0
0
0
0
0
0
0
64
52
48
102
82
75
78
63
57
81
62
57
78
58
49
54
37
30
41
30
23
58
43
33
87
64
51
77
54
41
62
43
34
67
47
40
83
64
54
92
67
53
72
46
33
63
41
32
86
62
52
130
99
91
143
111
103
101
73
59
74
45
27
78
47
31
116
85
72
142
112
104
123
95
89
126
99
95
153
123
114
147
112
100
124
84
70
102
67
58
117
84
74
138
99
85
145
102
87
123
85
74
126
88
78
130
96
88
129
92
77
127
90
78
230
177
157
157
125
114
0
0
6
0
0
0
0
0
0
0
0
0
0
0
0
0
0
0
0
0
0
0
0
0
0
0
0
0
0
0
0
0
0
0
0
0
0
0
0
0
0
0
0
0
0
0
0
0
0
0
0
0
0
0
0
0
0
0
0
0
64
52
47
110
90
83
101
82
79
111
89
83
104
81
75
90
69
64
76
59
55
82
65
59
99
78
69
108
84
74
110
85
80
123
99
92
141
113
105
144
110
97
120
84
69
85
54
40
94
64
52
122
89
77
103
70
58
81
49
32
78
45
26
127
91
78
155
121
110
148
116
104
126
96
88
120
93
87
147
114
103
149
112
98
127
84
66
99
59
38
102
65
45
140
97
74
149
101
76
122
74
48
135
86
58
148
101
74
143
97
71
134
87
60
218
150
116
159
113
90
0
0
0
0
0
0
0
0
0
0
0
0
0
0
0
0
0
0
0
0
0
0
0
0
0
0
0
0
0
0
0
0
0
0
0
0
0
0
0
0
0
0
0
0
0
0
0
0
0
0
0
0
0
0
0
0
0
0
0
0
56
47
45
94
78
74
91
76
74
110
91
89
105
86
81
97
78
75
94
76
73
95
78
74
100
82
77
102
81
77
113
91
87
124
101
98
126
106
104
141
114
111
138
107
99
133
105
97
124
99
93
95
73
65
80
59
50
90
66
57
129
100
93
143
117
113
121
98
94
104
79
71
89
65
58
90
66
60
109
85
81
134
100
88
114
80
68
76
43
28
86
52
35
112
80
67
111
73
58
105
64
44
118
75
55
139
95
72
132
83
57
119
70
42
205
133
96
154
106
80
0
0
0
0
0
0
0
0
0
0
0
0
0
0
0
0
0
0
0
0
0
0
0
0
0
0
0
0
0
0
0
0
0
0
0
0
0
0
0
0
0
0
0
0
0
0
0
0
0
0
0
0
0
0
0
0
0
0
0
0
33
28
25
51
42
36
43
35
32
50
41
37
52
42
38
50
38
34
55
42
37
64
49
42
59
43
35
56
39
30
63
43
37
60
43
35
43
30
24
89
71
68
175
144
140
208
174
169
153
127
123
148
125
124
138
119
118
164
141
142
167
139
140
133
106
102
83
60
52
68
44
34
55
31
20
62
38
30
69
43
35
83
56
48
114
83
72
81
53
42
81
54
43
117
84
73
123
93
83
94
62
50
117
83
69
121
83
69
93
56
40
55
21
6
151
94
68
123
82
63
0
0
0
0
0
0
0
0
0
0
0
0
0
0
0
0
0
0
0
0
0
0
0
0
0
0
0
0
0
0
0
0
0
0
0
0
0
0
0
0
0
0
0
0
0
0
0
0
0
0
0
0
0
0
0
0
0
0
0
0
9
8
5
17
13
8
5
1
0
9
4
1
8
2
0
6
1
0
10
5
1
15
9
1
15
7
0
12
4
0
11
2
0
7
0
0
0
0
0
29
15
9
136
108
105
164
133
127
145
118
114
112
92
91
106
86
84
117
94
90
145
113
106
155
118
107
141
103
89
130
91
77
132
95
82
131
95
83
117
81
68
119
81
69
127
93
84
142
112
106
153
121
113
174
138
131
171
134
127
135
104
95
144
109
102
156
116
107
109
73
61
69
38
25
147
91
69
120
76
58
0
0
0
0
0
0
0
0
0
0
0
0
0
0
0
0
0
0
0
0
0
0
0
0
0
0
0
0
0
0
0
0
0
0
0
0
0
0
0
0
0
0
0
0
0
0
0
0
0
0
0
0
0
0
0
0
0
0
0
0
9
8
9
22
19
17
22
17
14
28
20
16
28
18
16
26
16
15
24
16
13
23
15
10
20
13
10
21
15
10
25
17
10
26
15
6
11
0
0
23
11
3
54
38
32
85
65
61
46
31
26
23
10
4
8
0
0
19
6
0
49
31
22
106
79
71
148
113
103
160
121
111
163
123
116
183
141
133
169
129
120
141
103
93
134
98
90
130
97
91
152
125
122
188
153
148
201
162
156
184
149
144
186
152
146
193
157
152
179
144
138
152
119
111
198
145
127
151
112
99
0
0
3
0
0
0
0
0
0
0
0
0
0
0
0
0
0
0
0
0
0
0
0
0
0
0
0
0
0
0
0
0
0
0
0
0
0
0
0
0
0
0
0
0
0
0
0
0
0
0
0
0
0
0
0
0
0
0
0
0
16
10
9
28
19
18
28
20
18
31
23
19
34
24
20
35
24
20
35
24
21
37
23
21
36
23
21
38
26
23
40
28
23
41
26
20
30
15
9
19
7
0
20
7
1
15
3
0
6
0
0
1
0
0
3
0
0
8
0
0
12
0
0
35
18
8
56
35
24
81
55
42
104
71
59
123
86
74
129
92
79
108
73
58
84
48
32
67
29
13
71
38
23
106
74
64
152
110
99
154
112
98
139
102
90
152
115
102
162
123
109
155
114
99
191
137
116
119
84
70
6
5
4
0
0
0
0
0
0
0
0
0
0
0
0
0
0
0
0
0
0
0
0
0
0
0
0
0
0
0
0
0
0
0
0
0
0
0
0
0
0
0
0
0
0
0
0
0
0
0
0
0
0
0
0
0
0
0
0
0
10
5
2
16
8
7
13
8
8
14
11
10
14
11
9
15
12
8
19
14
10
23
14
12
26
14
13
26
17
14
27
18
15
27
17
15
25
14
13
23
13
11
24
15
10
24
14
11
22
13
8
22
14
9
25
14
11
21
12
6
10
2
0
2
0
0
0
0
0
0
0
0
0
0
0
12
0
0
11
0
0
7
0
0
0
0
0
0
0
0
0
0
0
8
0
0
21
3
0
22
2
0
19
2
0
21
4
0
25
7
0
29
9
0
55
27
12
35
14
2
0
0
0
0
0
0
0
0
0
0
0
0
0
0
0
0
0
0
0
0
0
0
0
0
0
0
0
0
0
0
0
0
0
0
0
0
0
0
0
0
0
0
0
0
0
0
0
0
0
0
0
0
0
0
0
0
0
0
0
0
