P3
60 40
255
87
87
87
92
92
92
95
95
95
99
99
99
102
102
102
107
107
107
113
113
113
113
113
113
110
110
110
111
111
111
114
114
114
120
120
120
123
123
123
128
128
128
135
135
135
133
133
133
129
129
129
129
129
129
119
119
119
122
122
122
121
121
121
117
117
117
118
118
118
123
123
123
132
132
132
135
135
135
131
131
131
127
127
127
125
125
125
122
122
122
122
122
122
123
123
123
124
124
124
124
124
124
126
126
126
131
131
131
137
137
137
146
146
146
142
142
142
133
133
133
128
128
128
124
124
124
119
119
119
118
118
118
116
116
116
120
120
120
124
124
124
119
119
119
114
114
114
108
108
108
101
101
101
104
104
104
105
105
105
105
105
105
104
104
104
102
102
102
96
96
96
90
90
90
85
85
85
82
82
82
89
89
89
94
94
94
97
97
97
100
100
100
102
102
102
106
106
106
115
115
115
124
124
124
122
122
122
124
124
124
122
122
122
123
123
123
125
125
125
125
125
125
126
126
126
131
131
131
134
134
134
129
129
129
123
123
123
126
126
126
129
129
129
128
128
128
125
125
125
132
132
132
141
141
141
145
145
145
138
138
138
133
133
133
132
132
132
131
131
131
130
130
130
131
131
131
134
134
134
134
134
134
137
137
137
146
146
146
152
152
152
153
153
153
143
143
143
136
136
136
131
131
131
127
127
127
126
126
126
125
125
125
124
124
124
121
121
121
116
116
116
113
113
113
112
112
112
113
113
113
114
114
114
118
118
118
117
117
117
117
117
117
116
116
116
110
110
110
102
102
102
98
98
98
98
98
98
102
102
102
88
88
88
94
94
94
98
98
98
99
99
99
100
100
100
104
104
104
110
110
110
121
121
121
125
125
125
126
126
126
126
126
126
123
123
123
126
126
126
129
129
129
130
130
130
132
132
132
134
134
134
129
129
129
124
124
124
125
125
125
131
131
131
138
138
138
136
136
136
147
147
147
154
154
154
162
162
162
158
158
158
151
151
151
145
145
145
141
141
141
139
139
139
139
139
139
142
142
142
148
148
148
152
152
152
159
159
159
164
164
164
156
156
156
147
147
147
137
137
137
135
135
135
134
134
134
132
132
132
131
131
131
130
130
130
127
127
127
127
127
127
126
126
126
125
125
125
129
129
129
135
135
135
138
138
138
131
131
131
128
128
128
123
123
123
118
118
118
117
117
117
123
123
123
137
137
137
147
147
147
87
87
87
92
92
92
95
95
95
96
96
96
98
98
98
100
100
100
100
100
100
105
105
105
111
111
111
118
118
118
121
121
121
119
119
119
120
120
120
121
121
121
118
118
118
121
121
121
126
126
126
129
129
129
131
131
131
131
131
131
136
136
136
146
146
146
148
148
148
156
156
156
160
160
160
173
173
173
177
177
177
173
173
173
162
162
162
154
154
154
151
151
151
150
150
150
150
150
150
152
152
152
156
156
156
159
159
159
163
163
163
156
156
156
147
147
147
140
140
140
137
137
137
137
137
137
137
137
137
138
138
138
138
138
138
138
138
138
134
134
134
134
134
134
138
138
138
144
144
144
149
149
149
141
141
141
134
134
134
132
132
132
134
134
134
137
137
137
150
150
150
167
167
167
173
173
173
177
177
177
87
87
87
92
92
92
98
98
98
102
102
102
104
104
104
106
106
106
105
105
105
105
105
105
104
104
104
111
111
111
113
113
113
113
113
113
113
113
113
114
114
114
114
114
114
118
118
118
121
121
121
126
126
126
131
131
131
139
139
139
145
145
145
155
155
155
157
157
157
157
157
157
160
160
160
172
172
172
181
181
181
177
177
177
165
165
165
158
158
158
158
158
158
157
157
157
157
157
157
157
157
157
159
159
159
163
163
163
167
167
167
163
163
163
156
156
156
151
151
151
145
145
145
141
141
141
141
141
141
143
143
143
143
143
143
141
141
141
143
143
143
154
154
154
162
162
162
160
160
160
155
155
155
142
142
142
135
135
135
137
137
137
145
145
145
156
156
156
167
167
167
175
175
175
176
176
176
167
167
167
86
86
86
93
93
93
99
99
99
104
104
104
109
109
109
111
111
111
112
112
112
111
111
111
112
112
112
111
111
111
113
113
113
115
115
115
119
119
119
122
122
122
124
124
124
125
125
125
126
126
126
129
129
129
130
130
130
136
136
136
148
148
148
160
160
160
165
165
165
166
166
166
165
165
165
173
173
173
181
181
181
181
181
181
175
175
175
169
169
169
167
167
167
166
166
166
167
167
167
169
169
169
171
171
171
174
174
174
182
182
182
178
178
178
171
171
171
164
164
164
159
159
159
152
152
152
148
148
148
148
148
148
145
145
145
144
144
144
149
149
149
160
160
160
163
163
163
150
150
150
142
142
142
138
138
138
138
138
138
140
140
140
147
147
147
154
154
154
162
162
162
160
160
160
147
147
147
121
121
121
95
95
95
101
101
101
102
102
102
102
102
102
107
107
107
109
109
109
110
110
110
113
113
113
115
115
115
118
118
118
121
121
121
122
122
122
124
124
124
127
127
127
128
128
128
130
130
130
133
133
133
135
135
135
137
137
137
139
139
139
148
148
148
161
161
161
170
170
170
171
171
171
170
170
170
173
173
173
183
183
183
188
188
188
188
188
188
182
182
182
178
178
178
176
176
176
176
176
176
177
177
177
183
183
183
196
196
196
206
206
206
199
199
199
193
193
193
193
193
193
186
186
186
173
173
173
164
164
164
159
159
159
160
160
160
160
160
160
154
154
154
147
147
147
147
147
147
150
150
150
161
161
161
171
171
171
163
163
163
156
156
156
148
148
148
148
148
148
138
138
138
126
126
126
117
117
117
107
107
107
101
101
101
106
106
106
109
109
109
111
111
111
115
115
115
118
118
118
121
121
121
122
122
122
123
123
123
125
125
125
128
128
128
129
129
129
130
130
130
134
134
134
134
134
134
135
135
135
141
141
141
143
143
143
145
145
145
149
149
149
153
153
153
164
164
164
171
171
171
174
174
174
178
178
178
183
183
183
190
190
190
195
195
195
201
201
201
198
198
198
194
194
194
190
190
190
190
190
190
192
192
192
203
203
203
227
227
227
234
234
234
232
232
232
237
237
237
231
231
231
210
210
210
195
195
195
187
187
187
176
176
176
176
176
176
166
166
166
155
155
155
153
153
153
162
162
162
179
179
179
189
189
189
171
171
171
151
151
151
147
147
147
142
142
142
136
136
136
129
129
129
125
125
125
121
121
121
115
115
115
104
104
104
109
109
109
113
113
113
117
117
117
122
122
122
126
126
126
128
128
128
129
129
129
131
131
131
131
131
131
134
134
134
136
136
136
140
140
140
144
144
144
148
148
148
148
148
148
151
151
151
155
155
155
158
158
158
161
161
161
165
165
165
168
168
168
173
173
173
178
178
178
184
184
184
192
192
192
198
198
198
199
199
199
214
214
214
224
224
224
220
220
220
217
217
217
220
220
220
227
227
227
239
239
239
250
250
250
252
252
252
254
254
254
253
253
253
247
247
247
237
237
237
233
233
233
222
222
222
192
192
192
174
174
174
168
168
168
168
168
168
176
176
176
188
188
188
185
185
185
172
172
172
159
159
159
160
160
160
156
156
156
147
147
147
138
138
138
135
135
135
132
132
132
129
129
129
128
128
128
115
115
115
116
116
116
119
119
119
122
122
122
126
126
126
129
129
129
132
132
132
133
133
133
135
135
135
137
137
137
141
141
141
144
144
144
149
149
149
155
155
155
158
158
158
161
161
161
164
164
164
168
168
168
170
170
170
173
173
173
176
176
176
178
178
178
182
182
182
187
187
187
191
191
191
194
194
194
197
197
197
200
200
200
203
203
203
215
215
215
235
235
235
242
242
242
245
245
245
249
249
249
250
250
250
254
254
254
254
254
254
254
254
254
254
254
254
252
252
252
247
247
247
242
242
242
214
214
214
186
186
186
177
177
177
178
178
178
183
183
183
189
189
189
189
189
189
194
194
194
185
185
185
168
168
168
167
167
167
159
159
159
151
151
151
147
147
147
142
142
142
141
141
141
139
139
139
135
135
135
125
125
125
131
131
131
134
134
134
136
136
136
139
139
139
140
140
140
141
141
141
142
142
142
143
143
143
146
146
146
149
149
149
152
152
152
154
154
154
157
157
157
164
164
164
169
169
169
175
175
175
178
178
178
179
179
179
184
184
184
189
189
189
194
194
194
198
198
198
201
201
201
201
201
201
204
204
204
208
208
208
208
208
208
214
214
214
219
219
219
228
228
228
236
236
236
239
239
239
242
242
242
234
234
234
231
231
231
232
232
232
246
246
246
253
253
253
252
252
252
232
232
232
201
201
201
190
190
190
189
189
189
189
189
189
192
192
192
196
196
196
202
202
202
213
213
213
198
198
198
182
182
182
171
171
171
167
167
167
162
162
162
159
159
159
157
157
157
153
153
153
148
148
148
141
141
141
134
134
134
124
124
124
130
130
130
135
135
135
137
137
137
139
139
139
142
142
142
145
145
145
150
150
150
155
155
155
159
159
159
162
162
162
164
164
164
167
167
167
167
167
167
169
169
169
174
174
174
176
176
176
178
178
178
182
182
182
188
188
188
192
192
192
198
198
198
202
202
202
214
214
214
217
217
217
220
220
220
224
224
224
227
227
227
233
233
233
237
237
237
239
239
239
240
240
240
239
239
239
239
239
239
239
239
239
232
232
232
226
226
226
229
229
229
229
229
229
224
224
224
212
212
212
203
203
203
204
204
204
207
207
207
204
204
204
206
206
206
208
208
208
212
212
212
202
202
202
194
194
194
185
185
185
180
180
180
172
172
172
164
164
164
161
161
161
158
158
158
157
157
157
157
157
157
157
157
157
154
154
154
128
128
128
131
131
131
134
134
134
137
137
137
141
141
141
142
142
142
146
146
146
150
150
150
156
156
156
161
161
161
165
165
165
168
168
168
172
172
172
175
175
175
179
179
179
182
182
182
186
186
186
189
189
189
190
190
190
194
194
194
200
200
200
207
207
207
215
215
215
225
225
225
223
223
223
228
228
228
234
234
234
239
239
239
242
242
242
250
250
250
248
248
248
245
245
245
247
247
247
250
250
250
243
243
243
244
244
244
241
241
241
231
231
231
224
224
224
220
220
220
218
218
218
222
222
222
225
225
225
231
231
231
240
240
240
244
244
244
242
242
242
233
233
233
216
216
216
199
199
199
193
193
193
193
193
193
192
192
192
198
198
198
190
190
190
181
181
181
167
167
167
158
158
158
153
153
153
148
148
148
144
144
144
144
144
144
145
145
145
147
147
147
149
149
149
152
152
152
155
155
155
157
157
157
160
160
160
162
162
162
165
165
165
169
169
169
174
174
174
177
177
177
181
181
181
184
184
184
188
188
188
193
193
193
198
198
198
202
202
202
206
206
206
211
211
211
218
218
218
224
224
224
229
229
229
235
235
235
239
239
239
239
239
239
246
246
246
251
251
251
248
248
248
247
247
247
246
246
246
248
248
248
248
248
248
250
250
250
248
248
248
238
238
238
235
235
235
233
233
233
233
233
233
239
239
239
236
236
236
239
239
239
238
238
238
230
230
230
226
226
226
222
222
222
215
215
215
204
204
204
194
194
194
190
190
190
185
185
185
177
177
177
174
174
174
170
170
170
167
167
167
164
164
164
158
158
158
152
152
152
158
158
158
162
162
162
165
165
165
166
166
166
169
169
169
173
173
173
175
175
175
176
176
176
173
173
173
172
172
172
176
176
176
179
179
179
182
182
182
185
185
185
188
188
188
192
192
192
196
196
196
200
200
200
202
202
202
208
208
208
214
214
214
220
220
220
225
225
225
231
231
231
236
236
236
236
236
236
240
240
240
248
248
248
252
252
252
249
249
249
245
245
245
241
241
241
241
241
241
242
242
242
247
247
247
250
250
250
248
248
248
245
245
245
243
243
243
241
241
241
243
243
243
238
238
238
230
230
230
226
226
226
223
223
223
220
220
220
210
210
210
208
208
208
204
204
204
204
204
204
199
199
199
195
195
195
192
192
192
186
186
186
180
180
180
173
173
173
170
170
170
165
165
165
162
162
162
157
157
157
158
158
158
161
161
161
166
166
166
168
168
168
175
175
175
181
181
181
187
187
187
192
192
192
197
197
197
201
201
201
204
204
204
205
205
205
206
206
206
206
206
206
202
202
202
202
202
202
204
204
204
207
207
207
210
210
210
215
215
215
219
219
219
226
226
226
233
233
233
237
237
237
240
240
240
242
242
242
249
249
249
249
249
249
246
246
246
240
240
240
237
237
237
237
237
237
236
236
236
240
240
240
242
242
242
247
247
247
249
249
249
250
250
250
244
244
244
241
241
241
241
241
241
237
237
237
234
234
234
239
239
239
237
237
237
225
225
225
218
218
218
216
216
216
207
207
207
198
198
198
192
192
192
192
192
192
188
188
188
186
186
186
180
180
180
173
173
173
170
170
170
169
169
169
169
169
169
159
159
159
140
140
140
144
144
144
148
148
148
152
152
152
158
158
158
163
163
163
168
168
168
174
174
174
180
180
180
185
185
185
192
192
192
199
199
199
204
204
204
209
209
209
214
214
214
219
219
219
224
224
224
232
232
232
231
231
231
230
230
230
233
233
233
236
236
236
240
240
240
245
245
245
247
247
247
251
251
251
251
251
251
246
246
246
240
240
240
236
236
236
237
237
237
249
249
249
245
245
245
234
234
234
240
240
240
243
243
243
247
247
247
246
246
246
244
244
244
239
239
239
237
237
237
238
238
238
226
226
226
215
215
215
204
204
204
194
194
194
185
185
185
180
180
180
182
182
182
177
177
177
173
173
173
173
173
173
170
170
170
167
167
167
161
161
161
158
158
158
157
157
157
152
152
152
145
145
145
139
139
139
112
112
112
116
116
116
120
120
120
124
124
124
129
129
129
133
133
133
136
136
136
141
141
141
145
145
145
148
148
148
152
152
152
156
156
156
160
160
160
164
164
164
168
168
168
174
174
174
177
177
177
182
182
182
184
184
184
189
189
189
193
193
193
199
199
199
206
206
206
213
213
213
222
222
222
232
232
232
240
240
240
243
243
243
244
244
244
238
238
238
235
235
235
235
235
235
237
237
237
241
241
241
239
239
239
233
233
233
224
224
224
216
216
216
210
210
210
206
206
206
201
201
201
197
197
197
191
191
191
186
186
186
179
179
179
173
173
173
168
168
168
164
164
164
160
160
160
158
158
158
155
155
155
152
152
152
148
148
148
145
145
145
141
141
141
135
135
135
130
130
130
126
126
126
120
120
120
116
116
116
49
49
49
64
64
64
62
62
62
57
57
57
60
60
60
56
56
56
46
46
46
54
54
54
62
62
62
68
68
68
70
70
70
73
73
73
92
92
92
90
90
90
92
92
92
93
93
93
89
89
89
91
91
91
95
95
95
102
102
102
111
111
111
116
116
116
119
119
119
121
121
121
123
123
123
124
124
124
131
131
131
130
130
130
133
133
133
139
139
139
150
150
150
159
159
159
149
149
149
142
142
142
159
159
159
153
153
153
137
137
137
129
129
129
121
121
121
123
123
123
122
122
122
123
123
123
122
122
122
125
125
125
127
127
127
127
127
127
131
131
131
124
124
124
120
120
120
115
115
115
114
114
114
111
111
111
110
110
110
107
107
107
109
109
109
105
105
105
95
95
95
92
92
92
93
93
93
92
92
92
75
75
75
79
79
79
92
92
92
95
95
95
97
97
97
96
96
96
88
88
88
91
91
91
98
98
98
102
102
102
103
103
103
102
102
102
106
106
106
106
106
106
111
111
111
119
119
119
116
116
116
113
113
113
113
113
113
113
113
113
118
118
118
122
122
122
122
122
122
130
130
130
130
130
130
138
138
138
135
135
135
136
136
136
150
150
150
161
161
161
169
169
169
172
172
172
176
176
176
171
171
171
160
160
160
164
164
164
168
168
168
164
164
164
162
162
162
157
157
157
152
152
152
150
150
150
147
147
147
145
145
145
140
140
140
136
136
136
135
135
135
137
137
137
134
134
134
133
133
133
128
128
128
128
128
128
125
125
125
119
119
119
116
116
116
114
114
114
110
110
110
109
109
109
111
111
111
108
108
108
92
92
92
101
101
101
104
104
104
104
104
104
107
107
107
108
108
108
117
117
117
123
123
123
122
122
122
119
119
119
124
124
124
125
125
125
124
124
124
114
114
114
108
108
108
109
109
109
117
117
117
133
133
133
140
140
140
138
138
138
143
143
143
151
151
151
162
162
162
169
169
169
173
173
173
173
173
173
183
183
183
199
199
199
205
205
205
217
217
217
215
215
215
224
224
224
216
216
216
211
211
211
199
199
199
192
192
192
187
187
187
183
183
183
178
178
178
175
175
175
161
161
161
152
152
152
153
153
153
149
149
149
146
146
146
151
151
151
148
148
148
146
146
146
145
145
145
130
130
130
134
134
134
125
125
125
117
117
117
115
115
115
122
122
122
122
122
122
111
111
111
112
112
112
112
112
112
107
107
107
100
100
100
102
102
102
106
106
106
105
105
105
106
106
106
108
108
108
117
117
117
118
118
118
119
119
119
121
121
121
120
120
120
117
117
117
116
116
116
112
112
112
111
111
111
119
119
119
124
124
124
122
122
122
127
127
127
120
120
120
116
116
116
118
118
118
117
117
117
116
116
116
125
125
125
132
132
132
136
136
136
138
138
138
143
143
143
146
146
146
150
150
150
146
146
146
155
155
155
163
163
163
158
158
158
156
156
156
157
157
157
153
153
153
151
151
151
149
149
149
147
147
147
148
148
148
145
145
145
141
141
141
141
141
141
137
137
137
127
127
127
123
123
123
118
118
118
108
108
108
107
107
107
100
100
100
97
97
97
99
99
99
98
98
98
101
101
101
88
88
88
85
85
85
83
83
83
86
86
86
80
80
80
75
75
75
73
73
73
66
66
66
69
69
69
75
75
75
84
84
84
88
88
88
94
94
94
97
97
97
99
99
99
108
108
108
117
117
117
112
112
112
123
123
123
125
125
125
137
137
137
133
133
133
143
143
143
142
142
142
143
143
143
141
141
141
139
139
139
129
129
129
127
127
127
124
124
124
116
116
116
116
116
116
116
116
116
123
123
123
139
139
139
139
139
139
144
144
144
137
137
137
137
137
137
132
132
132
137
137
137
129
129
129
126
126
126
121
121
121
112
112
112
105
105
105
104
104
104
105
105
105
96
96
96
96
96
96
92
92
92
88
88
88
88
88
88
87
87
87
86
86
86
81
81
81
85
85
85
89
89
89
80
80
80
71
71
71
76
76
76
83
83
83
88
88
88
94
94
94
69
69
69
78
78
78
79
79
79
76
76
76
82
82
82
87
87
87
91
91
91
94
94
94
90
90
90
90
90
90
101
101
101
103
103
103
101
101
101
95
95
95
89
89
89
90
90
90
101
101
101
111
111
111
117
117
117
117
117
117
123
123
123
126
126
126
116
116
116
121
121
121
116
116
116
119
119
119
121
121
121
108
108
108
94
94
94
76
76
76
58
58
58
55
55
55
69
69
69
77
77
77
70
70
70
77
77
77
75
75
75
84
84
84
77
77
77
94
94
94
91
91
91
90
90
90
98
98
98
100
100
100
105
105
105
109
109
109
113
113
113
113
113
113
121
121
121
126
126
126
120
120
120
126
126
126
123
123
123
119
119
119
118
118
118
109
109
109
115
115
115
117
117
117
113
113
113
112
112
112
23
23
23
23
23
23
24
24
24
27
27
27
29
29
29
30
30
30
29
29
29
30
30
30
29
29
29
30
30
30
31
31
31
33
33
33
41
41
41
57
57
57
68
68
68
82
82
82
76
76
76
70
70
70
70
70
70
69
69
69
54
54
54
58
58
58
69
69
69
67
67
67
93
93
93
102
102
102
101
101
101
108
108
108
122
122
122
128
128
128
117
117
117
132
132
132
135
135
135
142
142
142
139
139
139
137
137
137
147
147
147
146
146
146
153
153
153
146
146
146
144
144
144
131
131
131
146
146
146
143
143
143
140
140
140
141
141
141
146
146
146
145
145
145
138
138
138
136
136
136
123
123
123
118
118
118
120
120
120
116
116
116
115
115
115
108
108
108
103
103
103
103
103
103
97
97
97
79
79
79
48
48
48
58
58
58
62
62
62
65
65
65
65
65
65
63
63
63
70
70
70
67
67
67
57
57
57
65
65
65
70
70
70
72
72
72
71
71
71
73
73
73
72
72
72
67
67
67
66
66
66
71
71
71
80
80
80
84
84
84
84
84
84
63
63
63
67
67
67
72
72
72
76
76
76
68
68
68
54
54
54
65
65
65
90
90
90
92
92
92
94
94
94
113
113
113
128
128
128
140
140
140
145
145
145
150
150
150
135
135
135
138
138
138
111
111
111
96
96
96
114
114
114
106
106
106
101
101
101
100
100
100
109
109
109
104
104
104
107
107
107
99
99
99
98
98
98
108
108
108
110
110
110
112
112
112
108
108
108
93
93
93
83
83
83
79
79
79
69
69
69
81
81
81
74
74
74
79
79
79
70
70
70
71
71
71
80
80
80
84
84
84
86
86
86
86
86
86
90
90
90
88
88
88
91
91
91
100
100
100
103
103
103
103
103
103
108
108
108
101
101
101
103
103
103
99
99
99
104
104
104
110
110
110
103
103
103
109
109
109
105
105
105
104
104
104
103
103
103
112
112
112
103
103
103
105
105
105
103
103
103
106
106
106
109
109
109
107
107
107
87
87
87
89
89
89
91
91
91
94
94
94
89
89
89
90
90
90
60
60
60
40
40
40
55
55
55
50
50
50
54
54
54
72
72
72
90
90
90
106
106
106
100
100
100
98
98
98
100
100
100
107
107
107
97
97
97
95
95
95
97
97
97
106
106
106
93
93
93
95
95
95
97
97
97
96
96
96
85
85
85
77
77
77
79
79
79
91
91
91
50
50
50
67
67
67
74
74
74
79
79
79
80
80
80
68
68
68
71
71
71
83
83
83
83
83
83
93
93
93
102
102
102
94
94
94
95
95
95
78
78
78
77
77
77
88
88
88
92
92
92
95
95
95
105
105
105
96
96
96
96
96
96
109
109
109
103
103
103
99
99
99
100
100
100
106
106
106
117
117
117
113
113
113
114
114
114
102
102
102
109
109
109
102
102
102
100
100
100
101
101
101
100
100
100
104
104
104
93
93
93
87
87
87
98
98
98
106
106
106
104
104
104
113
113
113
107
107
107
106
106
106
90
90
90
92
92
92
94
94
94
91
91
91
87
87
87
89
89
89
84
84
84
82
82
82
88
88
88
86
86
86
83
83
83
74
74
74
63
63
63
69
69
69
81
81
81
87
87
87
73
73
73
66
66
66
66
66
66
74
74
74
71
71
71
78
78
78
76
76
76
89
89
89
96
96
96
105
105
105
107
107
107
107
107
107
103
103
103
105
105
105
103
103
103
113
113
113
134
134
134
130
130
130
130
130
130
114
114
114
124
124
124
136
136
136
145
145
145
146
146
146
137
137
137
136
136
136
146
146
146
151
151
151
160
160
160
159
159
159
176
176
176
175
175
175
160
160
160
157
157
157
140
140
140
155
155
155
149
149
149
143
143
143
140
140
140
126
126
126
134
134
134
136
136
136
134
134
134
116
116
116
123
123
123
122
122
122
124
124
124
116
116
116
105
105
105
95
95
95
81
81
81
79
79
79
81
81
81
84
84
84
77
77
77
90
90
90
103
103
103
102
102
102
91
91
91
82
82
82
85
85
85
86
86
86
89
89
89
91
91
91
104
104
104
103
103
103
110
110
110
108
108
108
99
99
99
95
95
95
96
96
96
95
95
95
111
111
111
120
120
120
120
120
120
121
121
121
132
132
132
126
126
126
134
134
134
126
126
126
125
125
125
117
117
117
116
116
116
135
135
135
134
134
134
136
136
136
148
148
148
156
156
156
160
160
160
167
167
167
175
175
175
178
178
178
178
178
178
165
165
165
167
167
167
159
159
159
149
149
149
164
164
164
158
158
158
156
156
156
150
150
150
155
155
155
150
150
150
145
145
145
136
136
136
135
135
135
144
144
144
118
118
118
118
118
118
123
123
123
109
109
109
104
104
104
116
116
116
113
113
113
106
106
106
99
99
99
96
96
96
99
99
99
103
103
103
101
101
101
100
100
100
99
99
99
101
101
101
97
97
97
97
97
97
96
96
96
102
102
102
106
106
106
99
99
99
97
97
97
102
102
102
102
102
102
111
111
111
101
101
101
109
109
109
109
109
109
109
109
109
123
123
123
115
115
115
127
127
127
108
108
108
128
128
128
123
123
123
125
125
125
119
119
119
138
138
138
156
156
156
160
160
160
156
156
156
160
160
160
162
162
162
163
163
163
162
162
162
166
166
166
175
175
175
170
170
170
153
153
153
151
151
151
142
142
142
132
132
132
152
152
152
132
132
132
136
136
136
125
125
125
133
133
133
133
133
133
129
129
129
115
115
115
108
108
108
115
115
115
110
110
110
104
104
104
108
108
108
107
107
107
104
104
104
96
96
96
97
97
97
97
97
97
100
100
100
108
108
108
73
73
73
82
82
82
84
84
84
96
96
96
87
87
87
88
88
88
81
81
81
85
85
85
92
92
92
99
99
99
81
81
81
79
79
79
96
96
96
101
101
101
90
90
90
98
98
98
109
109
109
115
115
115
112
112
112
107
107
107
108
108
108
106
106
106
115
115
115
130
130
130
131
131
131
133
133
133
140
140
140
141
141
141
124
124
124
132
132
132
140
140
140
136
136
136
140
140
140
138
138
138
131
131
131
136
136
136
138
138
138
134
134
134
129
129
129
151
151
151
128
128
128
121
121
121
124
124
124
120
120
120
110
110
110
101
101
101
101
101
101
108
108
108
102
102
102
99
99
99
111
111
111
87
87
87
91
91
91
87
87
87
84
84
84
80
80
80
84
84
84
83
83
83
75
75
75
72
72
72
68
68
68
73
73
73
82
82
82
85
85
85
86
86
86
76
76
76
68
68
68
79
79
79
98
98
98
85
85
85
84
84
84
92
92
92
94
94
94
101
101
101
97
97
97
97
97
97
101
101
101
115
115
115
132
132
132
108
108
108
101
101
101
93
93
93
110
110
110
129
129
129
117
117
117
121
121
121
144
144
144
139
139
139
135
135
135
129
129
129
130
130
130
145
145
145
147
147
147
137
137
137
139
139
139
141
141
141
136
136
136
137
137
137
147
147
147
135
135
135
123
123
123
138
138
138
124
124
124
123
123
123
123
123
123
124
124
124
125
125
125
123
123
123
119
119
119
106
106
106
89
89
89
92
92
92
102
102
102
109
109
109
83
83
83
73
73
73
62
62
62
74
74
74
86
86
86
73
73
73
57
57
57
65
65
65
76
76
76
79
79
79
74
74
74
76
76
76
68
68
68
67
67
67
79
79
79
83
83
83
88
88
88
92
92
92
103
103
103
112
112
112
104
104
104
78
78
78
95
95
95
119
119
119
119
119
119
99
99
99
87
87
87
119
119
119
137
137
137
130
130
130
126
126
126
118
118
118
135
135
135
129
129
129
121
121
121
117
117
117
100
100
100
134
134
134
133
133
133
126
126
126
130
130
130
139
139
139
130
130
130
128
128
128
127
127
127
135
135
135
121
121
121
141
141
141
123
123
123
78
78
78
81
81
81
88
88
88
91
91
91
92
92
92
97
97
97
99
99
99
98
98
98
93
93
93
87
87
87
82
82
82
95
95
95
96
96
96
90
90
90
75
75
75
57
57
57
49
49
49
53
53
53
62
62
62
78
78
78
95
95
95
88
88
88
88
88
88
86
86
86
85
85
85
91
91
91
88
88
88
100
100
100
107
107
107
118
118
118
126
126
126
118
118
118
126
126
126
136
136
136
94
94
94
78
78
78
84
84
84
127
127
127
136
136
136
119
119
119
107
107
107
105
105
105
102
102
102
113
113
113
127
127
127
110
110
110
103
103
103
113
113
113
133
133
133
109
109
109
127
127
127
118
118
118
130
130
130
129
129
129
125
125
125
123
123
123
128
128
128
138
138
138
140
140
140
139
139
139
75
75
75
70
70
70
69
69
69
72
72
72
74
74
74
79
79
79
82
82
82
78
78
78
75
75
75
74
74
74
73
73
73
74
74
74
71
71
71
71
71
71
66
66
66
59
59
59
48
48
48
36
36
36
34
34
34
38
38
38
40
40
40
42
42
42
45
45
45
47
47
47
55
55
55
52
52
52
48
48
48
58
58
58
55
55
55
47
47
47
63
63
63
118
118
118
126
126
126
89
89
89
113
113
113
124
124
124
134
134
134
130
130
130
94
94
94
84
84
84
93
93
93
88
88
88
93
93
93
96
96
96
102
102
102
131
131
131
105
105
105
87
87
87
121
121
121
123
123
123
115
115
115
128
128
128
126
126
126
114
114
114
95
95
95
111
111
111
121
121
121
118
118
118
124
124
124
120
120
120
71
71
71
59
59
59
59
59
59
57
57
57
58
58
58
60
60
60
63
63
63
65
65
65
63
63
63
60
60
60
55
55
55
51
51
51
48
48
48
48
48
48
46
46
46
40
40
40
38
38
38
19
19
19
21
21
21
26
26
26
31
31
31
32
32
32
32
32
32
32
32
32
35
35
35
38
38
38
38
38
38
38
38
38
40
40
40
41
41
41
51
51
51
125
125
125
126
126
126
127
127
127
103
103
103
93
93
93
88
88
88
122
122
122
120
120
120
119
119
119
101
101
101
110
110
110
108
108
108
96
96
96
95
95
95
92
92
92
118
118
118
120
120
120
138
138
138
136
136
136
116
116
116
124
124
124
131
131
131
101
101
101
80
80
80
81
81
81
98
98
98
115
115
115
128
128
128
73
73
73
60
60
60
54
54
54
52
52
52
49
49
49
49
49
49
50
50
50
50
50
50
50
50
50
49
49
49
47
47
47
43
43
43
41
41
41
37
37
37
38
38
38
36
36
36
35
35
35
29
29
29
14
14
14
19
19
19
26
26
26
28
28
28
29
29
29
30
30
30
31
31
31
30
30
30
29
29
29
30
30
30
32
32
32
34
34
34
35
35
35
35
35
35
42
42
42
62
62
62
42
42
42
37
37
37
37
37
37
38
38
38
56
56
56
83
83
83
124
124
124
119
119
119
121
121
121
133
133
133
130
130
130
120
120
120
118
118
118
120
120
120
127
127
127
141
141
141
138
138
138
134
134
134
138
138
138
141
141
141
138
138
138
127
127
127
122
122
122
129
129
129
120
120
120
73
73
73
44
44
44
42
42
42
43
43
43
40
40
40
36
36
36
34
34
34
37
37
37
40
40
40
40
40
40
38
38
38
36
36
36
35
35
35
33
33
33
32
32
32
32
32
32
30
30
30
29
29
29
24
24
24
13
13
13
16
16
16
19
19
19
21
21
21
24
24
24
25
25
25
25
25
25
25
25
25
26
26
26
27
27
27
29
29
29
29
29
29
30
30
30
29
29
29
32
32
32
32
32
32
31
31
31
31
31
31
32
32
32
33
33
33
34
34
34
34
34
34
44
44
44
56
56
56
75
75
75
78
78
78
86
86
86
72
72
72
59
59
59
50
50
50
49
49
49
76
76
76
110
110
110
119
119
119
96
96
96
103
103
103
110
110
110
100
100
100
100
100
100
74
74
74
46
46
46
41
41
41
38
38
38
34
34
34
33
33
33
33
33
33
30
30
30
28
28
28
27
27
27
28
28
28
29
29
29
29
29
29
30
30
30
28
28
28
26
26
26
25
25
25
25
25
25
25
25
25
22
22
22
20
20
20
11
11
11
13
13
13
14
14
14
16
16
16
16
16
16
17
17
17
20
20
20
23
23
23
26
26
26
24
24
24
27
27
27
26
26
26
26
26
26
27
27
27
28
28
28
28
28
28
27
27
27
27
27
27
28
28
28
29
29
29
29
29
29
30
30
30
31
31
31
31
31
31
33
33
33
37
37
37
37
37
37
37
37
37
39
39
39
41
41
41
41
41
41
44
44
44
37
37
37
41
41
41
42
42
42
45
45
45
43
43
43
44
44
44
48
48
48
45
45
45
40
40
40
35
35
35
33
33
33
29
29
29
28
28
28
27
27
27
26
26
26
23
23
23
24
24
24
22
22
22
22
22
22
22
22
22
21
21
21
20
20
20
20
20
20
20
20
20
19
19
19
19
19
19
18
18
18
14
14
14
