P3
60 40
255
11
6
3
13
7
6
14
9
8
16
12
11
16
12
10
17
13
10
20
15
11
23
15
13
26
16
13
24
16
13
27
18
14
26
16
14
26
16
14
27
17
14
28
19
14
28
18
15
27
18
13
27
18
13
28
17
14
29
18
13
29
18
10
30
17
10
31
18
9
31
18
9
33
19
10
37
20
11
37
18
7
37
19
8
39
19
8
41
21
11
41
19
8
44
21
10
37
18
9
41
20
10
42
21
10
45
23
10
43
21
7
44
21
8
48
25
13
45
22
9
40
20
8
35
18
9
33
18
10
29
15
9
28
14
8
27
15
9
26
14
10
23
14
9
24
12
8
22
12
8
22
13
8
22
13
8
21
11
6
20
11
6
20
11
6
20
11
4
19
10
5
19
9
4
18
9
4
14
6
3
13
9
8
16
12
12
19
14
13
21
16
13
24
17
14
25
17
14
25
17
14
25
16
14
26
17
14
27
18
16
29
20
15
29
19
14
30
19
14
29
19
13
32
20
16
32
20
14
31
19
15
31
19
14
32
20
13
33
21
14
34
21
14
34
21
15
44
29
22
56
39
32
75
52
44
78
54
47
86
61
55
72
51
44
59
37
28
50
25
15
49
27
17
76
57
52
110
82
75
119
90
81
96
72
65
103
81
75
110
85
79
100
75
68
100
75
67
74
53
45
46
24
12
41
21
9
38
20
10
34
18
9
33
18
10
33
17
10
30
16
10
28
14
10
27
15
9
28
16
9
29
16
10
29
17
11
30
18
10
28
16
9
26
15
9
25
15
10
25
16
10
25
15
10
22
13
7
20
11
5
14
11
11
19
15
13
26
19
16
28
20
17
29
20
18
30
21
19
31
22
19
30
21
17
29
21
17
30
21
17
32
22
16
34
22
16
35
22
15
35
23
16
42
28
24
62
47
42
42
29
25
37
22
15
37
23
16
38
24
16
56
40
32
83
60
53
124
93
84
119
87
77
121
88
79
133
101
91
130
97
86
120
86
74
118
84
74
120
87
78
127
100
93
141
108
100
138
103
93
134
103
95
138
105
94
141
106
95
138
102
89
127
93
79
122
86
72
129
93
80
120
88
77
73
51
44
44
23
10
42
22
10
43
23
12
40
22
11
36
20
11
34
19
12
37
21
12
40
23
13
40
23
13
38
21
13
36
21
11
35
21
13
33
19
11
32
20
11
32
19
11
30
19
12
29
19
15
24
15
11
19
16
14
21
17
14
26
20
16
31
23
20
32
24
21
32
23
19
32
23
19
35
25
18
38
26
18
38
26
20
38
26
17
40
26
18
41
27
19
51
35
28
125
99
95
126
99
92
127
102
97
103
83
80
93
73
69
88
65
58
122
93
85
120
90
80
119
90
79
101
72
61
110
79
70
108
78
68
96
64
53
95
64
53
92
63
54
118
91
84
120
89
79
138
104
93
136
102
92
116
86
74
124
91
81
131
96
86
101
69
57
80
52
40
81
50
38
98
62
46
115
77
60
128
92
77
73
47
36
60
31
13
54
29
12
52
28
14
49
28
15
49
28
15
50
28
15
50
27
14
50
27
15
49
28
16
47
27
15
43
25
15
41
24
14
37
23
13
38
23
15
36
23
14
35
22
14
29
18
14
36
29
26
34
26
22
38
29
27
40
31
27
42
33
29
45
33
29
47
36
31
55
42
37
52
38
31
48
34
27
58
41
35
55
39
32
47
32
25
63
46
42
118
95
89
126
101
95
89
68
61
113
89
84
124
102
97
134
111
108
130
105
102
94
68
60
84
58
48
93
65
55
88
61
49
93
65
55
96
66
56
102
73
64
131
96
83
105
73
60
87
56
44
121
87
74
123
92
82
115
80
67
128
92
77
126
87
71
114
76
58
95
57
41
111
74
57
121
83
66
118
83
68
124
86
71
120
84
70
71
38
18
59
31
13
59
31
12
57
31
13
58
32
16
60
33
17
63
35
16
65
36
18
63
35
17
60
34
19
55
32
18
51
31
18
48
30
18
48
30
21
46
29
19
40
25
16
38
24
17
53
44
42
62
52
48
78
65
61
95
78
74
88
71
65
88
70
65
86
67
61
85
67
61
91
71
64
88
68
62
100
78
71
107
84
78
118
97
91
126
100
95
118
91
81
126
99
92
136
111
105
94
71
63
78
57
47
84
59
50
127
98
89
136
109
103
119
94
88
107
79
70
105
76
66
102
73
64
113
85
77
127
91
77
110
77
65
103
70
56
113
75
58
133
99
84
109
70
52
127
84
63
118
79
59
130
89
70
129
87
64
125
82
60
123
82
61
128
88
68
138
101
83
140
103
88
139
105
92
75
39
18
70
38
17
69
37
15
72
40
17
74
41
18
79
44
19
82
45
21
78
45
21
75
42
22
74
43
25
73
45
28
74
47
32
71
45
30
71
46
33
66
43
30
59
40
28
48
33
24
57
46
42
65
52
48
76
61
58
79
62
56
74
57
52
76
59
54
68
52
46
67
53
47
79
60
52
83
66
57
88
67
61
92
73
66
103
79
71
112
85
76
104
76
65
78
52
41
95
67
57
119
89
77
119
88
78
99
68
53
87
56
40
119
86
73
137
104
92
130
99
87
126
95
85
118
89
81
135
101
87
129
95
83
121
83
67
117
78
58
100
64
46
134
94
74
133
91
71
126
85
65
130
85
61
139
95
72
130
89
66
128
83
59
127
85
62
135
92
70
121
81
59
141
102
85
123
88
72
78
42
18
81
45
22
88
52
28
91
55
34
92
54
31
97
59
37
99
62
42
98
62
42
93
57
38
87
54
35
82
52
34
95
65
51
96
66
52
90
64
51
75
57
48
57
45
42
49
39
37
68
56
50
73
58
51
82
67
60
85
67
60
86
66
57
76
56
48
68
51
42
79
60
49
98
72
60
85
62
51
84
60
49
92
68
59
94
71
60
101
76
63
97
69
56
97
72
62
101
75
64
115
86
75
132
101
92
108
80
67
101
72
58
93
62
47
110
76
61
129
96
83
117
84
70
121
89
77
144
107
90
139
101
83
135
92
70
129
87
67
130
92
72
145
99
72
147
99
72
137
93
66
139
93
65
141
98
75
136
93
66
137
94
73
147
112
96
135
100
84
123
86
69
138
99
81
124
86
67
123
87
70
123
87
67
124
86
69
125
86
68
123
83
63
119
79
59
106
68
46
89
52
30
92
57
38
102
68
50
109
75
59
83
54
38
73
48
32
62
39
26
74
51
39
86
63
51
73
51
39
73
61
59
82
69
63
84
67
61
96
78
70
87
68
59
88
69
58
81
62
52
85
64
53
92
69
57
99
76
64
81
61
50
79
62
55
96
74
64
101
79
71
90
69
62
98
76
66
109
85
76
115
88
76
112
83
71
107
77
62
108
76
59
106
74
57
115
86
73
130
98
86
131
96
84
133
97
82
140
105
88
141
104
85
124
85
66
132
92
72
140
100
79
136
91
62
140
96
71
138
94
68
131
90
69
136
94
70
138
93
67
134
91
65
129
88
63
151
114
95
128
98
87
121
83
64
124
89
69
120
83
64
110
71
51
101
62
40
101
62
40
108
69
46
102
65
42
99
62
43
111
75
56
87
53
33
91
60
42
87
55
37
84
54
35
80
53
37
84
58
42
83
56
43
75
50
37
72
49
38
100
82
73
99
81
71
101
82
72
97
78
67
97
76
66
96
73
60
102
78
65
106
79
65
99
73
60
97
71
55
102
79
66
102
78
68
111
83
69
101
77
66
109
82
69
109
83
71
109
79
62
123
90
75
115
82
66
127
92
74
108
70
49
128
89
67
123
85
64
125
84
62
119
77
51
138
89
56
156
113
87
160
112
77
156
108
75
160
107
66
162
108
64
163
103
49
162
108
60
166
102
41
175
113
53
170
114
63
153
98
52
151
94
49
142
92
56
132
80
42
152
113
88
132
92
71
136
95
70
125
84
61
133
92
69
133
93
70
129
89
66
115
74
49
108
70
48
115
75
52
110
72
50
104
68
46
108
71
50
107
72
52
104
69
50
96
62
40
97
63
40
97
63
43
100
67
48
108
74
57
85
70
64
86
72
64
89
73
64
91
74
68
104
85
77
103
82
71
110
85
72
108
83
70
99
78
68
95
74
62
96
72
57
95
69
55
111
80
62
120
88
69
120
88
69
121
89
71
132
96
75
126
90
71
134
97
77
126
84
58
125
86
65
117
80
62
116
82
65
135
98
77
134
87
60
136
91
65
148
102
72
156
106
72
160
110
73
167
113
70
175
112
47
178
116
54
178
117
55
165
105
50
167
102
38
159
100
51
149
92
45
164
104
50
158
104
57
156
106
62
150
97
56
155
110
79
150
102
66
145
99
68
136
94
67
135
87
54
144
99
73
118
77
53
118
78
53
123
80
54
109
70
47
104
66
43
116
75
50
113
73
49
106
70
46
99
65
46
96
65
49
99
68
53
103
71
55
101
70
54
73
62
60
66
55
53
66
56
54
74
61
57
71
57
53
78
63
58
76
60
52
89
70
61
96
74
66
105
82
73
107
83
73
107
82
72
103
77
64
105
76
59
103
71
55
113
83
65
134
100
84
130
92
71
130
94
75
114
77
54
124
89
73
136
101
83
145
105
85
146
104
81
137
94
68
136
95
72
146
100
70
151
101
65
160
109
72
159
110
76
176
117
64
175
110
48
160
99
44
157
104
61
140
86
39
155
99
51
149
95
55
143
89
47
140
91
56
126
85
59
134
93
70
136
101
83
134
103
84
116
86
75
123
92
76
122
89
72
124
94
80
116
88
77
105
74
56
95
63
44
81
54
41
79
55
42
81
55
42
84
58
45
77
55
43
90
66
56
103
76
65
102
79
69
91
72
66
82
66
61
50
44
42
67
59
58
74
64
64
79
70
68
80
69
68
68
60
58
71
65
63
83
75
74
83
73
73
93
80
76
102
87
85
94
82
81
95
81
78
78
67
66
77
64
59
88
71
66
92
72
65
95
74
69
105
85
79
96
75
70
96
79
76
109
88
81
103
81
75
99
79
74
100
81
76
106
86
80
117
95
88
113
90
82
114
90
80
102
80
71
109
87
78
102
80
71
100
81
73
101
80
72
100
82
76
104
86
82
93
75
70
87
68
61
98
78
68
106
82
71
104
81
72
113
85
76
107
82
74
106
76
62
90
65
52
92
67
54
94
66
51
91
65
51
87
61
47
89
64
50
84
59
44
82
58
46
88
66
52
86
68
61
83
65
59
74
60
56
63
50
47
69
53
49
81
67
63
87
70
67
70
58
49
71
57
47
80
64
53
84
66
53
86
65
50
86
66
52
90
71
59
88
64
51
91
68
56
100
76
63
103
78
64
103
77
64
108
83
71
101
78
68
103
81
71
99
81
72
104
83
75
110
86
75
103
82
71
109
85
73
105
81
70
104
83
73
103
80
69
112
85
70
103
75
62
105
77
63
103
75
60
106
76
57
109
77
61
107
76
61
87
61
50
89
66
58
91
66
57
94
69
57
89
65
53
90
69
60
60
45
39
40
27
22
55
39
32
50
33
26
54
35
24
72
47
32
90
56
35
106
71
48
100
64
39
98
63
39
100
64
38
107
71
50
97
65
44
95
63
43
97
65
44
106
73
51
93
62
41
95
65
46
97
66
46
96
66
48
85
61
45
77
58
48
79
62
53
91
72
64
48
41
37
58
49
41
62
49
42
65
52
42
65
52
42
63
51
41
70
55
44
67
52
44
57
46
38
65
51
42
70
53
44
72
54
46
71
54
45
73
57
47
72
55
45
67
52
44
66
51
44
71
56
51
80
67
64
84
69
65
84
67
62
63
49
43
67
51
43
72
53
45
76
54
43
68
49
42
54
36
28
65
41
27
90
58
37
92
57
35
94
58
34
113
70
38
128
80
36
140
85
31
145
92
41
150
91
39
135
83
40
138
86
40
111
70
36
96
62
37
114
79
51
106
72
46
101
68
44
100
67
43
109
74
49
104
67
43
107
73
50
99
66
42
98
65
43
108
73
47
110
75
48
112
76
49
108
76
52
93
65
46
83
58
40
79
58
44
69
51
43
81
65
61
74
61
57
79
64
58
23
23
21
23
21
18
24
22
19
27
25
23
29
27
23
30
27
23
29
27
23
30
26
22
29
24
19
30
26
20
31
27
23
33
28
25
41
34
31
57
47
43
68
54
47
82
64
55
76
59
46
70
53
42
70
54
42
69
52
42
54
39
32
58
44
35
69
51
41
67
47
35
93
63
45
102
68
47
101
68
44
108
68
41
122
75
42
128
78
42
117
72
41
132
80
41
135
84
44
142
85
39
139
84
39
137
82
37
147
93
50
146
93
45
153
98
48
146
91
43
144
91
44
131
84
44
146
96
54
143
96
56
140
94
58
141
94
54
146
98
56
145
96
56
138
92
55
136
94
62
123
85
57
118
80
50
120
83
53
116
79
52
115
80
53
108
74
52
103
75
56
103
74
54
97
68
51
79
58
47
69
57
48
78
66
56
79
64
52
76
62
49
82
64
50
87
69
51
91
71
52
94
73
54
90
68
51
90
67
51
101
76
57
103
78
60
101
76
59
95
71
56
89
67
53
90
67
52
101
74
55
111
81
61
117
84
59
117
84
57
123
86
58
126
88
59
116
80
57
121
85
63
116
82
60
119
82
59
121
80
52
108
69
42
94
58
36
76
47
32
58
36
23
55
36
25
69
52
46
77
55
43
70
44
28
77
50
35
75
54
45
84
64
54
77
54
43
94
64
45
91
61
42
90
57
35
98
68
50
100
69
49
105
73
51
109
76
51
113
77
52
113
78
55
121
85
62
126
89
62
120
84
60
126
91
65
123
87
63
119
83
57
118
83
58
109
78
55
115
81
58
117
83
59
113
79
56
112
78
55
80
72
71
75
67
67
73
63
59
66
57
52
69
60
55
75
63
53
84
70
60
88
69
57
94
74
60
97
77
63
99
76
62
108
81
64
117
90
73
112
85
68
123
94
76
125
94
75
137
100
75
133
97
71
143
103
73
142
103
71
143
103
70
141
103
71
139
102
72
129
95
70
127
91
66
124
88
62
116
82
61
116
81
56
116
83
58
123
85
54
139
99
63
139
98
64
144
103
68
137
97
68
137
97
64
132
97
70
137
101
77
129
96
72
126
95
76
121
94
75
112
87
73
105
80
67
104
82
70
105
82
70
96
77
70
96
78
72
92
76
70
88
74
71
88
74
72
87
73
71
86
72
72
81
68
66
85
72
71
89
76
76
80
69
67
71
63
64
76
62
58
83
61
50
88
62
48
94
66
49
100
90
88
102
92
88
106
91
85
105
92
84
106
91
83
108
91
82
117
97
84
118
95
79
119
97
81
121
98
82
120
97
81
117
92
75
116
91
78
112
87
73
111
87
75
119
92
80
124
96
79
122
93
72
127
96
75
120
91
71
116
91
76
118
91
74
117
86
69
116
87
71
125
95
78
132
96
76
136
97
76
138
95
66
143
100
72
146
101
70
150
102
66
146
98
62
155
105
64
163
110
63
158
108
61
156
110
70
157
111
76
153
110
78
151
110
78
149
108
77
147
107
77
148
107
76
145
109
81
141
102
74
141
106
77
137
103
83
127
96
78
123
94
79
118
90
77
108
84
73
107
85
76
100
81
72
97
79
72
99
80
74
98
82
76
101
86
82
88
77
77
85
71
68
83
66
59
86
66
59
92
82
85
101
91
89
104
92
87
104
92
88
107
94
87
108
92
83
117
100
94
123
104
100
122
103
98
119
99
89
124
102
90
125
101
88
124
102
90
114
94
85
108
89
79
109
91
85
117
93
81
133
102
82
140
108
83
138
104
77
143
106
74
151
112
78
162
117
73
169
120
74
173
121
72
173
118
66
183
119
58
199
127
55
205
127
49
217
135
41
215
137
39
224
148
39
216
136
32
211
131
31
199
127
46
192
123
50
187
123
54
183
122
59
178
122
63
175
120
60
161
111
61
152
106
64
153
112
77
149
109
72
146
104
64
151
109
66
148
104
64
146
103
63
145
103
66
130
94
65
134
95
66
125
90
65
117
86
68
115
85
66
122
91
69
122
90
72
111
85
67
112
84
65
112
83
65
107
79
65
75
68
67
79
70
68
92
82
76
95
83
75
97
83
74
96
82
73
88
76
69
91
78
71
98
83
76
102
87
79
103
87
78
102
84
78
106
89
81
106
89
80
111
92
81
119
98
85
116
93
83
113
93
78
113
90
76
113
88
70
118
90
69
122
93
70
122
94
72
130
97
74
130
96
72
138
102
76
135
95
65
136
94
61
150
99
57
161
105
56
169
108
53
172
110
45
176
116
51
171
110
49
160
103
42
164
108
51
168
111
49
164
110
49
162
109
48
157
108
54
152
107
59
150
105
57
147
104
58
145
105
64
140
102
65
136
101
65
135
101
64
137
103
67
134
99
68
133
99
69
128
95
68
128
96
70
125
93
71
119
90
70
116
88
69
114
86
67
110
83
65
109
82
66
111
84
67
108
82
66
49
42
38
64
54
49
62
54
47
57
47
39
60
48
39
56
44
36
46
36
27
54
42
33
62
47
36
68
51
37
70
53
38
73
56
44
92
75
64
90
69
58
92
71
58
93
71
56
89
67
50
91
67
50
95
69
53
102
76
59
111
81
60
116
85
60
119
85
60
121
87
60
123
88
59
124
84
53
131
85
47
130
84
48
133
84
43
139
86
41
150
95
41
159
99
36
149
91
33
142
88
38
159
99
36
153
96
38
137
89
42
129
87
47
121
84
52
123
86
56
122
87
61
123
89
63
122
90
65
125
93
68
127
94
70
127
93
68
131
94
67
124
91
66
120
88
68
115
83
62
114
83
62
111
83
64
110
81
65
107
82
67
109
81
64
105
76
56
95
69
52
92
69
54
93
71
58
92
70
60
112
94
71
116
97
71
120
99
71
124
101
70
129
104
70
133
107
68
136
109
68
141
112
66
145
114
65
148
116
63
152
118
63
156
119
62
160
121
61
164
122
61
168
123
58
174
124
56
177
126
54
182
126
50
184
127
48
189
127
45
193
128
39
199
129
34
206
129
30
213
129
24
222
133
16
232
136
8
240
141
6
243
149
5
244
162
4
238
178
4
235
203
14
235
227
50
237
189
14
241
169
4
239
153
4
233
145
3
224
140
3
216
137
4
210
135
10
206
132
15
201
130
21
197
129
23
191
125
27
186
123
32
179
119
35
173
117
37
168
115
40
164
114
43
160
112
45
158
111
46
155
109
48
152
108
50
148
106
51
145
102
54
141
99
55
135
96
57
130
93
59
126
90
59
120
87
60
116
84
60
140
118
67
144
122
66
148
125
65
152
128
66
158
132
65
163
134
64
168
138
65
174
140
63
180
143
62
185
146
61
192
148
59
199
151
56
204
154
53
209
155
51
214
157
48
219
159
45
224
157
36
232
159
29
231
157
22
230
151
15
233
149
7
236
147
2
240
145
2
245
144
2
247
148
2
251
154
1
251
163
2
246
177
3
240
195
3
236
216
11
236
237
72
240
249
124
241
245
94
234
222
36
240
208
22
243
193
8
247
186
8
246
180
7
244
178
11
239
171
11
237
165
11
238
164
14
226
152
19
215
140
21
204
129
20
194
126
27
185
122
30
180
121
35
182
123
35
177
121
36
173
121
40
173
124
42
170
123
43
167
122
44
161
119
44
158
115
47
157
113
49
152
108
52
145
103
54
139
99
57
158
143
83
161
146
85
166
148
85
168
151
86
175
153
86
181
155
86
187
158
86
192
160
85
197
162
86
201
164
82
204
164
79
205
161
73
206
156
67
206
155
64
202
144
53
202
140
43
204
139
37
207
139
31
210
139
29
215
140
23
219
140
20
226
142
16
233
144
7
237
146
3
240
149
1
242
154
1
249
161
1
249
171
1
246
183
1
240
198
1
237
216
10
237
229
43
236
220
36
240
209
22
242
195
6
247
183
1
249
179
2
250
170
2
244
170
4
241
170
4
241
164
4
237
156
5
234
155
10
239
158
13
237
154
11
225
147
17
218
142
27
216
142
33
207
136
34
198
134
35
192
132
36
192
133
36
188
132
35
186
130
37
180
128
38
173
126
40
170
123
40
169
122
42
169
120
45
159
114
49
158
152
108
162
153
108
165
155
109
166
154
103
169
148
93
173
145
85
175
143
80
176
140
75
173
135
67
172
131
60
176
131
57
179
130
55
182
130
53
185
132
52
188
132
47
192
132
43
196
134
40
200
134
39
202
135
35
208
136
32
214
138
27
220
139
28
225
141
29
231
143
30
236
146
22
236
148
1
240
153
1
248
160
1
252
167
1
249
176
1
245
188
1
241
204
9
241
214
33
242
200
4
247
182
1
250
172
1
248
179
6
245
186
19
243
177
16
241
169
4
243
163
5
238
157
6
230
149
14
226
146
18
223
144
21
220
143
24
210
138
26
208
138
26
204
137
32
204
137
37
199
136
36
195
134
36
192
132
36
186
131
38
180
128
40
173
125
41
170
123
42
165
121
43
162
117
45
157
114
49
144
130
90
144
127
79
145
123
73
147
123
70
149
123
69
152
121
67
155
121
63
157
123
62
160
122
62
162
124
60
165
124
62
169
125
61
174
126
58
177
126
56
181
127
52
184
128
50
188
129
49
193
131
47
198
134
45
202
135
44
206
135
42
211
136
45
218
139
51
224
142
56
229
140
41
235
141
25
239
144
12
239
151
1
246
156
1
251
164
0
248
185
6
247
209
51
246
196
29
248
190
3
248
184
2
250
172
1
248
170
1
238
155
1
235
146
1
233
147
1
233
151
4
239
159
11
236
154
20
239
156
19
238
154
13
230
147
13
226
146
17
222
144
17
215
141
21
204
135
27
194
131
30
190
131
35
185
129
37
177
126
37
174
124
39
170
123
42
167
121
43
164
120
44
158
115
48
152
111
51
128
106
69
131
108
68
134
110
67
137
114
66
141
115
65
142
118
67
146
119
70
150
119
70
156
119
68
161
121
61
165
122
60
168
123
59
172
124
59
175
125
55
179
126
52
182
126
50
186
128
48
189
128
47
190
129
49
194
130
49
200
133
54
207
137
67
215
155
100
225
179
134
223
152
93
228
138
50
234
139
29
239
141
9
242
149
1
250
172
3
248
194
5
245
194
20
247
196
22
250
173
2
243
155
2
244
163
2
241
155
2
231
140
1
224
136
1
220
135
1
218
136
2
222
139
10
225
143
19
231
149
21
240
154
24
244
163
17
242
159
14
233
151
18
216
140
28
199
134
32
193
130
33
193
131
29
192
130
25
198
133
26
190
131
30
181
127
33
167
120
38
158
115
43
153
112
47
148
109
49
124
106
79
130
109
78
135
111
77
137
111
72
139
112
67
142
114
64
145
115
62
150
116
61
155
117
59
159
119
57
162
120
57
164
120
61
167
121
60
167
121
62
169
122
64
174
122
63
176
123
62
178
123
62
182
125
62
188
127
59
192
129
61
198
132
65
202
137
77
214
156
110
217
149
94
220
135
53
224
134
44
227
135
37
233
137
26
237
140
16
239
142
10
240
142
6
239
144
1
239
147
1
239
148
1
232
137
2
226
135
5
229
139
2
229
145
3
224
140
2
212
132
2
203
128
3
204
129
6
207
132
17
204
133
25
206
135
31
208
138
35
212
139
37
202
135
42
194
131
46
185
128
48
180
125
48
172
122
47
164
118
45
161
116
43
158
115
45
157
114
44
157
113
45
157
114
45
154
111
49
125
106
77
131
105
72
134
105
67
136
107
63
139
108
64
140
110
61
141
111
61
142
111
61
143
113
60
146
114
62
149
114
66
152
115
69
154
115
72
157
116
73
164
118
69
169
121
67
175
123
66
178
123
68
179
125
69
184
126
70
189
127
68
194
129
64
198
130
68
201
132
75
201
131
72
204
131
71
208
131
68
208
130
64
214
131
56
219
131
47
228
135
37
236
139
23
239
143
5
242
145
3
234
138
1
231
137
4
232
142
8
246
160
3
253
173
2
252
170
2
232
146
2
201
127
7
190
122
16
189
122
22
189
123
28
192
126
28
196
130
24
202
132
21
213
140
24
198
132
30
182
125
39
171
121
47
167
119
48
162
117
52
159
116
53
157
115
55
153
113
58
148
110
57
141
104
60
134
99
60
115
95
73
116
96
73
119
98
72
122
99
70
126
101
70
129
102
71
132
105
71
133
107
72
135
108
74
137
110
74
141
111
75
144
112
73
149
112
70
155
112
71
158
115
71
161
117
70
164
119
72
168
120
77
170
122
79
173
123
81
176
124
84
178
125
85
182
126
87
187
130
96
191
140
113
194
144
116
197
137
101
200
132
85
203
135
88
215
134
66
235
142
36
242
145
5
245
151
2
249
163
2
250
171
1
254
180
2
254
178
1
254
175
2
254
174
2
252
166
1
247
150
2
242
148
2
214
133
8
186
119
31
177
117
37
178
120
36
183
123
34
189
127
33
189
126
30
194
130
30
185
126
31
168
117
35
167
120
37
159
116
43
151
111
52
147
109
57
142
107
64
141
104
67
139
103
66
135
101
68
104
90
79
109
93
78
113
94
78
117
97
75
122
98
74
126
100
73
128
103
75
129
105
77
131
106
82
131
108
82
134
108
84
136
108
82
140
109
81
144
111
78
148
112
81
148
113
86
151
114
89
155
116
91
158
118
93
161
122
97
165
124
102
168
128
108
173
130
107
178
133
108
184
147
133
192
165
156
198
145
119
199
128
75
214
135
65
224
137
47
220
133
34
217
130
23
220
132
17
227
137
11
239
149
3
250
163
0
252
166
1
254
168
1
253
166
1
247
153
1
237
144
3
233
142
6
222
138
18
192
124
40
174
117
49
168
115
53
168
115
51
176
121
47
188
127
36
185
127
37
172
121
40
159
116
46
160
113
44
156
113
41
147
106
45
138
102
48
135
98
57
132
96
60
129
95
62
128
95
67
101
88
77
106
91
79
109
92
79
111
94
79
115
97
79
118
98
80
121
99
81
122
101
84
123
103
88
125
105
88
128
106
89
129
107
90
130
109
92
134
110
96
134
111
102
135
113
103
141
114
105
143
116
107
145
120
109
149
120
110
153
124
115
164
135
128
171
143
134
174
138
124
178
145
134
183
151
140
190
145
127
195
131
85
201
127
60
198
124
49
194
122
50
190
119
49
190
119
47
192
119
44
203
126
34
227
138
19
234
143
9
232
141
10
237
144
8
231
141
17
210
130
35
195
125
45
187
122
53
176
119
61
176
120
65
166
117
68
155
111
72
153
111
68
162
115
62
179
123
50
189
129
45
171
120
46
151
110
52
147
108
53
142
105
52
136
99
55
129
94
59
125
91
57
121
89
57
115
87
60
95
85
79
101
88
82
102
90
84
102
91
85
107
93
88
109
95
90
110
98
91
113
100
94
115
102
95
118
104
97
121
105
99
122
108
104
124
108
105
127
109
104
128
110
106
130
111
106
133
113
107
135
116
112
137
117
116
139
119
114
148
126
119
161
128
116
170
127
106
171
126
103
170
126
106
173
125
98
183
126
88
188
123
71
188
120
61
182
117
59
178
115
62
176
114
66
176
114
66
177
115
65
183
118
58
196
124
49
206
128
42
199
126
44
193
123
49
193
124
54
186
122
65
173
118
72
164
115
77
159
113
82
160
114
82
160
115
81
154
113
84
147
111
82
147
109
74
150
110
67
161
116
60
171
123
55
163
117
54
156
113
54
148
110
54
148
109
58
138
101
57
126
92
56
117
86
58
107
81
59
86
84
85
93
87
88
99
90
88
104
92
89
109
94
89
111
96
91
112
97
91
111
97
94
112
99
95
111
101
100
113
103
106
115
105
111
119
105
107
122
106
105
124
107
108
125
108
108
126
109
108
129
111
110
130
113
113
136
111
102
148
111
94
160
114
86
165
116
82
166
115
80
165
115
81
173
116
75
181
120
66
181
118
62
175
115
64
169
111
66
167
111
72
166
111
76
167
112
77
169
113
74
171
113
74
174
115
69
182
120
66
178
118
67
171
115
73
164
115
83
159
114
90
152
112
94
148
111
94
148
110
91
145
110
93
144
110
92
149
112
86
160
115
78
163
116
73
150
111
69
142
106
66
138
104
65
138
103
67
140
105
64
147
109
60
154
113
55
162
116
54
160
114
52
147
107
55
121
89
57
84
82
87
92
87
92
98
91
92
102
92
92
104
94
93
106
95
96
105
96
95
105
96
98
104
97
103
103
101
111
106
103
113
108
103
113
110
103
113
109
104
114
111
105
114
118
104
110
121
106
108
126
108
109
131
110
105
139
109
101
145
110
94
155
111
86
157
111
80
157
110
78
160
111
77
172
116
69
181
118
64
177
117
65
165
112
73
158
109
80
158
109
81
157
109
82
157
108
81
157
110
81
159
110
80
163
112
82
167
115
81
163
114
82
156
111
89
151
111
95
145
110
100
141
110
101
141
109
98
143
108
93
143
109
88
141
108
86
143
109
82
154
113
76
162
115
72
160
115
69
155
113
66
142
104
68
135
101
67
137
101
65
145
106
61
156
113
55
167
120
51
175
126
45
176
125
45
167
118
47
84
81
87
87
86
92
91
88
95
92
91
96
94
91
98
98
92
100
99
94
100
100
96
105
98
98
111
96
102
118
97
103
121
97
101
119
96
102
120
100
103
121
104
104
118
113
107
121
122
113
126
129
113
120
131
112
112
131
108
103
136
108
98
146
108
90
148
107
86
156
109
83
160
113
79
173
116
73
177
117
70
173
116
75
162
112
81
154
108
86
151
107
88
150
106
89
150
106
86
152
107
81
156
109
81
159
112
84
163
113
84
156
111
86
147
109
90
140
108
96
137
108
99
137
108
100
137
108
100
138
109
96
138
107
93
138
106
89
134
105
88
134
105
85
138
107
82
144
110
80
149
112
74
141
106
76
134
102
75
132
99
71
134
98
69
137
100
64
150
108
59
167
118
51
173
123
46
177
123
44
73
78
88
74
82
94
78
85
98
82
88
99
86
90
100
88
91
104
87
94
110
88
101
121
87
104
125
87
106
126
87
103
126
90
101
123
95
103
126
98
108
129
104
110
130
109
111
132
113
114
134
118
111
129
124
110
116
125
107
107
131
106
101
138
106
97
136
105
95
147
107
91
154
110
87
162
112
84
158
111
86
151
109
89
145
106
92
141
106
95
139
105
95
139
106
96
142
105
89
148
105
80
152
107
80
159
111
75
164
112
74
156
110
76
147
106
81
137
104
87
135
106
96
134
106
100
132
107
102
131
108
101
130
107
102
127
106
100
127
103
97
126
101
95
125
100
89
129
100
88
135
104
86
138
105
83
131
101
82
128
97
79
123
95
78
118
93
77
117
91
74
123
92
68
137
98
63
147
103
57
65
75
89
67
80
94
70
84
97
75
86
100
80
88
102
82
89
106
80
97
115
83
102
124
80
99
122
82
101
124
89
100
122
94
102
123
101
104
125
104
106
125
102
107
126
100
109
131
102
112
134
111
109
129
123
107
117
126
107
107
129
106
102
128
104
100
125
102
101
132
104
98
141
107
95
145
108
92
138
106
95
133
104
98
132
104
99
131
104
100
130
104
101
131
104
100
134
103
94
134
102
86
137
103
84
146
106
81
152
108
74
153
108
72
143
105
77
136
102
82
131
102
89
127
104
98
126
105
102
125
105
104
124
104
108
121
105
112
116
104
113
113
101
107
112
99
103
113
97
98
114
96
94
118
98
92
117
97
90
117
96
89
116
95
86
110
91
85
102
86
82
98
82
76
98
80
72
102
80
65
58
71
87
60
76
92
64
81
95
67
84
99
73
86
102
75
90
107
76
94
113
78
95
113
83
93
110
93
95
111
97
98
114
96
101
120
95
102
123
90
105
128
86
109
135
87
108
133
98
106
129
107
107
129
119
104
118
122
106
111
121
102
109
117
100
109
118
100
109
123
102
103
132
105
100
135
105
100
131
104
100
127
103
100
125
103
102
122
103
103
122
103
104
123
103
103
124
101
96
124
99
94
126
99
92
131
100
88
137
103
80
146
105
73
142
104
76
133
100
79
128
99
82
124
98
89
119
100
94
118
100
97
116
100
109
107
104
120
103
104
124
97
100
119
96
97
114
100
95
108
101
93
101
104
92
98
105
92
96
105
92
93
104
91
91
102
89
89
96
86
86
90
81
83
85
76
75
82
71
69
