P3
60 40
255
14
6
3
18
9
4
19
9
4
19
10
5
20
11
4
20
11
6
20
11
6
21
11
6
22
13
8
22
13
8
22
12
8
24
12
8
23
14
9
26
14
10
27
15
9
28
14
8
29
15
9
33
18
10
35
18
9
40
20
8
45
22
9
48
25
13
44
21
8
43
21
7
45
23
10
42
21
10
41
20
10
37
18
9
44
21
10
41
19
8
41
19
8
44
21
10
37
18
9
41
20
10
42
21
10
45
23
10
43
21
7
44
21
8
48
25
13
45
22
9
40
20
8
35
18
9
33
18
10
29
15
9
28
14
8
27
15
9
26
14
10
23
14
9
24
12
8
22
12
8
22
13
8
22
13
8
21
11
6
20
11
6
20
11
6
20
11
4
19
10
5
19
9
4
18
9
4
14
6
3
20
11
5
22
13
7
25
15
10
25
16
10
25
15
10
26
15
9
28
16
9
30
18
10
29
17
11
29
16
10
28
16
9
27
15
9
28
14
10
30
16
10
33
17
10
33
18
10
34
18
9
38
20
10
41
21
9
46
24
12
74
53
45
100
75
67
100
75
68
110
85
79
103
81
75
96
72
65
119
90
81
110
82
75
76
57
52
49
27
17
49
27
17
76
57
52
110
82
75
119
90
81
96
72
65
103
81
75
110
85
79
100
75
68
100
75
67
74
53
45
46
24
12
41
21
9
38
20
10
34
18
9
33
18
10
33
17
10
30
16
10
28
14
10
27
15
9
28
16
9
29
16
10
29
17
11
30
18
10
28
16
9
26
15
9
25
15
10
25
16
10
25
15
10
22
13
7
20
11
5
24
15
11
29
19
15
30
19
12
32
19
11
32
20
11
33
19
11
35
21
13
36
21
11
38
21
13
40
23
13
40
23
13
37
21
12
34
19
12
36
20
11
40
22
11
43
23
12
42
22
10
44
23
10
73
51
44
120
88
77
129
93
80
122
86
72
127
93
79
138
102
89
141
106
95
138
105
94
134
103
95
138
103
93
141
108
100
127
100
93
127
100
93
141
108
100
138
103
93
134
103
95
138
105
94
141
106
95
138
102
89
127
93
79
122
86
72
129
93
80
120
88
77
73
51
44
44
23
10
42
22
10
43
23
12
40
22
11
36
20
11
34
19
12
37
21
12
40
23
13
40
23
13
38
21
13
36
21
11
35
21
13
33
19
11
32
20
11
32
19
11
30
19
12
29
19
15
24
15
11
29
18
14
35
22
14
36
23
14
38
23
15
37
23
13
41
24
14
43
25
15
47
27
15
49
28
16
50
27
15
50
27
14
50
28
15
49
28
15
49
28
15
52
28
14
54
29
12
60
31
13
73
47
36
128
92
77
115
77
60
98
62
46
81
50
38
80
52
40
101
69
57
131
96
86
124
91
81
116
86
74
136
102
92
138
104
93
120
89
79
120
89
79
138
104
93
136
102
92
116
86
74
124
91
81
131
96
86
101
69
57
80
52
40
81
50
38
98
62
46
115
77
60
128
92
77
73
47
36
60
31
13
54
29
12
52
28
14
49
28
15
49
28
15
50
28
15
50
27
14
50
27
15
49
28
16
47
27
15
43
25
15
41
24
14
37
23
13
38
23
15
36
23
14
35
22
14
29
18
14
38
24
17
40
25
16
46
29
19
48
30
21
48
30
18
51
31
18
55
32
18
60
34
19
63
35
17
65
36
18
63
35
16
60
33
17
58
32
16
57
31
13
59
31
12
59
31
13
71
38
18
120
84
70
124
86
71
118
83
68
121
83
66
111
74
57
95
57
41
114
76
58
126
87
71
128
92
77
115
80
67
123
92
82
121
87
74
87
56
44
87
56
44
121
87
74
123
92
82
115
80
67
128
92
77
126
87
71
114
76
58
95
57
41
111
74
57
121
83
66
118
83
68
124
86
71
120
84
70
71
38
18
59
31
13
59
31
12
57
31
13
58
32
16
60
33
17
63
35
16
65
36
18
63
35
17
60
34
19
55
32
18
51
31
18
48
30
18
48
30
21
46
29
19
40
25
16
38
24
17
48
33
24
59
40
28
66
43
30
71
46
33
71
45
30
74
47
32
73
45
28
74
43
25
75
42
22
78
45
21
82
45
21
79
44
19
74
41
18
72
40
17
69
37
15
70
38
17
75
39
18
139
105
92
140
103
88
138
101
83
128
88
68
123
82
61
125
82
60
129
87
64
130
89
70
118
79
59
127
84
63
109
70
52
133
99
84
113
75
58
113
75
58
133
99
84
109
70
52
127
84
63
118
79
59
130
89
70
129
87
64
125
82
60
123
82
61
128
88
68
138
101
83
140
103
88
139
105
92
75
39
18
70
38
17
69
37
15
72
40
17
74
41
18
79
44
19
82
45
21
78
45
21
75
42
22
74
43
25
73
45
28
74
47
32
71
45
30
71
46
33
66
43
30
59
40
28
48
33
24
49
39
37
57
45
42
75
57
48
90
64
51
96
66
52
95
65
51
82
52
34
87
54
35
93
57
38
98
62
42
99
62
42
97
59
37
92
54
31
91
55
34
88
52
28
81
45
22
78
42
18
123
88
72
141
102
85
121
81
59
135
92
70
127
85
62
128
83
59
130
89
66
139
95
72
130
85
61
126
85
65
133
91
71
134
94
74
100
64
46
100
64
46
134
94
74
133
91
71
126
85
65
130
85
61
139
95
72
130
89
66
128
83
59
127
85
62
135
92
70
121
81
59
141
102
85
123
88
72
78
42
18
81
45
22
88
52
28
91
55
34
92
54
31
97
59
37
99
62
42
98
62
42
93
57
38
87
54
35
82
52
34
95
65
51
96
66
52
90
64
51
75
57
48
57
45
42
49
39
37
73
51
39
86
63
51
74
51
39
62
39
26
73
48
32
83
54
38
109
75
59
102
68
50
92
57
38
89
52
30
106
68
46
119
79
59
123
83
63
125
86
68
124
86
69
123
87
67
123
87
70
124
86
67
138
99
81
123
86
69
135
100
84
147
112
96
137
94
73
136
93
66
141
98
75
139
93
65
137
93
66
147
99
72
145
99
72
130
92
72
130
92
72
145
99
72
147
99
72
137
93
66
139
93
65
141
98
75
136
93
66
137
94
73
147
112
96
135
100
84
123
86
69
138
99
81
124
86
67
123
87
70
123
87
67
124
86
69
125
86
68
123
83
63
119
79
59
106
68
46
89
52
30
92
57
38
102
68
50
109
75
59
83
54
38
73
48
32
62
39
26
74
51
39
86
63
51
73
51
39
72
49
38
75
50
37
83
56
43
84
58
42
80
53
37
84
54
35
87
55
37
91
60
42
87
53
33
111
75
56
99
62
43
102
65
42
108
69
46
101
62
40
101
62
40
110
71
51
120
83
64
124
89
69
121
83
64
128
98
87
151
114
95
129
88
63
134
91
65
138
93
67
136
94
70
131
90
69
138
94
68
140
96
71
136
91
62
140
100
79
140
100
79
136
91
62
140
96
71
138
94
68
131
90
69
136
94
70
138
93
67
134
91
65
129
88
63
151
114
95
128
98
87
121
83
64
124
89
69
120
83
64
110
71
51
101
62
40
101
62
40
108
69
46
102
65
42
99
62
43
111
75
56
87
53
33
91
60
42
87
55
37
84
54
35
80
53
37
84
58
42
83
56
43
75
50
37
72
49
38
108
74
57
100
67
48
97
63
43
97
63
40
96
62
40
104
69
50
107
72
52
108
71
50
104
68
46
110
72
50
115
75
52
108
70
48
115
74
49
129
89
66
133
93
70
133
92
69
125
84
61
136
95
70
132
92
71
152
113
88
132
80
42
142
92
56
151
94
49
153
98
52
170
114
63
175
113
53
166
102
41
162
108
60
163
103
49
162
108
64
162
108
64
163
103
49
162
108
60
166
102
41
175
113
53
170
114
63
153
98
52
151
94
49
142
92
56
132
80
42
152
113
88
132
92
71
136
95
70
125
84
61
133
92
69
133
93
70
129
89
66
115
74
49
108
70
48
115
75
52
110
72
50
104
68
46
108
71
50
107
72
52
104
69
50
96
62
40
97
63
40
97
63
43
100
67
48
108
74
57
101
70
54
103
71
55
99
68
53
96
65
49
99
65
46
106
70
46
113
73
49
116
75
50
104
66
43
109
70
47
123
80
54
118
78
53
118
77
53
144
99
73
135
87
54
136
94
67
145
99
68
150
102
66
155
110
79
150
97
56
156
106
62
158
104
57
164
104
50
149
92
45
159
100
51
167
102
38
165
105
50
178
117
55
178
116
54
175
112
47
175
112
47
178
116
54
178
117
55
165
105
50
167
102
38
159
100
51
149
92
45
164
104
50
158
104
57
156
106
62
150
97
56
155
110
79
150
102
66
145
99
68
136
94
67
135
87
54
144
99
73
118
77
53
118
78
53
123
80
54
109
70
47
104
66
43
116
75
50
113
73
49
106
70
46
99
65
46
96
65
49
99
68
53
103
71
55
101
70
54
82
66
61
91
72
66
102
79
69
103
76
65
90
66
56
77
55
43
84
58
45
81
55
42
79
55
42
81
54
41
95
63
44
105
74
56
116
88
77
124
94
80
122
89
72
123
92
76
116
86
75
134
103
84
136
101
83
134
93
70
126
85
59
140
91
56
143
89
47
149
95
55
155
99
51
140
86
39
157
104
61
160
99
44
175
110
48
176
117
64
176
117
64
175
110
48
160
99
44
157
104
61
140
86
39
155
99
51
149
95
55
143
89
47
140
91
56
126
85
59
134
93
70
136
101
83
134
103
84
116
86
75
123
92
76
122
89
72
124
94
80
116
88
77
105
74
56
95
63
44
81
54
41
79
55
42
81
55
42
84
58
45
77
55
43
90
66
56
103
76
65
102
79
69
91
72
66
82
66
61
87
70
67
81
67
63
69
53
49
63
50
47
74
60
56
83
65
59
86
68
61
88
66
52
82
58
46
84
59
44
89
64
50
87
61
47
91
65
51
94
66
51
92
67
54
90
65
52
106
76
62
107
82
74
113
85
76
104
81
72
106
82
71
98
78
68
87
68
61
93
75
70
104
86
82
100
82
76
101
80
72
100
81
73
102
80
71
109
87
78
109
87
78
102
80
71
100
81
73
101
80
72
100
82
76
104
86
82
93
75
70
87
68
61
98
78
68
106
82
71
104
81
72
113
85
76
107
82
74
106
76
62
90
65
52
92
67
54
94
66
51
91
65
51
87
61
47
89
64
50
84
59
44
82
58
46
88
66
52
86
68
61
83
65
59
74
60
56
63
50
47
69
53
49
81
67
63
87
70
67
91
72
64
79
62
53
77
58
48
85
61
45
96
66
48
97
66
46
95
65
46
93
62
41
106
73
51
97
65
44
95
63
43
97
65
44
107
71
50
100
64
38
98
63
39
100
64
39
106
71
48
90
56
35
72
47
32
54
35
24
50
33
26
55
39
32
40
27
22
60
45
39
90
69
60
89
65
53
94
69
57
91
66
57
89
66
58
87
61
50
87
61
50
89
66
58
91
66
57
94
69
57
89
65
53
90
69
60
60
45
39
40
27
22
55
39
32
50
33
26
54
35
24
72
47
32
90
56
35
106
71
48
100
64
39
98
63
39
100
64
38
107
71
50
97
65
44
95
63
43
97
65
44
106
73
51
93
62
41
95
65
46
97
66
46
96
66
48
85
61
45
77
58
48
79
62
53
91
72
64
79
64
58
74
61
57
81
65
61
69
51
43
79
58
44
83
58
40
93
65
46
108
76
52
112
76
49
110
75
48
108
73
47
98
65
43
99
66
42
107
73
50
104
67
43
109
74
49
100
67
43
101
68
44
106
72
46
114
79
51
96
62
37
111
70
36
138
86
40
135
83
40
150
91
39
145
92
41
140
85
31
128
80
36
113
70
38
94
58
34
94
58
34
113
70
38
128
80
36
140
85
31
145
92
41
150
91
39
135
83
40
138
86
40
111
70
36
96
62
37
114
79
51
106
72
46
101
68
44
100
67
43
109
74
49
104
67
43
107
73
50
99
66
42
98
65
43
108
73
47
110
75
48
112
76
49
108
76
52
93
65
46
83
58
40
79
58
44
69
51
43
81
65
61
74
61
57
79
64
58
79
58
47
97
68
51
103
74
54
103
75
56
108
74
52
115
80
53
116
79
52
120
83
53
118
80
50
123
85
57
136
94
62
138
92
55
145
96
56
146
98
56
141
94
54
140
94
58
143
96
56
146
96
54
131
84
44
144
91
44
146
91
43
153
98
48
146
93
45
147
93
50
137
82
37
139
84
39
142
85
39
135
84
44
132
80
41
117
72
41
117
72
41
132
80
41
135
84
44
142
85
39
139
84
39
137
82
37
147
93
50
146
93
45
153
98
48
146
91
43
144
91
44
131
84
44
146
96
54
143
96
56
140
94
58
141
94
54
146
98
56
145
96
56
138
92
55
136
94
62
123
85
57
118
80
50
120
83
53
116
79
52
115
80
53
108
74
52
103
75
56
103
74
54
97
68
51
79
58
47
112
78
55
113
79
56
117
83
59
115
81
58
109
78
55
118
83
58
119
83
57
123
87
63
126
91
65
120
84
60
126
89
62
121
85
62
113
78
55
113
77
52
109
76
51
105
73
51
100
69
49
98
68
50
90
57
35
91
61
42
94
64
45
77
54
43
84
64
54
75
54
45
77
50
35
70
44
28
77
55
43
69
52
46
55
36
25
58
36
23
58
36
23
55
36
25
69
52
46
77
55
43
70
44
28
77
50
35
75
54
45
84
64
54
77
54
43
94
64
45
91
61
42
90
57
35
98
68
50
100
69
49
105
73
51
109
76
51
113
77
52
113
78
55
121
85
62
126
89
62
120
84
60
126
91
65
123
87
63
119
83
57
118
83
58
109
78
55
115
81
58
117
83
59
113
79
56
112
78
55
94
66
49
88
62
48
83
61
50
76
62
58
71
63
64
80
69
67
89
76
76
85
72
71
81
68
66
86
72
72
87
73
71
88
74
72
88
74
71
92
76
70
96
78
72
96
77
70
105
82
70
104
82
70
105
80
67
112
87
73
121
94
75
126
95
76
129
96
72
137
101
77
132
97
70
137
97
64
137
97
68
144
103
68
139
98
64
139
99
63
139
99
63
139
98
64
144
103
68
137
97
68
137
97
64
132
97
70
137
101
77
129
96
72
126
95
76
121
94
75
112
87
73
105
80
67
104
82
70
105
82
70
96
77
70
96
78
72
92
76
70
88
74
71
88
74
72
87
73
71
86
72
72
81
68
66
85
72
71
89
76
76
80
69
67
71
63
64
76
62
58
83
61
50
88
62
48
94
66
49
86
66
59
83
66
59
85
71
68
88
77
77
101
86
82
98
82
76
99
80
74
97
79
72
100
81
72
107
85
76
108
84
73
118
90
77
123
94
79
127
96
78
137
103
83
141
106
77
141
102
74
145
109
81
148
107
76
147
107
77
149
108
77
151
110
78
153
110
78
157
111
76
156
110
70
158
108
61
163
110
63
155
105
64
146
98
62
150
102
66
150
102
66
146
98
62
155
105
64
163
110
63
158
108
61
156
110
70
157
111
76
153
110
78
151
110
78
149
108
77
147
107
77
148
107
76
145
109
81
141
102
74
141
106
77
137
103
83
127
96
78
123
94
79
118
90
77
108
84
73
107
85
76
100
81
72
97
79
72
99
80
74
98
82
76
101
86
82
88
77
77
85
71
68
83
66
59
86
66
59
107
79
65
112
83
65
112
84
65
111
85
67
122
90
72
122
91
69
115
85
66
117
86
68
125
90
65
134
95
66
130
94
65
145
103
66
146
103
63
148
104
64
151
109
66
146
104
64
149
109
72
153
112
77
152
106
64
161
111
61
175
120
60
178
122
63
183
122
59
187
123
54
192
123
50
199
127
46
211
131
31
216
136
32
224
148
39
215
137
39
215
137
39
224
148
39
216
136
32
211
131
31
199
127
46
192
123
50
187
123
54
183
122
59
178
122
63
175
120
60
161
111
61
152
106
64
153
112
77
149
109
72
146
104
64
151
109
66
148
104
64
146
103
63
145
103
66
130
94
65
134
95
66
125
90
65
117
86
68
115
85
66
122
91
69
122
90
72
111
85
67
112
84
65
112
83
65
107
79
65
107
79
65
112
83
65
112
84
65
111
85
67
122
90
72
122
91
69
115
85
66
117
86
68
125
90
65
134
95
66
130
94
65
145
103
66
146
103
63
148
104
64
151
109
66
146
104
64
149
109
72
153
112
77
152
106
64
161
111
61
175
120
60
178
122
63
183
122
59
187
123
54
192
123
50
199
127
46
211
131
31
216
136
32
224
148
39
215
137
39
215
137
39
224
148
39
216
136
32
211
131
31
199
127
46
192
123
50
187
123
54
183
122
59
178
122
63
175
120
60
161
111
61
152
106
64
153
112
77
149
109
72
146
104
64
151
109
66
148
104
64
146
103
63
145
103
66
130
94
65
134
95
66
125
90
65
117
86
68
115
85
66
122
91
69
122
90
72
111
85
67
112
84
65
112
83
65
107
79
65
86
66
59
83
66
59
85
71
68
88
77
77
101
86
82
98
82
76
99
80
74
97
79
72
100
81
72
107
85
76
108
84
73
118
90
77
123
94
79
127
96
78
137
103
83
141
106
77
141
102
74
145
109
81
148
107
76
147
107
77
149
108
77
151
110
78
153
110
78
157
111
76
156
110
70
158
108
61
163
110
63
155
105
64
146
98
62
150
102
66
150
102
66
146
98
62
155
105
64
163
110
63
158
108
61
156
110
70
157
111
76
153
110
78
151
110
78
149
108
77
147
107
77
148
107
76
145
109
81
141
102
74
141
106
77
137
103
83
127
96
78
123
94
79
118
90
77
108
84
73
107
85
76
100
81
72
97
79
72
99
80
74
98
82
76
101
86
82
88
77
77
85
71
68
83
66
59
86
66
59
94
66
49
88
62
48
83
61
50
76
62
58
71
63
64
80
69
67
89
76
76
85
72
71
81
68
66
86
72
72
87
73
71
88
74
72
88
74
71
92
76
70
96
78
72
96
77
70
105
82
70
104
82
70
105
80
67
112
87
73
121
94
75
126
95
76
129
96
72
137
101
77
132
97
70
137
97
64
137
97
68
144
103
68
139
98
64
139
99
63
139
99
63
139
98
64
144
103
68
137
97
68
137
97
64
132
97
70
137
101
77
129
96
72
126
95
76
121
94
75
112
87
73
105
80
67
104
82
70
105
82
70
96
77
70
96
78
72
92
76
70
88
74
71
88
74
72
87
73
71
86
72
72
81
68
66
85
72
71
89
76
76
80
69
67
71
63
64
76
62
58
83
61
50
88
62
48
94
66
49
112
78
55
113
79
56
117
83
59
115
81
58
109
78
55
118
83
58
119
83
57
123
87
63
126
91
65
120
84
60
126
89
62
121
85
62
113
78
55
113
77
52
109
76
51
105
73
51
100
69
49
98
68
50
90
57
35
91
61
42
94
64
45
77
54
43
84
64
54
75
54
45
77
50
35
70
44
28
77
55
43
69
52
46
55
36
25
58
36
23
58
36
23
55
36
25
69
52
46
77
55
43
70
44
28
77
50
35
75
54
45
84
64
54
77
54
43
94
64
45
91
61
42
90
57
35
98
68
50
100
69
49
105
73
51
109
76
51
113
77
52
113
78
55
121
85
62
126
89
62
120
84
60
126
91
65
123
87
63
119
83
57
118
83
58
109
78
55
115
81
58
117
83
59
113
79
56
112
78
55
79
58
47
97
68
51
103
74
54
103
75
56
108
74
52
115
80
53
116
79
52
120
83
53
118
80
50
123
85
57
136
94
62
138
92
55
145
96
56
146
98
56
141
94
54
140
94
58
143
96
56
146
96
54
131
84
44
144
91
44
146
91
43
153
98
48
146
93
45
147
93
50
137
82
37
139
84
39
142
85
39
135
84
44
132
80
41
117
72
41
117
72
41
132
80
41
135
84
44
142
85
39
139
84
39
137
82
37
147
93
50
146
93
45
153
98
48
146
91
43
144
91
44
131
84
44
146
96
54
143
96
56
140
94
58
141
94
54
146
98
56
145
96
56
138
92
55
136
94
62
123
85
57
118
80
50
120
83
53
116
79
52
115
80
53
108
74
52
103
75
56
103
74
54
97
68
51
79
58
47
79
64
58
74
61
57
81
65
61
69
51
43
79
58
44
83
58
40
93
65
46
108
76
52
112
76
49
110
75
48
108
73
47
98
65
43
99
66
42
107
73
50
104
67
43
109
74
49
100
67
43
101
68
44
106
72
46
114
79
51
96
62
37
111
70
36
138
86
40
135
83
40
150
91
39
145
92
41
140
85
31
128
80
36
113
70
38
94
58
34
94
58
34
113
70
38
128
80
36
140
85
31
145
92
41
150
91
39
135
83
40
138
86
40
111
70
36
96
62
37
114
79
51
106
72
46
101
68
44
100
67
43
109
74
49
104
67
43
107
73
50
99
66
42
98
65
43
108
73
47
110
75
48
112
76
49
108
76
52
93
65
46
83
58
40
79
58
44
69
51
43
81
65
61
74
61
57
79
64
58
91
72
64
79
62
53
77
58
48
85
61
45
96
66
48
97
66
46
95
65
46
93
62
41
106
73
51
97
65
44
95
63
43
97
65
44
107
71
50
100
64
38
98
63
39
100
64
39
106
71
48
90
56
35
72
47
32
54
35
24
50
33
26
55
39
32
40
27
22
60
45
39
90
69
60
89
65
53
94
69
57
91
66
57
89
66
58
87
61
50
87
61
50
89
66
58
91
66
57
94
69
57
89
65
53
90
69
60
60
45
39
40
27
22
55
39
32
50
33
26
54
35
24
72
47
32
90
56
35
106
71
48
100
64
39
98
63
39
100
64
38
107
71
50
97
65
44
95
63
43
97
65
44
106
73
51
93
62
41
95
65
46
97
66
46
96
66
48
85
61
45
77
58
48
79
62
53
91
72
64
87
70
67
81
67
63
69
53
49
63
50
47
74
60
56
83
65
59
86
68
61
88
66
52
82
58
46
84
59
44
89
64
50
87
61
47
91
65
51
94
66
51
92
67
54
90
65
52
106
76
62
107
82
74
113
85
76
104
81
72
106
82
71
98
78
68
87
68
61
93
75
70
104
86
82
100
82
76
101
80
72
100
81
73
102
80
71
109
87
78
109
87
78
102
80
71
100
81
73
101
80
72
100
82
76
104
86
82
93
75
70
87
68
61
98
78
68
106
82
71
104
81
72
113
85
76
107
82
74
106
76
62
90
65
52
92
67
54
94
66
51
91
65
51
87
61
47
89
64
50
84
59
44
82
58
46
88
66
52
86
68
61
83
65
59
74
60
56
63
50
47
69
53
49
81
67
63
87
70
67
82
66
61
91
72
66
102
79
69
103
76
65
90
66
56
77
55
43
84
58
45
81
55
42
79
55
42
81
54
41
95
63
44
105
74
56
116
88
77
124
94
80
122
89
72
123
92
76
116
86
75
134
103
84
136
101
83
134
93
70
126
85
59
140
91
56
143
89
47
149
95
55
155
99
51
140
86
39
157
104
61
160
99
44
175
110
48
176
117
64
176
117
64
175
110
48
160
99
44
157
104
61
140
86
39
155
99
51
149
95
55
143
89
47
140
91
56
126
85
59
134
93
70
136
101
83
134
103
84
116
86
75
123
92
76
122
89
72
124
94
80
116
88
77
105
74
56
95
63
44
81
54
41
79
55
42
81
55
42
84
58
45
77
55
43
90
66
56
103
76
65
102
79
69
91
72
66
82
66
61
101
70
54
103
71
55
99
68
53
96
65
49
99
65
46
106
70
46
113
73
49
116
75
50
104
66
43
109
70
47
123
80
54
118
78
53
118
77
53
144
99
73
135
87
54
136
94
67
145
99
68
150
102
66
155
110
79
150
97
56
156
106
62
158
104
57
164
104
50
149
92
45
159
100
51
167
102
38
165
105
50
178
117
55
178
116
54
175
112
47
175
112
47
178
116
54
178
117
55
165
105
50
167
102
38
159
100
51
149
92
45
164
104
50
158
104
57
156
106
62
150
97
56
155
110
79
150
102
66
145
99
68
136
94
67
135
87
54
144
99
73
118
77
53
118
78
53
123
80
54
109
70
47
104
66
43
116
75
50
113
73
49
106
70
46
99
65
46
96
65
49
99
68
53
103
71
55
101
70
54
108
74
57
100
67
48
97
63
43
97
63
40
96
62
40
104
69
50
107
72
52
108
71
50
104
68
46
110
72
50
115
75
52
108
70
48
115
74
49
129
89
66
133
93
70
133
92
69
125
84
61
136
95
70
132
92
71
152
113
88
132
80
42
142
92
56
151
94
49
153
98
52
170
114
63
175
113
53
166
102
41
162
108
60
163
103
49
162
108
64
162
108
64
163
103
49
162
108
60
166
102
41
175
113
53
170
114
63
153
98
52
151
94
49
142
92
56
132
80
42
152
113
88
132
92
71
136
95
70
125
84
61
133
92
69
133
93
70
129
89
66
115
74
49
108
70
48
115
75
52
110
72
50
104
68
46
108
71
50
107
72
52
104
69
50
96
62
40
97
63
40
97
63
43
100
67
48
108
74
57
72
49
38
75
50
37
83
56
43
84
58
42
80
53
37
84
54
35
87
55
37
91
60
42
87
53
33
111
75
56
99
62
43
102
65
42
108
69
46
101
62
40
101
62
40
110
71
51
120
83
64
124
89
69
121
83
64
128
98
87
151
114
95
129
88
63
134
91
65
138
93
67
136
94
70
131
90
69
138
94
68
140
96
71
136
91
62
140
100
79
140
100
79
136
91
62
140
96
71
138
94
68
131
90
69
136
94
70
138
93
67
134
91
65
129
88
63
151
114
95
128
98
87
121
83
64
124
89
69
120
83
64
110
71
51
101
62
40
101
62
40
108
69
46
102
65
42
99
62
43
111
75
56
87
53
33
91
60
42
87
55
37
84
54
35
80
53
37
84
58
42
83
56
43
75
50
37
72
49
38
73
51
39
86
63
51
74
51
39
62
39
26
73
48
32
83
54
38
109
75
59
102
68
50
92
57
38
89
52
30
106
68
46
119
79
59
123
83
63
125
86
68
124
86
69
123
87
67
123
87
70
124
86
67
138
99
81
123
86
69
135
100
84
147
112
96
137
94
73
136
93
66
141
98
75
139
93
65
137
93
66
147
99
72
145
99
72
130
92
72
130
92
72
145
99
72
147
99
72
137
93
66
139
93
65
141
98
75
136
93
66
137
94
73
147
112
96
135
100
84
123
86
69
138
99
81
124
86
67
123
87
70
123
87
67
124
86
69
125
86
68
123
83
63
119
79
59
106
68
46
89
52
30
92
57
38
102
68
50
109
75
59
83
54
38
73
48
32
62
39
26
74
51
39
86
63
51
73
51
39
49
39
37
57
45
42
75
57
48
90
64
51
96
66
52
95
65
51
82
52
34
87
54
35
93
57
38
98
62
42
99
62
42
97
59
37
92
54
31
91
55
34
88
52
28
81
45
22
78
42
18
123
88
72
141
102
85
121
81
59
135
92
70
127
85
62
128
83
59
130
89
66
139
95
72
130
85
61
126
85
65
133
91
71
134
94
74
100
64
46
100
64
46
134
94
74
133
91
71
126
85
65
130
85
61
139
95
72
130
89
66
128
83
59
127
85
62
135
92
70
121
81
59
141
102
85
123
88
72
78
42
18
81
45
22
88
52
28
91
55
34
92
54
31
97
59
37
99
62
42
98
62
42
93
57
38
87
54
35
82
52
34
95
65
51
96
66
52
90
64
51
75
57
48
57
45
42
49
39
37
48
33
24
59
40
28
66
43
30
71
46
33
71
45
30
74
47
32
73
45
28
74
43
25
75
42
22
78
45
21
82
45
21
79
44
19
74
41
18
72
40
17
69
37
15
70
38
17
75
39
18
139
105
92
140
103
88
138
101
83
128
88
68
123
82
61
125
82
60
129
87
64
130
89
70
118
79
59
127
84
63
109
70
52
133
99
84
113
75
58
113
75
58
133
99
84
109
70
52
127
84
63
118
79
59
130
89
70
129
87
64
125
82
60
123
82
61
128
88
68
138
101
83
140
103
88
139
105
92
75
39
18
70
38
17
69
37
15
72
40
17
74
41
18
79
44
19
82
45
21
78
45
21
75
42
22
74
43
25
73
45
28
74
47
32
71
45
30
71
46
33
66
43
30
59
40
28
48
33
24
38
24
17
40
25
16
46
29
19
48
30
21
48
30
18
51
31
18
55
32
18
60
34
19
63
35
17
65
36
18
63
35
16
60
33
17
58
32
16
57
31
13
59
31
12
59
31
13
71
38
18
120
84
70
124
86
71
118
83
68
121
83
66
111
74
57
95
57
41
114
76
58
126
87
71
128
92
77
115
80
67
123
92
82
121
87
74
87
56
44
87
56
44
121
87
74
123
92
82
115
80
67
128
92
77
126
87
71
114
76
58
95
57
41
111
74
57
121
83
66
118
83
68
124
86
71
120
84
70
71
38
18
59
31
13
59
31
12
57
31
13
58
32
16
60
33
17
63
35
16
65
36
18
63
35
17
60
34
19
55
32
18
51
31
18
48
30
18
48
30
21
46
29
19
40
25
16
38
24
17
29
18
14
35
22
14
36
23
14
38
23
15
37
23
13
41
24
14
43
25
15
47
27
15
49
28
16
50
27
15
50
27
14
50
28
15
49
28
15
49
28
15
52
28
14
54
29
12
60
31
13
73
47
36
128
92
77
115
77
60
98
62
46
81
50
38
80
52
40
101
69
57
131
96
86
124
91
81
116
86
74
136
102
92
138
104
93
120
89
79
120
89
79
138
104
93
136
102
92
116
86
74
124
91
81
131
96
86
101
69
57
80
52
40
81
50
38
98
62
46
115
77
60
128
92
77
73
47
36
60
31
13
54
29
12
52
28
14
49
28
15
49
28
15
50
28
15
50
27
14
50
27
15
49
28
16
47
27
15
43
25
15
41
24
14
37
23
13
38
23
15
36
23
14
35
22
14
29
18
14
24
15
11
29
19
15
30
19
12
32
19
11
32
20
11
33
19
11
35
21
13
36
21
11
38
21
13
40
23
13
40
23
13
37
21
12
34
19
12
36
20
11
40
22
11
43
23
12
42
22
10
44
23
10
73
51
44
120
88
77
129
93
80
122
86
72
127
93
79
138
102
89
141
106
95
138
105
94
134
103
95
138
103
93
141
108
100
127
100
93
127
100
93
141
108
100
138
103
93
134
103
95
138
105
94
141
106
95
138
102
89
127
93
79
122
86
72
129
93
80
120
88
77
73
51
44
44
23
10
42
22
10
43
23
12
40
22
11
36
20
11
34
19
12
37
21
12
40
23
13
40
23
13
38
21
13
36
21
11
35
21
13
33
19
11
32
20
11
32
19
11
30
19
12
29
19
15
24
15
11
20
11
5
22
13
7
25
15
10
25
16
10
25
15
10
26
15
9
28
16
9
30
18
10
29
17
11
29
16
10
28
16
9
27
15
9
28
14
10
30
16
10
33
17
10
33
18
10
34
18
9
38
20
10
41
21
9
46
24
12
74
53
45
100
75
67
100
75
68
110
85
79
103
81
75
96
72
65
119
90
81
110
82
75
76
57
52
49
27
17
49
27
17
76
57
52
110
82
75
119
90
81
96
72
65
103
81
75
110
85
79
100
75
68
100
75
67
74
53
45
46
24
12
41
21
9
38
20
10
34
18
9
33
18
10
33
17
10
30
16
10
28
14
10
27
15
9
28
16
9
29
16
10
29
17
11
30
18
10
28
16
9
26
15
9
25
15
10
25
16
10
25
15
10
22
13
7
20
11
5
14
6
3
18
9
4
19
9
4
19
10
5
20
11
4
20
11
6
20
11
6
21
11
6
22
13
8
22
13
8
22
12
8
24
12
8
23
14
9
26
14
10
27
15
9
28
14
8
29
15
9
33
18
10
35
18
9
40
20
8
45
22
9
48
25
13
44
21
8
43
21
7
45
23
10
42
21
10
41
20
10
37
18
9
44
21
10
41
19
8
41
19
8
44
21
10
37
18
9
41
20
10
42
21
10
45
23
10
43
21
7
44
21
8
48
25
13
45
22
9
40
20
8
35
18
9
33
18
10
29
15
9
28
14
8
27
15
9
26
14
10
23
14
9
24
12
8
22
12
8
22
13
8
22
13
8
21
11
6
20
11
6
20
11
6
20
11
4
19
10
5
19
9
4
18
9
4
14
6
3
